<svg version="1.1" xmlns="http://www.w3.org/2000/svg" xmlns:xlink="http://www.w3.org/1999/xlink" width="516.3916015625" height="323"><defs/><g><text fill="#eeeeee" stroke="none" font-family="Arial" font-size="24px" font-style="normal" font-weight="normal" text-decoration="none" x="0" y="0">UNREGISTERED</text><text fill="#eeeeee" stroke="none" font-family="Arial" font-size="24px" font-style="normal" font-weight="normal" text-decoration="none" x="0" y="30">UNREGISTERED</text><text fill="#eeeeee" stroke="none" font-family="Arial" font-size="24px" font-style="normal" font-weight="normal" text-decoration="none" x="0" y="60">UNREGISTERED</text><text fill="#eeeeee" stroke="none" font-family="Arial" font-size="24px" font-style="normal" font-weight="normal" text-decoration="none" x="0" y="90">UNREGISTERED</text><text fill="#eeeeee" stroke="none" font-family="Arial" font-size="24px" font-style="normal" font-weight="normal" text-decoration="none" x="0" y="120">UNREGISTERED</text><text fill="#eeeeee" stroke="none" font-family="Arial" font-size="24px" font-style="normal" font-weight="normal" text-decoration="none" x="0" y="150">UNREGISTERED</text><text fill="#eeeeee" stroke="none" font-family="Arial" font-size="24px" font-style="normal" font-weight="normal" text-decoration="none" x="0" y="180">UNREGISTERED</text><text fill="#eeeeee" stroke="none" font-family="Arial" font-size="24px" font-style="normal" font-weight="normal" text-decoration="none" x="0" y="210">UNREGISTERED</text><text fill="#eeeeee" stroke="none" font-family="Arial" font-size="24px" font-style="normal" font-weight="normal" text-decoration="none" x="0" y="240">UNREGISTERED</text><text fill="#eeeeee" stroke="none" font-family="Arial" font-size="24px" font-style="normal" font-weight="normal" text-decoration="none" x="0" y="270">UNREGISTERED</text><text fill="#eeeeee" stroke="none" font-family="Arial" font-size="24px" font-style="normal" font-weight="normal" text-decoration="none" x="0" y="300">UNREGISTERED</text><text fill="#eeeeee" stroke="none" font-family="Arial" font-size="24px" font-style="normal" font-weight="normal" text-decoration="none" x="200" y="0">UNREGISTERED</text><text fill="#eeeeee" stroke="none" font-family="Arial" font-size="24px" font-style="normal" font-weight="normal" text-decoration="none" x="200" y="30">UNREGISTERED</text><text fill="#eeeeee" stroke="none" font-family="Arial" font-size="24px" font-style="normal" font-weight="normal" text-decoration="none" x="200" y="60">UNREGISTERED</text><text fill="#eeeeee" stroke="none" font-family="Arial" font-size="24px" font-style="normal" font-weight="normal" text-decoration="none" x="200" y="90">UNREGISTERED</text><text fill="#eeeeee" stroke="none" font-family="Arial" font-size="24px" font-style="normal" font-weight="normal" text-decoration="none" x="200" y="120">UNREGISTERED</text><text fill="#eeeeee" stroke="none" font-family="Arial" font-size="24px" font-style="normal" font-weight="normal" text-decoration="none" x="200" y="150">UNREGISTERED</text><text fill="#eeeeee" stroke="none" font-family="Arial" font-size="24px" font-style="normal" font-weight="normal" text-decoration="none" x="200" y="180">UNREGISTERED</text><text fill="#eeeeee" stroke="none" font-family="Arial" font-size="24px" font-style="normal" font-weight="normal" text-decoration="none" x="200" y="210">UNREGISTERED</text><text fill="#eeeeee" stroke="none" font-family="Arial" font-size="24px" font-style="normal" font-weight="normal" text-decoration="none" x="200" y="240">UNREGISTERED</text><text fill="#eeeeee" stroke="none" font-family="Arial" font-size="24px" font-style="normal" font-weight="normal" text-decoration="none" x="200" y="270">UNREGISTERED</text><text fill="#eeeeee" stroke="none" font-family="Arial" font-size="24px" font-style="normal" font-weight="normal" text-decoration="none" x="200" y="300">UNREGISTERED</text><text fill="#eeeeee" stroke="none" font-family="Arial" font-size="24px" font-style="normal" font-weight="normal" text-decoration="none" x="400" y="0">UNREGISTERED</text><text fill="#eeeeee" stroke="none" font-family="Arial" font-size="24px" font-style="normal" font-weight="normal" text-decoration="none" x="400" y="30">UNREGISTERED</text><text fill="#eeeeee" stroke="none" font-family="Arial" font-size="24px" font-style="normal" font-weight="normal" text-decoration="none" x="400" y="60">UNREGISTERED</text><text fill="#eeeeee" stroke="none" font-family="Arial" font-size="24px" font-style="normal" font-weight="normal" text-decoration="none" x="400" y="90">UNREGISTERED</text><text fill="#eeeeee" stroke="none" font-family="Arial" font-size="24px" font-style="normal" font-weight="normal" text-decoration="none" x="400" y="120">UNREGISTERED</text><text fill="#eeeeee" stroke="none" font-family="Arial" font-size="24px" font-style="normal" font-weight="normal" text-decoration="none" x="400" y="150">UNREGISTERED</text><text fill="#eeeeee" stroke="none" font-family="Arial" font-size="24px" font-style="normal" font-weight="normal" text-decoration="none" x="400" y="180">UNREGISTERED</text><text fill="#eeeeee" stroke="none" font-family="Arial" font-size="24px" font-style="normal" font-weight="normal" text-decoration="none" x="400" y="210">UNREGISTERED</text><text fill="#eeeeee" stroke="none" font-family="Arial" font-size="24px" font-style="normal" font-weight="normal" text-decoration="none" x="400" y="240">UNREGISTERED</text><text fill="#eeeeee" stroke="none" font-family="Arial" font-size="24px" font-style="normal" font-weight="normal" text-decoration="none" x="400" y="270">UNREGISTERED</text><text fill="#eeeeee" stroke="none" font-family="Arial" font-size="24px" font-style="normal" font-weight="normal" text-decoration="none" x="400" y="300">UNREGISTERED</text><g transform="translate(-102,-70) scale(1,1)"><rect fill="#C0C0C0" stroke="none" x="494" y="87" width="121.3916015625" height="102" opacity="0.2"/></g><g transform="translate(-102,-70) scale(1,1)"><rect fill="#ffffff" stroke="none" x="487" y="80" width="121.3916015625" height="102"/></g><g transform="translate(-102,-70) scale(1,1)"><path fill="none" stroke="#000000" d="M 487 80 L 608.3916015625 80 L 608.3916015625 182 L 487 182 L 487 80 Z Z" stroke-miterlimit="10"/></g><g transform="translate(-102,-70) scale(1,1)"><path fill="none" stroke="#000000" d="M 487 105 L 608.3916015625 105" stroke-miterlimit="10"/></g><g transform="translate(-102,-70) scale(1,1)"><path fill="none" stroke="#000000" d="M 487 173 L 608.3916015625 173" stroke-miterlimit="10"/></g><g transform="translate(-102,-70) scale(1,1)"><g><path fill="none" stroke="none"/><text fill="#000000" stroke="none" font-family="Arial" font-size="13px" font-style="normal" font-weight="bold" text-decoration="none" x="513.005859375" y="99.5">Contentieux</text></g></g><g transform="translate(-102,-70) scale(1,1)"><g><path fill="none" stroke="none"/><text fill="#000000" stroke="none" font-family="Arial" font-size="13px" font-style="normal" font-weight="normal" text-decoration="none" x="492" y="122.5">+idContentieux</text></g></g><g transform="translate(-102,-70) scale(1,1)"><g><path fill="none" stroke="none"/><text fill="#000000" stroke="none" font-family="Arial" font-size="13px" font-style="normal" font-weight="normal" text-decoration="none" x="492" y="137.5">+motif</text></g></g><g transform="translate(-102,-70) scale(1,1)"><g><path fill="none" stroke="none"/><text fill="#000000" stroke="none" font-family="Arial" font-size="13px" font-style="normal" font-weight="normal" text-decoration="none" x="492" y="152.5">+date</text></g></g><g transform="translate(-102,-70) scale(1,1)"><g><path fill="none" stroke="none"/><text fill="#000000" stroke="none" font-family="Arial" font-size="13px" font-style="normal" font-weight="normal" text-decoration="none" x="492" y="167.5">+estRegle: boolean</text></g></g><g transform="translate(-102,-70) scale(1,1)"><rect fill="#C0C0C0" stroke="none" x="415" y="303" width="81.6552734375" height="87" opacity="0.2"/></g><g transform="translate(-102,-70) scale(1,1)"><rect fill="#ffffff" stroke="none" x="408" y="296" width="81.6552734375" height="87"/></g><g transform="translate(-102,-70) scale(1,1)"><path fill="none" stroke="#000000" d="M 408 296 L 489.6552734375 296 L 489.6552734375 383 L 408 383 L 408 296 Z Z" stroke-miterlimit="10"/></g><g transform="translate(-102,-70) scale(1,1)"><path fill="none" stroke="#000000" d="M 408 321 L 489.6552734375 321" stroke-miterlimit="10"/></g><g transform="translate(-102,-70) scale(1,1)"><path fill="none" stroke="#000000" d="M 408 374 L 489.6552734375 374" stroke-miterlimit="10"/></g><g transform="translate(-102,-70) scale(1,1)"><g><path fill="none" stroke="none"/><text fill="#000000" stroke="none" font-family="Arial" font-size="13px" font-style="normal" font-weight="bold" text-decoration="none" x="424.26220703125" y="315.5">Emprunt</text></g></g><g transform="translate(-102,-70) scale(1,1)"><g><path fill="none" stroke="none"/><text fill="#000000" stroke="none" font-family="Arial" font-size="13px" font-style="normal" font-weight="normal" text-decoration="none" x="413" y="338.5">+idEmprunt</text></g></g><g transform="translate(-102,-70) scale(1,1)"><g><path fill="none" stroke="none"/><text fill="#000000" stroke="none" font-family="Arial" font-size="13px" font-style="normal" font-weight="normal" text-decoration="none" x="413" y="353.5">+date_debut</text></g></g><g transform="translate(-102,-70) scale(1,1)"><g><path fill="none" stroke="none"/><text fill="#000000" stroke="none" font-family="Arial" font-size="13px" font-style="normal" font-weight="normal" text-decoration="none" x="413" y="368.5">+date_fin</text></g></g><g transform="translate(-102,-70) scale(1,1)"><path fill="none" stroke="#000000" d="M 522 183 L 469 295" stroke-miterlimit="10"/></g><g transform="translate(-102,-70) scale(1,1)"><g><path fill="none" stroke="none"/><text fill="#000000" stroke="none" font-family="Arial" font-size="13px" font-style="normal" font-weight="normal" text-decoration="none" x="490.5" y="203.5">0..1</text></g></g><g transform="translate(-102,-70) scale(1,1)"><rect fill="#C0C0C0" stroke="none" x="119" y="271" width="225.4169921875" height="57" opacity="0.2"/></g><g transform="translate(-102,-70) scale(1,1)"><rect fill="#ffffff" stroke="none" x="112" y="264" width="225.4169921875" height="57"/></g><g transform="translate(-102,-70) scale(1,1)"><path fill="none" stroke="#000000" d="M 112 264 L 337.4169921875 264 L 337.4169921875 321 L 112 321 L 112 264 Z Z" stroke-miterlimit="10"/></g><g transform="translate(-102,-70) scale(1,1)"><path fill="none" stroke="#000000" d="M 112 289 L 337.4169921875 289" stroke-miterlimit="10"/></g><g transform="translate(-102,-70) scale(1,1)"><path fill="none" stroke="#000000" d="M 112 299 L 337.4169921875 299" stroke-miterlimit="10"/></g><g transform="translate(-102,-70) scale(1,1)"><g><path fill="none" stroke="none"/><text fill="#000000" stroke="none" font-family="Arial" font-size="13px" font-style="normal" font-weight="bold" text-decoration="none" x="178.468994140625" y="283.5">ServiceEmprunt</text></g></g><g transform="translate(-102,-70) scale(1,1)"><g><path fill="none" stroke="none"/><text fill="#000000" stroke="none" font-family="Arial" font-size="13px" font-style="normal" font-weight="normal" text-decoration="none" x="117" y="316.5">+verifEmpruntEnCours(num_abonne)</text></g></g><g transform="translate(-102,-70) scale(1,1)"><rect fill="#C0C0C0" stroke="none" x="159" y="87" width="245.6787109375" height="57" opacity="0.2"/></g><g transform="translate(-102,-70) scale(1,1)"><rect fill="#ffffff" stroke="none" x="152" y="80" width="245.6787109375" height="57"/></g><g transform="translate(-102,-70) scale(1,1)"><path fill="none" stroke="#000000" d="M 152 80 L 397.6787109375 80 L 397.6787109375 137 L 152 137 L 152 80 Z Z" stroke-miterlimit="10"/></g><g transform="translate(-102,-70) scale(1,1)"><path fill="none" stroke="#000000" d="M 152 105 L 397.6787109375 105" stroke-miterlimit="10"/></g><g transform="translate(-102,-70) scale(1,1)"><path fill="none" stroke="#000000" d="M 152 115 L 397.6787109375 115" stroke-miterlimit="10"/></g><g transform="translate(-102,-70) scale(1,1)"><g><path fill="none" stroke="none"/><text fill="#000000" stroke="none" font-family="Arial" font-size="13px" font-style="normal" font-weight="bold" text-decoration="none" x="218.475341796875" y="99.5">ServiceContentieux</text></g></g><g transform="translate(-102,-70) scale(1,1)"><g><path fill="none" stroke="none"/><text fill="#000000" stroke="none" font-family="Arial" font-size="13px" font-style="normal" font-weight="normal" text-decoration="none" x="157" y="132.5">+verifAbsenceContentieux(num_abonne)</text></g></g><g transform="translate(-102,-70) scale(1,1)"><path fill="none" stroke="#000000" d="M 399 119 L 486 126" stroke-miterlimit="10" stroke-dasharray="3"/></g><g transform="translate(-102,-70) scale(1,1)"><path fill="none" stroke="#000000" d="M 475.53245591224345 129.38090531823553 L 486 126 L 476.2076675161042 120.98898967025221" stroke-miterlimit="10"/></g><g transform="translate(-102,-70) scale(1,1)"><path fill="none" stroke="#000000" d="M 338 316 L 407 330" stroke-miterlimit="10" stroke-dasharray="3"/></g><g transform="translate(-102,-70) scale(1,1)"><path fill="none" stroke="#000000" d="M 396.2032186949776 332.1046409317311 L 407 330 L 397.8773168494406 323.85372859902037" stroke-miterlimit="10"/></g></g></svg>