<svg version="1.1" xmlns="http://www.w3.org/2000/svg" xmlns:xlink="http://www.w3.org/1999/xlink" width="485.70166015625" height="219"><defs/><g><text fill="#eeeeee" stroke="none" font-family="Arial" font-size="24px" font-style="normal" font-weight="normal" text-decoration="none" x="0" y="0">UNREGISTERED</text><text fill="#eeeeee" stroke="none" font-family="Arial" font-size="24px" font-style="normal" font-weight="normal" text-decoration="none" x="0" y="30">UNREGISTERED</text><text fill="#eeeeee" stroke="none" font-family="Arial" font-size="24px" font-style="normal" font-weight="normal" text-decoration="none" x="0" y="60">UNREGISTERED</text><text fill="#eeeeee" stroke="none" font-family="Arial" font-size="24px" font-style="normal" font-weight="normal" text-decoration="none" x="0" y="90">UNREGISTERED</text><text fill="#eeeeee" stroke="none" font-family="Arial" font-size="24px" font-style="normal" font-weight="normal" text-decoration="none" x="0" y="120">UNREGISTERED</text><text fill="#eeeeee" stroke="none" font-family="Arial" font-size="24px" font-style="normal" font-weight="normal" text-decoration="none" x="0" y="150">UNREGISTERED</text><text fill="#eeeeee" stroke="none" font-family="Arial" font-size="24px" font-style="normal" font-weight="normal" text-decoration="none" x="0" y="180">UNREGISTERED</text><text fill="#eeeeee" stroke="none" font-family="Arial" font-size="24px" font-style="normal" font-weight="normal" text-decoration="none" x="0" y="210">UNREGISTERED</text><text fill="#eeeeee" stroke="none" font-family="Arial" font-size="24px" font-style="normal" font-weight="normal" text-decoration="none" x="200" y="0">UNREGISTERED</text><text fill="#eeeeee" stroke="none" font-family="Arial" font-size="24px" font-style="normal" font-weight="normal" text-decoration="none" x="200" y="30">UNREGISTERED</text><text fill="#eeeeee" stroke="none" font-family="Arial" font-size="24px" font-style="normal" font-weight="normal" text-decoration="none" x="200" y="60">UNREGISTERED</text><text fill="#eeeeee" stroke="none" font-family="Arial" font-size="24px" font-style="normal" font-weight="normal" text-decoration="none" x="200" y="90">UNREGISTERED</text><text fill="#eeeeee" stroke="none" font-family="Arial" font-size="24px" font-style="normal" font-weight="normal" text-decoration="none" x="200" y="120">UNREGISTERED</text><text fill="#eeeeee" stroke="none" font-family="Arial" font-size="24px" font-style="normal" font-weight="normal" text-decoration="none" x="200" y="150">UNREGISTERED</text><text fill="#eeeeee" stroke="none" font-family="Arial" font-size="24px" font-style="normal" font-weight="normal" text-decoration="none" x="200" y="180">UNREGISTERED</text><text fill="#eeeeee" stroke="none" font-family="Arial" font-size="24px" font-style="normal" font-weight="normal" text-decoration="none" x="200" y="210">UNREGISTERED</text><text fill="#eeeeee" stroke="none" font-family="Arial" font-size="24px" font-style="normal" font-weight="normal" text-decoration="none" x="400" y="0">UNREGISTERED</text><text fill="#eeeeee" stroke="none" font-family="Arial" font-size="24px" font-style="normal" font-weight="normal" text-decoration="none" x="400" y="30">UNREGISTERED</text><text fill="#eeeeee" stroke="none" font-family="Arial" font-size="24px" font-style="normal" font-weight="normal" text-decoration="none" x="400" y="60">UNREGISTERED</text><text fill="#eeeeee" stroke="none" font-family="Arial" font-size="24px" font-style="normal" font-weight="normal" text-decoration="none" x="400" y="90">UNREGISTERED</text><text fill="#eeeeee" stroke="none" font-family="Arial" font-size="24px" font-style="normal" font-weight="normal" text-decoration="none" x="400" y="120">UNREGISTERED</text><text fill="#eeeeee" stroke="none" font-family="Arial" font-size="24px" font-style="normal" font-weight="normal" text-decoration="none" x="400" y="150">UNREGISTERED</text><text fill="#eeeeee" stroke="none" font-family="Arial" font-size="24px" font-style="normal" font-weight="normal" text-decoration="none" x="400" y="180">UNREGISTERED</text><text fill="#eeeeee" stroke="none" font-family="Arial" font-size="24px" font-style="normal" font-weight="normal" text-decoration="none" x="400" y="210">UNREGISTERED</text><g transform="translate(-70,-22) scale(1,1)"><rect fill="#C0C0C0" stroke="none" x="367" y="167" width="88.85986328125" height="70" opacity="0.2"/></g><g transform="translate(-70,-22) scale(1,1)"><rect fill="#ffffff" stroke="none" x="360" y="160" width="88.85986328125" height="70"/></g><g transform="translate(-70,-22) scale(1,1)"><path fill="none" stroke="#000000" d="M 360 160 L 448.85986328125 160 L 448.85986328125 230 L 360 230 L 360 160 Z Z" stroke-miterlimit="10"/></g><g transform="translate(-70,-22) scale(1,1)"><path fill="none" stroke="#000000" d="M 360 198 L 448.85986328125 198" stroke-miterlimit="10"/></g><g transform="translate(-70,-22) scale(1,1)"><path fill="none" stroke="#000000" d="M 360 221 L 448.85986328125 221" stroke-miterlimit="10"/></g><g transform="translate(-70,-22) scale(1,1)"><g><path fill="none" stroke="none"/><text fill="#000000" stroke="none" font-family="Arial" font-size="13px" font-style="normal" font-weight="normal" text-decoration="none" x="381.6640625" y="177.5">«entity»</text></g></g><g transform="translate(-70,-22) scale(1,1)"><g><path fill="none" stroke="none"/><text fill="#000000" stroke="none" font-family="Arial" font-size="13px" font-style="normal" font-weight="bold" text-decoration="none" x="382.01953125" y="192.5">Abonné</text></g></g><g transform="translate(-70,-22) scale(1,1)"><g><path fill="none" stroke="none"/><text fill="#000000" stroke="none" font-family="Arial" font-size="13px" font-style="normal" font-weight="normal" text-decoration="none" x="365" y="215.5">«id»+numero</text></g></g><g transform="translate(-70,-22) scale(1,1)"><rect fill="#C0C0C0" stroke="none" x="479" y="39" width="73.70166015625" height="117" opacity="0.2"/></g><g transform="translate(-70,-22) scale(1,1)"><rect fill="#ffffff" stroke="none" x="472" y="32" width="73.70166015625" height="117"/></g><g transform="translate(-70,-22) scale(1,1)"><path fill="none" stroke="#000000" d="M 472 32 L 545.70166015625 32 L 545.70166015625 149 L 472 149 L 472 32 Z Z" stroke-miterlimit="10"/></g><g transform="translate(-70,-22) scale(1,1)"><path fill="none" stroke="#000000" d="M 472 57 L 545.70166015625 57" stroke-miterlimit="10"/></g><g transform="translate(-70,-22) scale(1,1)"><path fill="none" stroke="#000000" d="M 472 140 L 545.70166015625 140" stroke-miterlimit="10"/></g><g transform="translate(-70,-22) scale(1,1)"><g><path fill="none" stroke="none"/><text fill="#000000" stroke="none" font-family="Arial" font-size="13px" font-style="normal" font-weight="bold" text-decoration="none" x="481.02587890625" y="51.5">Personne</text></g></g><g transform="translate(-70,-22) scale(1,1)"><g><path fill="none" stroke="none"/><text fill="#000000" stroke="none" font-family="Arial" font-size="13px" font-style="normal" font-weight="normal" text-decoration="none" x="477" y="74.5">+nom</text></g></g><g transform="translate(-70,-22) scale(1,1)"><g><path fill="none" stroke="none"/><text fill="#000000" stroke="none" font-family="Arial" font-size="13px" font-style="normal" font-weight="normal" text-decoration="none" x="477" y="89.5">+prenom</text></g></g><g transform="translate(-70,-22) scale(1,1)"><g><path fill="none" stroke="none"/><text fill="#000000" stroke="none" font-family="Arial" font-size="13px" font-style="normal" font-weight="normal" text-decoration="none" x="477" y="104.5">+adresse</text></g></g><g transform="translate(-70,-22) scale(1,1)"><g><path fill="none" stroke="none"/><text fill="#000000" stroke="none" font-family="Arial" font-size="13px" font-style="normal" font-weight="normal" text-decoration="none" x="477" y="119.5">+email</text></g></g><g transform="translate(-70,-22) scale(1,1)"><g><path fill="none" stroke="none"/><text fill="#000000" stroke="none" font-family="Arial" font-size="13px" font-style="normal" font-weight="normal" text-decoration="none" x="477" y="134.5">+telephone</text></g></g><g transform="translate(-70,-22) scale(1,1)"><path fill="none" stroke="#000000" d="M 440 159 L 471 127" stroke-miterlimit="10"/></g><g transform="translate(-70,-22) scale(1,1)"><path fill="#FFFFFF" stroke="none" d="M 462.9046088499511 147.45640833889738 L 471 127 L 450.8108289662875 135.74055907659826"/></g><g transform="translate(-70,-22) scale(1,1)"><path fill="none" stroke="#000000" d="M 462.9046088499511 147.45640833889738 L 471 127 L 450.8108289662875 135.74055907659826 L 462.9046088499511 147.45640833889738" stroke-miterlimit="10"/></g><g transform="translate(-70,-22) scale(1,1)"><rect fill="#C0C0C0" stroke="none" x="87" y="111" width="209.54150390625" height="127" opacity="0.2"/></g><g transform="translate(-70,-22) scale(1,1)"><rect fill="#ffffff" stroke="none" x="80" y="104" width="209.54150390625" height="127"/></g><g transform="translate(-70,-22) scale(1,1)"><path fill="none" stroke="#000000" d="M 80 104 L 289.54150390625 104 L 289.54150390625 231 L 80 231 L 80 104 Z Z" stroke-miterlimit="10"/></g><g transform="translate(-70,-22) scale(1,1)"><path fill="none" stroke="#000000" d="M 80 142 L 289.54150390625 142" stroke-miterlimit="10"/></g><g transform="translate(-70,-22) scale(1,1)"><path fill="none" stroke="#000000" d="M 80 152 L 289.54150390625 152" stroke-miterlimit="10"/></g><g transform="translate(-70,-22) scale(1,1)"><g><path fill="none" stroke="none"/><text fill="#000000" stroke="none" font-family="Arial" font-size="13px" font-style="normal" font-weight="normal" text-decoration="none" x="156.9521484375" y="121.5">«service»</text></g></g><g transform="translate(-70,-22) scale(1,1)"><g><path fill="none" stroke="none"/><text fill="#000000" stroke="none" font-family="Arial" font-size="13px" font-style="normal" font-weight="bold" text-decoration="none" x="140.686279296875" y="136.5">ServiceAbonné</text></g></g><g transform="translate(-70,-22) scale(1,1)"><g><path fill="none" stroke="none"/><text fill="#000000" stroke="none" font-family="Arial" font-size="13px" font-style="normal" font-weight="normal" text-decoration="none" x="85" y="169.5">+autres()</text></g></g><g transform="translate(-70,-22) scale(1,1)"><g><path fill="none" stroke="none"/><text fill="#000000" stroke="none" font-family="Arial" font-size="13px" font-style="normal" font-weight="normal" text-decoration="none" x="85" y="184.5">+recupAbonneByNum(num)</text></g></g><g transform="translate(-70,-22) scale(1,1)"><g><path fill="none" stroke="none"/><text fill="#000000" stroke="none" font-family="Arial" font-size="13px" font-style="normal" font-weight="normal" text-decoration="none" x="85" y="199.5">+verifAbonnementValide(num_ab)</text></g></g><g transform="translate(-70,-22) scale(1,1)"><path fill="none" stroke="#000000" d="M 291 181 L 359 189" stroke-miterlimit="10" stroke-dasharray="3"/></g><g transform="translate(-70,-22) scale(1,1)"><path fill="none" stroke="#000000" d="M 348.41508801734363 191.99326549430853 L 359 189 L 349.3987786298837 183.6318952877182" stroke-miterlimit="10"/></g></g></svg>