<svg version="1.1" xmlns="http://www.w3.org/2000/svg" xmlns:xlink="http://www.w3.org/1999/xlink" width="345.4326171875" height="178"><defs/><g><text fill="#eeeeee" stroke="none" font-family="Arial" font-size="24px" font-style="normal" font-weight="normal" text-decoration="none" x="0" y="0">UNREGISTERED</text><text fill="#eeeeee" stroke="none" font-family="Arial" font-size="24px" font-style="normal" font-weight="normal" text-decoration="none" x="0" y="30">UNREGISTERED</text><text fill="#eeeeee" stroke="none" font-family="Arial" font-size="24px" font-style="normal" font-weight="normal" text-decoration="none" x="0" y="60">UNREGISTERED</text><text fill="#eeeeee" stroke="none" font-family="Arial" font-size="24px" font-style="normal" font-weight="normal" text-decoration="none" x="0" y="90">UNREGISTERED</text><text fill="#eeeeee" stroke="none" font-family="Arial" font-size="24px" font-style="normal" font-weight="normal" text-decoration="none" x="0" y="120">UNREGISTERED</text><text fill="#eeeeee" stroke="none" font-family="Arial" font-size="24px" font-style="normal" font-weight="normal" text-decoration="none" x="0" y="150">UNREGISTERED</text><text fill="#eeeeee" stroke="none" font-family="Arial" font-size="24px" font-style="normal" font-weight="normal" text-decoration="none" x="200" y="0">UNREGISTERED</text><text fill="#eeeeee" stroke="none" font-family="Arial" font-size="24px" font-style="normal" font-weight="normal" text-decoration="none" x="200" y="30">UNREGISTERED</text><text fill="#eeeeee" stroke="none" font-family="Arial" font-size="24px" font-style="normal" font-weight="normal" text-decoration="none" x="200" y="60">UNREGISTERED</text><text fill="#eeeeee" stroke="none" font-family="Arial" font-size="24px" font-style="normal" font-weight="normal" text-decoration="none" x="200" y="90">UNREGISTERED</text><text fill="#eeeeee" stroke="none" font-family="Arial" font-size="24px" font-style="normal" font-weight="normal" text-decoration="none" x="200" y="120">UNREGISTERED</text><text fill="#eeeeee" stroke="none" font-family="Arial" font-size="24px" font-style="normal" font-weight="normal" text-decoration="none" x="200" y="150">UNREGISTERED</text><g transform="translate(-182,-254) scale(1,1)"><rect fill="#C0C0C0" stroke="none" x="199" y="271" width="135.1025390625" height="102" opacity="0.2"/></g><g transform="translate(-182,-254) scale(1,1)"><rect fill="#ffffff" stroke="none" x="192" y="264" width="135.1025390625" height="102"/></g><g transform="translate(-182,-254) scale(1,1)"><path fill="none" stroke="#000000" d="M 192 264 L 327.1025390625 264 L 327.1025390625 366 L 192 366 L 192 264 Z Z" stroke-miterlimit="10"/></g><g transform="translate(-182,-254) scale(1,1)"><path fill="none" stroke="#000000" d="M 192 289 L 327.1025390625 289" stroke-miterlimit="10"/></g><g transform="translate(-182,-254) scale(1,1)"><path fill="none" stroke="#000000" d="M 192 357 L 327.1025390625 357" stroke-miterlimit="10"/></g><g transform="translate(-182,-254) scale(1,1)"><g><path fill="none" stroke="none"/><text fill="#000000" stroke="none" font-family="Arial" font-size="13px" font-style="normal" font-weight="bold" text-decoration="none" x="227.03857421875" y="283.5">Exemplaire</text></g></g><g transform="translate(-182,-254) scale(1,1)"><g><path fill="none" stroke="none"/><text fill="#000000" stroke="none" font-family="Arial" font-size="13px" font-style="normal" font-weight="normal" text-decoration="none" x="197" y="306.5">+etat: EtatsPhysiques</text></g></g><g transform="translate(-182,-254) scale(1,1)"><g><path fill="none" stroke="none"/><text fill="#000000" stroke="none" font-family="Arial" font-size="13px" font-style="normal" font-weight="normal" text-decoration="none" x="197" y="321.5">+etat: EtatsPysiques</text></g></g><g transform="translate(-182,-254) scale(1,1)"><g><path fill="none" stroke="none"/><text fill="#000000" stroke="none" font-family="Arial" font-size="13px" font-style="normal" font-weight="normal" text-decoration="none" x="197" y="336.5">+usage: Usages</text></g></g><g transform="translate(-182,-254) scale(1,1)"><g><path fill="none" stroke="none"/><text fill="#000000" stroke="none" font-family="Arial" font-size="13px" font-style="normal" font-weight="normal" text-decoration="none" x="197" y="351.5">+numeroExemplaire</text></g></g><g transform="translate(-182,-254) scale(1,1)"><rect fill="#C0C0C0" stroke="none" x="415" y="327" width="109.4326171875" height="102" opacity="0.2"/></g><g transform="translate(-182,-254) scale(1,1)"><rect fill="#ffffff" stroke="none" x="408" y="320" width="109.4326171875" height="102"/></g><g transform="translate(-182,-254) scale(1,1)"><path fill="none" stroke="#000000" d="M 408 320 L 517.4326171875 320 L 517.4326171875 422 L 408 422 L 408 320 Z Z" stroke-miterlimit="10"/></g><g transform="translate(-182,-254) scale(1,1)"><path fill="none" stroke="#000000" d="M 408 345 L 517.4326171875 345" stroke-miterlimit="10"/></g><g transform="translate(-182,-254) scale(1,1)"><path fill="none" stroke="#000000" d="M 408 413 L 517.4326171875 413" stroke-miterlimit="10"/></g><g transform="translate(-182,-254) scale(1,1)"><g><path fill="none" stroke="none"/><text fill="#000000" stroke="none" font-family="Arial" font-size="13px" font-style="normal" font-weight="bold" text-decoration="none" x="416.11181640625" y="339.5">OeuvreLitteraire</text></g></g><g transform="translate(-182,-254) scale(1,1)"><g><path fill="none" stroke="none"/><text fill="#000000" stroke="none" font-family="Arial" font-size="13px" font-style="normal" font-weight="normal" text-decoration="none" x="413" y="362.5">+numIsbn</text></g></g><g transform="translate(-182,-254) scale(1,1)"><g><path fill="none" stroke="none"/><text fill="#000000" stroke="none" font-family="Arial" font-size="13px" font-style="normal" font-weight="normal" text-decoration="none" x="413" y="377.5">+titre</text></g></g><g transform="translate(-182,-254) scale(1,1)"><g><path fill="none" stroke="none"/><text fill="#000000" stroke="none" font-family="Arial" font-size="13px" font-style="normal" font-weight="normal" text-decoration="none" x="413" y="392.5">+auteur</text></g></g><g transform="translate(-182,-254) scale(1,1)"><g><path fill="none" stroke="none"/><text fill="#000000" stroke="none" font-family="Arial" font-size="13px" font-style="normal" font-weight="normal" text-decoration="none" x="413" y="407.5">+editeur</text></g></g></g></svg>