<svg version="1.1" xmlns="http://www.w3.org/2000/svg" xmlns:xlink="http://www.w3.org/1999/xlink" width="906.17529296875" height="555"><defs/><g><text fill="#eeeeee" stroke="none" font-family="Arial" font-size="24px" font-style="normal" font-weight="normal" text-decoration="none" x="0" y="0">UNREGISTERED</text><text fill="#eeeeee" stroke="none" font-family="Arial" font-size="24px" font-style="normal" font-weight="normal" text-decoration="none" x="0" y="30">UNREGISTERED</text><text fill="#eeeeee" stroke="none" font-family="Arial" font-size="24px" font-style="normal" font-weight="normal" text-decoration="none" x="0" y="60">UNREGISTERED</text><text fill="#eeeeee" stroke="none" font-family="Arial" font-size="24px" font-style="normal" font-weight="normal" text-decoration="none" x="0" y="90">UNREGISTERED</text><text fill="#eeeeee" stroke="none" font-family="Arial" font-size="24px" font-style="normal" font-weight="normal" text-decoration="none" x="0" y="120">UNREGISTERED</text><text fill="#eeeeee" stroke="none" font-family="Arial" font-size="24px" font-style="normal" font-weight="normal" text-decoration="none" x="0" y="150">UNREGISTERED</text><text fill="#eeeeee" stroke="none" font-family="Arial" font-size="24px" font-style="normal" font-weight="normal" text-decoration="none" x="0" y="180">UNREGISTERED</text><text fill="#eeeeee" stroke="none" font-family="Arial" font-size="24px" font-style="normal" font-weight="normal" text-decoration="none" x="0" y="210">UNREGISTERED</text><text fill="#eeeeee" stroke="none" font-family="Arial" font-size="24px" font-style="normal" font-weight="normal" text-decoration="none" x="0" y="240">UNREGISTERED</text><text fill="#eeeeee" stroke="none" font-family="Arial" font-size="24px" font-style="normal" font-weight="normal" text-decoration="none" x="0" y="270">UNREGISTERED</text><text fill="#eeeeee" stroke="none" font-family="Arial" font-size="24px" font-style="normal" font-weight="normal" text-decoration="none" x="0" y="300">UNREGISTERED</text><text fill="#eeeeee" stroke="none" font-family="Arial" font-size="24px" font-style="normal" font-weight="normal" text-decoration="none" x="0" y="330">UNREGISTERED</text><text fill="#eeeeee" stroke="none" font-family="Arial" font-size="24px" font-style="normal" font-weight="normal" text-decoration="none" x="0" y="360">UNREGISTERED</text><text fill="#eeeeee" stroke="none" font-family="Arial" font-size="24px" font-style="normal" font-weight="normal" text-decoration="none" x="0" y="390">UNREGISTERED</text><text fill="#eeeeee" stroke="none" font-family="Arial" font-size="24px" font-style="normal" font-weight="normal" text-decoration="none" x="0" y="420">UNREGISTERED</text><text fill="#eeeeee" stroke="none" font-family="Arial" font-size="24px" font-style="normal" font-weight="normal" text-decoration="none" x="0" y="450">UNREGISTERED</text><text fill="#eeeeee" stroke="none" font-family="Arial" font-size="24px" font-style="normal" font-weight="normal" text-decoration="none" x="0" y="480">UNREGISTERED</text><text fill="#eeeeee" stroke="none" font-family="Arial" font-size="24px" font-style="normal" font-weight="normal" text-decoration="none" x="0" y="510">UNREGISTERED</text><text fill="#eeeeee" stroke="none" font-family="Arial" font-size="24px" font-style="normal" font-weight="normal" text-decoration="none" x="0" y="540">UNREGISTERED</text><text fill="#eeeeee" stroke="none" font-family="Arial" font-size="24px" font-style="normal" font-weight="normal" text-decoration="none" x="200" y="0">UNREGISTERED</text><text fill="#eeeeee" stroke="none" font-family="Arial" font-size="24px" font-style="normal" font-weight="normal" text-decoration="none" x="200" y="30">UNREGISTERED</text><text fill="#eeeeee" stroke="none" font-family="Arial" font-size="24px" font-style="normal" font-weight="normal" text-decoration="none" x="200" y="60">UNREGISTERED</text><text fill="#eeeeee" stroke="none" font-family="Arial" font-size="24px" font-style="normal" font-weight="normal" text-decoration="none" x="200" y="90">UNREGISTERED</text><text fill="#eeeeee" stroke="none" font-family="Arial" font-size="24px" font-style="normal" font-weight="normal" text-decoration="none" x="200" y="120">UNREGISTERED</text><text fill="#eeeeee" stroke="none" font-family="Arial" font-size="24px" font-style="normal" font-weight="normal" text-decoration="none" x="200" y="150">UNREGISTERED</text><text fill="#eeeeee" stroke="none" font-family="Arial" font-size="24px" font-style="normal" font-weight="normal" text-decoration="none" x="200" y="180">UNREGISTERED</text><text fill="#eeeeee" stroke="none" font-family="Arial" font-size="24px" font-style="normal" font-weight="normal" text-decoration="none" x="200" y="210">UNREGISTERED</text><text fill="#eeeeee" stroke="none" font-family="Arial" font-size="24px" font-style="normal" font-weight="normal" text-decoration="none" x="200" y="240">UNREGISTERED</text><text fill="#eeeeee" stroke="none" font-family="Arial" font-size="24px" font-style="normal" font-weight="normal" text-decoration="none" x="200" y="270">UNREGISTERED</text><text fill="#eeeeee" stroke="none" font-family="Arial" font-size="24px" font-style="normal" font-weight="normal" text-decoration="none" x="200" y="300">UNREGISTERED</text><text fill="#eeeeee" stroke="none" font-family="Arial" font-size="24px" font-style="normal" font-weight="normal" text-decoration="none" x="200" y="330">UNREGISTERED</text><text fill="#eeeeee" stroke="none" font-family="Arial" font-size="24px" font-style="normal" font-weight="normal" text-decoration="none" x="200" y="360">UNREGISTERED</text><text fill="#eeeeee" stroke="none" font-family="Arial" font-size="24px" font-style="normal" font-weight="normal" text-decoration="none" x="200" y="390">UNREGISTERED</text><text fill="#eeeeee" stroke="none" font-family="Arial" font-size="24px" font-style="normal" font-weight="normal" text-decoration="none" x="200" y="420">UNREGISTERED</text><text fill="#eeeeee" stroke="none" font-family="Arial" font-size="24px" font-style="normal" font-weight="normal" text-decoration="none" x="200" y="450">UNREGISTERED</text><text fill="#eeeeee" stroke="none" font-family="Arial" font-size="24px" font-style="normal" font-weight="normal" text-decoration="none" x="200" y="480">UNREGISTERED</text><text fill="#eeeeee" stroke="none" font-family="Arial" font-size="24px" font-style="normal" font-weight="normal" text-decoration="none" x="200" y="510">UNREGISTERED</text><text fill="#eeeeee" stroke="none" font-family="Arial" font-size="24px" font-style="normal" font-weight="normal" text-decoration="none" x="200" y="540">UNREGISTERED</text><text fill="#eeeeee" stroke="none" font-family="Arial" font-size="24px" font-style="normal" font-weight="normal" text-decoration="none" x="400" y="0">UNREGISTERED</text><text fill="#eeeeee" stroke="none" font-family="Arial" font-size="24px" font-style="normal" font-weight="normal" text-decoration="none" x="400" y="30">UNREGISTERED</text><text fill="#eeeeee" stroke="none" font-family="Arial" font-size="24px" font-style="normal" font-weight="normal" text-decoration="none" x="400" y="60">UNREGISTERED</text><text fill="#eeeeee" stroke="none" font-family="Arial" font-size="24px" font-style="normal" font-weight="normal" text-decoration="none" x="400" y="90">UNREGISTERED</text><text fill="#eeeeee" stroke="none" font-family="Arial" font-size="24px" font-style="normal" font-weight="normal" text-decoration="none" x="400" y="120">UNREGISTERED</text><text fill="#eeeeee" stroke="none" font-family="Arial" font-size="24px" font-style="normal" font-weight="normal" text-decoration="none" x="400" y="150">UNREGISTERED</text><text fill="#eeeeee" stroke="none" font-family="Arial" font-size="24px" font-style="normal" font-weight="normal" text-decoration="none" x="400" y="180">UNREGISTERED</text><text fill="#eeeeee" stroke="none" font-family="Arial" font-size="24px" font-style="normal" font-weight="normal" text-decoration="none" x="400" y="210">UNREGISTERED</text><text fill="#eeeeee" stroke="none" font-family="Arial" font-size="24px" font-style="normal" font-weight="normal" text-decoration="none" x="400" y="240">UNREGISTERED</text><text fill="#eeeeee" stroke="none" font-family="Arial" font-size="24px" font-style="normal" font-weight="normal" text-decoration="none" x="400" y="270">UNREGISTERED</text><text fill="#eeeeee" stroke="none" font-family="Arial" font-size="24px" font-style="normal" font-weight="normal" text-decoration="none" x="400" y="300">UNREGISTERED</text><text fill="#eeeeee" stroke="none" font-family="Arial" font-size="24px" font-style="normal" font-weight="normal" text-decoration="none" x="400" y="330">UNREGISTERED</text><text fill="#eeeeee" stroke="none" font-family="Arial" font-size="24px" font-style="normal" font-weight="normal" text-decoration="none" x="400" y="360">UNREGISTERED</text><text fill="#eeeeee" stroke="none" font-family="Arial" font-size="24px" font-style="normal" font-weight="normal" text-decoration="none" x="400" y="390">UNREGISTERED</text><text fill="#eeeeee" stroke="none" font-family="Arial" font-size="24px" font-style="normal" font-weight="normal" text-decoration="none" x="400" y="420">UNREGISTERED</text><text fill="#eeeeee" stroke="none" font-family="Arial" font-size="24px" font-style="normal" font-weight="normal" text-decoration="none" x="400" y="450">UNREGISTERED</text><text fill="#eeeeee" stroke="none" font-family="Arial" font-size="24px" font-style="normal" font-weight="normal" text-decoration="none" x="400" y="480">UNREGISTERED</text><text fill="#eeeeee" stroke="none" font-family="Arial" font-size="24px" font-style="normal" font-weight="normal" text-decoration="none" x="400" y="510">UNREGISTERED</text><text fill="#eeeeee" stroke="none" font-family="Arial" font-size="24px" font-style="normal" font-weight="normal" text-decoration="none" x="400" y="540">UNREGISTERED</text><text fill="#eeeeee" stroke="none" font-family="Arial" font-size="24px" font-style="normal" font-weight="normal" text-decoration="none" x="600" y="0">UNREGISTERED</text><text fill="#eeeeee" stroke="none" font-family="Arial" font-size="24px" font-style="normal" font-weight="normal" text-decoration="none" x="600" y="30">UNREGISTERED</text><text fill="#eeeeee" stroke="none" font-family="Arial" font-size="24px" font-style="normal" font-weight="normal" text-decoration="none" x="600" y="60">UNREGISTERED</text><text fill="#eeeeee" stroke="none" font-family="Arial" font-size="24px" font-style="normal" font-weight="normal" text-decoration="none" x="600" y="90">UNREGISTERED</text><text fill="#eeeeee" stroke="none" font-family="Arial" font-size="24px" font-style="normal" font-weight="normal" text-decoration="none" x="600" y="120">UNREGISTERED</text><text fill="#eeeeee" stroke="none" font-family="Arial" font-size="24px" font-style="normal" font-weight="normal" text-decoration="none" x="600" y="150">UNREGISTERED</text><text fill="#eeeeee" stroke="none" font-family="Arial" font-size="24px" font-style="normal" font-weight="normal" text-decoration="none" x="600" y="180">UNREGISTERED</text><text fill="#eeeeee" stroke="none" font-family="Arial" font-size="24px" font-style="normal" font-weight="normal" text-decoration="none" x="600" y="210">UNREGISTERED</text><text fill="#eeeeee" stroke="none" font-family="Arial" font-size="24px" font-style="normal" font-weight="normal" text-decoration="none" x="600" y="240">UNREGISTERED</text><text fill="#eeeeee" stroke="none" font-family="Arial" font-size="24px" font-style="normal" font-weight="normal" text-decoration="none" x="600" y="270">UNREGISTERED</text><text fill="#eeeeee" stroke="none" font-family="Arial" font-size="24px" font-style="normal" font-weight="normal" text-decoration="none" x="600" y="300">UNREGISTERED</text><text fill="#eeeeee" stroke="none" font-family="Arial" font-size="24px" font-style="normal" font-weight="normal" text-decoration="none" x="600" y="330">UNREGISTERED</text><text fill="#eeeeee" stroke="none" font-family="Arial" font-size="24px" font-style="normal" font-weight="normal" text-decoration="none" x="600" y="360">UNREGISTERED</text><text fill="#eeeeee" stroke="none" font-family="Arial" font-size="24px" font-style="normal" font-weight="normal" text-decoration="none" x="600" y="390">UNREGISTERED</text><text fill="#eeeeee" stroke="none" font-family="Arial" font-size="24px" font-style="normal" font-weight="normal" text-decoration="none" x="600" y="420">UNREGISTERED</text><text fill="#eeeeee" stroke="none" font-family="Arial" font-size="24px" font-style="normal" font-weight="normal" text-decoration="none" x="600" y="450">UNREGISTERED</text><text fill="#eeeeee" stroke="none" font-family="Arial" font-size="24px" font-style="normal" font-weight="normal" text-decoration="none" x="600" y="480">UNREGISTERED</text><text fill="#eeeeee" stroke="none" font-family="Arial" font-size="24px" font-style="normal" font-weight="normal" text-decoration="none" x="600" y="510">UNREGISTERED</text><text fill="#eeeeee" stroke="none" font-family="Arial" font-size="24px" font-style="normal" font-weight="normal" text-decoration="none" x="600" y="540">UNREGISTERED</text><text fill="#eeeeee" stroke="none" font-family="Arial" font-size="24px" font-style="normal" font-weight="normal" text-decoration="none" x="800" y="0">UNREGISTERED</text><text fill="#eeeeee" stroke="none" font-family="Arial" font-size="24px" font-style="normal" font-weight="normal" text-decoration="none" x="800" y="30">UNREGISTERED</text><text fill="#eeeeee" stroke="none" font-family="Arial" font-size="24px" font-style="normal" font-weight="normal" text-decoration="none" x="800" y="60">UNREGISTERED</text><text fill="#eeeeee" stroke="none" font-family="Arial" font-size="24px" font-style="normal" font-weight="normal" text-decoration="none" x="800" y="90">UNREGISTERED</text><text fill="#eeeeee" stroke="none" font-family="Arial" font-size="24px" font-style="normal" font-weight="normal" text-decoration="none" x="800" y="120">UNREGISTERED</text><text fill="#eeeeee" stroke="none" font-family="Arial" font-size="24px" font-style="normal" font-weight="normal" text-decoration="none" x="800" y="150">UNREGISTERED</text><text fill="#eeeeee" stroke="none" font-family="Arial" font-size="24px" font-style="normal" font-weight="normal" text-decoration="none" x="800" y="180">UNREGISTERED</text><text fill="#eeeeee" stroke="none" font-family="Arial" font-size="24px" font-style="normal" font-weight="normal" text-decoration="none" x="800" y="210">UNREGISTERED</text><text fill="#eeeeee" stroke="none" font-family="Arial" font-size="24px" font-style="normal" font-weight="normal" text-decoration="none" x="800" y="240">UNREGISTERED</text><text fill="#eeeeee" stroke="none" font-family="Arial" font-size="24px" font-style="normal" font-weight="normal" text-decoration="none" x="800" y="270">UNREGISTERED</text><text fill="#eeeeee" stroke="none" font-family="Arial" font-size="24px" font-style="normal" font-weight="normal" text-decoration="none" x="800" y="300">UNREGISTERED</text><text fill="#eeeeee" stroke="none" font-family="Arial" font-size="24px" font-style="normal" font-weight="normal" text-decoration="none" x="800" y="330">UNREGISTERED</text><text fill="#eeeeee" stroke="none" font-family="Arial" font-size="24px" font-style="normal" font-weight="normal" text-decoration="none" x="800" y="360">UNREGISTERED</text><text fill="#eeeeee" stroke="none" font-family="Arial" font-size="24px" font-style="normal" font-weight="normal" text-decoration="none" x="800" y="390">UNREGISTERED</text><text fill="#eeeeee" stroke="none" font-family="Arial" font-size="24px" font-style="normal" font-weight="normal" text-decoration="none" x="800" y="420">UNREGISTERED</text><text fill="#eeeeee" stroke="none" font-family="Arial" font-size="24px" font-style="normal" font-weight="normal" text-decoration="none" x="800" y="450">UNREGISTERED</text><text fill="#eeeeee" stroke="none" font-family="Arial" font-size="24px" font-style="normal" font-weight="normal" text-decoration="none" x="800" y="480">UNREGISTERED</text><text fill="#eeeeee" stroke="none" font-family="Arial" font-size="24px" font-style="normal" font-weight="normal" text-decoration="none" x="800" y="510">UNREGISTERED</text><text fill="#eeeeee" stroke="none" font-family="Arial" font-size="24px" font-style="normal" font-weight="normal" text-decoration="none" x="800" y="540">UNREGISTERED</text><g transform="translate(10,-14) scale(1,1)"><rect fill="#C0C0C0" stroke="none" x="191" y="31" width="560" height="503" opacity="0.2"/></g><g transform="translate(10,-14) scale(1,1)"><rect fill="#ffffff" stroke="none" x="184" y="24" width="560" height="503"/></g><g transform="translate(10,-14) scale(1,1)"><path fill="none" stroke="#000000" d="M 184 24 L 744 24 L 744 527 L 184 527 L 184 24 Z Z" stroke-miterlimit="10"/></g><g transform="translate(10,-14) scale(1,1)"><g><path fill="none" stroke="none"/><text fill="#000000" stroke="none" font-family="Arial" font-size="13px" font-style="normal" font-weight="bold" text-decoration="none" x="405.45556640625" y="43.5">logiciel_bibliotheque</text></g></g><g transform="translate(10,-14) scale(1,1)"><path fill="#ffffff" stroke="none" d="M 70.80388156960227 201.68 C 70.80388156960227 196.886167936 74.68972389454773 193 79.483154296875 193 C 84.27658469920227 193 88.16242702414773 196.886167936 88.16242702414773 201.68 C 88.16242702414773 206.47383206400002 84.27658469920227 210.36 79.483154296875 210.36 C 74.68972389454773 210.36 70.80388156960227 206.47383206400002 70.80388156960227 201.68 Z"/></g><g transform="translate(10,-14) scale(1,1)"><path fill="none" stroke="#000000" d="M 70.80388156960227 201.68 C 70.80388156960227 196.886167936 74.68972389454773 193 79.483154296875 193 C 84.27658469920227 193 88.16242702414773 196.886167936 88.16242702414773 201.68 C 88.16242702414773 206.47383206400002 84.27658469920227 210.36 79.483154296875 210.36 C 74.68972389454773 210.36 70.80388156960227 206.47383206400002 70.80388156960227 201.68 Z" stroke-miterlimit="10"/></g><g transform="translate(10,-14) scale(1,1)"><path fill="none" stroke="#000000" d="M 79.483154296875 210.36 L 79.483154296875 227.64" stroke-miterlimit="10"/></g><g transform="translate(10,-14) scale(1,1)"><path fill="none" stroke="#000000" d="M 70.29333611505682 216.84 L 88.67297247869318 216.84" stroke-miterlimit="10"/></g><g transform="translate(10,-14) scale(1,1)"><path fill="none" stroke="#000000" d="M 79.483154296875 227.64 L 66.71951793323863 245" stroke-miterlimit="10"/></g><g transform="translate(10,-14) scale(1,1)"><path fill="none" stroke="#000000" d="M 79.483154296875 227.64 L 92.24679066051137 245" stroke-miterlimit="10"/></g><g transform="translate(10,-14) scale(1,1)"><g><path fill="none" stroke="none"/><text fill="#000000" stroke="none" font-family="Arial" font-size="13px" font-style="normal" font-weight="bold" text-decoration="none" x="40.4609375" y="265.5">Bibliothecaire</text></g></g><g transform="translate(10,-14) scale(1,1)"><path fill="#ffffff" stroke="none" d="M 75.99797336647727 369.68 C 75.99797336647727 364.886167936 79.88381569142273 361 84.67724609375 361 C 89.47067649607727 361 93.35651882102273 364.886167936 93.35651882102273 369.68 C 93.35651882102273 374.473832064 89.47067649607727 378.36 84.67724609375 378.36 C 79.88381569142273 378.36 75.99797336647727 374.473832064 75.99797336647727 369.68 Z"/></g><g transform="translate(10,-14) scale(1,1)"><path fill="none" stroke="#000000" d="M 75.99797336647727 369.68 C 75.99797336647727 364.886167936 79.88381569142273 361 84.67724609375 361 C 89.47067649607727 361 93.35651882102273 364.886167936 93.35651882102273 369.68 C 93.35651882102273 374.473832064 89.47067649607727 378.36 84.67724609375 378.36 C 79.88381569142273 378.36 75.99797336647727 374.473832064 75.99797336647727 369.68 Z" stroke-miterlimit="10"/></g><g transform="translate(10,-14) scale(1,1)"><path fill="none" stroke="#000000" d="M 84.67724609375 378.36 L 84.67724609375 395.64" stroke-miterlimit="10"/></g><g transform="translate(10,-14) scale(1,1)"><path fill="none" stroke="#000000" d="M 75.48742791193182 384.84 L 93.86706427556818 384.84" stroke-miterlimit="10"/></g><g transform="translate(10,-14) scale(1,1)"><path fill="none" stroke="#000000" d="M 84.67724609375 395.64 L 71.91360973011363 413" stroke-miterlimit="10"/></g><g transform="translate(10,-14) scale(1,1)"><path fill="none" stroke="#000000" d="M 84.67724609375 395.64 L 97.44088245738637 413" stroke-miterlimit="10"/></g><g transform="translate(10,-14) scale(1,1)"><g><path fill="none" stroke="none"/><text fill="#000000" stroke="none" font-family="Arial" font-size="13px" font-style="normal" font-weight="bold" text-decoration="none" x="9.873291015625" y="433.5">ResponsableAbonnement</text></g></g><g transform="translate(10,-14) scale(1,1)"><path fill="#ffffff" stroke="none" d="M 822.4083737571023 193.68 C 822.4083737571023 188.886167936 826.2942160820477 185 831.087646484375 185 C 835.8810768867023 185 839.7669192116477 188.886167936 839.7669192116477 193.68 C 839.7669192116477 198.47383206400002 835.8810768867023 202.36 831.087646484375 202.36 C 826.2942160820477 202.36 822.4083737571023 198.47383206400002 822.4083737571023 193.68 Z"/></g><g transform="translate(10,-14) scale(1,1)"><path fill="none" stroke="#000000" d="M 822.4083737571023 193.68 C 822.4083737571023 188.886167936 826.2942160820477 185 831.087646484375 185 C 835.8810768867023 185 839.7669192116477 188.886167936 839.7669192116477 193.68 C 839.7669192116477 198.47383206400002 835.8810768867023 202.36 831.087646484375 202.36 C 826.2942160820477 202.36 822.4083737571023 198.47383206400002 822.4083737571023 193.68 Z" stroke-miterlimit="10"/></g><g transform="translate(10,-14) scale(1,1)"><path fill="none" stroke="#000000" d="M 831.087646484375 202.36 L 831.087646484375 219.64" stroke-miterlimit="10"/></g><g transform="translate(10,-14) scale(1,1)"><path fill="none" stroke="#000000" d="M 821.8978283025568 208.84 L 840.2774646661932 208.84" stroke-miterlimit="10"/></g><g transform="translate(10,-14) scale(1,1)"><path fill="none" stroke="#000000" d="M 831.087646484375 219.64 L 818.3240101207386 237" stroke-miterlimit="10"/></g><g transform="translate(10,-14) scale(1,1)"><path fill="none" stroke="#000000" d="M 831.087646484375 219.64 L 843.8512828480114 237" stroke-miterlimit="10"/></g><g transform="translate(10,-14) scale(1,1)"><g><path fill="none" stroke="none"/><text fill="#000000" stroke="none" font-family="Arial" font-size="13px" font-style="normal" font-weight="normal" text-decoration="none" x="780.5" y="255.5">«logiciel externe»</text></g></g><g transform="translate(10,-14) scale(1,1)"><g><path fill="none" stroke="none"/><text fill="#000000" stroke="none" font-family="Arial" font-size="13px" font-style="normal" font-weight="bold" text-decoration="none" x="786.285888671875" y="270.5">LogicielCompta</text></g></g><g transform="translate(10,-14) scale(1,1)"><path fill="#ffffff" stroke="none" d="M 108.01164524147728 489.68 C 108.01164524147728 484.886167936 111.89748756642274 481 116.69091796875 481 C 121.48434837107726 481 125.37019069602272 484.886167936 125.37019069602272 489.68 C 125.37019069602272 494.473832064 121.48434837107726 498.36 116.69091796875 498.36 C 111.89748756642274 498.36 108.01164524147728 494.473832064 108.01164524147728 489.68 Z"/></g><g transform="translate(10,-14) scale(1,1)"><path fill="none" stroke="#000000" d="M 108.01164524147728 489.68 C 108.01164524147728 484.886167936 111.89748756642274 481 116.69091796875 481 C 121.48434837107726 481 125.37019069602272 484.886167936 125.37019069602272 489.68 C 125.37019069602272 494.473832064 121.48434837107726 498.36 116.69091796875 498.36 C 111.89748756642274 498.36 108.01164524147728 494.473832064 108.01164524147728 489.68 Z" stroke-miterlimit="10"/></g><g transform="translate(10,-14) scale(1,1)"><path fill="none" stroke="#000000" d="M 116.69091796875 498.36 L 116.69091796875 515.64" stroke-miterlimit="10"/></g><g transform="translate(10,-14) scale(1,1)"><path fill="none" stroke="#000000" d="M 107.50109978693183 504.84 L 125.88073615056817 504.84" stroke-miterlimit="10"/></g><g transform="translate(10,-14) scale(1,1)"><path fill="none" stroke="#000000" d="M 116.69091796875 515.64 L 103.92728160511365 533" stroke-miterlimit="10"/></g><g transform="translate(10,-14) scale(1,1)"><path fill="none" stroke="#000000" d="M 116.69091796875 515.64 L 129.45455433238635 533" stroke-miterlimit="10"/></g><g transform="translate(10,-14) scale(1,1)"><g><path fill="none" stroke="none"/><text fill="#000000" stroke="none" font-family="Arial" font-size="13px" font-style="normal" font-weight="bold" text-decoration="none" x="94.280517578125" y="553.5">Abonné</text></g></g><g transform="translate(10,-14) scale(1,1)"><path fill="#C0C0C0" stroke="none" d="M 279 512 C 279 502.6111584 319.294368 495 369 495 C 418.705632 495 459 502.6111584 459 512 C 459 521.3888416 418.705632 529 369 529 C 319.294368 529 279 521.3888416 279 512 Z" opacity="0.2"/></g><g transform="translate(10,-14) scale(1,1)"><path fill="#ffffff" stroke="none" d="M 272 505 C 272 495.6111584 312.294368 488 362 488 C 411.705632 488 452 495.6111584 452 505 C 452 514.3888416 411.705632 522 362 522 C 312.294368 522 272 514.3888416 272 505 Z"/></g><g transform="translate(10,-14) scale(1,1)"><path fill="none" stroke="#000000" d="M 272 505 C 272 495.6111584 312.294368 488 362 488 C 411.705632 488 452 495.6111584 452 505 C 452 514.3888416 411.705632 522 362 522 C 312.294368 522 272 514.3888416 272 505 Z" stroke-miterlimit="10"/></g><g transform="translate(10,-14) scale(1,1)"><g><path fill="none" stroke="none"/><text fill="#000000" stroke="none" font-family="Arial" font-size="13px" font-style="normal" font-weight="bold" text-decoration="none" x="308.536865234375" y="512">consulter liste livre</text></g></g><g transform="translate(10,-14) scale(1,1)"><path fill="none" stroke="#000000" d="M 146 517 L 271 510" stroke-miterlimit="10"/></g><g transform="translate(10,-14) scale(1,1)"><path fill="none" stroke="#000000" d="M 261.08858706704024 514.7711522373908 L 271 510 L 260.6178586028318 506.36528680509645" stroke-miterlimit="10"/></g><g transform="translate(10,-14) scale(1,1)"><path fill="#C0C0C0" stroke="none" d="M 215 168 C 215 158.6111584 258.8760896 151 313 151 C 367.1239104 151 411 158.6111584 411 168 C 411 177.3888416 367.1239104 185 313 185 C 258.8760896 185 215 177.3888416 215 168 Z" opacity="0.2"/></g><g transform="translate(10,-14) scale(1,1)"><path fill="#ffeaad" stroke="none" d="M 208 161 C 208 151.6111584 251.8760896 144 306 144 C 360.1239104 144 404 151.6111584 404 161 C 404 170.3888416 360.1239104 178 306 178 C 251.8760896 178 208 170.3888416 208 161 Z"/></g><g transform="translate(10,-14) scale(1,1)"><path fill="none" stroke="#000000" d="M 208 161 C 208 151.6111584 251.8760896 144 306 144 C 360.1239104 144 404 151.6111584 404 161 C 404 170.3888416 360.1239104 178 306 178 C 251.8760896 178 208 170.3888416 208 161 Z" stroke-miterlimit="10"/></g><g transform="translate(10,-14) scale(1,1)"><g><path fill="none" stroke="none"/><text fill="#000000" stroke="none" font-family="Arial" font-size="13px" font-style="normal" font-weight="bold" text-decoration="none" x="245.65283203125" y="168">enreg debut emprunt</text></g></g><g transform="translate(10,-14) scale(1,1)"><path fill="#C0C0C0" stroke="none" d="M 407 432 C 407 422.6111584 442.36950079999997 415 486 415 C 529.6304992 415 565 422.6111584 565 432 C 565 441.3888416 529.6304992 449 486 449 C 442.36950079999997 449 407 441.3888416 407 432 Z" opacity="0.2"/></g><g transform="translate(10,-14) scale(1,1)"><path fill="#ffffff" stroke="none" d="M 400 425 C 400 415.6111584 435.36950079999997 408 479 408 C 522.6304992 408 558 415.6111584 558 425 C 558 434.3888416 522.6304992 442 479 442 C 435.36950079999997 442 400 434.3888416 400 425 Z"/></g><g transform="translate(10,-14) scale(1,1)"><path fill="none" stroke="#000000" d="M 400 425 C 400 415.6111584 435.36950079999997 408 479 408 C 522.6304992 408 558 415.6111584 558 425 C 558 434.3888416 522.6304992 442 479 442 C 435.36950079999997 442 400 434.3888416 400 425 Z" stroke-miterlimit="10"/></g><g transform="translate(10,-14) scale(1,1)"><g><path fill="none" stroke="none"/><text fill="#000000" stroke="none" font-family="Arial" font-size="13px" font-style="normal" font-weight="bold" text-decoration="none" x="432.75732421875" y="432">gérer inscription</text></g></g><g transform="translate(10,-14) scale(1,1)"><path fill="#C0C0C0" stroke="none" d="M 247 464 C 247 454.6111584 284.3842192 447 330.5 447 C 376.6157808 447 414 454.6111584 414 464 C 414 473.3888416 376.6157808 481 330.5 481 C 284.3842192 481 247 473.3888416 247 464 Z" opacity="0.2"/></g><g transform="translate(10,-14) scale(1,1)"><path fill="#ffffff" stroke="none" d="M 240 457 C 240 447.6111584 277.3842192 440 323.5 440 C 369.6157808 440 407 447.6111584 407 457 C 407 466.3888416 369.6157808 474 323.5 474 C 277.3842192 474 240 466.3888416 240 457 Z"/></g><g transform="translate(10,-14) scale(1,1)"><path fill="none" stroke="#000000" d="M 240 457 C 240 447.6111584 277.3842192 440 323.5 440 C 369.6157808 440 407 447.6111584 407 457 C 407 466.3888416 369.6157808 474 323.5 474 C 277.3842192 474 240 466.3888416 240 457 Z" stroke-miterlimit="10"/></g><g transform="translate(10,-14) scale(1,1)"><g><path fill="none" stroke="none"/><text fill="#000000" stroke="none" font-family="Arial" font-size="13px" font-style="normal" font-weight="bold" text-decoration="none" x="273.274169921875" y="464">gérer contentieux</text></g></g><g transform="translate(10,-14) scale(1,1)"><path fill="#C0C0C0" stroke="none" d="M 231 88 C 231 78.6111584 274.8760896 71 329 71 C 383.1239104 71 427 78.6111584 427 88 C 427 97.3888416 383.1239104 105 329 105 C 274.8760896 105 231 97.3888416 231 88 Z" opacity="0.2"/></g><g transform="translate(10,-14) scale(1,1)"><path fill="#ffffff" stroke="none" d="M 224 81 C 224 71.6111584 267.8760896 64 322 64 C 376.1239104 64 420 71.6111584 420 81 C 420 90.3888416 376.1239104 98 322 98 C 267.8760896 98 224 90.3888416 224 81 Z"/></g><g transform="translate(10,-14) scale(1,1)"><path fill="none" stroke="#000000" d="M 224 81 C 224 71.6111584 267.8760896 64 322 64 C 376.1239104 64 420 71.6111584 420 81 C 420 90.3888416 376.1239104 98 322 98 C 267.8760896 98 224 90.3888416 224 81 Z" stroke-miterlimit="10"/></g><g transform="translate(10,-14) scale(1,1)"><g><path fill="none" stroke="none"/><text fill="#000000" stroke="none" font-family="Arial" font-size="13px" font-style="normal" font-weight="bold" text-decoration="none" x="262.7509765625" y="88">enregistrer livre neuf</text></g></g><g transform="translate(10,-14) scale(1,1)"><path fill="#C0C0C0" stroke="none" d="M 479 88 C 479 78.6111584 526.6816688 71 585.5 71 C 644.3183312 71 692 78.6111584 692 88 C 692 97.3888416 644.3183312 105 585.5 105 C 526.6816688 105 479 97.3888416 479 88 Z" opacity="0.2"/></g><g transform="translate(10,-14) scale(1,1)"><path fill="#ffffff" stroke="none" d="M 472 81 C 472 71.6111584 519.6816688 64 578.5 64 C 637.3183312 64 685 71.6111584 685 81 C 685 90.3888416 637.3183312 98 578.5 98 C 519.6816688 98 472 90.3888416 472 81 Z"/></g><g transform="translate(10,-14) scale(1,1)"><path fill="none" stroke="#000000" d="M 472 81 C 472 71.6111584 519.6816688 64 578.5 64 C 637.3183312 64 685 71.6111584 685 81 C 685 90.3888416 637.3183312 98 578.5 98 C 519.6816688 98 472 90.3888416 472 81 Z" stroke-miterlimit="10"/></g><g transform="translate(10,-14) scale(1,1)"><g><path fill="none" stroke="none"/><text fill="#000000" stroke="none" font-family="Arial" font-size="13px" font-style="normal" font-weight="bold" text-decoration="none" x="513.833251953125" y="88">avertir logiciel_compta</text></g></g><g transform="translate(10,-14) scale(1,1)"><path fill="#C0C0C0" stroke="none" d="M 215 256 C 215 246.6111584 270.0689696 239 338 239 C 405.9310304 239 461 246.6111584 461 256 C 461 265.3888416 405.9310304 273 338 273 C 270.0689696 273 215 265.3888416 215 256 Z" opacity="0.2"/></g><g transform="translate(10,-14) scale(1,1)"><path fill="#ffffff" stroke="none" d="M 208 249 C 208 239.6111584 263.0689696 232 331 232 C 398.9310304 232 454 239.6111584 454 249 C 454 258.3888416 398.9310304 266 331 266 C 263.0689696 266 208 258.3888416 208 249 Z"/></g><g transform="translate(10,-14) scale(1,1)"><path fill="none" stroke="#000000" d="M 208 249 C 208 239.6111584 263.0689696 232 331 232 C 398.9310304 232 454 239.6111584 454 249 C 454 258.3888416 398.9310304 266 331 266 C 263.0689696 266 208 258.3888416 208 249 Z" stroke-miterlimit="10"/></g><g transform="translate(10,-14) scale(1,1)"><g><path fill="none" stroke="none"/><text fill="#000000" stroke="none" font-family="Arial" font-size="13px" font-style="normal" font-weight="bold" text-decoration="none" x="255.129638671875" y="256">enregistrer état livre rendu</text></g></g><g transform="translate(10,-14) scale(1,1)"><path fill="#C0C0C0" stroke="none" d="M 487 384 C 487 374.6111584 537.8156752 367 600.5 367 C 663.1843248 367 714 374.6111584 714 384 C 714 393.3888416 663.1843248 401 600.5 401 C 537.8156752 401 487 393.3888416 487 384 Z" opacity="0.2"/></g><g transform="translate(10,-14) scale(1,1)"><path fill="#ffffff" stroke="none" d="M 480 377 C 480 367.6111584 530.8156752 360 593.5 360 C 656.1843248 360 707 367.6111584 707 377 C 707 386.3888416 656.1843248 394 593.5 394 C 530.8156752 394 480 386.3888416 480 377 Z"/></g><g transform="translate(10,-14) scale(1,1)"><path fill="none" stroke="#000000" d="M 480 377 C 480 367.6111584 530.8156752 360 593.5 360 C 656.1843248 360 707 367.6111584 707 377 C 707 386.3888416 656.1843248 394 593.5 394 C 530.8156752 394 480 386.3888416 480 377 Z" stroke-miterlimit="10"/></g><g transform="translate(10,-14) scale(1,1)"><g><path fill="none" stroke="none"/><text fill="#000000" stroke="none" font-family="Arial" font-size="13px" font-style="normal" font-weight="bold" text-decoration="none" x="525.570556640625" y="384">déclencher restauration</text></g></g><g transform="translate(10,-14) scale(1,1)"><path fill="#C0C0C0" stroke="none" d="M 239 368 C 239 358.6111584 284.4430928 351 340.5 351 C 396.5569072 351 442 358.6111584 442 368 C 442 377.3888416 396.5569072 385 340.5 385 C 284.4430928 385 239 377.3888416 239 368 Z" opacity="0.2"/></g><g transform="translate(10,-14) scale(1,1)"><path fill="#ffffff" stroke="none" d="M 232 361 C 232 351.6111584 277.4430928 344 333.5 344 C 389.5569072 344 435 351.6111584 435 361 C 435 370.3888416 389.5569072 378 333.5 378 C 277.4430928 378 232 370.3888416 232 361 Z"/></g><g transform="translate(10,-14) scale(1,1)"><path fill="none" stroke="#000000" d="M 232 361 C 232 351.6111584 277.4430928 344 333.5 344 C 389.5569072 344 435 351.6111584 435 361 C 435 370.3888416 389.5569072 378 333.5 378 C 277.4430928 378 232 370.3888416 232 361 Z" stroke-miterlimit="10"/></g><g transform="translate(10,-14) scale(1,1)"><g><path fill="none" stroke="none"/><text fill="#000000" stroke="none" font-family="Arial" font-size="13px" font-style="normal" font-weight="bold" text-decoration="none" x="271.36279296875" y="368">réintégrer livre réparé</text></g></g><g transform="translate(10,-14) scale(1,1)"><path fill="#C0C0C0" stroke="none" d="M 471 136 C 471 126.6111584 507.0410736 119 551.5 119 C 595.9589264 119 632 126.6111584 632 136 C 632 145.3888416 595.9589264 153 551.5 153 C 507.0410736 153 471 145.3888416 471 136 Z" opacity="0.2"/></g><g transform="translate(10,-14) scale(1,1)"><path fill="#ffeaad" stroke="none" d="M 464 129 C 464 119.6111584 500.0410736 112 544.5 112 C 588.9589264 112 625 119.6111584 625 129 C 625 138.3888416 588.9589264 146 544.5 146 C 500.0410736 146 464 138.3888416 464 129 Z"/></g><g transform="translate(10,-14) scale(1,1)"><path fill="none" stroke="#000000" d="M 464 129 C 464 119.6111584 500.0410736 112 544.5 112 C 588.9589264 112 625 119.6111584 625 129 C 625 138.3888416 588.9589264 146 544.5 146 C 500.0410736 146 464 138.3888416 464 129 Z" stroke-miterlimit="10"/></g><g transform="translate(10,-14) scale(1,1)"><g><path fill="none" stroke="none"/><text fill="#000000" stroke="none" font-family="Arial" font-size="13px" font-style="normal" font-weight="bold" text-decoration="none" x="496.435546875" y="136">identifier abonné</text></g></g><g transform="translate(10,-14) scale(1,1)"><path fill="none" stroke="#000000" d="M 128 216 L 248 179" stroke-miterlimit="10"/></g><g transform="translate(10,-14) scale(1,1)"><path fill="none" stroke="#000000" d="M 239.5287951789779 186.0170284936212 L 248 179 L 237.04816519461633 177.9717420578539" stroke-miterlimit="10"/></g><g transform="translate(10,-14) scale(1,1)"><path fill="none" stroke="#000000" d="M 405 148 L 463 140" stroke-miterlimit="10" stroke-dasharray="3"/></g><g transform="translate(10,-14) scale(1,1)"><path fill="none" stroke="#000000" d="M 453.50781710579025 145.55863867353074 L 463 140 L 452.3574620070219 137.2185642074607" stroke-miterlimit="10"/></g><g transform="translate(10,-14) scale(1,1)"><g><path fill="none" stroke="none"/><text fill="#000000" stroke="none" font-family="Arial" font-size="13px" font-style="normal" font-weight="normal" text-decoration="none" x="405.5" y="134.5">«include»</text></g></g><g transform="translate(10,-14) scale(1,1)"><path fill="none" stroke="#000000" d="M 128 201 L 293 99" stroke-miterlimit="10"/></g><g transform="translate(10,-14) scale(1,1)"><path fill="none" stroke="#000000" d="M 286.5691414101327 107.92435195390289 L 293 99 L 282.14222649795295 100.76316606655324" stroke-miterlimit="10"/></g><g transform="translate(10,-14) scale(1,1)"><path fill="none" stroke="#000000" d="M 128 256 L 298 343" stroke-miterlimit="10"/></g><g transform="translate(10,-14) scale(1,1)"><path fill="none" stroke="#000000" d="M 287.03545950405345 342.11747424244504 L 298 343 L 290.8709390104606 334.62285911498276" stroke-miterlimit="10"/></g><g transform="translate(10,-14) scale(1,1)"><path fill="none" stroke="#000000" d="M 170 405 L 399 420" stroke-miterlimit="10"/></g><g transform="translate(10,-14) scale(1,1)"><path fill="none" stroke="#000000" d="M 388.5839139175455 423.5362622531279 L 399 420 L 389.1341998784328 415.13522991691434" stroke-miterlimit="10"/></g><g transform="translate(10,-14) scale(1,1)"><path fill="none" stroke="#000000" d="M 170 420 L 249 439" stroke-miterlimit="10"/></g><g transform="translate(10,-14) scale(1,1)"><path fill="none" stroke="#000000" d="M 238.1347335512515 440.71638719340945 L 249 439 L 240.10342739108967 432.53076543829286" stroke-miterlimit="10"/></g><g transform="translate(10,-14) scale(1,1)"><path fill="none" stroke="#000000" d="M 128 234 L 207 240" stroke-miterlimit="10"/></g><g transform="translate(10,-14) scale(1,1)"><path fill="none" stroke="#000000" d="M 196.54771756879126 243.4277969569747 L 207 240 L 197.18530174120787 235.03293868682272" stroke-miterlimit="10"/></g><g transform="translate(10,-14) scale(1,1)"><path fill="none" stroke="#000000" d="M 609 99 L 775 197" stroke-miterlimit="10"/></g><g transform="translate(10,-14) scale(1,1)"><path fill="none" stroke="#000000" d="M 764.1085517671103 195.45845681530366 L 775 197 L 768.3886187369721 188.20854745819076" stroke-miterlimit="10"/></g><g transform="translate(10,-14) scale(1,1)"><path fill="#C0C0C0" stroke="none" d="M 519 256 C 519 246.6111584 567.5770992 239 627.5 239 C 687.4229008 239 736 246.6111584 736 256 C 736 265.3888416 687.4229008 273 627.5 273 C 567.5770992 273 519 265.3888416 519 256 Z" opacity="0.2"/></g><g transform="translate(10,-14) scale(1,1)"><path fill="#ffffff" stroke="none" d="M 512 249 C 512 239.6111584 560.5770992 232 620.5 232 C 680.4229008 232 729 239.6111584 729 249 C 729 258.3888416 680.4229008 266 620.5 266 C 560.5770992 266 512 258.3888416 512 249 Z"/></g><g transform="translate(10,-14) scale(1,1)"><path fill="none" stroke="#000000" d="M 512 249 C 512 239.6111584 560.5770992 232 620.5 232 C 680.4229008 232 729 239.6111584 729 249 C 729 258.3888416 680.4229008 266 620.5 266 C 560.5770992 266 512 258.3888416 512 249 Z" stroke-miterlimit="10"/></g><g transform="translate(10,-14) scale(1,1)"><g><path fill="none" stroke="none"/><text fill="#000000" stroke="none" font-family="Arial" font-size="13px" font-style="normal" font-weight="bold" text-decoration="none" x="554.379638671875" y="256">enregistrer contentieux</text></g></g><g transform="translate(10,-14) scale(1,1)"><path fill="#ffffff" stroke="none" d="M 520 296 L 578 296 L 588 306 L 588 334 L 520 334 L 520 296"/></g><g transform="translate(10,-14) scale(1,1)"><path fill="none" stroke="#000000" d="M 520 296 L 578 296 L 588 306 L 588 334 L 520 334 L 520 296 L 520 296" stroke-miterlimit="10"/></g><g transform="translate(10,-14) scale(1,1)"><path fill="none" stroke="#000000" d="M 578 296 L 578 306 L 588 306 L 578 296" stroke-miterlimit="10"/></g><g transform="translate(10,-14) scale(1,1)"><g><path fill="none" stroke="none"/><text fill="#000000" stroke="none" font-family="Arial" font-size="13px" font-style="normal" font-weight="normal" text-decoration="none" x="525" y="314">si abimé</text></g></g><g transform="translate(10,-14) scale(1,1)"><path fill="none" stroke="#000000" d="M 421 81 L 471 81" stroke-miterlimit="10" stroke-dasharray="3"/></g><g transform="translate(10,-14) scale(1,1)"><path fill="none" stroke="#000000" d="M 460.83732514237585 85.20951775601598 L 471 81 L 460.83732514237585 76.79048224398402" stroke-miterlimit="10"/></g><g transform="translate(10,-14) scale(1,1)"><g><path fill="none" stroke="none"/><text fill="#000000" stroke="none" font-family="Arial" font-size="13px" font-style="normal" font-weight="normal" text-decoration="none" x="415.5" y="67.5">«include»</text></g></g><g transform="translate(10,-14) scale(1,1)"><path fill="none" stroke="#000000" d="M 511 249 L 455 249" stroke-miterlimit="10" stroke-dasharray="3"/></g><g transform="translate(10,-14) scale(1,1)"><path fill="none" stroke="#000000" d="M 465.16267485762415 244.790482243984 L 455 249 L 465.16267485762415 253.209517756016" stroke-miterlimit="10"/></g><g transform="translate(10,-14) scale(1,1)"><g><path fill="none" stroke="none"/><text fill="#000000" stroke="none" font-family="Arial" font-size="13px" font-style="normal" font-weight="normal" text-decoration="none" x="474.5" y="238.5">«extend»</text></g></g><g transform="translate(10,-14) scale(1,1)"><path fill="none" stroke="#000000" d="M 556 359 L 368 267" stroke-miterlimit="10" stroke-dasharray="3"/></g><g transform="translate(10,-14) scale(1,1)"><path fill="none" stroke="#000000" d="M 378.9785900834875 267.6859735991641 L 368 267 L 375.2779789122176 275.2480920795852" stroke-miterlimit="10"/></g><g transform="translate(10,-14) scale(1,1)"><g><path fill="none" stroke="none"/><text fill="#000000" stroke="none" font-family="Arial" font-size="13px" font-style="normal" font-weight="normal" text-decoration="none" x="423.5" y="326.5">«extend»</text></g></g><g transform="translate(10,-14) scale(1,1)"><path fill="none" stroke="#000000" d="M 519 314 L 462 313" stroke-miterlimit="10" stroke-dasharray="3"/></g><g transform="translate(10,-14) scale(1,1)"><path fill="none" stroke="#000000" d="M 532 295 L 483 249" stroke-miterlimit="10" stroke-dasharray="3"/></g><g transform="translate(10,-14) scale(1,1)"><path fill="#C0C0C0" stroke="none" d="M 447 200 C 447 190.6111584 501.1735392 183 568 183 C 634.8264608 183 689 190.6111584 689 200 C 689 209.3888416 634.8264608 217 568 217 C 501.1735392 217 447 209.3888416 447 200 Z" opacity="0.2"/></g><g transform="translate(10,-14) scale(1,1)"><path fill="#ffeaad" stroke="none" d="M 440 193 C 440 183.6111584 494.1735392 176 561 176 C 627.8264608 176 682 183.6111584 682 193 C 682 202.3888416 627.8264608 210 561 210 C 494.1735392 210 440 202.3888416 440 193 Z"/></g><g transform="translate(10,-14) scale(1,1)"><path fill="none" stroke="#000000" d="M 440 193 C 440 183.6111584 494.1735392 176 561 176 C 627.8264608 176 682 183.6111584 682 193 C 682 202.3888416 627.8264608 210 561 210 C 494.1735392 210 440 202.3888416 440 193 Z" stroke-miterlimit="10"/></g><g transform="translate(10,-14) scale(1,1)"><g><path fill="none" stroke="none"/><text fill="#000000" stroke="none" font-family="Arial" font-size="13px" font-style="normal" font-weight="bold" text-decoration="none" x="486.945068359375" y="200">vérifier droits à emprunter</text></g></g><g transform="translate(10,-14) scale(1,1)"><path fill="none" stroke="#000000" d="M 405 173 L 439 178" stroke-miterlimit="10" stroke-dasharray="3"/></g><g transform="translate(10,-14) scale(1,1)"><path fill="none" stroke="#000000" d="M 428.3330052534852 180.68611672825776 L 439 178 L 429.55792432624844 172.3566670334678" stroke-miterlimit="10"/></g><g transform="translate(10,-14) scale(1,1)"><g><path fill="none" stroke="none"/><text fill="#000000" stroke="none" font-family="Arial" font-size="13px" font-style="normal" font-weight="normal" text-decoration="none" x="367.5" y="196.5">«include»</text></g></g></g></svg>