<svg version="1.1" xmlns="http://www.w3.org/2000/svg" xmlns:xlink="http://www.w3.org/1999/xlink" width="676" height="644"><defs/><g><text fill="#eeeeee" stroke="none" font-family="Arial" font-size="24px" font-style="normal" font-weight="normal" text-decoration="none" x="0" y="0">UNREGISTERED</text><text fill="#eeeeee" stroke="none" font-family="Arial" font-size="24px" font-style="normal" font-weight="normal" text-decoration="none" x="0" y="30">UNREGISTERED</text><text fill="#eeeeee" stroke="none" font-family="Arial" font-size="24px" font-style="normal" font-weight="normal" text-decoration="none" x="0" y="60">UNREGISTERED</text><text fill="#eeeeee" stroke="none" font-family="Arial" font-size="24px" font-style="normal" font-weight="normal" text-decoration="none" x="0" y="90">UNREGISTERED</text><text fill="#eeeeee" stroke="none" font-family="Arial" font-size="24px" font-style="normal" font-weight="normal" text-decoration="none" x="0" y="120">UNREGISTERED</text><text fill="#eeeeee" stroke="none" font-family="Arial" font-size="24px" font-style="normal" font-weight="normal" text-decoration="none" x="0" y="150">UNREGISTERED</text><text fill="#eeeeee" stroke="none" font-family="Arial" font-size="24px" font-style="normal" font-weight="normal" text-decoration="none" x="0" y="180">UNREGISTERED</text><text fill="#eeeeee" stroke="none" font-family="Arial" font-size="24px" font-style="normal" font-weight="normal" text-decoration="none" x="0" y="210">UNREGISTERED</text><text fill="#eeeeee" stroke="none" font-family="Arial" font-size="24px" font-style="normal" font-weight="normal" text-decoration="none" x="0" y="240">UNREGISTERED</text><text fill="#eeeeee" stroke="none" font-family="Arial" font-size="24px" font-style="normal" font-weight="normal" text-decoration="none" x="0" y="270">UNREGISTERED</text><text fill="#eeeeee" stroke="none" font-family="Arial" font-size="24px" font-style="normal" font-weight="normal" text-decoration="none" x="0" y="300">UNREGISTERED</text><text fill="#eeeeee" stroke="none" font-family="Arial" font-size="24px" font-style="normal" font-weight="normal" text-decoration="none" x="0" y="330">UNREGISTERED</text><text fill="#eeeeee" stroke="none" font-family="Arial" font-size="24px" font-style="normal" font-weight="normal" text-decoration="none" x="0" y="360">UNREGISTERED</text><text fill="#eeeeee" stroke="none" font-family="Arial" font-size="24px" font-style="normal" font-weight="normal" text-decoration="none" x="0" y="390">UNREGISTERED</text><text fill="#eeeeee" stroke="none" font-family="Arial" font-size="24px" font-style="normal" font-weight="normal" text-decoration="none" x="0" y="420">UNREGISTERED</text><text fill="#eeeeee" stroke="none" font-family="Arial" font-size="24px" font-style="normal" font-weight="normal" text-decoration="none" x="0" y="450">UNREGISTERED</text><text fill="#eeeeee" stroke="none" font-family="Arial" font-size="24px" font-style="normal" font-weight="normal" text-decoration="none" x="0" y="480">UNREGISTERED</text><text fill="#eeeeee" stroke="none" font-family="Arial" font-size="24px" font-style="normal" font-weight="normal" text-decoration="none" x="0" y="510">UNREGISTERED</text><text fill="#eeeeee" stroke="none" font-family="Arial" font-size="24px" font-style="normal" font-weight="normal" text-decoration="none" x="0" y="540">UNREGISTERED</text><text fill="#eeeeee" stroke="none" font-family="Arial" font-size="24px" font-style="normal" font-weight="normal" text-decoration="none" x="0" y="570">UNREGISTERED</text><text fill="#eeeeee" stroke="none" font-family="Arial" font-size="24px" font-style="normal" font-weight="normal" text-decoration="none" x="0" y="600">UNREGISTERED</text><text fill="#eeeeee" stroke="none" font-family="Arial" font-size="24px" font-style="normal" font-weight="normal" text-decoration="none" x="0" y="630">UNREGISTERED</text><text fill="#eeeeee" stroke="none" font-family="Arial" font-size="24px" font-style="normal" font-weight="normal" text-decoration="none" x="200" y="0">UNREGISTERED</text><text fill="#eeeeee" stroke="none" font-family="Arial" font-size="24px" font-style="normal" font-weight="normal" text-decoration="none" x="200" y="30">UNREGISTERED</text><text fill="#eeeeee" stroke="none" font-family="Arial" font-size="24px" font-style="normal" font-weight="normal" text-decoration="none" x="200" y="60">UNREGISTERED</text><text fill="#eeeeee" stroke="none" font-family="Arial" font-size="24px" font-style="normal" font-weight="normal" text-decoration="none" x="200" y="90">UNREGISTERED</text><text fill="#eeeeee" stroke="none" font-family="Arial" font-size="24px" font-style="normal" font-weight="normal" text-decoration="none" x="200" y="120">UNREGISTERED</text><text fill="#eeeeee" stroke="none" font-family="Arial" font-size="24px" font-style="normal" font-weight="normal" text-decoration="none" x="200" y="150">UNREGISTERED</text><text fill="#eeeeee" stroke="none" font-family="Arial" font-size="24px" font-style="normal" font-weight="normal" text-decoration="none" x="200" y="180">UNREGISTERED</text><text fill="#eeeeee" stroke="none" font-family="Arial" font-size="24px" font-style="normal" font-weight="normal" text-decoration="none" x="200" y="210">UNREGISTERED</text><text fill="#eeeeee" stroke="none" font-family="Arial" font-size="24px" font-style="normal" font-weight="normal" text-decoration="none" x="200" y="240">UNREGISTERED</text><text fill="#eeeeee" stroke="none" font-family="Arial" font-size="24px" font-style="normal" font-weight="normal" text-decoration="none" x="200" y="270">UNREGISTERED</text><text fill="#eeeeee" stroke="none" font-family="Arial" font-size="24px" font-style="normal" font-weight="normal" text-decoration="none" x="200" y="300">UNREGISTERED</text><text fill="#eeeeee" stroke="none" font-family="Arial" font-size="24px" font-style="normal" font-weight="normal" text-decoration="none" x="200" y="330">UNREGISTERED</text><text fill="#eeeeee" stroke="none" font-family="Arial" font-size="24px" font-style="normal" font-weight="normal" text-decoration="none" x="200" y="360">UNREGISTERED</text><text fill="#eeeeee" stroke="none" font-family="Arial" font-size="24px" font-style="normal" font-weight="normal" text-decoration="none" x="200" y="390">UNREGISTERED</text><text fill="#eeeeee" stroke="none" font-family="Arial" font-size="24px" font-style="normal" font-weight="normal" text-decoration="none" x="200" y="420">UNREGISTERED</text><text fill="#eeeeee" stroke="none" font-family="Arial" font-size="24px" font-style="normal" font-weight="normal" text-decoration="none" x="200" y="450">UNREGISTERED</text><text fill="#eeeeee" stroke="none" font-family="Arial" font-size="24px" font-style="normal" font-weight="normal" text-decoration="none" x="200" y="480">UNREGISTERED</text><text fill="#eeeeee" stroke="none" font-family="Arial" font-size="24px" font-style="normal" font-weight="normal" text-decoration="none" x="200" y="510">UNREGISTERED</text><text fill="#eeeeee" stroke="none" font-family="Arial" font-size="24px" font-style="normal" font-weight="normal" text-decoration="none" x="200" y="540">UNREGISTERED</text><text fill="#eeeeee" stroke="none" font-family="Arial" font-size="24px" font-style="normal" font-weight="normal" text-decoration="none" x="200" y="570">UNREGISTERED</text><text fill="#eeeeee" stroke="none" font-family="Arial" font-size="24px" font-style="normal" font-weight="normal" text-decoration="none" x="200" y="600">UNREGISTERED</text><text fill="#eeeeee" stroke="none" font-family="Arial" font-size="24px" font-style="normal" font-weight="normal" text-decoration="none" x="200" y="630">UNREGISTERED</text><text fill="#eeeeee" stroke="none" font-family="Arial" font-size="24px" font-style="normal" font-weight="normal" text-decoration="none" x="400" y="0">UNREGISTERED</text><text fill="#eeeeee" stroke="none" font-family="Arial" font-size="24px" font-style="normal" font-weight="normal" text-decoration="none" x="400" y="30">UNREGISTERED</text><text fill="#eeeeee" stroke="none" font-family="Arial" font-size="24px" font-style="normal" font-weight="normal" text-decoration="none" x="400" y="60">UNREGISTERED</text><text fill="#eeeeee" stroke="none" font-family="Arial" font-size="24px" font-style="normal" font-weight="normal" text-decoration="none" x="400" y="90">UNREGISTERED</text><text fill="#eeeeee" stroke="none" font-family="Arial" font-size="24px" font-style="normal" font-weight="normal" text-decoration="none" x="400" y="120">UNREGISTERED</text><text fill="#eeeeee" stroke="none" font-family="Arial" font-size="24px" font-style="normal" font-weight="normal" text-decoration="none" x="400" y="150">UNREGISTERED</text><text fill="#eeeeee" stroke="none" font-family="Arial" font-size="24px" font-style="normal" font-weight="normal" text-decoration="none" x="400" y="180">UNREGISTERED</text><text fill="#eeeeee" stroke="none" font-family="Arial" font-size="24px" font-style="normal" font-weight="normal" text-decoration="none" x="400" y="210">UNREGISTERED</text><text fill="#eeeeee" stroke="none" font-family="Arial" font-size="24px" font-style="normal" font-weight="normal" text-decoration="none" x="400" y="240">UNREGISTERED</text><text fill="#eeeeee" stroke="none" font-family="Arial" font-size="24px" font-style="normal" font-weight="normal" text-decoration="none" x="400" y="270">UNREGISTERED</text><text fill="#eeeeee" stroke="none" font-family="Arial" font-size="24px" font-style="normal" font-weight="normal" text-decoration="none" x="400" y="300">UNREGISTERED</text><text fill="#eeeeee" stroke="none" font-family="Arial" font-size="24px" font-style="normal" font-weight="normal" text-decoration="none" x="400" y="330">UNREGISTERED</text><text fill="#eeeeee" stroke="none" font-family="Arial" font-size="24px" font-style="normal" font-weight="normal" text-decoration="none" x="400" y="360">UNREGISTERED</text><text fill="#eeeeee" stroke="none" font-family="Arial" font-size="24px" font-style="normal" font-weight="normal" text-decoration="none" x="400" y="390">UNREGISTERED</text><text fill="#eeeeee" stroke="none" font-family="Arial" font-size="24px" font-style="normal" font-weight="normal" text-decoration="none" x="400" y="420">UNREGISTERED</text><text fill="#eeeeee" stroke="none" font-family="Arial" font-size="24px" font-style="normal" font-weight="normal" text-decoration="none" x="400" y="450">UNREGISTERED</text><text fill="#eeeeee" stroke="none" font-family="Arial" font-size="24px" font-style="normal" font-weight="normal" text-decoration="none" x="400" y="480">UNREGISTERED</text><text fill="#eeeeee" stroke="none" font-family="Arial" font-size="24px" font-style="normal" font-weight="normal" text-decoration="none" x="400" y="510">UNREGISTERED</text><text fill="#eeeeee" stroke="none" font-family="Arial" font-size="24px" font-style="normal" font-weight="normal" text-decoration="none" x="400" y="540">UNREGISTERED</text><text fill="#eeeeee" stroke="none" font-family="Arial" font-size="24px" font-style="normal" font-weight="normal" text-decoration="none" x="400" y="570">UNREGISTERED</text><text fill="#eeeeee" stroke="none" font-family="Arial" font-size="24px" font-style="normal" font-weight="normal" text-decoration="none" x="400" y="600">UNREGISTERED</text><text fill="#eeeeee" stroke="none" font-family="Arial" font-size="24px" font-style="normal" font-weight="normal" text-decoration="none" x="400" y="630">UNREGISTERED</text><text fill="#eeeeee" stroke="none" font-family="Arial" font-size="24px" font-style="normal" font-weight="normal" text-decoration="none" x="600" y="0">UNREGISTERED</text><text fill="#eeeeee" stroke="none" font-family="Arial" font-size="24px" font-style="normal" font-weight="normal" text-decoration="none" x="600" y="30">UNREGISTERED</text><text fill="#eeeeee" stroke="none" font-family="Arial" font-size="24px" font-style="normal" font-weight="normal" text-decoration="none" x="600" y="60">UNREGISTERED</text><text fill="#eeeeee" stroke="none" font-family="Arial" font-size="24px" font-style="normal" font-weight="normal" text-decoration="none" x="600" y="90">UNREGISTERED</text><text fill="#eeeeee" stroke="none" font-family="Arial" font-size="24px" font-style="normal" font-weight="normal" text-decoration="none" x="600" y="120">UNREGISTERED</text><text fill="#eeeeee" stroke="none" font-family="Arial" font-size="24px" font-style="normal" font-weight="normal" text-decoration="none" x="600" y="150">UNREGISTERED</text><text fill="#eeeeee" stroke="none" font-family="Arial" font-size="24px" font-style="normal" font-weight="normal" text-decoration="none" x="600" y="180">UNREGISTERED</text><text fill="#eeeeee" stroke="none" font-family="Arial" font-size="24px" font-style="normal" font-weight="normal" text-decoration="none" x="600" y="210">UNREGISTERED</text><text fill="#eeeeee" stroke="none" font-family="Arial" font-size="24px" font-style="normal" font-weight="normal" text-decoration="none" x="600" y="240">UNREGISTERED</text><text fill="#eeeeee" stroke="none" font-family="Arial" font-size="24px" font-style="normal" font-weight="normal" text-decoration="none" x="600" y="270">UNREGISTERED</text><text fill="#eeeeee" stroke="none" font-family="Arial" font-size="24px" font-style="normal" font-weight="normal" text-decoration="none" x="600" y="300">UNREGISTERED</text><text fill="#eeeeee" stroke="none" font-family="Arial" font-size="24px" font-style="normal" font-weight="normal" text-decoration="none" x="600" y="330">UNREGISTERED</text><text fill="#eeeeee" stroke="none" font-family="Arial" font-size="24px" font-style="normal" font-weight="normal" text-decoration="none" x="600" y="360">UNREGISTERED</text><text fill="#eeeeee" stroke="none" font-family="Arial" font-size="24px" font-style="normal" font-weight="normal" text-decoration="none" x="600" y="390">UNREGISTERED</text><text fill="#eeeeee" stroke="none" font-family="Arial" font-size="24px" font-style="normal" font-weight="normal" text-decoration="none" x="600" y="420">UNREGISTERED</text><text fill="#eeeeee" stroke="none" font-family="Arial" font-size="24px" font-style="normal" font-weight="normal" text-decoration="none" x="600" y="450">UNREGISTERED</text><text fill="#eeeeee" stroke="none" font-family="Arial" font-size="24px" font-style="normal" font-weight="normal" text-decoration="none" x="600" y="480">UNREGISTERED</text><text fill="#eeeeee" stroke="none" font-family="Arial" font-size="24px" font-style="normal" font-weight="normal" text-decoration="none" x="600" y="510">UNREGISTERED</text><text fill="#eeeeee" stroke="none" font-family="Arial" font-size="24px" font-style="normal" font-weight="normal" text-decoration="none" x="600" y="540">UNREGISTERED</text><text fill="#eeeeee" stroke="none" font-family="Arial" font-size="24px" font-style="normal" font-weight="normal" text-decoration="none" x="600" y="570">UNREGISTERED</text><text fill="#eeeeee" stroke="none" font-family="Arial" font-size="24px" font-style="normal" font-weight="normal" text-decoration="none" x="600" y="600">UNREGISTERED</text><text fill="#eeeeee" stroke="none" font-family="Arial" font-size="24px" font-style="normal" font-weight="normal" text-decoration="none" x="600" y="630">UNREGISTERED</text><g transform="translate(-54,-46) scale(1,1)"><rect fill="#C0C0C0" stroke="none" x="71" y="63" width="156.8" height="15" opacity="0.2"/></g><g transform="translate(-54,-46) scale(1,1)"><rect fill="#C0C0C0" stroke="none" x="71" y="77" width="392" height="250" opacity="0.2"/></g><g transform="translate(-54,-46) scale(1,1)"><rect fill="#ffffff" stroke="none" x="64" y="71" width="392" height="249"/></g><g transform="translate(-54,-46) scale(1,1)"><path fill="none" stroke="#000000" d="M 64 71 L 456 71 L 456 320 L 64 320 L 64 71 Z Z" stroke-miterlimit="10"/></g><g transform="translate(-54,-46) scale(1,1)"><rect fill="#ffffff" stroke="none" x="64" y="56" width="156.8" height="15"/></g><g transform="translate(-54,-46) scale(1,1)"><path fill="none" stroke="#000000" d="M 64 56 L 220.8 56 L 220.8 71 L 64 71 L 64 56 Z Z" stroke-miterlimit="10"/></g><g transform="translate(-54,-46) scale(1,1)"><rect fill="#ffffff" stroke="none" x="64" y="70" width="392" height="250"/></g><g transform="translate(-54,-46) scale(1,1)"><path fill="none" stroke="#000000" d="M 64 70 L 456 70 L 456 320 L 64 320 L 64 70 Z Z" stroke-miterlimit="10"/></g><g transform="translate(-54,-46) scale(1,1)"><g><path fill="none" stroke="none"/><text fill="#000000" stroke="none" font-family="Arial" font-size="13px" font-style="normal" font-weight="bold" text-decoration="none" x="244.832275390625" y="90.5">livres</text></g></g><g transform="translate(-54,-46) scale(1,1)"><rect fill="#C0C0C0" stroke="none" x="95" y="359" width="102.4" height="15" opacity="0.2"/></g><g transform="translate(-54,-46) scale(1,1)"><rect fill="#C0C0C0" stroke="none" x="95" y="373" width="256" height="314" opacity="0.2"/></g><g transform="translate(-54,-46) scale(1,1)"><rect fill="#ffffff" stroke="none" x="88" y="367" width="256" height="313"/></g><g transform="translate(-54,-46) scale(1,1)"><path fill="none" stroke="#000000" d="M 88 367 L 344 367 L 344 680 L 88 680 L 88 367 Z Z" stroke-miterlimit="10"/></g><g transform="translate(-54,-46) scale(1,1)"><rect fill="#ffffff" stroke="none" x="88" y="352" width="102.4" height="15"/></g><g transform="translate(-54,-46) scale(1,1)"><path fill="none" stroke="#000000" d="M 88 352 L 190.4 352 L 190.4 367 L 88 367 L 88 352 Z Z" stroke-miterlimit="10"/></g><g transform="translate(-54,-46) scale(1,1)"><rect fill="#ffffff" stroke="none" x="88" y="366" width="256" height="314"/></g><g transform="translate(-54,-46) scale(1,1)"><path fill="none" stroke="#000000" d="M 88 366 L 344 366 L 344 680 L 88 680 L 88 366 Z Z" stroke-miterlimit="10"/></g><g transform="translate(-54,-46) scale(1,1)"><g><path fill="none" stroke="none"/><text fill="#000000" stroke="none" font-family="Arial" font-size="13px" font-style="normal" font-weight="bold" text-decoration="none" x="190.707763671875" y="386.5">individus</text></g></g><g transform="translate(-54,-46) scale(1,1)"><rect fill="#C0C0C0" stroke="none" x="399" y="375" width="131.20000000000005" height="15" opacity="0.2"/></g><g transform="translate(-54,-46) scale(1,1)"><rect fill="#C0C0C0" stroke="none" x="399" y="389" width="328" height="290" opacity="0.2"/></g><g transform="translate(-54,-46) scale(1,1)"><rect fill="#ffffff" stroke="none" x="392" y="383" width="328" height="289"/></g><g transform="translate(-54,-46) scale(1,1)"><path fill="none" stroke="#000000" d="M 392 383 L 720 383 L 720 672 L 392 672 L 392 383 Z Z" stroke-miterlimit="10"/></g><g transform="translate(-54,-46) scale(1,1)"><rect fill="#ffffff" stroke="none" x="392" y="368" width="131.20000000000005" height="15"/></g><g transform="translate(-54,-46) scale(1,1)"><path fill="none" stroke="#000000" d="M 392 368 L 523.2 368 L 523.2 383 L 392 383 L 392 368 Z Z" stroke-miterlimit="10"/></g><g transform="translate(-54,-46) scale(1,1)"><rect fill="#ffffff" stroke="none" x="392" y="382" width="328" height="290"/></g><g transform="translate(-54,-46) scale(1,1)"><path fill="none" stroke="#000000" d="M 392 382 L 720 382 L 720 672 L 392 672 L 392 382 Z Z" stroke-miterlimit="10"/></g><g transform="translate(-54,-46) scale(1,1)"><g><path fill="none" stroke="none"/><text fill="#000000" stroke="none" font-family="Arial" font-size="13px" font-style="normal" font-weight="bold" text-decoration="none" x="528.905029296875" y="402.5">emprunts</text></g></g><g transform="translate(-54,-46) scale(1,1)"><path fill="none" stroke="#000000" d="M 420 367 L 379 321" stroke-miterlimit="10" stroke-dasharray="3"/></g><g transform="translate(-54,-46) scale(1,1)"><path fill="none" stroke="#000000" d="M 388.90440517514674 325.7856826186581 L 379 321 L 382.61948343070566 331.3874606952251" stroke-miterlimit="10"/></g><g transform="translate(-54,-46) scale(1,1)"><path fill="none" stroke="#000000" d="M 391 518 L 345 518" stroke-miterlimit="10" stroke-dasharray="3"/></g><g transform="translate(-54,-46) scale(1,1)"><path fill="none" stroke="#000000" d="M 355.16267485762415 513.790482243984 L 345 518 L 355.16267485762415 522.209517756016" stroke-miterlimit="10"/></g><g transform="translate(-54,-46) scale(1,1)"><rect fill="#C0C0C0" stroke="none" x="303" y="199" width="135.1025390625" height="89" opacity="0.2"/></g><g transform="translate(-54,-46) scale(1,1)"><rect fill="#ffffff" stroke="none" x="296" y="192" width="135.1025390625" height="89"/></g><g transform="translate(-54,-46) scale(1,1)"><path fill="none" stroke="#000000" d="M 296 192 L 431.1025390625 192 L 431.1025390625 281 L 296 281 L 296 192 Z Z" stroke-miterlimit="10"/></g><g transform="translate(-54,-46) scale(1,1)"><path fill="none" stroke="#000000" d="M 296 217 L 431.1025390625 217" stroke-miterlimit="10"/></g><g transform="translate(-54,-46) scale(1,1)"><path fill="none" stroke="#000000" d="M 296 272 L 431.1025390625 272" stroke-miterlimit="10"/></g><g transform="translate(-54,-46) scale(1,1)"><g><path fill="none" stroke="none"/><text fill="#000000" stroke="none" font-family="Arial" font-size="13px" font-style="normal" font-weight="bold" text-decoration="none" x="331.03857421875" y="211.5">Exemplaire</text></g></g><g transform="translate(-54,-46) scale(1,1)"><g><path fill="none" stroke="none"/><text fill="#000000" stroke="none" font-family="Arial" font-size="13px" font-style="normal" font-weight="normal" text-decoration="none" x="301" y="236.5">+etat: EtatsPysiques</text></g></g><g transform="translate(-54,-46) scale(1,1)"><g><path fill="none" stroke="none"/><text fill="#000000" stroke="none" font-family="Arial" font-size="13px" font-style="normal" font-weight="normal" text-decoration="none" x="301" y="251.5">+usage: Usages</text></g></g><g transform="translate(-54,-46) scale(1,1)"><g><path fill="none" stroke="none"/><text fill="#000000" stroke="none" font-family="Arial" font-size="13px" font-style="normal" font-weight="normal" text-decoration="none" x="301" y="266.5">+numeroExemplaire</text></g></g><g transform="translate(-54,-46) scale(1,1)"><rect fill="#C0C0C0" stroke="none" x="599" y="543" width="121.3916015625" height="102" opacity="0.2"/></g><g transform="translate(-54,-46) scale(1,1)"><rect fill="#ffffff" stroke="none" x="592" y="536" width="121.3916015625" height="102"/></g><g transform="translate(-54,-46) scale(1,1)"><path fill="none" stroke="#000000" d="M 592 536 L 713.3916015625 536 L 713.3916015625 638 L 592 638 L 592 536 Z Z" stroke-miterlimit="10"/></g><g transform="translate(-54,-46) scale(1,1)"><path fill="none" stroke="#000000" d="M 592 561 L 713.3916015625 561" stroke-miterlimit="10"/></g><g transform="translate(-54,-46) scale(1,1)"><path fill="none" stroke="#000000" d="M 592 629 L 713.3916015625 629" stroke-miterlimit="10"/></g><g transform="translate(-54,-46) scale(1,1)"><g><path fill="none" stroke="none"/><text fill="#000000" stroke="none" font-family="Arial" font-size="13px" font-style="normal" font-weight="bold" text-decoration="none" x="618.005859375" y="555.5">Contentieux</text></g></g><g transform="translate(-54,-46) scale(1,1)"><g><path fill="none" stroke="none"/><text fill="#000000" stroke="none" font-family="Arial" font-size="13px" font-style="normal" font-weight="normal" text-decoration="none" x="597" y="578.5">+idContentieux</text></g></g><g transform="translate(-54,-46) scale(1,1)"><g><path fill="none" stroke="none"/><text fill="#000000" stroke="none" font-family="Arial" font-size="13px" font-style="normal" font-weight="normal" text-decoration="none" x="597" y="593.5">+motif</text></g></g><g transform="translate(-54,-46) scale(1,1)"><g><path fill="none" stroke="none"/><text fill="#000000" stroke="none" font-family="Arial" font-size="13px" font-style="normal" font-weight="normal" text-decoration="none" x="597" y="608.5">+date</text></g></g><g transform="translate(-54,-46) scale(1,1)"><g><path fill="none" stroke="none"/><text fill="#000000" stroke="none" font-family="Arial" font-size="13px" font-style="normal" font-weight="normal" text-decoration="none" x="597" y="623.5">+estRegle: boolean</text></g></g><g transform="translate(-54,-46) scale(1,1)"><rect fill="#C0C0C0" stroke="none" x="135" y="407" width="73.70166015625" height="117" opacity="0.2"/></g><g transform="translate(-54,-46) scale(1,1)"><rect fill="#ffffff" stroke="none" x="128" y="400" width="73.70166015625" height="117"/></g><g transform="translate(-54,-46) scale(1,1)"><path fill="none" stroke="#000000" d="M 128 400 L 201.70166015625 400 L 201.70166015625 517 L 128 517 L 128 400 Z Z" stroke-miterlimit="10"/></g><g transform="translate(-54,-46) scale(1,1)"><path fill="none" stroke="#000000" d="M 128 425 L 201.70166015625 425" stroke-miterlimit="10"/></g><g transform="translate(-54,-46) scale(1,1)"><path fill="none" stroke="#000000" d="M 128 508 L 201.70166015625 508" stroke-miterlimit="10"/></g><g transform="translate(-54,-46) scale(1,1)"><g><path fill="none" stroke="none"/><text fill="#000000" stroke="none" font-family="Arial" font-size="13px" font-style="normal" font-weight="bold" text-decoration="none" x="137.02587890625" y="419.5">Personne</text></g></g><g transform="translate(-54,-46) scale(1,1)"><g><path fill="none" stroke="none"/><text fill="#000000" stroke="none" font-family="Arial" font-size="13px" font-style="normal" font-weight="normal" text-decoration="none" x="133" y="442.5">+nom</text></g></g><g transform="translate(-54,-46) scale(1,1)"><g><path fill="none" stroke="none"/><text fill="#000000" stroke="none" font-family="Arial" font-size="13px" font-style="normal" font-weight="normal" text-decoration="none" x="133" y="457.5">+prenom</text></g></g><g transform="translate(-54,-46) scale(1,1)"><g><path fill="none" stroke="none"/><text fill="#000000" stroke="none" font-family="Arial" font-size="13px" font-style="normal" font-weight="normal" text-decoration="none" x="133" y="472.5">+adresse</text></g></g><g transform="translate(-54,-46) scale(1,1)"><g><path fill="none" stroke="none"/><text fill="#000000" stroke="none" font-family="Arial" font-size="13px" font-style="normal" font-weight="normal" text-decoration="none" x="133" y="487.5">+email</text></g></g><g transform="translate(-54,-46) scale(1,1)"><g><path fill="none" stroke="none"/><text fill="#000000" stroke="none" font-family="Arial" font-size="13px" font-style="normal" font-weight="normal" text-decoration="none" x="133" y="502.5">+telephone</text></g></g><g transform="translate(-54,-46) scale(1,1)"><rect fill="#C0C0C0" stroke="none" x="239" y="575" width="85.248046875" height="70" opacity="0.2"/></g><g transform="translate(-54,-46) scale(1,1)"><rect fill="#ffffff" stroke="none" x="232" y="568" width="85.248046875" height="70"/></g><g transform="translate(-54,-46) scale(1,1)"><path fill="none" stroke="#000000" d="M 232 568 L 317.248046875 568 L 317.248046875 638 L 232 638 L 232 568 Z Z" stroke-miterlimit="10"/></g><g transform="translate(-54,-46) scale(1,1)"><path fill="none" stroke="#000000" d="M 232 606 L 317.248046875 606" stroke-miterlimit="10"/></g><g transform="translate(-54,-46) scale(1,1)"><path fill="none" stroke="#000000" d="M 232 629 L 317.248046875 629" stroke-miterlimit="10"/></g><g transform="translate(-54,-46) scale(1,1)"><g><path fill="none" stroke="none"/><text fill="#000000" stroke="none" font-family="Arial" font-size="13px" font-style="normal" font-weight="normal" text-decoration="none" x="251.858154296875" y="585.5">«entity»</text></g></g><g transform="translate(-54,-46) scale(1,1)"><g><path fill="none" stroke="none"/><text fill="#000000" stroke="none" font-family="Arial" font-size="13px" font-style="normal" font-weight="bold" text-decoration="none" x="252.213623046875" y="600.5">Abonné</text></g></g><g transform="translate(-54,-46) scale(1,1)"><g><path fill="none" stroke="none"/><text fill="#000000" stroke="none" font-family="Arial" font-size="13px" font-style="normal" font-weight="normal" text-decoration="none" x="237" y="623.5">«id»+numero</text></g></g><g transform="translate(-54,-46) scale(1,1)"><path fill="none" stroke="#000000" d="M 247 567 L 203 509" stroke-miterlimit="10"/></g><g transform="translate(-54,-46) scale(1,1)"><path fill="#FFFFFF" stroke="none" d="M 221.99173869895282 520.1046774464951 L 203 509 L 208.5769944952465 530.2813799458586"/></g><g transform="translate(-54,-46) scale(1,1)"><path fill="none" stroke="#000000" d="M 221.99173869895282 520.1046774464951 L 203 509 L 208.5769944952465 530.2813799458586 L 221.99173869895282 520.1046774464951" stroke-miterlimit="10"/></g><g transform="translate(-54,-46) scale(1,1)"><rect fill="#C0C0C0" stroke="none" x="103" y="215" width="125.34619140625" height="90" opacity="0.2"/></g><g transform="translate(-54,-46) scale(1,1)"><rect fill="#ffffff" stroke="none" x="96" y="208" width="125.34619140625" height="90"/></g><g transform="translate(-54,-46) scale(1,1)"><path fill="none" stroke="#000000" d="M 96 208 L 221.34619140625 208 L 221.34619140625 298 L 96 298 L 96 208 Z Z" stroke-miterlimit="10"/></g><g transform="translate(-54,-46) scale(1,1)"><path fill="none" stroke="#000000" d="M 96 246 L 221.34619140625 246" stroke-miterlimit="10"/></g><g transform="translate(-54,-46) scale(1,1)"><g><path fill="none" stroke="none"/><text fill="#000000" stroke="none" font-family="Arial" font-size="13px" font-style="normal" font-weight="normal" text-decoration="none" x="115.30908203125" y="225.5">«enumeration»</text></g></g><g transform="translate(-54,-46) scale(1,1)"><g><path fill="none" stroke="none"/><text fill="#000000" stroke="none" font-family="Arial" font-size="13px" font-style="normal" font-weight="bold" text-decoration="none" x="117.486328125" y="240.5">EtatsPysiques</text></g></g><g transform="translate(-54,-46) scale(1,1)"><g><path fill="none" stroke="none"/><text fill="#000000" stroke="none" font-family="Arial" font-size="13px" font-style="normal" font-weight="normal" text-decoration="none" x="101" y="263.5">BON_ETAT</text></g></g><g transform="translate(-54,-46) scale(1,1)"><g><path fill="none" stroke="none"/><text fill="#000000" stroke="none" font-family="Arial" font-size="13px" font-style="normal" font-weight="normal" text-decoration="none" x="101" y="278.5">ABIME</text></g></g><g transform="translate(-54,-46) scale(1,1)"><g><path fill="none" stroke="none"/><text fill="#000000" stroke="none" font-family="Arial" font-size="13px" font-style="normal" font-weight="normal" text-decoration="none" x="101" y="293.5">HS</text></g></g><g transform="translate(-54,-46) scale(1,1)"><rect fill="#C0C0C0" stroke="none" x="127" y="95" width="109.4326171875" height="102" opacity="0.2"/></g><g transform="translate(-54,-46) scale(1,1)"><rect fill="#ffffff" stroke="none" x="120" y="88" width="109.4326171875" height="102"/></g><g transform="translate(-54,-46) scale(1,1)"><path fill="none" stroke="#000000" d="M 120 88 L 229.4326171875 88 L 229.4326171875 190 L 120 190 L 120 88 Z Z" stroke-miterlimit="10"/></g><g transform="translate(-54,-46) scale(1,1)"><path fill="none" stroke="#000000" d="M 120 113 L 229.4326171875 113" stroke-miterlimit="10"/></g><g transform="translate(-54,-46) scale(1,1)"><path fill="none" stroke="#000000" d="M 120 181 L 229.4326171875 181" stroke-miterlimit="10"/></g><g transform="translate(-54,-46) scale(1,1)"><g><path fill="none" stroke="none"/><text fill="#000000" stroke="none" font-family="Arial" font-size="13px" font-style="normal" font-weight="bold" text-decoration="none" x="128.11181640625" y="107.5">OeuvreLitteraire</text></g></g><g transform="translate(-54,-46) scale(1,1)"><g><path fill="none" stroke="none"/><text fill="#000000" stroke="none" font-family="Arial" font-size="13px" font-style="normal" font-weight="normal" text-decoration="none" x="125" y="130.5">+numIsbn</text></g></g><g transform="translate(-54,-46) scale(1,1)"><g><path fill="none" stroke="none"/><text fill="#000000" stroke="none" font-family="Arial" font-size="13px" font-style="normal" font-weight="normal" text-decoration="none" x="125" y="145.5">+titre</text></g></g><g transform="translate(-54,-46) scale(1,1)"><g><path fill="none" stroke="none"/><text fill="#000000" stroke="none" font-family="Arial" font-size="13px" font-style="normal" font-weight="normal" text-decoration="none" x="125" y="160.5">+auteur</text></g></g><g transform="translate(-54,-46) scale(1,1)"><g><path fill="none" stroke="none"/><text fill="#000000" stroke="none" font-family="Arial" font-size="13px" font-style="normal" font-weight="normal" text-decoration="none" x="125" y="175.5">+editeur</text></g></g><g transform="translate(-54,-46) scale(1,1)"><rect fill="#C0C0C0" stroke="none" x="319" y="95" width="125.34619140625" height="75" opacity="0.2"/></g><g transform="translate(-54,-46) scale(1,1)"><rect fill="#ffffff" stroke="none" x="312" y="88" width="125.34619140625" height="75"/></g><g transform="translate(-54,-46) scale(1,1)"><path fill="none" stroke="#000000" d="M 312 88 L 437.34619140625 88 L 437.34619140625 163 L 312 163 L 312 88 Z Z" stroke-miterlimit="10"/></g><g transform="translate(-54,-46) scale(1,1)"><path fill="none" stroke="#000000" d="M 312 126 L 437.34619140625 126" stroke-miterlimit="10"/></g><g transform="translate(-54,-46) scale(1,1)"><g><path fill="none" stroke="none"/><text fill="#000000" stroke="none" font-family="Arial" font-size="13px" font-style="normal" font-weight="normal" text-decoration="none" x="331.30908203125" y="105.5">«enumeration»</text></g></g><g transform="translate(-54,-46) scale(1,1)"><g><path fill="none" stroke="none"/><text fill="#000000" stroke="none" font-family="Arial" font-size="13px" font-style="normal" font-weight="bold" text-decoration="none" x="352.634033203125" y="120.5">Usages</text></g></g><g transform="translate(-54,-46) scale(1,1)"><g><path fill="none" stroke="none"/><text fill="#000000" stroke="none" font-family="Arial" font-size="13px" font-style="normal" font-weight="normal" text-decoration="none" x="317" y="143.5">DISPONIBLE</text></g></g><g transform="translate(-54,-46) scale(1,1)"><g><path fill="none" stroke="none"/><text fill="#000000" stroke="none" font-family="Arial" font-size="13px" font-style="normal" font-weight="normal" text-decoration="none" x="317" y="158.5">EMPRUNTE</text></g></g><g transform="translate(-54,-46) scale(1,1)"><path fill="none" stroke="#000000" d="M 295 201 L 230 168" stroke-miterlimit="10"/></g><g transform="translate(-54,-46) scale(1,1)"><path fill="none" stroke="#000000" d="M 240.9673359838141 168.84707816530488 L 230 168 L 237.15610293082403 176.35405236058833" stroke-miterlimit="10"/></g><g transform="translate(-54,-46) scale(1,1)"><g><path fill="none" stroke="none"/><text fill="#000000" stroke="none" font-family="Arial" font-size="13px" font-style="normal" font-weight="normal" text-decoration="none" x="279.812255859375" y="187.5">*</text></g></g><g transform="translate(-54,-46) scale(1,1)"><path fill="none" stroke="#000000" d="M 439 511 L 318 578" stroke-miterlimit="10"/></g><g transform="translate(-54,-46) scale(1,1)"><path fill="none" stroke="#000000" d="M 324.85154688862434 569.3944026800586 L 318 578 L 328.9298514876552 576.7596990454725" stroke-miterlimit="10"/></g><g transform="translate(-54,-46) scale(1,1)"><g><path fill="none" stroke="none"/><text fill="#000000" stroke="none" font-family="Arial" font-size="13px" font-style="normal" font-weight="normal" text-decoration="none" x="404.5" y="516.5">0..*</text></g></g><g transform="translate(-54,-46) scale(1,1)"><g><path fill="none" stroke="none"/><text fill="#000000" stroke="none" font-family="Arial" font-size="13px" font-style="normal" font-weight="normal" text-decoration="none" x="339.5" y="585.5">+emprunteur</text></g></g><g transform="translate(-54,-46) scale(1,1)"><path fill="none" stroke="#000000" d="M 463 431 L 387 282" stroke-miterlimit="10"/></g><g transform="translate(-54,-46) scale(1,1)"><path fill="none" stroke="#000000" d="M 395.3675362326865 289.1403317426208 L 387 282 L 387.8677646168281 292.9657186070855" stroke-miterlimit="10"/></g><g transform="translate(-54,-46) scale(1,1)"><g><path fill="none" stroke="none"/><text fill="#000000" stroke="none" font-family="Arial" font-size="13px" font-style="normal" font-weight="normal" text-decoration="none" x="461.220458984375" y="412.5">*</text></g></g><g transform="translate(-54,-46) scale(1,1)"><path fill="none" stroke="#000000" d="M 591 548 L 542 517" stroke-miterlimit="10"/></g><g transform="translate(-54,-46) scale(1,1)"><g><path fill="none" stroke="none"/><text fill="#000000" stroke="none" font-family="Arial" font-size="13px" font-style="normal" font-weight="normal" text-decoration="none" x="568.5" y="531.5">0..1</text></g></g><g transform="translate(-54,-46) scale(1,1)"><rect fill="#C0C0C0" stroke="none" x="447" y="439" width="101.4599609375" height="102" opacity="0.2"/></g><g transform="translate(-54,-46) scale(1,1)"><rect fill="#ffffff" stroke="none" x="440" y="432" width="101.4599609375" height="102"/></g><g transform="translate(-54,-46) scale(1,1)"><path fill="none" stroke="#000000" d="M 440 432 L 541.4599609375 432 L 541.4599609375 534 L 440 534 L 440 432 Z Z" stroke-miterlimit="10"/></g><g transform="translate(-54,-46) scale(1,1)"><path fill="none" stroke="#000000" d="M 440 472 L 541.4599609375 472" stroke-miterlimit="10"/></g><g transform="translate(-54,-46) scale(1,1)"><path fill="none" stroke="#000000" d="M 440 525 L 541.4599609375 525" stroke-miterlimit="10"/></g><g transform="translate(-54,-46) scale(1,1)"><g><path fill="none" stroke="none"/><text fill="#000000" stroke="none" font-family="Arial" font-size="13px" font-style="normal" font-weight="bold" text-decoration="none" x="466.16455078125" y="451.5">Emprunt</text></g></g><g transform="translate(-54,-46) scale(1,1)"><g><path fill="none" stroke="none"/><text fill="#000000" stroke="none" font-family="Arial" font-size="13px" font-style="normal" font-weight="normal" text-decoration="none" x="444.5" y="466.5">(from emprunts)</text></g></g><g transform="translate(-54,-46) scale(1,1)"><g><path fill="none" stroke="none"/><text fill="#000000" stroke="none" font-family="Arial" font-size="13px" font-style="normal" font-weight="normal" text-decoration="none" x="445" y="489.5">+idEmprunt</text></g></g><g transform="translate(-54,-46) scale(1,1)"><g><path fill="none" stroke="none"/><text fill="#000000" stroke="none" font-family="Arial" font-size="13px" font-style="normal" font-weight="normal" text-decoration="none" x="445" y="504.5">+date_debut</text></g></g><g transform="translate(-54,-46) scale(1,1)"><g><path fill="none" stroke="none"/><text fill="#000000" stroke="none" font-family="Arial" font-size="13px" font-style="normal" font-weight="normal" text-decoration="none" x="445" y="519.5">+date_fin</text></g></g></g></svg>