<svg version="1.1" xmlns="http://www.w3.org/2000/svg" xmlns:xlink="http://www.w3.org/1999/xlink" width="853.79345703125" height="494"><defs/><g><text fill="#eeeeee" stroke="none" font-family="Arial" font-size="24px" font-style="normal" font-weight="normal" text-decoration="none" x="0" y="0">UNREGISTERED</text><text fill="#eeeeee" stroke="none" font-family="Arial" font-size="24px" font-style="normal" font-weight="normal" text-decoration="none" x="0" y="30">UNREGISTERED</text><text fill="#eeeeee" stroke="none" font-family="Arial" font-size="24px" font-style="normal" font-weight="normal" text-decoration="none" x="0" y="60">UNREGISTERED</text><text fill="#eeeeee" stroke="none" font-family="Arial" font-size="24px" font-style="normal" font-weight="normal" text-decoration="none" x="0" y="90">UNREGISTERED</text><text fill="#eeeeee" stroke="none" font-family="Arial" font-size="24px" font-style="normal" font-weight="normal" text-decoration="none" x="0" y="120">UNREGISTERED</text><text fill="#eeeeee" stroke="none" font-family="Arial" font-size="24px" font-style="normal" font-weight="normal" text-decoration="none" x="0" y="150">UNREGISTERED</text><text fill="#eeeeee" stroke="none" font-family="Arial" font-size="24px" font-style="normal" font-weight="normal" text-decoration="none" x="0" y="180">UNREGISTERED</text><text fill="#eeeeee" stroke="none" font-family="Arial" font-size="24px" font-style="normal" font-weight="normal" text-decoration="none" x="0" y="210">UNREGISTERED</text><text fill="#eeeeee" stroke="none" font-family="Arial" font-size="24px" font-style="normal" font-weight="normal" text-decoration="none" x="0" y="240">UNREGISTERED</text><text fill="#eeeeee" stroke="none" font-family="Arial" font-size="24px" font-style="normal" font-weight="normal" text-decoration="none" x="0" y="270">UNREGISTERED</text><text fill="#eeeeee" stroke="none" font-family="Arial" font-size="24px" font-style="normal" font-weight="normal" text-decoration="none" x="0" y="300">UNREGISTERED</text><text fill="#eeeeee" stroke="none" font-family="Arial" font-size="24px" font-style="normal" font-weight="normal" text-decoration="none" x="0" y="330">UNREGISTERED</text><text fill="#eeeeee" stroke="none" font-family="Arial" font-size="24px" font-style="normal" font-weight="normal" text-decoration="none" x="0" y="360">UNREGISTERED</text><text fill="#eeeeee" stroke="none" font-family="Arial" font-size="24px" font-style="normal" font-weight="normal" text-decoration="none" x="0" y="390">UNREGISTERED</text><text fill="#eeeeee" stroke="none" font-family="Arial" font-size="24px" font-style="normal" font-weight="normal" text-decoration="none" x="0" y="420">UNREGISTERED</text><text fill="#eeeeee" stroke="none" font-family="Arial" font-size="24px" font-style="normal" font-weight="normal" text-decoration="none" x="0" y="450">UNREGISTERED</text><text fill="#eeeeee" stroke="none" font-family="Arial" font-size="24px" font-style="normal" font-weight="normal" text-decoration="none" x="0" y="480">UNREGISTERED</text><text fill="#eeeeee" stroke="none" font-family="Arial" font-size="24px" font-style="normal" font-weight="normal" text-decoration="none" x="200" y="0">UNREGISTERED</text><text fill="#eeeeee" stroke="none" font-family="Arial" font-size="24px" font-style="normal" font-weight="normal" text-decoration="none" x="200" y="30">UNREGISTERED</text><text fill="#eeeeee" stroke="none" font-family="Arial" font-size="24px" font-style="normal" font-weight="normal" text-decoration="none" x="200" y="60">UNREGISTERED</text><text fill="#eeeeee" stroke="none" font-family="Arial" font-size="24px" font-style="normal" font-weight="normal" text-decoration="none" x="200" y="90">UNREGISTERED</text><text fill="#eeeeee" stroke="none" font-family="Arial" font-size="24px" font-style="normal" font-weight="normal" text-decoration="none" x="200" y="120">UNREGISTERED</text><text fill="#eeeeee" stroke="none" font-family="Arial" font-size="24px" font-style="normal" font-weight="normal" text-decoration="none" x="200" y="150">UNREGISTERED</text><text fill="#eeeeee" stroke="none" font-family="Arial" font-size="24px" font-style="normal" font-weight="normal" text-decoration="none" x="200" y="180">UNREGISTERED</text><text fill="#eeeeee" stroke="none" font-family="Arial" font-size="24px" font-style="normal" font-weight="normal" text-decoration="none" x="200" y="210">UNREGISTERED</text><text fill="#eeeeee" stroke="none" font-family="Arial" font-size="24px" font-style="normal" font-weight="normal" text-decoration="none" x="200" y="240">UNREGISTERED</text><text fill="#eeeeee" stroke="none" font-family="Arial" font-size="24px" font-style="normal" font-weight="normal" text-decoration="none" x="200" y="270">UNREGISTERED</text><text fill="#eeeeee" stroke="none" font-family="Arial" font-size="24px" font-style="normal" font-weight="normal" text-decoration="none" x="200" y="300">UNREGISTERED</text><text fill="#eeeeee" stroke="none" font-family="Arial" font-size="24px" font-style="normal" font-weight="normal" text-decoration="none" x="200" y="330">UNREGISTERED</text><text fill="#eeeeee" stroke="none" font-family="Arial" font-size="24px" font-style="normal" font-weight="normal" text-decoration="none" x="200" y="360">UNREGISTERED</text><text fill="#eeeeee" stroke="none" font-family="Arial" font-size="24px" font-style="normal" font-weight="normal" text-decoration="none" x="200" y="390">UNREGISTERED</text><text fill="#eeeeee" stroke="none" font-family="Arial" font-size="24px" font-style="normal" font-weight="normal" text-decoration="none" x="200" y="420">UNREGISTERED</text><text fill="#eeeeee" stroke="none" font-family="Arial" font-size="24px" font-style="normal" font-weight="normal" text-decoration="none" x="200" y="450">UNREGISTERED</text><text fill="#eeeeee" stroke="none" font-family="Arial" font-size="24px" font-style="normal" font-weight="normal" text-decoration="none" x="200" y="480">UNREGISTERED</text><text fill="#eeeeee" stroke="none" font-family="Arial" font-size="24px" font-style="normal" font-weight="normal" text-decoration="none" x="400" y="0">UNREGISTERED</text><text fill="#eeeeee" stroke="none" font-family="Arial" font-size="24px" font-style="normal" font-weight="normal" text-decoration="none" x="400" y="30">UNREGISTERED</text><text fill="#eeeeee" stroke="none" font-family="Arial" font-size="24px" font-style="normal" font-weight="normal" text-decoration="none" x="400" y="60">UNREGISTERED</text><text fill="#eeeeee" stroke="none" font-family="Arial" font-size="24px" font-style="normal" font-weight="normal" text-decoration="none" x="400" y="90">UNREGISTERED</text><text fill="#eeeeee" stroke="none" font-family="Arial" font-size="24px" font-style="normal" font-weight="normal" text-decoration="none" x="400" y="120">UNREGISTERED</text><text fill="#eeeeee" stroke="none" font-family="Arial" font-size="24px" font-style="normal" font-weight="normal" text-decoration="none" x="400" y="150">UNREGISTERED</text><text fill="#eeeeee" stroke="none" font-family="Arial" font-size="24px" font-style="normal" font-weight="normal" text-decoration="none" x="400" y="180">UNREGISTERED</text><text fill="#eeeeee" stroke="none" font-family="Arial" font-size="24px" font-style="normal" font-weight="normal" text-decoration="none" x="400" y="210">UNREGISTERED</text><text fill="#eeeeee" stroke="none" font-family="Arial" font-size="24px" font-style="normal" font-weight="normal" text-decoration="none" x="400" y="240">UNREGISTERED</text><text fill="#eeeeee" stroke="none" font-family="Arial" font-size="24px" font-style="normal" font-weight="normal" text-decoration="none" x="400" y="270">UNREGISTERED</text><text fill="#eeeeee" stroke="none" font-family="Arial" font-size="24px" font-style="normal" font-weight="normal" text-decoration="none" x="400" y="300">UNREGISTERED</text><text fill="#eeeeee" stroke="none" font-family="Arial" font-size="24px" font-style="normal" font-weight="normal" text-decoration="none" x="400" y="330">UNREGISTERED</text><text fill="#eeeeee" stroke="none" font-family="Arial" font-size="24px" font-style="normal" font-weight="normal" text-decoration="none" x="400" y="360">UNREGISTERED</text><text fill="#eeeeee" stroke="none" font-family="Arial" font-size="24px" font-style="normal" font-weight="normal" text-decoration="none" x="400" y="390">UNREGISTERED</text><text fill="#eeeeee" stroke="none" font-family="Arial" font-size="24px" font-style="normal" font-weight="normal" text-decoration="none" x="400" y="420">UNREGISTERED</text><text fill="#eeeeee" stroke="none" font-family="Arial" font-size="24px" font-style="normal" font-weight="normal" text-decoration="none" x="400" y="450">UNREGISTERED</text><text fill="#eeeeee" stroke="none" font-family="Arial" font-size="24px" font-style="normal" font-weight="normal" text-decoration="none" x="400" y="480">UNREGISTERED</text><text fill="#eeeeee" stroke="none" font-family="Arial" font-size="24px" font-style="normal" font-weight="normal" text-decoration="none" x="600" y="0">UNREGISTERED</text><text fill="#eeeeee" stroke="none" font-family="Arial" font-size="24px" font-style="normal" font-weight="normal" text-decoration="none" x="600" y="30">UNREGISTERED</text><text fill="#eeeeee" stroke="none" font-family="Arial" font-size="24px" font-style="normal" font-weight="normal" text-decoration="none" x="600" y="60">UNREGISTERED</text><text fill="#eeeeee" stroke="none" font-family="Arial" font-size="24px" font-style="normal" font-weight="normal" text-decoration="none" x="600" y="90">UNREGISTERED</text><text fill="#eeeeee" stroke="none" font-family="Arial" font-size="24px" font-style="normal" font-weight="normal" text-decoration="none" x="600" y="120">UNREGISTERED</text><text fill="#eeeeee" stroke="none" font-family="Arial" font-size="24px" font-style="normal" font-weight="normal" text-decoration="none" x="600" y="150">UNREGISTERED</text><text fill="#eeeeee" stroke="none" font-family="Arial" font-size="24px" font-style="normal" font-weight="normal" text-decoration="none" x="600" y="180">UNREGISTERED</text><text fill="#eeeeee" stroke="none" font-family="Arial" font-size="24px" font-style="normal" font-weight="normal" text-decoration="none" x="600" y="210">UNREGISTERED</text><text fill="#eeeeee" stroke="none" font-family="Arial" font-size="24px" font-style="normal" font-weight="normal" text-decoration="none" x="600" y="240">UNREGISTERED</text><text fill="#eeeeee" stroke="none" font-family="Arial" font-size="24px" font-style="normal" font-weight="normal" text-decoration="none" x="600" y="270">UNREGISTERED</text><text fill="#eeeeee" stroke="none" font-family="Arial" font-size="24px" font-style="normal" font-weight="normal" text-decoration="none" x="600" y="300">UNREGISTERED</text><text fill="#eeeeee" stroke="none" font-family="Arial" font-size="24px" font-style="normal" font-weight="normal" text-decoration="none" x="600" y="330">UNREGISTERED</text><text fill="#eeeeee" stroke="none" font-family="Arial" font-size="24px" font-style="normal" font-weight="normal" text-decoration="none" x="600" y="360">UNREGISTERED</text><text fill="#eeeeee" stroke="none" font-family="Arial" font-size="24px" font-style="normal" font-weight="normal" text-decoration="none" x="600" y="390">UNREGISTERED</text><text fill="#eeeeee" stroke="none" font-family="Arial" font-size="24px" font-style="normal" font-weight="normal" text-decoration="none" x="600" y="420">UNREGISTERED</text><text fill="#eeeeee" stroke="none" font-family="Arial" font-size="24px" font-style="normal" font-weight="normal" text-decoration="none" x="600" y="450">UNREGISTERED</text><text fill="#eeeeee" stroke="none" font-family="Arial" font-size="24px" font-style="normal" font-weight="normal" text-decoration="none" x="600" y="480">UNREGISTERED</text><text fill="#eeeeee" stroke="none" font-family="Arial" font-size="24px" font-style="normal" font-weight="normal" text-decoration="none" x="800" y="0">UNREGISTERED</text><text fill="#eeeeee" stroke="none" font-family="Arial" font-size="24px" font-style="normal" font-weight="normal" text-decoration="none" x="800" y="30">UNREGISTERED</text><text fill="#eeeeee" stroke="none" font-family="Arial" font-size="24px" font-style="normal" font-weight="normal" text-decoration="none" x="800" y="60">UNREGISTERED</text><text fill="#eeeeee" stroke="none" font-family="Arial" font-size="24px" font-style="normal" font-weight="normal" text-decoration="none" x="800" y="90">UNREGISTERED</text><text fill="#eeeeee" stroke="none" font-family="Arial" font-size="24px" font-style="normal" font-weight="normal" text-decoration="none" x="800" y="120">UNREGISTERED</text><text fill="#eeeeee" stroke="none" font-family="Arial" font-size="24px" font-style="normal" font-weight="normal" text-decoration="none" x="800" y="150">UNREGISTERED</text><text fill="#eeeeee" stroke="none" font-family="Arial" font-size="24px" font-style="normal" font-weight="normal" text-decoration="none" x="800" y="180">UNREGISTERED</text><text fill="#eeeeee" stroke="none" font-family="Arial" font-size="24px" font-style="normal" font-weight="normal" text-decoration="none" x="800" y="210">UNREGISTERED</text><text fill="#eeeeee" stroke="none" font-family="Arial" font-size="24px" font-style="normal" font-weight="normal" text-decoration="none" x="800" y="240">UNREGISTERED</text><text fill="#eeeeee" stroke="none" font-family="Arial" font-size="24px" font-style="normal" font-weight="normal" text-decoration="none" x="800" y="270">UNREGISTERED</text><text fill="#eeeeee" stroke="none" font-family="Arial" font-size="24px" font-style="normal" font-weight="normal" text-decoration="none" x="800" y="300">UNREGISTERED</text><text fill="#eeeeee" stroke="none" font-family="Arial" font-size="24px" font-style="normal" font-weight="normal" text-decoration="none" x="800" y="330">UNREGISTERED</text><text fill="#eeeeee" stroke="none" font-family="Arial" font-size="24px" font-style="normal" font-weight="normal" text-decoration="none" x="800" y="360">UNREGISTERED</text><text fill="#eeeeee" stroke="none" font-family="Arial" font-size="24px" font-style="normal" font-weight="normal" text-decoration="none" x="800" y="390">UNREGISTERED</text><text fill="#eeeeee" stroke="none" font-family="Arial" font-size="24px" font-style="normal" font-weight="normal" text-decoration="none" x="800" y="420">UNREGISTERED</text><text fill="#eeeeee" stroke="none" font-family="Arial" font-size="24px" font-style="normal" font-weight="normal" text-decoration="none" x="800" y="450">UNREGISTERED</text><text fill="#eeeeee" stroke="none" font-family="Arial" font-size="24px" font-style="normal" font-weight="normal" text-decoration="none" x="800" y="480">UNREGISTERED</text><g transform="translate(-22,-78) scale(1,1)"><rect fill="#C0C0C0" stroke="none" x="151" y="95" width="584" height="474" opacity="0.2"/></g><g transform="translate(-22,-78) scale(1,1)"><rect fill="#ffffff" stroke="none" x="144" y="88" width="584" height="474"/></g><g transform="translate(-22,-78) scale(1,1)"><path fill="none" stroke="#000000" d="M 144 88 L 728 88 L 728 562 L 144 562 L 144 88 Z Z" stroke-miterlimit="10"/></g><g transform="translate(-22,-78) scale(1,1)"><g><path fill="none" stroke="none"/><text fill="#000000" stroke="none" font-family="Arial" font-size="13px" font-style="normal" font-weight="bold" text-decoration="none" x="383.59375" y="107.5">appli_bibliotheque</text></g></g><g transform="translate(-22,-78) scale(1,1)"><path fill="#ffffff" stroke="none" d="M 70.80388156960227 305.68 C 70.80388156960227 300.886167936 74.68972389454773 297 79.483154296875 297 C 84.27658469920227 297 88.16242702414773 300.886167936 88.16242702414773 305.68 C 88.16242702414773 310.473832064 84.27658469920227 314.36 79.483154296875 314.36 C 74.68972389454773 314.36 70.80388156960227 310.473832064 70.80388156960227 305.68 Z"/></g><g transform="translate(-22,-78) scale(1,1)"><path fill="none" stroke="#000000" d="M 70.80388156960227 305.68 C 70.80388156960227 300.886167936 74.68972389454773 297 79.483154296875 297 C 84.27658469920227 297 88.16242702414773 300.886167936 88.16242702414773 305.68 C 88.16242702414773 310.473832064 84.27658469920227 314.36 79.483154296875 314.36 C 74.68972389454773 314.36 70.80388156960227 310.473832064 70.80388156960227 305.68 Z" stroke-miterlimit="10"/></g><g transform="translate(-22,-78) scale(1,1)"><path fill="none" stroke="#000000" d="M 79.483154296875 314.36 L 79.483154296875 331.64" stroke-miterlimit="10"/></g><g transform="translate(-22,-78) scale(1,1)"><path fill="none" stroke="#000000" d="M 70.29333611505682 320.84 L 88.67297247869318 320.84" stroke-miterlimit="10"/></g><g transform="translate(-22,-78) scale(1,1)"><path fill="none" stroke="#000000" d="M 79.483154296875 331.64 L 66.71951793323863 349" stroke-miterlimit="10"/></g><g transform="translate(-22,-78) scale(1,1)"><path fill="none" stroke="#000000" d="M 79.483154296875 331.64 L 92.24679066051137 349" stroke-miterlimit="10"/></g><g transform="translate(-22,-78) scale(1,1)"><g><path fill="none" stroke="none"/><text fill="#000000" stroke="none" font-family="Arial" font-size="13px" font-style="normal" font-weight="bold" text-decoration="none" x="40.4609375" y="369.5">Bibliothecaire</text></g></g><g transform="translate(-22,-78) scale(1,1)"><path fill="#ffffff" stroke="none" d="M 800.2174557883523 137.68 C 800.2174557883523 132.886167936 804.1032981132977 129 808.896728515625 129 C 813.6901589179523 129 817.5760012428977 132.886167936 817.5760012428977 137.68 C 817.5760012428977 142.47383206400002 813.6901589179523 146.36 808.896728515625 146.36 C 804.1032981132977 146.36 800.2174557883523 142.47383206400002 800.2174557883523 137.68 Z"/></g><g transform="translate(-22,-78) scale(1,1)"><path fill="none" stroke="#000000" d="M 800.2174557883523 137.68 C 800.2174557883523 132.886167936 804.1032981132977 129 808.896728515625 129 C 813.6901589179523 129 817.5760012428977 132.886167936 817.5760012428977 137.68 C 817.5760012428977 142.47383206400002 813.6901589179523 146.36 808.896728515625 146.36 C 804.1032981132977 146.36 800.2174557883523 142.47383206400002 800.2174557883523 137.68 Z" stroke-miterlimit="10"/></g><g transform="translate(-22,-78) scale(1,1)"><path fill="none" stroke="#000000" d="M 808.896728515625 146.36 L 808.896728515625 163.64" stroke-miterlimit="10"/></g><g transform="translate(-22,-78) scale(1,1)"><path fill="none" stroke="#000000" d="M 799.7069103338068 152.84 L 818.0865466974432 152.84" stroke-miterlimit="10"/></g><g transform="translate(-22,-78) scale(1,1)"><path fill="none" stroke="#000000" d="M 808.896728515625 163.64 L 796.1330921519886 181" stroke-miterlimit="10"/></g><g transform="translate(-22,-78) scale(1,1)"><path fill="none" stroke="#000000" d="M 808.896728515625 163.64 L 821.6603648792614 181" stroke-miterlimit="10"/></g><g transform="translate(-22,-78) scale(1,1)"><g><path fill="none" stroke="none"/><text fill="#000000" stroke="none" font-family="Arial" font-size="13px" font-style="normal" font-weight="normal" text-decoration="none" x="756.5" y="199.5">«logiciel_externe»</text></g></g><g transform="translate(-22,-78) scale(1,1)"><g><path fill="none" stroke="none"/><text fill="#000000" stroke="none" font-family="Arial" font-size="13px" font-style="normal" font-weight="bold" text-decoration="none" x="761.924072265625" y="214.5">Logiciel_compta</text></g></g><g transform="translate(-22,-78) scale(1,1)"><path fill="#C0C0C0" stroke="none" d="M 247 152 C 247 142.6111584 280.57864 135 322 135 C 363.42136 135 397 142.6111584 397 152 C 397 161.3888416 363.42136 169 322 169 C 280.57864 169 247 161.3888416 247 152 Z" opacity="0.2"/></g><g transform="translate(-22,-78) scale(1,1)"><path fill="#ffffff" stroke="none" d="M 240 145 C 240 135.6111584 273.57864 128 315 128 C 356.42136 128 390 135.6111584 390 145 C 390 154.3888416 356.42136 162 315 162 C 273.57864 162 240 154.3888416 240 145 Z"/></g><g transform="translate(-22,-78) scale(1,1)"><path fill="none" stroke="#000000" d="M 240 145 C 240 135.6111584 273.57864 128 315 128 C 356.42136 128 390 135.6111584 390 145 C 390 154.3888416 356.42136 162 315 162 C 273.57864 162 240 154.3888416 240 145 Z" stroke-miterlimit="10"/></g><g transform="translate(-22,-78) scale(1,1)"><g><path fill="none" stroke="none"/><text fill="#000000" stroke="none" font-family="Arial" font-size="13px" font-style="normal" font-weight="bold" text-decoration="none" x="270.195068359375" y="152">enreg livre neuf</text></g></g><g transform="translate(-22,-78) scale(1,1)"><path fill="#C0C0C0" stroke="none" d="M 463 224 C 463 214.6111584 511.129384 207 570.5 207 C 629.870616 207 678 214.6111584 678 224 C 678 233.3888416 629.870616 241 570.5 241 C 511.129384 241 463 233.3888416 463 224 Z" opacity="0.2"/></g><g transform="translate(-22,-78) scale(1,1)"><path fill="#ffffff" stroke="none" d="M 456 217 C 456 207.6111584 504.129384 200 563.5 200 C 622.870616 200 671 207.6111584 671 217 C 671 226.3888416 622.870616 234 563.5 234 C 504.129384 234 456 226.3888416 456 217 Z"/></g><g transform="translate(-22,-78) scale(1,1)"><path fill="none" stroke="#000000" d="M 456 217 C 456 207.6111584 504.129384 200 563.5 200 C 622.870616 200 671 207.6111584 671 217 C 671 226.3888416 622.870616 234 563.5 234 C 504.129384 234 456 226.3888416 456 217 Z" stroke-miterlimit="10"/></g><g transform="translate(-22,-78) scale(1,1)"><g><path fill="none" stroke="none"/><text fill="#000000" stroke="none" font-family="Arial" font-size="13px" font-style="normal" font-weight="bold" text-decoration="none" x="498.30322265625" y="224">avertir "achat effectué"</text></g></g><g transform="translate(-22,-78) scale(1,1)"><path fill="none" stroke="#000000" d="M 377 163 L 501 199" stroke-miterlimit="10" stroke-dasharray="3"/></g><g transform="translate(-22,-78) scale(1,1)"><path fill="none" stroke="#000000" d="M 490.0666570809186 200.20913713604912 L 501 199 L 492.4139700125948 192.12394814916445" stroke-miterlimit="10"/></g><g transform="translate(-22,-78) scale(1,1)"><g><path fill="none" stroke="none"/><text fill="#000000" stroke="none" font-family="Arial" font-size="13px" font-style="normal" font-weight="normal" text-decoration="none" x="442.5" y="155.5">«include»</text></g></g><g transform="translate(-22,-78) scale(1,1)"><path fill="none" stroke="#000000" d="M 128 296 L 293 163" stroke-miterlimit="10"/></g><g transform="translate(-22,-78) scale(1,1)"><path fill="none" stroke="#000000" d="M 287.72948836902293 172.65513889841756 L 293 163 L 282.4459712970445 166.10039967378262" stroke-miterlimit="10"/></g><g transform="translate(-22,-78) scale(1,1)"><path fill="none" stroke="#000000" d="M 666 199 L 751 184" stroke-miterlimit="10"/></g><g transform="translate(-22,-78) scale(1,1)"><path fill="none" stroke="#000000" d="M 741.7235173354246 189.91158772021802 L 751 184 L 740.260412437774 181.6206599668646" stroke-miterlimit="10"/></g><g transform="translate(-22,-78) scale(1,1)"><path fill="#C0C0C0" stroke="none" d="M 263 256 C 263 246.6111584 293.6684912 239 331.5 239 C 369.3315088 239 400 246.6111584 400 256 C 400 265.3888416 369.3315088 273 331.5 273 C 293.6684912 273 263 265.3888416 263 256 Z" opacity="0.2"/></g><g transform="translate(-22,-78) scale(1,1)"><path fill="#ffffff" stroke="none" d="M 256 249 C 256 239.6111584 286.6684912 232 324.5 232 C 362.3315088 232 393 239.6111584 393 249 C 393 258.3888416 362.3315088 266 324.5 266 C 286.6684912 266 256 258.3888416 256 249 Z"/></g><g transform="translate(-22,-78) scale(1,1)"><path fill="none" stroke="#000000" d="M 256 249 C 256 239.6111584 286.6684912 232 324.5 232 C 362.3315088 232 393 239.6111584 393 249 C 393 258.3888416 362.3315088 266 324.5 266 C 286.6684912 266 256 258.3888416 256 249 Z" stroke-miterlimit="10"/></g><g transform="translate(-22,-78) scale(1,1)"><g><path fill="none" stroke="none"/><text fill="#000000" stroke="none" font-family="Arial" font-size="13px" font-style="normal" font-weight="bold" text-decoration="none" x="283.675048828125" y="256">gerer emprunt</text></g></g><g transform="translate(-22,-78) scale(1,1)"><path fill="none" stroke="#000000" d="M 128 318 L 273 267" stroke-miterlimit="10"/></g><g transform="translate(-22,-78) scale(1,1)"><path fill="none" stroke="#000000" d="M 264.80975339260016 274.3430144021359 L 273 267 L 262.0163258062167 266.40091636241823" stroke-miterlimit="10"/></g><g transform="translate(-22,-78) scale(1,1)"><path fill="#C0C0C0" stroke="none" d="M 207 344 C 207 334.6111584 250.8760896 327 305 327 C 359.1239104 327 403 334.6111584 403 344 C 403 353.3888416 359.1239104 361 305 361 C 250.8760896 361 207 353.3888416 207 344 Z" opacity="0.2"/></g><g transform="translate(-22,-78) scale(1,1)"><path fill="#6dceff" stroke="none" d="M 200 337 C 200 327.6111584 243.8760896 320 298 320 C 352.1239104 320 396 327.6111584 396 337 C 396 346.3888416 352.1239104 354 298 354 C 243.8760896 354 200 346.3888416 200 337 Z"/></g><g transform="translate(-22,-78) scale(1,1)"><path fill="none" stroke="#000000" d="M 200 337 C 200 327.6111584 243.8760896 320 298 320 C 352.1239104 320 396 327.6111584 396 337 C 396 346.3888416 352.1239104 354 298 354 C 243.8760896 354 200 346.3888416 200 337 Z" stroke-miterlimit="10"/></g><g transform="translate(-22,-78) scale(1,1)"><g><path fill="none" stroke="none"/><text fill="#000000" stroke="none" font-family="Arial" font-size="13px" font-style="normal" font-weight="bold" text-decoration="none" x="237.65283203125" y="344">enreg debut emprunt</text></g></g><g transform="translate(-22,-78) scale(1,1)"><path fill="#C0C0C0" stroke="none" d="M 511 293.5 C 511 285.4918704 538.0867696 279 571.5 279 C 604.9132304 279 632 285.4918704 632 293.5 C 632 301.5081296 604.9132304 308 571.5 308 C 538.0867696 308 511 301.5081296 511 293.5 Z" opacity="0.2"/></g><g transform="translate(-22,-78) scale(1,1)"><path fill="#ffffff" stroke="none" d="M 504 286.5 C 504 278.4918704 531.0867696 272 564.5 272 C 597.9132304 272 625 278.4918704 625 286.5 C 625 294.5081296 597.9132304 301 564.5 301 C 531.0867696 301 504 294.5081296 504 286.5 Z"/></g><g transform="translate(-22,-78) scale(1,1)"><path fill="none" stroke="#000000" d="M 504 286.5 C 504 278.4918704 531.0867696 272 564.5 272 C 597.9132304 272 625 278.4918704 625 286.5 C 625 294.5081296 597.9132304 301 564.5 301 C 531.0867696 301 504 294.5081296 504 286.5 Z" stroke-miterlimit="10"/></g><g transform="translate(-22,-78) scale(1,1)"><path fill="none" stroke="#000000" d="M 504 306 L 625 306" stroke-miterlimit="10"/></g><g transform="translate(-22,-78) scale(1,1)"><g><path fill="none" stroke="none"/><text fill="#000000" stroke="none" font-family="Arial" font-size="13px" font-style="normal" font-weight="bold" text-decoration="none" x="529.089599609375" y="296">enreg retour</text></g></g><g transform="translate(-22,-78) scale(1,1)"><g><path fill="none" stroke="none"/><text fill="#000000" stroke="none" font-family="Arial" font-size="13px" font-style="normal" font-weight="normal" text-decoration="none" x="509" y="323.5">enreg etat livre</text></g></g><g transform="translate(-22,-78) scale(1,1)"><path fill="none" stroke="#000000" d="M 303 319 L 319 267" stroke-miterlimit="10"/></g><g transform="translate(-22,-78) scale(1,1)"><path fill="#FFFFFF" stroke="none" d="M 321.0693396921565 288.9024618077162 L 319 267 L 304.97586485998687 283.9506233978178"/></g><g transform="translate(-22,-78) scale(1,1)"><path fill="none" stroke="#000000" d="M 321.0693396921565 288.9024618077162 L 319 267 L 304.97586485998687 283.9506233978178 L 321.0693396921565 288.9024618077162" stroke-miterlimit="10"/></g><g transform="translate(-22,-78) scale(1,1)"><path fill="none" stroke="#000000" d="M 503 287 L 394 264" stroke-miterlimit="10"/></g><g transform="translate(-22,-78) scale(1,1)"><path fill="#FFFFFF" stroke="none" d="M 415.6256467973076 259.95878723671956 L 394 264 L 412.14921044705454 276.4340725487881"/></g><g transform="translate(-22,-78) scale(1,1)"><path fill="none" stroke="#000000" d="M 415.6256467973076 259.95878723671956 L 394 264 L 412.14921044705454 276.4340725487881 L 415.6256467973076 259.95878723671956" stroke-miterlimit="10"/></g><g transform="translate(-22,-78) scale(1,1)"><path fill="#C0C0C0" stroke="none" d="M 191 432 C 191 422.6111584 227.0410736 415 271.5 415 C 315.9589264 415 352 422.6111584 352 432 C 352 441.3888416 315.9589264 449 271.5 449 C 227.0410736 449 191 441.3888416 191 432 Z" opacity="0.2"/></g><g transform="translate(-22,-78) scale(1,1)"><path fill="#6dceff" stroke="none" d="M 184 425 C 184 415.6111584 220.0410736 408 264.5 408 C 308.9589264 408 345 415.6111584 345 425 C 345 434.3888416 308.9589264 442 264.5 442 C 220.0410736 442 184 434.3888416 184 425 Z"/></g><g transform="translate(-22,-78) scale(1,1)"><path fill="none" stroke="#000000" d="M 184 425 C 184 415.6111584 220.0410736 408 264.5 408 C 308.9589264 408 345 415.6111584 345 425 C 345 434.3888416 308.9589264 442 264.5 442 C 220.0410736 442 184 434.3888416 184 425 Z" stroke-miterlimit="10"/></g><g transform="translate(-22,-78) scale(1,1)"><g><path fill="none" stroke="none"/><text fill="#000000" stroke="none" font-family="Arial" font-size="13px" font-style="normal" font-weight="bold" text-decoration="none" x="216.435546875" y="432">identifier abonné</text></g></g><g transform="translate(-22,-78) scale(1,1)"><path fill="none" stroke="#000000" d="M 291 355 L 271 407" stroke-miterlimit="10" stroke-dasharray="3"/></g><g transform="translate(-22,-78) scale(1,1)"><path fill="none" stroke="#000000" d="M 270.71925276189404 396.0035832659772 L 271 407 L 278.5771225655166 399.0258408827551" stroke-miterlimit="10"/></g><g transform="translate(-22,-78) scale(1,1)"><g><path fill="none" stroke="none"/><text fill="#000000" stroke="none" font-family="Arial" font-size="13px" font-style="normal" font-weight="normal" text-decoration="none" x="211.5" y="396.5">«include»</text></g></g><g transform="translate(-22,-78) scale(1,1)"><path fill="#C0C0C0" stroke="none" d="M 503 496 C 503 486.6111584 554.2633904 479 617.5 479 C 680.7366096 479 732 486.6111584 732 496 C 732 505.3888416 680.7366096 513 617.5 513 C 554.2633904 513 503 505.3888416 503 496 Z" opacity="0.2"/></g><g transform="translate(-22,-78) scale(1,1)"><path fill="#ffffff" stroke="none" d="M 496 489 C 496 479.6111584 547.2633904 472 610.5 472 C 673.7366096 472 725 479.6111584 725 489 C 725 498.3888416 673.7366096 506 610.5 506 C 547.2633904 506 496 498.3888416 496 489 Z"/></g><g transform="translate(-22,-78) scale(1,1)"><path fill="none" stroke="#000000" d="M 496 489 C 496 479.6111584 547.2633904 472 610.5 472 C 673.7366096 472 725 479.6111584 725 489 C 725 498.3888416 673.7366096 506 610.5 506 C 547.2633904 506 496 498.3888416 496 489 Z" stroke-miterlimit="10"/></g><g transform="translate(-22,-78) scale(1,1)"><g><path fill="none" stroke="none"/><text fill="#000000" stroke="none" font-family="Arial" font-size="13px" font-style="normal" font-weight="bold" text-decoration="none" x="539.6728515625" y="496">enreg debut restauration</text></g></g><g transform="translate(-22,-78) scale(1,1)"><path fill="none" stroke="#000000" d="M 607 471 L 584 352 L 576 330" stroke-miterlimit="10" stroke-dasharray="3"/></g><g transform="translate(-22,-78) scale(1,1)"><path fill="none" stroke="#000000" d="M 583.4291007381603 338.1122415041877 L 576 330 L 575.5169465318371 340.9893884883052" stroke-miterlimit="10"/></g><g transform="translate(-22,-78) scale(1,1)"><g><path fill="none" stroke="none"/><text fill="#000000" stroke="none" font-family="Arial" font-size="13px" font-style="normal" font-weight="normal" text-decoration="none" x="607.5" y="419.5">«extend»</text></g></g><g transform="translate(-22,-78) scale(1,1)"><path fill="#C0C0C0" stroke="none" d="M 239 520 C 239 510.6111584 284.4430928 503 340.5 503 C 396.5569072 503 442 510.6111584 442 520 C 442 529.3888416 396.5569072 537 340.5 537 C 284.4430928 537 239 529.3888416 239 520 Z" opacity="0.2"/></g><g transform="translate(-22,-78) scale(1,1)"><path fill="#ffffff" stroke="none" d="M 232 513 C 232 503.6111584 277.4430928 496 333.5 496 C 389.5569072 496 435 503.6111584 435 513 C 435 522.3888416 389.5569072 530 333.5 530 C 277.4430928 530 232 522.3888416 232 513 Z"/></g><g transform="translate(-22,-78) scale(1,1)"><path fill="none" stroke="#000000" d="M 232 513 C 232 503.6111584 277.4430928 496 333.5 496 C 389.5569072 496 435 503.6111584 435 513 C 435 522.3888416 389.5569072 530 333.5 530 C 277.4430928 530 232 522.3888416 232 513 Z" stroke-miterlimit="10"/></g><g transform="translate(-22,-78) scale(1,1)"><g><path fill="none" stroke="none"/><text fill="#000000" stroke="none" font-family="Arial" font-size="13px" font-style="normal" font-weight="bold" text-decoration="none" x="271.36279296875" y="520">réintégrer livre réparé</text></g></g><g transform="translate(-22,-78) scale(1,1)"><path fill="none" stroke="#000000" d="M 107 376 L 168 464 L 272 495" stroke-miterlimit="10"/></g><g transform="translate(-22,-78) scale(1,1)"><path fill="none" stroke="#000000" d="M 261.0583064270331 496.1310799066796 L 272 495 L 263.46326000481287 488.0628485489668" stroke-miterlimit="10"/></g><g transform="translate(-22,-78) scale(1,1)"><path fill="#C0C0C0" stroke="none" d="M 343 400 C 343 390.6111584 394.7111056 383 458.5 383 C 522.2888944 383 574 390.6111584 574 400 C 574 409.3888416 522.2888944 417 458.5 417 C 394.7111056 417 343 409.3888416 343 400 Z" opacity="0.2"/></g><g transform="translate(-22,-78) scale(1,1)"><path fill="#38bcff" stroke="none" d="M 336 393 C 336 383.6111584 387.7111056 376 451.5 376 C 515.2888944 376 567 383.6111584 567 393 C 567 402.3888416 515.2888944 410 451.5 410 C 387.7111056 410 336 402.3888416 336 393 Z"/></g><g transform="translate(-22,-78) scale(1,1)"><path fill="none" stroke="#000000" d="M 336 393 C 336 383.6111584 387.7111056 376 451.5 376 C 515.2888944 376 567 383.6111584 567 393 C 567 402.3888416 515.2888944 410 451.5 410 C 387.7111056 410 336 402.3888416 336 393 Z" stroke-miterlimit="10"/></g><g transform="translate(-22,-78) scale(1,1)"><g><path fill="none" stroke="none"/><text fill="#000000" stroke="none" font-family="Arial" font-size="13px" font-style="normal" font-weight="bold" text-decoration="none" x="380.695068359375" y="400">verifier droit à emprunter</text></g></g><g transform="translate(-22,-78) scale(1,1)"><path fill="none" stroke="#000000" d="M 347 355 L 402 375" stroke-miterlimit="10" stroke-dasharray="3"/></g><g transform="translate(-22,-78) scale(1,1)"><path fill="none" stroke="#000000" d="M 391.0106115116948 375.4830534681629 L 402 375 L 393.8877584958123 367.57089926183966" stroke-miterlimit="10"/></g><g transform="translate(-22,-78) scale(1,1)"><g><path fill="none" stroke="none"/><text fill="#000000" stroke="none" font-family="Arial" font-size="13px" font-style="normal" font-weight="normal" text-decoration="none" x="389.5" y="357.5">«include»</text></g></g><g transform="translate(-22,-78) scale(1,1)"><path fill="#ffffff" stroke="none" d="M 640 344 L 701 344 L 711 354 L 711 367 L 640 367 L 640 344"/></g><g transform="translate(-22,-78) scale(1,1)"><path fill="none" stroke="#000000" d="M 640 344 L 701 344 L 711 354 L 711 367 L 640 367 L 640 344 L 640 344" stroke-miterlimit="10"/></g><g transform="translate(-22,-78) scale(1,1)"><path fill="none" stroke="#000000" d="M 701 344 L 701 354 L 711 354 L 701 344" stroke-miterlimit="10"/></g><g transform="translate(-22,-78) scale(1,1)"><g><path fill="none" stroke="none"/><text fill="#000000" stroke="none" font-family="Arial" font-size="13px" font-style="normal" font-weight="normal" text-decoration="none" x="645" y="362">si abimé</text></g></g><g transform="translate(-22,-78) scale(1,1)"><path fill="none" stroke="#000000" d="M 639 350 L 580 341" stroke-miterlimit="10" stroke-dasharray="3"/></g></g></svg>