<svg version="1.1" xmlns="http://www.w3.org/2000/svg" xmlns:xlink="http://www.w3.org/1999/xlink" width="510.64990234375" height="367"><defs/><g><text fill="#eeeeee" stroke="none" font-family="Arial" font-size="24px" font-style="normal" font-weight="normal" text-decoration="none" x="0" y="0">UNREGISTERED</text><text fill="#eeeeee" stroke="none" font-family="Arial" font-size="24px" font-style="normal" font-weight="normal" text-decoration="none" x="0" y="30">UNREGISTERED</text><text fill="#eeeeee" stroke="none" font-family="Arial" font-size="24px" font-style="normal" font-weight="normal" text-decoration="none" x="0" y="60">UNREGISTERED</text><text fill="#eeeeee" stroke="none" font-family="Arial" font-size="24px" font-style="normal" font-weight="normal" text-decoration="none" x="0" y="90">UNREGISTERED</text><text fill="#eeeeee" stroke="none" font-family="Arial" font-size="24px" font-style="normal" font-weight="normal" text-decoration="none" x="0" y="120">UNREGISTERED</text><text fill="#eeeeee" stroke="none" font-family="Arial" font-size="24px" font-style="normal" font-weight="normal" text-decoration="none" x="0" y="150">UNREGISTERED</text><text fill="#eeeeee" stroke="none" font-family="Arial" font-size="24px" font-style="normal" font-weight="normal" text-decoration="none" x="0" y="180">UNREGISTERED</text><text fill="#eeeeee" stroke="none" font-family="Arial" font-size="24px" font-style="normal" font-weight="normal" text-decoration="none" x="0" y="210">UNREGISTERED</text><text fill="#eeeeee" stroke="none" font-family="Arial" font-size="24px" font-style="normal" font-weight="normal" text-decoration="none" x="0" y="240">UNREGISTERED</text><text fill="#eeeeee" stroke="none" font-family="Arial" font-size="24px" font-style="normal" font-weight="normal" text-decoration="none" x="0" y="270">UNREGISTERED</text><text fill="#eeeeee" stroke="none" font-family="Arial" font-size="24px" font-style="normal" font-weight="normal" text-decoration="none" x="0" y="300">UNREGISTERED</text><text fill="#eeeeee" stroke="none" font-family="Arial" font-size="24px" font-style="normal" font-weight="normal" text-decoration="none" x="0" y="330">UNREGISTERED</text><text fill="#eeeeee" stroke="none" font-family="Arial" font-size="24px" font-style="normal" font-weight="normal" text-decoration="none" x="0" y="360">UNREGISTERED</text><text fill="#eeeeee" stroke="none" font-family="Arial" font-size="24px" font-style="normal" font-weight="normal" text-decoration="none" x="200" y="0">UNREGISTERED</text><text fill="#eeeeee" stroke="none" font-family="Arial" font-size="24px" font-style="normal" font-weight="normal" text-decoration="none" x="200" y="30">UNREGISTERED</text><text fill="#eeeeee" stroke="none" font-family="Arial" font-size="24px" font-style="normal" font-weight="normal" text-decoration="none" x="200" y="60">UNREGISTERED</text><text fill="#eeeeee" stroke="none" font-family="Arial" font-size="24px" font-style="normal" font-weight="normal" text-decoration="none" x="200" y="90">UNREGISTERED</text><text fill="#eeeeee" stroke="none" font-family="Arial" font-size="24px" font-style="normal" font-weight="normal" text-decoration="none" x="200" y="120">UNREGISTERED</text><text fill="#eeeeee" stroke="none" font-family="Arial" font-size="24px" font-style="normal" font-weight="normal" text-decoration="none" x="200" y="150">UNREGISTERED</text><text fill="#eeeeee" stroke="none" font-family="Arial" font-size="24px" font-style="normal" font-weight="normal" text-decoration="none" x="200" y="180">UNREGISTERED</text><text fill="#eeeeee" stroke="none" font-family="Arial" font-size="24px" font-style="normal" font-weight="normal" text-decoration="none" x="200" y="210">UNREGISTERED</text><text fill="#eeeeee" stroke="none" font-family="Arial" font-size="24px" font-style="normal" font-weight="normal" text-decoration="none" x="200" y="240">UNREGISTERED</text><text fill="#eeeeee" stroke="none" font-family="Arial" font-size="24px" font-style="normal" font-weight="normal" text-decoration="none" x="200" y="270">UNREGISTERED</text><text fill="#eeeeee" stroke="none" font-family="Arial" font-size="24px" font-style="normal" font-weight="normal" text-decoration="none" x="200" y="300">UNREGISTERED</text><text fill="#eeeeee" stroke="none" font-family="Arial" font-size="24px" font-style="normal" font-weight="normal" text-decoration="none" x="200" y="330">UNREGISTERED</text><text fill="#eeeeee" stroke="none" font-family="Arial" font-size="24px" font-style="normal" font-weight="normal" text-decoration="none" x="200" y="360">UNREGISTERED</text><text fill="#eeeeee" stroke="none" font-family="Arial" font-size="24px" font-style="normal" font-weight="normal" text-decoration="none" x="400" y="0">UNREGISTERED</text><text fill="#eeeeee" stroke="none" font-family="Arial" font-size="24px" font-style="normal" font-weight="normal" text-decoration="none" x="400" y="30">UNREGISTERED</text><text fill="#eeeeee" stroke="none" font-family="Arial" font-size="24px" font-style="normal" font-weight="normal" text-decoration="none" x="400" y="60">UNREGISTERED</text><text fill="#eeeeee" stroke="none" font-family="Arial" font-size="24px" font-style="normal" font-weight="normal" text-decoration="none" x="400" y="90">UNREGISTERED</text><text fill="#eeeeee" stroke="none" font-family="Arial" font-size="24px" font-style="normal" font-weight="normal" text-decoration="none" x="400" y="120">UNREGISTERED</text><text fill="#eeeeee" stroke="none" font-family="Arial" font-size="24px" font-style="normal" font-weight="normal" text-decoration="none" x="400" y="150">UNREGISTERED</text><text fill="#eeeeee" stroke="none" font-family="Arial" font-size="24px" font-style="normal" font-weight="normal" text-decoration="none" x="400" y="180">UNREGISTERED</text><text fill="#eeeeee" stroke="none" font-family="Arial" font-size="24px" font-style="normal" font-weight="normal" text-decoration="none" x="400" y="210">UNREGISTERED</text><text fill="#eeeeee" stroke="none" font-family="Arial" font-size="24px" font-style="normal" font-weight="normal" text-decoration="none" x="400" y="240">UNREGISTERED</text><text fill="#eeeeee" stroke="none" font-family="Arial" font-size="24px" font-style="normal" font-weight="normal" text-decoration="none" x="400" y="270">UNREGISTERED</text><text fill="#eeeeee" stroke="none" font-family="Arial" font-size="24px" font-style="normal" font-weight="normal" text-decoration="none" x="400" y="300">UNREGISTERED</text><text fill="#eeeeee" stroke="none" font-family="Arial" font-size="24px" font-style="normal" font-weight="normal" text-decoration="none" x="400" y="330">UNREGISTERED</text><text fill="#eeeeee" stroke="none" font-family="Arial" font-size="24px" font-style="normal" font-weight="normal" text-decoration="none" x="400" y="360">UNREGISTERED</text><g transform="translate(-126,-149) scale(1,1)"><rect fill="#C0C0C0" stroke="none" x="463" y="351" width="79.82080078125" height="70" opacity="0.2"/></g><g transform="translate(-126,-149) scale(1,1)"><rect fill="#ffffff" stroke="none" x="456" y="344" width="79.82080078125" height="70"/></g><g transform="translate(-126,-149) scale(1,1)"><path fill="none" stroke="#000000" d="M 456 344 L 535.82080078125 344 L 535.82080078125 414 L 456 414 L 456 344 Z Z" stroke-miterlimit="10"/></g><g transform="translate(-126,-149) scale(1,1)"><path fill="none" stroke="#000000" d="M 456 382 L 535.82080078125 382" stroke-miterlimit="10"/></g><g transform="translate(-126,-149) scale(1,1)"><path fill="none" stroke="#000000" d="M 456 405 L 535.82080078125 405" stroke-miterlimit="10"/></g><g transform="translate(-126,-149) scale(1,1)"><g><path fill="none" stroke="none"/><text fill="#000000" stroke="none" font-family="Arial" font-size="13px" font-style="normal" font-weight="normal" text-decoration="none" x="473.14453125" y="361.5">«entity»</text></g></g><g transform="translate(-126,-149) scale(1,1)"><g><path fill="none" stroke="none"/><text fill="#000000" stroke="none" font-family="Arial" font-size="13px" font-style="normal" font-weight="bold" text-decoration="none" x="473.5" y="376.5">Abonné</text></g></g><g transform="translate(-126,-149) scale(1,1)"><g><path fill="none" stroke="none"/><text fill="#000000" stroke="none" font-family="Arial" font-size="13px" font-style="normal" font-weight="normal" text-decoration="none" x="461" y="399.5">-numero {id}</text></g></g><g transform="translate(-126,-149) scale(1,1)"><rect fill="#C0C0C0" stroke="none" x="325" y="166" width="99.3271484375" height="117" opacity="0.2"/></g><g transform="translate(-126,-149) scale(1,1)"><rect fill="#ffffff" stroke="none" x="318" y="159" width="99.3271484375" height="117"/></g><g transform="translate(-126,-149) scale(1,1)"><path fill="none" stroke="#000000" d="M 318 159 L 417.3271484375 159 L 417.3271484375 276 L 318 276 L 318 159 Z Z" stroke-miterlimit="10"/></g><g transform="translate(-126,-149) scale(1,1)"><path fill="none" stroke="#000000" d="M 318 184 L 417.3271484375 184" stroke-miterlimit="10"/></g><g transform="translate(-126,-149) scale(1,1)"><path fill="none" stroke="#000000" d="M 318 267 L 417.3271484375 267" stroke-miterlimit="10"/></g><g transform="translate(-126,-149) scale(1,1)"><g><path fill="none" stroke="none"/><text fill="#000000" stroke="none" font-family="Arial" font-size="13px" font-style="normal" font-weight="bold" text-decoration="none" x="339.838623046875" y="178.5">Personne</text></g></g><g transform="translate(-126,-149) scale(1,1)"><g><path fill="none" stroke="none"/><text fill="#000000" stroke="none" font-family="Arial" font-size="13px" font-style="normal" font-weight="normal" text-decoration="none" x="323" y="201.5">-nom</text></g></g><g transform="translate(-126,-149) scale(1,1)"><g><path fill="none" stroke="none"/><text fill="#000000" stroke="none" font-family="Arial" font-size="13px" font-style="normal" font-weight="normal" text-decoration="none" x="323" y="216.5">-prenom</text></g></g><g transform="translate(-126,-149) scale(1,1)"><g><path fill="none" stroke="none"/><text fill="#000000" stroke="none" font-family="Arial" font-size="13px" font-style="normal" font-weight="normal" text-decoration="none" x="323" y="231.5">-email</text></g></g><g transform="translate(-126,-149) scale(1,1)"><g><path fill="none" stroke="none"/><text fill="#000000" stroke="none" font-family="Arial" font-size="13px" font-style="normal" font-weight="normal" text-decoration="none" x="323" y="246.5">-telephone</text></g></g><g transform="translate(-126,-149) scale(1,1)"><g><path fill="none" stroke="none"/><text fill="#000000" stroke="none" font-family="Arial" font-size="13px" font-style="normal" font-weight="normal" text-decoration="none" x="323" y="261.5">-dateNaissance</text></g></g><g transform="translate(-126,-149) scale(1,1)"><path fill="none" stroke="#000000" d="M 467 343 L 414 277" stroke-miterlimit="10"/></g><g transform="translate(-126,-149) scale(1,1)"><path fill="#FFFFFF" stroke="none" d="M 433.2908542336602 287.5765279244029 L 414 277 L 420.16195922674814 298.11942846025653"/></g><g transform="translate(-126,-149) scale(1,1)"><path fill="none" stroke="#000000" d="M 433.2908542336602 287.5765279244029 L 414 277 L 420.16195922674814 298.11942846025653 L 433.2908542336602 287.5765279244029" stroke-miterlimit="10"/></g><g transform="translate(-126,-149) scale(1,1)"><rect fill="#C0C0C0" stroke="none" x="556" y="219" width="77.64990234375" height="102" opacity="0.2"/></g><g transform="translate(-126,-149) scale(1,1)"><rect fill="#ffffff" stroke="none" x="549" y="212" width="77.64990234375" height="102"/></g><g transform="translate(-126,-149) scale(1,1)"><path fill="none" stroke="#000000" d="M 549 212 L 626.64990234375 212 L 626.64990234375 314 L 549 314 L 549 212 Z Z" stroke-miterlimit="10"/></g><g transform="translate(-126,-149) scale(1,1)"><path fill="none" stroke="#000000" d="M 549 237 L 626.64990234375 237" stroke-miterlimit="10"/></g><g transform="translate(-126,-149) scale(1,1)"><path fill="none" stroke="#000000" d="M 549 305 L 626.64990234375 305" stroke-miterlimit="10"/></g><g transform="translate(-126,-149) scale(1,1)"><g><path fill="none" stroke="none"/><text fill="#000000" stroke="none" font-family="Arial" font-size="13px" font-style="normal" font-weight="bold" text-decoration="none" x="563.97998046875" y="231.5">Adresse</text></g></g><g transform="translate(-126,-149) scale(1,1)"><g><path fill="none" stroke="none"/><text fill="#000000" stroke="none" font-family="Arial" font-size="13px" font-style="normal" font-weight="normal" text-decoration="none" x="554" y="254.5">-rue</text></g></g><g transform="translate(-126,-149) scale(1,1)"><g><path fill="none" stroke="none"/><text fill="#000000" stroke="none" font-family="Arial" font-size="13px" font-style="normal" font-weight="normal" text-decoration="none" x="554" y="269.5">-codePostal</text></g></g><g transform="translate(-126,-149) scale(1,1)"><g><path fill="none" stroke="none"/><text fill="#000000" stroke="none" font-family="Arial" font-size="13px" font-style="normal" font-weight="normal" text-decoration="none" x="554" y="284.5">-ville</text></g></g><g transform="translate(-126,-149) scale(1,1)"><g><path fill="none" stroke="none"/><text fill="#000000" stroke="none" font-family="Arial" font-size="13px" font-style="normal" font-weight="normal" text-decoration="none" x="554" y="299.5">-pays</text></g></g><g transform="translate(-126,-149) scale(1,1)"><path fill="none" stroke="#000000" d="M 548 255 L 418 228" stroke-miterlimit="10"/></g><g transform="translate(-126,-149) scale(1,1)"><path fill="#000000" stroke="none" d="M 428.8063481468891 225.94504507878463 L 418 228 L 427.094314614352 234.18816949470389 L 439.54032215341664 232.47375921647884"/></g><g transform="translate(-126,-149) scale(1,1)"><path fill="none" stroke="#000000" d="M 428.8063481468891 225.94504507878463 L 418 228 L 427.094314614352 234.18816949470389 L 439.54032215341664 232.47375921647884 L 428.8063481468891 225.94504507878463" stroke-miterlimit="10"/></g><g transform="translate(-126,-149) scale(1,1)"><path fill="none" stroke="#000000" d="M 537.193651853111 257.05495492121537 L 548 255 L 538.905685385648 248.81183050529611" stroke-miterlimit="10"/></g><g transform="translate(-126,-149) scale(1,1)"><g><path fill="none" stroke="none"/><text fill="#000000" stroke="none" font-family="Arial" font-size="13px" font-style="normal" font-weight="normal" text-decoration="none" x="492.5" y="270.5">+adresse</text></g></g><g transform="translate(-126,-149) scale(1,1)"><rect fill="#C0C0C0" stroke="none" x="143" y="383" width="198.67431640625" height="130" opacity="0.2"/></g><g transform="translate(-126,-149) scale(1,1)"><rect fill="#ffffff" stroke="none" x="136" y="376" width="198.67431640625" height="130"/></g><g transform="translate(-126,-149) scale(1,1)"><path fill="none" stroke="#000000" d="M 136 376 L 334.67431640625 376 L 334.67431640625 506 L 136 506 L 136 376 Z Z" stroke-miterlimit="10"/></g><g transform="translate(-126,-149) scale(1,1)"><path fill="none" stroke="#000000" d="M 136 414 L 334.67431640625 414" stroke-miterlimit="10"/></g><g transform="translate(-126,-149) scale(1,1)"><path fill="none" stroke="#000000" d="M 136 424 L 334.67431640625 424" stroke-miterlimit="10"/></g><g transform="translate(-126,-149) scale(1,1)"><g><path fill="none" stroke="none"/><text fill="#000000" stroke="none" font-family="Arial" font-size="13px" font-style="normal" font-weight="normal" text-decoration="none" x="207.5185546875" y="393.5">«service»</text></g></g><g transform="translate(-126,-149) scale(1,1)"><g><path fill="none" stroke="none"/><text fill="#000000" stroke="none" font-family="Arial" font-size="13px" font-style="normal" font-weight="bold" text-decoration="none" x="188.002685546875" y="408.5">ServiceAbonnés</text></g></g><g transform="translate(-126,-149) scale(1,1)"><g><path fill="none" stroke="none"/><text fill="#000000" stroke="none" font-family="Arial" font-size="13px" font-style="normal" font-weight="normal" text-decoration="none" x="141" y="441.5">+rechercherAbonnéParNumero()</text></g></g><g transform="translate(-126,-149) scale(1,1)"><g><path fill="none" stroke="none"/><text fill="#000000" stroke="none" font-family="Arial" font-size="13px" font-style="normal" font-weight="normal" text-decoration="none" x="141" y="456.5">+creerAbonné()</text></g></g><g transform="translate(-126,-149) scale(1,1)"><g><path fill="none" stroke="none"/><text fill="#000000" stroke="none" font-family="Arial" font-size="13px" font-style="normal" font-weight="normal" text-decoration="none" x="141" y="471.5">+modifierAbonné()</text></g></g><g transform="translate(-126,-149) scale(1,1)"><g><path fill="none" stroke="none"/><text fill="#000000" stroke="none" font-family="Arial" font-size="13px" font-style="normal" font-weight="normal" text-decoration="none" x="141" y="486.5">+supprimerAbonné()</text></g></g><g transform="translate(-126,-149) scale(1,1)"><g><path fill="none" stroke="none"/><text fill="#000000" stroke="none" font-family="Arial" font-size="13px" font-style="normal" font-weight="normal" text-decoration="none" x="141" y="501.5">+verifAbonnementValide()</text></g></g><g transform="translate(-126,-149) scale(1,1)"><path fill="none" stroke="#000000" d="M 336 417 L 455 389" stroke-miterlimit="10" stroke-dasharray="3"/></g><g transform="translate(-126,-149) scale(1,1)"><path fill="none" stroke="#000000" d="M 446.07162295954043 395.4252691323706 L 455 389 L 444.1433326752529 387.23003542414864" stroke-miterlimit="10"/></g></g></svg>