<svg version="1.1" xmlns="http://www.w3.org/2000/svg" xmlns:xlink="http://www.w3.org/1999/xlink" width="749.3798828125" height="571"><defs/><g><text fill="#eeeeee" stroke="none" font-family="Arial" font-size="24px" font-style="normal" font-weight="normal" text-decoration="none" x="0" y="0">UNREGISTERED</text><text fill="#eeeeee" stroke="none" font-family="Arial" font-size="24px" font-style="normal" font-weight="normal" text-decoration="none" x="0" y="30">UNREGISTERED</text><text fill="#eeeeee" stroke="none" font-family="Arial" font-size="24px" font-style="normal" font-weight="normal" text-decoration="none" x="0" y="60">UNREGISTERED</text><text fill="#eeeeee" stroke="none" font-family="Arial" font-size="24px" font-style="normal" font-weight="normal" text-decoration="none" x="0" y="90">UNREGISTERED</text><text fill="#eeeeee" stroke="none" font-family="Arial" font-size="24px" font-style="normal" font-weight="normal" text-decoration="none" x="0" y="120">UNREGISTERED</text><text fill="#eeeeee" stroke="none" font-family="Arial" font-size="24px" font-style="normal" font-weight="normal" text-decoration="none" x="0" y="150">UNREGISTERED</text><text fill="#eeeeee" stroke="none" font-family="Arial" font-size="24px" font-style="normal" font-weight="normal" text-decoration="none" x="0" y="180">UNREGISTERED</text><text fill="#eeeeee" stroke="none" font-family="Arial" font-size="24px" font-style="normal" font-weight="normal" text-decoration="none" x="0" y="210">UNREGISTERED</text><text fill="#eeeeee" stroke="none" font-family="Arial" font-size="24px" font-style="normal" font-weight="normal" text-decoration="none" x="0" y="240">UNREGISTERED</text><text fill="#eeeeee" stroke="none" font-family="Arial" font-size="24px" font-style="normal" font-weight="normal" text-decoration="none" x="0" y="270">UNREGISTERED</text><text fill="#eeeeee" stroke="none" font-family="Arial" font-size="24px" font-style="normal" font-weight="normal" text-decoration="none" x="0" y="300">UNREGISTERED</text><text fill="#eeeeee" stroke="none" font-family="Arial" font-size="24px" font-style="normal" font-weight="normal" text-decoration="none" x="0" y="330">UNREGISTERED</text><text fill="#eeeeee" stroke="none" font-family="Arial" font-size="24px" font-style="normal" font-weight="normal" text-decoration="none" x="0" y="360">UNREGISTERED</text><text fill="#eeeeee" stroke="none" font-family="Arial" font-size="24px" font-style="normal" font-weight="normal" text-decoration="none" x="0" y="390">UNREGISTERED</text><text fill="#eeeeee" stroke="none" font-family="Arial" font-size="24px" font-style="normal" font-weight="normal" text-decoration="none" x="0" y="420">UNREGISTERED</text><text fill="#eeeeee" stroke="none" font-family="Arial" font-size="24px" font-style="normal" font-weight="normal" text-decoration="none" x="0" y="450">UNREGISTERED</text><text fill="#eeeeee" stroke="none" font-family="Arial" font-size="24px" font-style="normal" font-weight="normal" text-decoration="none" x="0" y="480">UNREGISTERED</text><text fill="#eeeeee" stroke="none" font-family="Arial" font-size="24px" font-style="normal" font-weight="normal" text-decoration="none" x="0" y="510">UNREGISTERED</text><text fill="#eeeeee" stroke="none" font-family="Arial" font-size="24px" font-style="normal" font-weight="normal" text-decoration="none" x="0" y="540">UNREGISTERED</text><text fill="#eeeeee" stroke="none" font-family="Arial" font-size="24px" font-style="normal" font-weight="normal" text-decoration="none" x="0" y="570">UNREGISTERED</text><text fill="#eeeeee" stroke="none" font-family="Arial" font-size="24px" font-style="normal" font-weight="normal" text-decoration="none" x="200" y="0">UNREGISTERED</text><text fill="#eeeeee" stroke="none" font-family="Arial" font-size="24px" font-style="normal" font-weight="normal" text-decoration="none" x="200" y="30">UNREGISTERED</text><text fill="#eeeeee" stroke="none" font-family="Arial" font-size="24px" font-style="normal" font-weight="normal" text-decoration="none" x="200" y="60">UNREGISTERED</text><text fill="#eeeeee" stroke="none" font-family="Arial" font-size="24px" font-style="normal" font-weight="normal" text-decoration="none" x="200" y="90">UNREGISTERED</text><text fill="#eeeeee" stroke="none" font-family="Arial" font-size="24px" font-style="normal" font-weight="normal" text-decoration="none" x="200" y="120">UNREGISTERED</text><text fill="#eeeeee" stroke="none" font-family="Arial" font-size="24px" font-style="normal" font-weight="normal" text-decoration="none" x="200" y="150">UNREGISTERED</text><text fill="#eeeeee" stroke="none" font-family="Arial" font-size="24px" font-style="normal" font-weight="normal" text-decoration="none" x="200" y="180">UNREGISTERED</text><text fill="#eeeeee" stroke="none" font-family="Arial" font-size="24px" font-style="normal" font-weight="normal" text-decoration="none" x="200" y="210">UNREGISTERED</text><text fill="#eeeeee" stroke="none" font-family="Arial" font-size="24px" font-style="normal" font-weight="normal" text-decoration="none" x="200" y="240">UNREGISTERED</text><text fill="#eeeeee" stroke="none" font-family="Arial" font-size="24px" font-style="normal" font-weight="normal" text-decoration="none" x="200" y="270">UNREGISTERED</text><text fill="#eeeeee" stroke="none" font-family="Arial" font-size="24px" font-style="normal" font-weight="normal" text-decoration="none" x="200" y="300">UNREGISTERED</text><text fill="#eeeeee" stroke="none" font-family="Arial" font-size="24px" font-style="normal" font-weight="normal" text-decoration="none" x="200" y="330">UNREGISTERED</text><text fill="#eeeeee" stroke="none" font-family="Arial" font-size="24px" font-style="normal" font-weight="normal" text-decoration="none" x="200" y="360">UNREGISTERED</text><text fill="#eeeeee" stroke="none" font-family="Arial" font-size="24px" font-style="normal" font-weight="normal" text-decoration="none" x="200" y="390">UNREGISTERED</text><text fill="#eeeeee" stroke="none" font-family="Arial" font-size="24px" font-style="normal" font-weight="normal" text-decoration="none" x="200" y="420">UNREGISTERED</text><text fill="#eeeeee" stroke="none" font-family="Arial" font-size="24px" font-style="normal" font-weight="normal" text-decoration="none" x="200" y="450">UNREGISTERED</text><text fill="#eeeeee" stroke="none" font-family="Arial" font-size="24px" font-style="normal" font-weight="normal" text-decoration="none" x="200" y="480">UNREGISTERED</text><text fill="#eeeeee" stroke="none" font-family="Arial" font-size="24px" font-style="normal" font-weight="normal" text-decoration="none" x="200" y="510">UNREGISTERED</text><text fill="#eeeeee" stroke="none" font-family="Arial" font-size="24px" font-style="normal" font-weight="normal" text-decoration="none" x="200" y="540">UNREGISTERED</text><text fill="#eeeeee" stroke="none" font-family="Arial" font-size="24px" font-style="normal" font-weight="normal" text-decoration="none" x="200" y="570">UNREGISTERED</text><text fill="#eeeeee" stroke="none" font-family="Arial" font-size="24px" font-style="normal" font-weight="normal" text-decoration="none" x="400" y="0">UNREGISTERED</text><text fill="#eeeeee" stroke="none" font-family="Arial" font-size="24px" font-style="normal" font-weight="normal" text-decoration="none" x="400" y="30">UNREGISTERED</text><text fill="#eeeeee" stroke="none" font-family="Arial" font-size="24px" font-style="normal" font-weight="normal" text-decoration="none" x="400" y="60">UNREGISTERED</text><text fill="#eeeeee" stroke="none" font-family="Arial" font-size="24px" font-style="normal" font-weight="normal" text-decoration="none" x="400" y="90">UNREGISTERED</text><text fill="#eeeeee" stroke="none" font-family="Arial" font-size="24px" font-style="normal" font-weight="normal" text-decoration="none" x="400" y="120">UNREGISTERED</text><text fill="#eeeeee" stroke="none" font-family="Arial" font-size="24px" font-style="normal" font-weight="normal" text-decoration="none" x="400" y="150">UNREGISTERED</text><text fill="#eeeeee" stroke="none" font-family="Arial" font-size="24px" font-style="normal" font-weight="normal" text-decoration="none" x="400" y="180">UNREGISTERED</text><text fill="#eeeeee" stroke="none" font-family="Arial" font-size="24px" font-style="normal" font-weight="normal" text-decoration="none" x="400" y="210">UNREGISTERED</text><text fill="#eeeeee" stroke="none" font-family="Arial" font-size="24px" font-style="normal" font-weight="normal" text-decoration="none" x="400" y="240">UNREGISTERED</text><text fill="#eeeeee" stroke="none" font-family="Arial" font-size="24px" font-style="normal" font-weight="normal" text-decoration="none" x="400" y="270">UNREGISTERED</text><text fill="#eeeeee" stroke="none" font-family="Arial" font-size="24px" font-style="normal" font-weight="normal" text-decoration="none" x="400" y="300">UNREGISTERED</text><text fill="#eeeeee" stroke="none" font-family="Arial" font-size="24px" font-style="normal" font-weight="normal" text-decoration="none" x="400" y="330">UNREGISTERED</text><text fill="#eeeeee" stroke="none" font-family="Arial" font-size="24px" font-style="normal" font-weight="normal" text-decoration="none" x="400" y="360">UNREGISTERED</text><text fill="#eeeeee" stroke="none" font-family="Arial" font-size="24px" font-style="normal" font-weight="normal" text-decoration="none" x="400" y="390">UNREGISTERED</text><text fill="#eeeeee" stroke="none" font-family="Arial" font-size="24px" font-style="normal" font-weight="normal" text-decoration="none" x="400" y="420">UNREGISTERED</text><text fill="#eeeeee" stroke="none" font-family="Arial" font-size="24px" font-style="normal" font-weight="normal" text-decoration="none" x="400" y="450">UNREGISTERED</text><text fill="#eeeeee" stroke="none" font-family="Arial" font-size="24px" font-style="normal" font-weight="normal" text-decoration="none" x="400" y="480">UNREGISTERED</text><text fill="#eeeeee" stroke="none" font-family="Arial" font-size="24px" font-style="normal" font-weight="normal" text-decoration="none" x="400" y="510">UNREGISTERED</text><text fill="#eeeeee" stroke="none" font-family="Arial" font-size="24px" font-style="normal" font-weight="normal" text-decoration="none" x="400" y="540">UNREGISTERED</text><text fill="#eeeeee" stroke="none" font-family="Arial" font-size="24px" font-style="normal" font-weight="normal" text-decoration="none" x="400" y="570">UNREGISTERED</text><text fill="#eeeeee" stroke="none" font-family="Arial" font-size="24px" font-style="normal" font-weight="normal" text-decoration="none" x="600" y="0">UNREGISTERED</text><text fill="#eeeeee" stroke="none" font-family="Arial" font-size="24px" font-style="normal" font-weight="normal" text-decoration="none" x="600" y="30">UNREGISTERED</text><text fill="#eeeeee" stroke="none" font-family="Arial" font-size="24px" font-style="normal" font-weight="normal" text-decoration="none" x="600" y="60">UNREGISTERED</text><text fill="#eeeeee" stroke="none" font-family="Arial" font-size="24px" font-style="normal" font-weight="normal" text-decoration="none" x="600" y="90">UNREGISTERED</text><text fill="#eeeeee" stroke="none" font-family="Arial" font-size="24px" font-style="normal" font-weight="normal" text-decoration="none" x="600" y="120">UNREGISTERED</text><text fill="#eeeeee" stroke="none" font-family="Arial" font-size="24px" font-style="normal" font-weight="normal" text-decoration="none" x="600" y="150">UNREGISTERED</text><text fill="#eeeeee" stroke="none" font-family="Arial" font-size="24px" font-style="normal" font-weight="normal" text-decoration="none" x="600" y="180">UNREGISTERED</text><text fill="#eeeeee" stroke="none" font-family="Arial" font-size="24px" font-style="normal" font-weight="normal" text-decoration="none" x="600" y="210">UNREGISTERED</text><text fill="#eeeeee" stroke="none" font-family="Arial" font-size="24px" font-style="normal" font-weight="normal" text-decoration="none" x="600" y="240">UNREGISTERED</text><text fill="#eeeeee" stroke="none" font-family="Arial" font-size="24px" font-style="normal" font-weight="normal" text-decoration="none" x="600" y="270">UNREGISTERED</text><text fill="#eeeeee" stroke="none" font-family="Arial" font-size="24px" font-style="normal" font-weight="normal" text-decoration="none" x="600" y="300">UNREGISTERED</text><text fill="#eeeeee" stroke="none" font-family="Arial" font-size="24px" font-style="normal" font-weight="normal" text-decoration="none" x="600" y="330">UNREGISTERED</text><text fill="#eeeeee" stroke="none" font-family="Arial" font-size="24px" font-style="normal" font-weight="normal" text-decoration="none" x="600" y="360">UNREGISTERED</text><text fill="#eeeeee" stroke="none" font-family="Arial" font-size="24px" font-style="normal" font-weight="normal" text-decoration="none" x="600" y="390">UNREGISTERED</text><text fill="#eeeeee" stroke="none" font-family="Arial" font-size="24px" font-style="normal" font-weight="normal" text-decoration="none" x="600" y="420">UNREGISTERED</text><text fill="#eeeeee" stroke="none" font-family="Arial" font-size="24px" font-style="normal" font-weight="normal" text-decoration="none" x="600" y="450">UNREGISTERED</text><text fill="#eeeeee" stroke="none" font-family="Arial" font-size="24px" font-style="normal" font-weight="normal" text-decoration="none" x="600" y="480">UNREGISTERED</text><text fill="#eeeeee" stroke="none" font-family="Arial" font-size="24px" font-style="normal" font-weight="normal" text-decoration="none" x="600" y="510">UNREGISTERED</text><text fill="#eeeeee" stroke="none" font-family="Arial" font-size="24px" font-style="normal" font-weight="normal" text-decoration="none" x="600" y="540">UNREGISTERED</text><text fill="#eeeeee" stroke="none" font-family="Arial" font-size="24px" font-style="normal" font-weight="normal" text-decoration="none" x="600" y="570">UNREGISTERED</text><g transform="translate(-38,-46) scale(1,1)"><rect fill="#C0C0C0" stroke="none" x="287" y="311" width="231" height="175" opacity="0.2"/></g><g transform="translate(-38,-46) scale(1,1)"><rect fill="#ffffff" stroke="none" x="280" y="304" width="231" height="175"/></g><g transform="translate(-38,-46) scale(1,1)"><path fill="none" stroke="#000000" d="M 280 304 L 511 304 L 511 479 L 280 479 L 280 304 Z Z" stroke-miterlimit="10"/></g><g transform="translate(-38,-46) scale(1,1)"><g><path fill="none" stroke="none"/><text fill="#000000" stroke="none" font-family="Arial" font-size="13px" font-style="normal" font-weight="bold" text-decoration="none" x="344.537841796875" y="323.5">appli_bibiotheque</text></g></g><g transform="translate(-38,-46) scale(1,1)"><path fill="#ffffff" stroke="none" d="M 118.80388156960228 153.68 C 118.80388156960228 148.886167936 122.68972389454774 145 127.483154296875 145 C 132.27658469920226 145 136.16242702414772 148.886167936 136.16242702414772 153.68 C 136.16242702414772 158.47383206400002 132.27658469920226 162.36 127.483154296875 162.36 C 122.68972389454774 162.36 118.80388156960228 158.47383206400002 118.80388156960228 153.68 Z"/></g><g transform="translate(-38,-46) scale(1,1)"><path fill="none" stroke="#000000" d="M 118.80388156960228 153.68 C 118.80388156960228 148.886167936 122.68972389454774 145 127.483154296875 145 C 132.27658469920226 145 136.16242702414772 148.886167936 136.16242702414772 153.68 C 136.16242702414772 158.47383206400002 132.27658469920226 162.36 127.483154296875 162.36 C 122.68972389454774 162.36 118.80388156960228 158.47383206400002 118.80388156960228 153.68 Z" stroke-miterlimit="10"/></g><g transform="translate(-38,-46) scale(1,1)"><path fill="none" stroke="#000000" d="M 127.483154296875 162.36 L 127.483154296875 179.64" stroke-miterlimit="10"/></g><g transform="translate(-38,-46) scale(1,1)"><path fill="none" stroke="#000000" d="M 118.29333611505683 168.84 L 136.67297247869317 168.84" stroke-miterlimit="10"/></g><g transform="translate(-38,-46) scale(1,1)"><path fill="none" stroke="#000000" d="M 127.483154296875 179.64 L 114.71951793323865 197" stroke-miterlimit="10"/></g><g transform="translate(-38,-46) scale(1,1)"><path fill="none" stroke="#000000" d="M 127.483154296875 179.64 L 140.24679066051135 197" stroke-miterlimit="10"/></g><g transform="translate(-38,-46) scale(1,1)"><g><path fill="none" stroke="none"/><text fill="#000000" stroke="none" font-family="Arial" font-size="13px" font-style="normal" font-weight="bold" text-decoration="none" x="88.4609375" y="217.5">Bibliothecaire</text></g></g><g transform="translate(-38,-46) scale(1,1)"><path fill="#ffffff" stroke="none" d="M 684.0106686789773 193.68 C 684.0106686789773 188.886167936 687.8965110039227 185 692.68994140625 185 C 697.4833718085773 185 701.3692141335227 188.886167936 701.3692141335227 193.68 C 701.3692141335227 198.47383206400002 697.4833718085773 202.36 692.68994140625 202.36 C 687.8965110039227 202.36 684.0106686789773 198.47383206400002 684.0106686789773 193.68 Z"/></g><g transform="translate(-38,-46) scale(1,1)"><path fill="none" stroke="#000000" d="M 684.0106686789773 193.68 C 684.0106686789773 188.886167936 687.8965110039227 185 692.68994140625 185 C 697.4833718085773 185 701.3692141335227 188.886167936 701.3692141335227 193.68 C 701.3692141335227 198.47383206400002 697.4833718085773 202.36 692.68994140625 202.36 C 687.8965110039227 202.36 684.0106686789773 198.47383206400002 684.0106686789773 193.68 Z" stroke-miterlimit="10"/></g><g transform="translate(-38,-46) scale(1,1)"><path fill="none" stroke="#000000" d="M 692.68994140625 202.36 L 692.68994140625 219.64" stroke-miterlimit="10"/></g><g transform="translate(-38,-46) scale(1,1)"><path fill="none" stroke="#000000" d="M 683.5001232244318 208.84 L 701.8797595880682 208.84" stroke-miterlimit="10"/></g><g transform="translate(-38,-46) scale(1,1)"><path fill="none" stroke="#000000" d="M 692.68994140625 219.64 L 679.9263050426136 237" stroke-miterlimit="10"/></g><g transform="translate(-38,-46) scale(1,1)"><path fill="none" stroke="#000000" d="M 692.68994140625 219.64 L 705.4535777698864 237" stroke-miterlimit="10"/></g><g transform="translate(-38,-46) scale(1,1)"><g><path fill="none" stroke="none"/><text fill="#000000" stroke="none" font-family="Arial" font-size="13px" font-style="normal" font-weight="bold" text-decoration="none" x="618.61279296875" y="257.5">logiciel_compta_ou_autre</text></g></g><g transform="translate(-38,-46) scale(1,1)"><path fill="#ffffff" stroke="none" d="M 126.53386203835228 521.6800000000001 C 126.53386203835228 516.8861679360001 130.41970436329774 513 135.213134765625 513 C 140.00656516795226 513 143.89240749289772 516.8861679360001 143.89240749289772 521.6800000000001 C 143.89240749289772 526.473832064 140.00656516795226 530.36 135.213134765625 530.36 C 130.41970436329774 530.36 126.53386203835228 526.473832064 126.53386203835228 521.6800000000001 Z"/></g><g transform="translate(-38,-46) scale(1,1)"><path fill="none" stroke="#000000" d="M 126.53386203835228 521.6800000000001 C 126.53386203835228 516.8861679360001 130.41970436329774 513 135.213134765625 513 C 140.00656516795226 513 143.89240749289772 516.8861679360001 143.89240749289772 521.6800000000001 C 143.89240749289772 526.473832064 140.00656516795226 530.36 135.213134765625 530.36 C 130.41970436329774 530.36 126.53386203835228 526.473832064 126.53386203835228 521.6800000000001 Z" stroke-miterlimit="10"/></g><g transform="translate(-38,-46) scale(1,1)"><path fill="none" stroke="#000000" d="M 135.213134765625 530.36 L 135.213134765625 547.64" stroke-miterlimit="10"/></g><g transform="translate(-38,-46) scale(1,1)"><path fill="none" stroke="#000000" d="M 126.02331658380683 536.84 L 144.40295294744317 536.84" stroke-miterlimit="10"/></g><g transform="translate(-38,-46) scale(1,1)"><path fill="none" stroke="#000000" d="M 135.213134765625 547.64 L 122.44949840198865 565" stroke-miterlimit="10"/></g><g transform="translate(-38,-46) scale(1,1)"><path fill="none" stroke="#000000" d="M 135.213134765625 547.64 L 147.97677112926135 565" stroke-miterlimit="10"/></g><g transform="translate(-38,-46) scale(1,1)"><g><path fill="none" stroke="none"/><text fill="#000000" stroke="none" font-family="Arial" font-size="13px" font-style="normal" font-weight="bold" text-decoration="none" x="57.5146484375" y="585.5">Responsable_abonnement</text></g></g><g transform="translate(-38,-46) scale(1,1)"><path fill="#ffffff" stroke="none" d="M 611.9620846946023 537.6800000000001 C 611.9620846946023 532.8861679360001 615.8479270195477 529 620.641357421875 529 C 625.4347878242023 529 629.3206301491477 532.8861679360001 629.3206301491477 537.6800000000001 C 629.3206301491477 542.473832064 625.4347878242023 546.36 620.641357421875 546.36 C 615.8479270195477 546.36 611.9620846946023 542.473832064 611.9620846946023 537.6800000000001 Z"/></g><g transform="translate(-38,-46) scale(1,1)"><path fill="none" stroke="#000000" d="M 611.9620846946023 537.6800000000001 C 611.9620846946023 532.8861679360001 615.8479270195477 529 620.641357421875 529 C 625.4347878242023 529 629.3206301491477 532.8861679360001 629.3206301491477 537.6800000000001 C 629.3206301491477 542.473832064 625.4347878242023 546.36 620.641357421875 546.36 C 615.8479270195477 546.36 611.9620846946023 542.473832064 611.9620846946023 537.6800000000001 Z" stroke-miterlimit="10"/></g><g transform="translate(-38,-46) scale(1,1)"><path fill="none" stroke="#000000" d="M 620.641357421875 546.36 L 620.641357421875 563.64" stroke-miterlimit="10"/></g><g transform="translate(-38,-46) scale(1,1)"><path fill="none" stroke="#000000" d="M 611.4515392400568 552.84 L 629.8311756036932 552.84" stroke-miterlimit="10"/></g><g transform="translate(-38,-46) scale(1,1)"><path fill="none" stroke="#000000" d="M 620.641357421875 563.64 L 607.8777210582386 581" stroke-miterlimit="10"/></g><g transform="translate(-38,-46) scale(1,1)"><path fill="none" stroke="#000000" d="M 620.641357421875 563.64 L 633.4049937855114 581" stroke-miterlimit="10"/></g><g transform="translate(-38,-46) scale(1,1)"><g><path fill="none" stroke="none"/><text fill="#000000" stroke="none" font-family="Arial" font-size="13px" font-style="normal" font-weight="bold" text-decoration="none" x="598.23095703125" y="601.5">Abonné</text></g></g><g transform="translate(-38,-46) scale(1,1)"><path fill="#ffffff" stroke="none" d="M 88 432 L 332 432 L 342 442 L 342 495 L 88 495 L 88 432"/></g><g transform="translate(-38,-46) scale(1,1)"><path fill="none" stroke="#000000" d="M 88 432 L 332 432 L 342 442 L 342 495 L 88 495 L 88 432 L 88 432" stroke-miterlimit="10"/></g><g transform="translate(-38,-46) scale(1,1)"><path fill="none" stroke="#000000" d="M 332 432 L 332 442 L 342 442 L 332 432" stroke-miterlimit="10"/></g><g transform="translate(-38,-46) scale(1,1)"><g><path fill="none" stroke="none"/><text fill="#000000" stroke="none" font-family="Arial" font-size="13px" font-style="normal" font-weight="normal" text-decoration="none" x="93" y="450">--&gt; inscrire abonné</text></g></g><g transform="translate(-38,-46) scale(1,1)"><g><path fill="none" stroke="none"/><text fill="#000000" stroke="none" font-family="Arial" font-size="13px" font-style="normal" font-weight="normal" text-decoration="none" x="93" y="465">--&gt; gérer contentieux</text></g></g><g transform="translate(-38,-46) scale(1,1)"><g><path fill="none" stroke="none"/><text fill="#000000" stroke="none" font-family="Arial" font-size="13px" font-style="normal" font-weight="normal" text-decoration="none" x="93" y="480">...</text></g></g><g transform="translate(-38,-46) scale(1,1)"><path fill="#ffffff" stroke="none" d="M 88 248 L 300 248 L 310 258 L 310 358 L 88 358 L 88 248"/></g><g transform="translate(-38,-46) scale(1,1)"><path fill="none" stroke="#000000" d="M 88 248 L 300 248 L 310 258 L 310 358 L 88 358 L 88 248 L 88 248" stroke-miterlimit="10"/></g><g transform="translate(-38,-46) scale(1,1)"><path fill="none" stroke="#000000" d="M 300 248 L 300 258 L 310 258 L 300 248" stroke-miterlimit="10"/></g><g transform="translate(-38,-46) scale(1,1)"><g><path fill="none" stroke="none"/><text fill="#000000" stroke="none" font-family="Arial" font-size="13px" font-style="normal" font-weight="normal" text-decoration="none" x="93" y="266">--&gt; enregisistrer achat livre</text></g></g><g transform="translate(-38,-46) scale(1,1)"><g><path fill="none" stroke="none"/><text fill="#000000" stroke="none" font-family="Arial" font-size="13px" font-style="normal" font-weight="normal" text-decoration="none" x="93" y="281">--&gt; enegistrer debut et fin emprunt</text></g></g><g transform="translate(-38,-46) scale(1,1)"><g><path fill="none" stroke="none"/><text fill="#000000" stroke="none" font-family="Arial" font-size="13px" font-style="normal" font-weight="normal" text-decoration="none" x="93" y="296">--&gt; lancer restauration</text></g></g><g transform="translate(-38,-46) scale(1,1)"><g><path fill="none" stroke="none"/><text fill="#000000" stroke="none" font-family="Arial" font-size="13px" font-style="normal" font-weight="normal" text-decoration="none" x="93" y="311">--&gt; réintégrer livre restauré</text></g></g><g transform="translate(-38,-46) scale(1,1)"><g><path fill="none" stroke="none"/><text fill="#000000" stroke="none" font-family="Arial" font-size="13px" font-style="normal" font-weight="normal" text-decoration="none" x="93" y="326">...</text></g></g><g transform="translate(-38,-46) scale(1,1)"><path fill="#ffffff" stroke="none" d="M 480 272 L 628 272 L 638 282 L 638 327 L 480 327 L 480 272"/></g><g transform="translate(-38,-46) scale(1,1)"><path fill="none" stroke="#000000" d="M 480 272 L 628 272 L 638 282 L 638 327 L 480 327 L 480 272 L 480 272" stroke-miterlimit="10"/></g><g transform="translate(-38,-46) scale(1,1)"><path fill="none" stroke="#000000" d="M 628 272 L 628 282 L 638 282 L 628 272" stroke-miterlimit="10"/></g><g transform="translate(-38,-46) scale(1,1)"><g><path fill="none" stroke="none"/><text fill="#000000" stroke="none" font-family="Arial" font-size="13px" font-style="normal" font-weight="normal" text-decoration="none" x="485" y="290">envoyer notification</text></g></g><g transform="translate(-38,-46) scale(1,1)"><g><path fill="none" stroke="none"/><text fill="#000000" stroke="none" font-family="Arial" font-size="13px" font-style="normal" font-weight="normal" text-decoration="none" x="485" y="305"> d'achat de livre neuf --&gt;</text></g></g><g transform="translate(-38,-46) scale(1,1)"><path fill="#ffffff" stroke="none" d="M 440 440 L 644 440 L 654 450 L 654 518 L 440 518 L 440 440"/></g><g transform="translate(-38,-46) scale(1,1)"><path fill="none" stroke="#000000" d="M 440 440 L 644 440 L 654 450 L 654 518 L 440 518 L 440 440 L 440 440" stroke-miterlimit="10"/></g><g transform="translate(-38,-46) scale(1,1)"><path fill="none" stroke="#000000" d="M 644 440 L 644 450 L 654 450 L 644 440" stroke-miterlimit="10"/></g><g transform="translate(-38,-46) scale(1,1)"><g><path fill="none" stroke="none"/><text fill="#000000" stroke="none" font-family="Arial" font-size="13px" font-style="normal" font-weight="normal" text-decoration="none" x="445" y="458">--&gt; consulter liste livres</text></g></g><g transform="translate(-38,-46) scale(1,1)"><g><path fill="none" stroke="none"/><text fill="#000000" stroke="none" font-family="Arial" font-size="13px" font-style="normal" font-weight="normal" text-decoration="none" x="445" y="473">--&gt; effectuer réservation</text></g></g><g transform="translate(-38,-46) scale(1,1)"><g><path fill="none" stroke="none"/><text fill="#000000" stroke="none" font-family="Arial" font-size="13px" font-style="normal" font-weight="normal" text-decoration="none" x="445" y="488">...</text></g></g><g transform="translate(-38,-46) scale(1,1)"><g><path fill="none" stroke="none"/><text fill="#000000" stroke="none" font-family="Arial" font-size="13px" font-style="normal" font-weight="normal" text-decoration="none" x="445" y="503">recevoir alerte --&gt;</text></g></g><g transform="translate(-38,-46) scale(1,1)"><g><path fill="none" stroke="none"/><text fill="#0a1f48" stroke="none" font-family="Arial" font-size="16px" font-style="normal" font-weight="normal" text-decoration="none" x="189" y="77">Diagramme de contexte (diag de "Use Cases" préliminaire simplifié)</text></g></g></g></svg>