<svg version="1.1" xmlns="http://www.w3.org/2000/svg" xmlns:xlink="http://www.w3.org/1999/xlink" width="860" height="692"><defs/><g><text fill="#eeeeee" stroke="none" font-family="Arial" font-size="24px" font-style="normal" font-weight="normal" text-decoration="none" x="0" y="0">UNREGISTERED</text><text fill="#eeeeee" stroke="none" font-family="Arial" font-size="24px" font-style="normal" font-weight="normal" text-decoration="none" x="0" y="30">UNREGISTERED</text><text fill="#eeeeee" stroke="none" font-family="Arial" font-size="24px" font-style="normal" font-weight="normal" text-decoration="none" x="0" y="60">UNREGISTERED</text><text fill="#eeeeee" stroke="none" font-family="Arial" font-size="24px" font-style="normal" font-weight="normal" text-decoration="none" x="0" y="90">UNREGISTERED</text><text fill="#eeeeee" stroke="none" font-family="Arial" font-size="24px" font-style="normal" font-weight="normal" text-decoration="none" x="0" y="120">UNREGISTERED</text><text fill="#eeeeee" stroke="none" font-family="Arial" font-size="24px" font-style="normal" font-weight="normal" text-decoration="none" x="0" y="150">UNREGISTERED</text><text fill="#eeeeee" stroke="none" font-family="Arial" font-size="24px" font-style="normal" font-weight="normal" text-decoration="none" x="0" y="180">UNREGISTERED</text><text fill="#eeeeee" stroke="none" font-family="Arial" font-size="24px" font-style="normal" font-weight="normal" text-decoration="none" x="0" y="210">UNREGISTERED</text><text fill="#eeeeee" stroke="none" font-family="Arial" font-size="24px" font-style="normal" font-weight="normal" text-decoration="none" x="0" y="240">UNREGISTERED</text><text fill="#eeeeee" stroke="none" font-family="Arial" font-size="24px" font-style="normal" font-weight="normal" text-decoration="none" x="0" y="270">UNREGISTERED</text><text fill="#eeeeee" stroke="none" font-family="Arial" font-size="24px" font-style="normal" font-weight="normal" text-decoration="none" x="0" y="300">UNREGISTERED</text><text fill="#eeeeee" stroke="none" font-family="Arial" font-size="24px" font-style="normal" font-weight="normal" text-decoration="none" x="0" y="330">UNREGISTERED</text><text fill="#eeeeee" stroke="none" font-family="Arial" font-size="24px" font-style="normal" font-weight="normal" text-decoration="none" x="0" y="360">UNREGISTERED</text><text fill="#eeeeee" stroke="none" font-family="Arial" font-size="24px" font-style="normal" font-weight="normal" text-decoration="none" x="0" y="390">UNREGISTERED</text><text fill="#eeeeee" stroke="none" font-family="Arial" font-size="24px" font-style="normal" font-weight="normal" text-decoration="none" x="0" y="420">UNREGISTERED</text><text fill="#eeeeee" stroke="none" font-family="Arial" font-size="24px" font-style="normal" font-weight="normal" text-decoration="none" x="0" y="450">UNREGISTERED</text><text fill="#eeeeee" stroke="none" font-family="Arial" font-size="24px" font-style="normal" font-weight="normal" text-decoration="none" x="0" y="480">UNREGISTERED</text><text fill="#eeeeee" stroke="none" font-family="Arial" font-size="24px" font-style="normal" font-weight="normal" text-decoration="none" x="0" y="510">UNREGISTERED</text><text fill="#eeeeee" stroke="none" font-family="Arial" font-size="24px" font-style="normal" font-weight="normal" text-decoration="none" x="0" y="540">UNREGISTERED</text><text fill="#eeeeee" stroke="none" font-family="Arial" font-size="24px" font-style="normal" font-weight="normal" text-decoration="none" x="0" y="570">UNREGISTERED</text><text fill="#eeeeee" stroke="none" font-family="Arial" font-size="24px" font-style="normal" font-weight="normal" text-decoration="none" x="0" y="600">UNREGISTERED</text><text fill="#eeeeee" stroke="none" font-family="Arial" font-size="24px" font-style="normal" font-weight="normal" text-decoration="none" x="0" y="630">UNREGISTERED</text><text fill="#eeeeee" stroke="none" font-family="Arial" font-size="24px" font-style="normal" font-weight="normal" text-decoration="none" x="0" y="660">UNREGISTERED</text><text fill="#eeeeee" stroke="none" font-family="Arial" font-size="24px" font-style="normal" font-weight="normal" text-decoration="none" x="0" y="690">UNREGISTERED</text><text fill="#eeeeee" stroke="none" font-family="Arial" font-size="24px" font-style="normal" font-weight="normal" text-decoration="none" x="200" y="0">UNREGISTERED</text><text fill="#eeeeee" stroke="none" font-family="Arial" font-size="24px" font-style="normal" font-weight="normal" text-decoration="none" x="200" y="30">UNREGISTERED</text><text fill="#eeeeee" stroke="none" font-family="Arial" font-size="24px" font-style="normal" font-weight="normal" text-decoration="none" x="200" y="60">UNREGISTERED</text><text fill="#eeeeee" stroke="none" font-family="Arial" font-size="24px" font-style="normal" font-weight="normal" text-decoration="none" x="200" y="90">UNREGISTERED</text><text fill="#eeeeee" stroke="none" font-family="Arial" font-size="24px" font-style="normal" font-weight="normal" text-decoration="none" x="200" y="120">UNREGISTERED</text><text fill="#eeeeee" stroke="none" font-family="Arial" font-size="24px" font-style="normal" font-weight="normal" text-decoration="none" x="200" y="150">UNREGISTERED</text><text fill="#eeeeee" stroke="none" font-family="Arial" font-size="24px" font-style="normal" font-weight="normal" text-decoration="none" x="200" y="180">UNREGISTERED</text><text fill="#eeeeee" stroke="none" font-family="Arial" font-size="24px" font-style="normal" font-weight="normal" text-decoration="none" x="200" y="210">UNREGISTERED</text><text fill="#eeeeee" stroke="none" font-family="Arial" font-size="24px" font-style="normal" font-weight="normal" text-decoration="none" x="200" y="240">UNREGISTERED</text><text fill="#eeeeee" stroke="none" font-family="Arial" font-size="24px" font-style="normal" font-weight="normal" text-decoration="none" x="200" y="270">UNREGISTERED</text><text fill="#eeeeee" stroke="none" font-family="Arial" font-size="24px" font-style="normal" font-weight="normal" text-decoration="none" x="200" y="300">UNREGISTERED</text><text fill="#eeeeee" stroke="none" font-family="Arial" font-size="24px" font-style="normal" font-weight="normal" text-decoration="none" x="200" y="330">UNREGISTERED</text><text fill="#eeeeee" stroke="none" font-family="Arial" font-size="24px" font-style="normal" font-weight="normal" text-decoration="none" x="200" y="360">UNREGISTERED</text><text fill="#eeeeee" stroke="none" font-family="Arial" font-size="24px" font-style="normal" font-weight="normal" text-decoration="none" x="200" y="390">UNREGISTERED</text><text fill="#eeeeee" stroke="none" font-family="Arial" font-size="24px" font-style="normal" font-weight="normal" text-decoration="none" x="200" y="420">UNREGISTERED</text><text fill="#eeeeee" stroke="none" font-family="Arial" font-size="24px" font-style="normal" font-weight="normal" text-decoration="none" x="200" y="450">UNREGISTERED</text><text fill="#eeeeee" stroke="none" font-family="Arial" font-size="24px" font-style="normal" font-weight="normal" text-decoration="none" x="200" y="480">UNREGISTERED</text><text fill="#eeeeee" stroke="none" font-family="Arial" font-size="24px" font-style="normal" font-weight="normal" text-decoration="none" x="200" y="510">UNREGISTERED</text><text fill="#eeeeee" stroke="none" font-family="Arial" font-size="24px" font-style="normal" font-weight="normal" text-decoration="none" x="200" y="540">UNREGISTERED</text><text fill="#eeeeee" stroke="none" font-family="Arial" font-size="24px" font-style="normal" font-weight="normal" text-decoration="none" x="200" y="570">UNREGISTERED</text><text fill="#eeeeee" stroke="none" font-family="Arial" font-size="24px" font-style="normal" font-weight="normal" text-decoration="none" x="200" y="600">UNREGISTERED</text><text fill="#eeeeee" stroke="none" font-family="Arial" font-size="24px" font-style="normal" font-weight="normal" text-decoration="none" x="200" y="630">UNREGISTERED</text><text fill="#eeeeee" stroke="none" font-family="Arial" font-size="24px" font-style="normal" font-weight="normal" text-decoration="none" x="200" y="660">UNREGISTERED</text><text fill="#eeeeee" stroke="none" font-family="Arial" font-size="24px" font-style="normal" font-weight="normal" text-decoration="none" x="200" y="690">UNREGISTERED</text><text fill="#eeeeee" stroke="none" font-family="Arial" font-size="24px" font-style="normal" font-weight="normal" text-decoration="none" x="400" y="0">UNREGISTERED</text><text fill="#eeeeee" stroke="none" font-family="Arial" font-size="24px" font-style="normal" font-weight="normal" text-decoration="none" x="400" y="30">UNREGISTERED</text><text fill="#eeeeee" stroke="none" font-family="Arial" font-size="24px" font-style="normal" font-weight="normal" text-decoration="none" x="400" y="60">UNREGISTERED</text><text fill="#eeeeee" stroke="none" font-family="Arial" font-size="24px" font-style="normal" font-weight="normal" text-decoration="none" x="400" y="90">UNREGISTERED</text><text fill="#eeeeee" stroke="none" font-family="Arial" font-size="24px" font-style="normal" font-weight="normal" text-decoration="none" x="400" y="120">UNREGISTERED</text><text fill="#eeeeee" stroke="none" font-family="Arial" font-size="24px" font-style="normal" font-weight="normal" text-decoration="none" x="400" y="150">UNREGISTERED</text><text fill="#eeeeee" stroke="none" font-family="Arial" font-size="24px" font-style="normal" font-weight="normal" text-decoration="none" x="400" y="180">UNREGISTERED</text><text fill="#eeeeee" stroke="none" font-family="Arial" font-size="24px" font-style="normal" font-weight="normal" text-decoration="none" x="400" y="210">UNREGISTERED</text><text fill="#eeeeee" stroke="none" font-family="Arial" font-size="24px" font-style="normal" font-weight="normal" text-decoration="none" x="400" y="240">UNREGISTERED</text><text fill="#eeeeee" stroke="none" font-family="Arial" font-size="24px" font-style="normal" font-weight="normal" text-decoration="none" x="400" y="270">UNREGISTERED</text><text fill="#eeeeee" stroke="none" font-family="Arial" font-size="24px" font-style="normal" font-weight="normal" text-decoration="none" x="400" y="300">UNREGISTERED</text><text fill="#eeeeee" stroke="none" font-family="Arial" font-size="24px" font-style="normal" font-weight="normal" text-decoration="none" x="400" y="330">UNREGISTERED</text><text fill="#eeeeee" stroke="none" font-family="Arial" font-size="24px" font-style="normal" font-weight="normal" text-decoration="none" x="400" y="360">UNREGISTERED</text><text fill="#eeeeee" stroke="none" font-family="Arial" font-size="24px" font-style="normal" font-weight="normal" text-decoration="none" x="400" y="390">UNREGISTERED</text><text fill="#eeeeee" stroke="none" font-family="Arial" font-size="24px" font-style="normal" font-weight="normal" text-decoration="none" x="400" y="420">UNREGISTERED</text><text fill="#eeeeee" stroke="none" font-family="Arial" font-size="24px" font-style="normal" font-weight="normal" text-decoration="none" x="400" y="450">UNREGISTERED</text><text fill="#eeeeee" stroke="none" font-family="Arial" font-size="24px" font-style="normal" font-weight="normal" text-decoration="none" x="400" y="480">UNREGISTERED</text><text fill="#eeeeee" stroke="none" font-family="Arial" font-size="24px" font-style="normal" font-weight="normal" text-decoration="none" x="400" y="510">UNREGISTERED</text><text fill="#eeeeee" stroke="none" font-family="Arial" font-size="24px" font-style="normal" font-weight="normal" text-decoration="none" x="400" y="540">UNREGISTERED</text><text fill="#eeeeee" stroke="none" font-family="Arial" font-size="24px" font-style="normal" font-weight="normal" text-decoration="none" x="400" y="570">UNREGISTERED</text><text fill="#eeeeee" stroke="none" font-family="Arial" font-size="24px" font-style="normal" font-weight="normal" text-decoration="none" x="400" y="600">UNREGISTERED</text><text fill="#eeeeee" stroke="none" font-family="Arial" font-size="24px" font-style="normal" font-weight="normal" text-decoration="none" x="400" y="630">UNREGISTERED</text><text fill="#eeeeee" stroke="none" font-family="Arial" font-size="24px" font-style="normal" font-weight="normal" text-decoration="none" x="400" y="660">UNREGISTERED</text><text fill="#eeeeee" stroke="none" font-family="Arial" font-size="24px" font-style="normal" font-weight="normal" text-decoration="none" x="400" y="690">UNREGISTERED</text><text fill="#eeeeee" stroke="none" font-family="Arial" font-size="24px" font-style="normal" font-weight="normal" text-decoration="none" x="600" y="0">UNREGISTERED</text><text fill="#eeeeee" stroke="none" font-family="Arial" font-size="24px" font-style="normal" font-weight="normal" text-decoration="none" x="600" y="30">UNREGISTERED</text><text fill="#eeeeee" stroke="none" font-family="Arial" font-size="24px" font-style="normal" font-weight="normal" text-decoration="none" x="600" y="60">UNREGISTERED</text><text fill="#eeeeee" stroke="none" font-family="Arial" font-size="24px" font-style="normal" font-weight="normal" text-decoration="none" x="600" y="90">UNREGISTERED</text><text fill="#eeeeee" stroke="none" font-family="Arial" font-size="24px" font-style="normal" font-weight="normal" text-decoration="none" x="600" y="120">UNREGISTERED</text><text fill="#eeeeee" stroke="none" font-family="Arial" font-size="24px" font-style="normal" font-weight="normal" text-decoration="none" x="600" y="150">UNREGISTERED</text><text fill="#eeeeee" stroke="none" font-family="Arial" font-size="24px" font-style="normal" font-weight="normal" text-decoration="none" x="600" y="180">UNREGISTERED</text><text fill="#eeeeee" stroke="none" font-family="Arial" font-size="24px" font-style="normal" font-weight="normal" text-decoration="none" x="600" y="210">UNREGISTERED</text><text fill="#eeeeee" stroke="none" font-family="Arial" font-size="24px" font-style="normal" font-weight="normal" text-decoration="none" x="600" y="240">UNREGISTERED</text><text fill="#eeeeee" stroke="none" font-family="Arial" font-size="24px" font-style="normal" font-weight="normal" text-decoration="none" x="600" y="270">UNREGISTERED</text><text fill="#eeeeee" stroke="none" font-family="Arial" font-size="24px" font-style="normal" font-weight="normal" text-decoration="none" x="600" y="300">UNREGISTERED</text><text fill="#eeeeee" stroke="none" font-family="Arial" font-size="24px" font-style="normal" font-weight="normal" text-decoration="none" x="600" y="330">UNREGISTERED</text><text fill="#eeeeee" stroke="none" font-family="Arial" font-size="24px" font-style="normal" font-weight="normal" text-decoration="none" x="600" y="360">UNREGISTERED</text><text fill="#eeeeee" stroke="none" font-family="Arial" font-size="24px" font-style="normal" font-weight="normal" text-decoration="none" x="600" y="390">UNREGISTERED</text><text fill="#eeeeee" stroke="none" font-family="Arial" font-size="24px" font-style="normal" font-weight="normal" text-decoration="none" x="600" y="420">UNREGISTERED</text><text fill="#eeeeee" stroke="none" font-family="Arial" font-size="24px" font-style="normal" font-weight="normal" text-decoration="none" x="600" y="450">UNREGISTERED</text><text fill="#eeeeee" stroke="none" font-family="Arial" font-size="24px" font-style="normal" font-weight="normal" text-decoration="none" x="600" y="480">UNREGISTERED</text><text fill="#eeeeee" stroke="none" font-family="Arial" font-size="24px" font-style="normal" font-weight="normal" text-decoration="none" x="600" y="510">UNREGISTERED</text><text fill="#eeeeee" stroke="none" font-family="Arial" font-size="24px" font-style="normal" font-weight="normal" text-decoration="none" x="600" y="540">UNREGISTERED</text><text fill="#eeeeee" stroke="none" font-family="Arial" font-size="24px" font-style="normal" font-weight="normal" text-decoration="none" x="600" y="570">UNREGISTERED</text><text fill="#eeeeee" stroke="none" font-family="Arial" font-size="24px" font-style="normal" font-weight="normal" text-decoration="none" x="600" y="600">UNREGISTERED</text><text fill="#eeeeee" stroke="none" font-family="Arial" font-size="24px" font-style="normal" font-weight="normal" text-decoration="none" x="600" y="630">UNREGISTERED</text><text fill="#eeeeee" stroke="none" font-family="Arial" font-size="24px" font-style="normal" font-weight="normal" text-decoration="none" x="600" y="660">UNREGISTERED</text><text fill="#eeeeee" stroke="none" font-family="Arial" font-size="24px" font-style="normal" font-weight="normal" text-decoration="none" x="600" y="690">UNREGISTERED</text><text fill="#eeeeee" stroke="none" font-family="Arial" font-size="24px" font-style="normal" font-weight="normal" text-decoration="none" x="800" y="0">UNREGISTERED</text><text fill="#eeeeee" stroke="none" font-family="Arial" font-size="24px" font-style="normal" font-weight="normal" text-decoration="none" x="800" y="30">UNREGISTERED</text><text fill="#eeeeee" stroke="none" font-family="Arial" font-size="24px" font-style="normal" font-weight="normal" text-decoration="none" x="800" y="60">UNREGISTERED</text><text fill="#eeeeee" stroke="none" font-family="Arial" font-size="24px" font-style="normal" font-weight="normal" text-decoration="none" x="800" y="90">UNREGISTERED</text><text fill="#eeeeee" stroke="none" font-family="Arial" font-size="24px" font-style="normal" font-weight="normal" text-decoration="none" x="800" y="120">UNREGISTERED</text><text fill="#eeeeee" stroke="none" font-family="Arial" font-size="24px" font-style="normal" font-weight="normal" text-decoration="none" x="800" y="150">UNREGISTERED</text><text fill="#eeeeee" stroke="none" font-family="Arial" font-size="24px" font-style="normal" font-weight="normal" text-decoration="none" x="800" y="180">UNREGISTERED</text><text fill="#eeeeee" stroke="none" font-family="Arial" font-size="24px" font-style="normal" font-weight="normal" text-decoration="none" x="800" y="210">UNREGISTERED</text><text fill="#eeeeee" stroke="none" font-family="Arial" font-size="24px" font-style="normal" font-weight="normal" text-decoration="none" x="800" y="240">UNREGISTERED</text><text fill="#eeeeee" stroke="none" font-family="Arial" font-size="24px" font-style="normal" font-weight="normal" text-decoration="none" x="800" y="270">UNREGISTERED</text><text fill="#eeeeee" stroke="none" font-family="Arial" font-size="24px" font-style="normal" font-weight="normal" text-decoration="none" x="800" y="300">UNREGISTERED</text><text fill="#eeeeee" stroke="none" font-family="Arial" font-size="24px" font-style="normal" font-weight="normal" text-decoration="none" x="800" y="330">UNREGISTERED</text><text fill="#eeeeee" stroke="none" font-family="Arial" font-size="24px" font-style="normal" font-weight="normal" text-decoration="none" x="800" y="360">UNREGISTERED</text><text fill="#eeeeee" stroke="none" font-family="Arial" font-size="24px" font-style="normal" font-weight="normal" text-decoration="none" x="800" y="390">UNREGISTERED</text><text fill="#eeeeee" stroke="none" font-family="Arial" font-size="24px" font-style="normal" font-weight="normal" text-decoration="none" x="800" y="420">UNREGISTERED</text><text fill="#eeeeee" stroke="none" font-family="Arial" font-size="24px" font-style="normal" font-weight="normal" text-decoration="none" x="800" y="450">UNREGISTERED</text><text fill="#eeeeee" stroke="none" font-family="Arial" font-size="24px" font-style="normal" font-weight="normal" text-decoration="none" x="800" y="480">UNREGISTERED</text><text fill="#eeeeee" stroke="none" font-family="Arial" font-size="24px" font-style="normal" font-weight="normal" text-decoration="none" x="800" y="510">UNREGISTERED</text><text fill="#eeeeee" stroke="none" font-family="Arial" font-size="24px" font-style="normal" font-weight="normal" text-decoration="none" x="800" y="540">UNREGISTERED</text><text fill="#eeeeee" stroke="none" font-family="Arial" font-size="24px" font-style="normal" font-weight="normal" text-decoration="none" x="800" y="570">UNREGISTERED</text><text fill="#eeeeee" stroke="none" font-family="Arial" font-size="24px" font-style="normal" font-weight="normal" text-decoration="none" x="800" y="600">UNREGISTERED</text><text fill="#eeeeee" stroke="none" font-family="Arial" font-size="24px" font-style="normal" font-weight="normal" text-decoration="none" x="800" y="630">UNREGISTERED</text><text fill="#eeeeee" stroke="none" font-family="Arial" font-size="24px" font-style="normal" font-weight="normal" text-decoration="none" x="800" y="660">UNREGISTERED</text><text fill="#eeeeee" stroke="none" font-family="Arial" font-size="24px" font-style="normal" font-weight="normal" text-decoration="none" x="800" y="690">UNREGISTERED</text><g transform="translate(-30,-38) scale(1,1)"><rect fill="#ffffff" stroke="none" x="40" y="96" width="615" height="21"/></g><g transform="translate(-30,-38) scale(1,1)"><path fill="none" stroke="#000000" d="M 40 96 L 655 96 L 655 117 L 40 117 L 40 96 Z Z" stroke-miterlimit="10" stroke-width="2"/></g><g transform="translate(-30,-38) scale(1,1)"><path fill="none" stroke="#000000" d="M 40 719 L 40 96 L 655 96 L 655 719" stroke-miterlimit="10" stroke-width="2"/></g><g transform="translate(-30,-38) scale(1,1)"><g><path fill="none" stroke="none"/><text fill="#000000" stroke="none" font-family="Arial" font-size="13px" font-style="normal" font-weight="normal" text-decoration="none" x="237.669677734375" y="113">Bibliothécaire et systéme informatique</text></g></g><g transform="translate(-30,-38) scale(1,1)"><path fill="#C0C0C0" stroke="none" d="M 151 153 C 151 147.477152 155.2532944 143 160.5 143 C 165.7467056 143 170 147.477152 170 153 C 170 158.522848 165.7467056 163 160.5 163 C 155.2532944 163 151 158.522848 151 153 Z" opacity="0.2"/></g><g transform="translate(-30,-38) scale(1,1)"><path fill="#000000" stroke="none" d="M 144 146 C 144 140.477152 148.2532944 136 153.5 136 C 158.7467056 136 163 140.477152 163 146 C 163 151.522848 158.7467056 156 153.5 156 C 148.2532944 156 144 151.522848 144 146 Z"/></g><g transform="translate(-30,-38) scale(1,1)"><path fill="#C0C0C0" stroke="none" d="M 103 259.5 C 103 252.59644 108.59644 247 115.5 247 C 122.40356 247 128 252.59644 128 259.5 C 128 266.40356 122.40356 272 115.5 272 C 108.59644 272 103 266.40356 103 259.5 Z" opacity="0.2"/></g><g transform="translate(-30,-38) scale(1,1)"><path fill="none" stroke="#000000" d="M 96 252.5 C 96 245.59644 101.59644 240 108.5 240 C 115.40356 240 121 245.59644 121 252.5 C 121 259.40356 115.40356 265 108.5 265 C 101.59644 265 96 259.40356 96 252.5 Z" stroke-miterlimit="10"/></g><g transform="translate(-30,-38) scale(1,1)"><path fill="#000000" stroke="none" d="M 101 252.5 C 101 248.357864 104.357864 245 108.5 245 C 112.642136 245 116 248.357864 116 252.5 C 116 256.642136 112.642136 260 108.5 260 C 104.357864 260 101 256.642136 101 252.5 Z"/></g><g transform="translate(-30,-38) scale(1,1)"><path fill="#C0C0C0" stroke="none" d="M 265 135 L 421.5908203125 135 Q 431.5908203125 135 431.5908203125 145 L 431.5908203125 165 Q 431.5908203125 175 421.5908203125 175 L 265 175 Q 255 175 255 165 L 255 145 Q 255 135 265 135 Z" opacity="0.2"/></g><g transform="translate(-30,-38) scale(1,1)"><path fill="#ffffff" stroke="none" d="M 258 128 L 414.5908203125 128 Q 424.5908203125 128 424.5908203125 138 L 424.5908203125 158 Q 424.5908203125 168 414.5908203125 168 L 258 168 Q 248 168 248 158 L 248 138 Q 248 128 258 128 Z"/></g><g transform="translate(-30,-38) scale(1,1)"><path fill="none" stroke="#000000" d="M 258 128 L 414.5908203125 128 Q 424.5908203125 128 424.5908203125 138 L 424.5908203125 158 Q 424.5908203125 168 414.5908203125 168 L 258 168 Q 248 168 248 158 L 248 138 Q 248 128 258 128 Z" stroke-miterlimit="10"/></g><g transform="translate(-30,-38) scale(1,1)"><g><path fill="none" stroke="none"/><text fill="#000000" stroke="none" font-family="Arial" font-size="13px" font-style="normal" font-weight="bold" text-decoration="none" x="267.635986328125" y="147.5">renseigner num abonné</text></g></g><g transform="translate(-30,-38) scale(1,1)"><path fill="#C0C0C0" stroke="none" d="M 505 151 L 598.72998046875 151 Q 608.72998046875 151 608.72998046875 161 L 608.72998046875 181 Q 608.72998046875 191 598.72998046875 191 L 505 191 Q 495 191 495 181 L 495 161 Q 495 151 505 151 Z" opacity="0.2"/></g><g transform="translate(-30,-38) scale(1,1)"><path fill="#ffffff" stroke="none" d="M 498 144 L 591.72998046875 144 Q 601.72998046875 144 601.72998046875 154 L 601.72998046875 174 Q 601.72998046875 184 591.72998046875 184 L 498 184 Q 488 184 488 174 L 488 154 Q 488 144 498 144 Z"/></g><g transform="translate(-30,-38) scale(1,1)"><path fill="none" stroke="#000000" d="M 498 144 L 591.72998046875 144 Q 601.72998046875 144 601.72998046875 154 L 601.72998046875 174 Q 601.72998046875 184 591.72998046875 184 L 498 184 Q 488 184 488 174 L 488 154 Q 488 144 498 144 Z" stroke-miterlimit="10"/></g><g transform="translate(-30,-38) scale(1,1)"><g><path fill="none" stroke="none"/><text fill="#000000" stroke="none" font-family="Arial" font-size="13px" font-style="normal" font-weight="bold" text-decoration="none" x="496.800537109375" y="163.5">identifier abonné</text></g></g><g transform="translate(-30,-38) scale(1,1)"><path fill="#C0C0C0" stroke="none" d="M 305 311 L 569.27880859375 311 Q 579.27880859375 311 579.27880859375 321 L 579.27880859375 341 Q 579.27880859375 351 569.27880859375 351 L 305 351 Q 295 351 295 341 L 295 321 Q 295 311 305 311 Z" opacity="0.2"/></g><g transform="translate(-30,-38) scale(1,1)"><path fill="#ffffff" stroke="none" d="M 298 304 L 562.27880859375 304 Q 572.27880859375 304 572.27880859375 314 L 572.27880859375 334 Q 572.27880859375 344 562.27880859375 344 L 298 344 Q 288 344 288 334 L 288 314 Q 288 304 298 304 Z"/></g><g transform="translate(-30,-38) scale(1,1)"><path fill="none" stroke="#000000" d="M 298 304 L 562.27880859375 304 Q 572.27880859375 304 572.27880859375 314 L 572.27880859375 334 Q 572.27880859375 344 562.27880859375 344 L 298 344 Q 288 344 288 334 L 288 314 Q 288 304 298 304 Z" stroke-miterlimit="10"/></g><g transform="translate(-30,-38) scale(1,1)"><g><path fill="none" stroke="none"/><text fill="#000000" stroke="none" font-family="Arial" font-size="13px" font-style="normal" font-weight="bold" text-decoration="none" x="302.60546875" y="323.5">calculer nb exemplaires autorisés à emprunt</text></g></g><g transform="translate(-30,-38) scale(1,1)"><path fill="#C0C0C0" stroke="none" d="M 415 256.5 L 426.5 247 L 437 256.5 L 426.5 265 L 415 256.5" opacity="0.2"/></g><g transform="translate(-30,-38) scale(1,1)"><path fill="#ffffff" stroke="none" d="M 408 249 L 419 240 L 430 249 L 419 258 L 408 249"/></g><g transform="translate(-30,-38) scale(1,1)"><path fill="none" stroke="#000000" d="M 408 249 L 419 240 L 430 249 L 419 258 L 408 249 L 408 249" stroke-miterlimit="10"/></g><g transform="translate(-30,-38) scale(1,1)"><g><path fill="none" stroke="none"/><text fill="#000000" stroke="none" font-family="Arial" font-size="13px" font-style="normal" font-weight="normal" text-decoration="none" x="45" y="218">annulation</text><text fill="#000000" stroke="none" font-family="Arial" font-size="13px" font-style="normal" font-weight="normal" text-decoration="none" x="45" y="231">explicitée</text></g></g><g transform="translate(-30,-38) scale(1,1)"><path fill="#C0C0C0" stroke="none" d="M 343 406 L 363 391 L 382 406 L 363 420 L 343 406" opacity="0.2"/></g><g transform="translate(-30,-38) scale(1,1)"><path fill="#ffffff" stroke="none" d="M 336 398.5 L 355.5 384 L 375 398.5 L 355.5 413 L 336 398.5"/></g><g transform="translate(-30,-38) scale(1,1)"><path fill="none" stroke="#000000" d="M 336 398.5 L 355.5 384 L 375 398.5 L 355.5 413 L 336 398.5 L 336 398.5" stroke-miterlimit="10"/></g><g transform="translate(-30,-38) scale(1,1)"><path fill="#C0C0C0" stroke="none" d="M 305 455 L 463.06982421875 455 Q 473.06982421875 455 473.06982421875 465 L 473.06982421875 485 Q 473.06982421875 495 463.06982421875 495 L 305 495 Q 295 495 295 485 L 295 465 Q 295 455 305 455 Z" opacity="0.2"/></g><g transform="translate(-30,-38) scale(1,1)"><path fill="#ffffff" stroke="none" d="M 298 448 L 456.06982421875 448 Q 466.06982421875 448 466.06982421875 458 L 466.06982421875 478 Q 466.06982421875 488 456.06982421875 488 L 298 488 Q 288 488 288 478 L 288 458 Q 288 448 298 448 Z"/></g><g transform="translate(-30,-38) scale(1,1)"><path fill="none" stroke="#000000" d="M 298 448 L 456.06982421875 448 Q 466.06982421875 448 466.06982421875 458 L 466.06982421875 478 Q 466.06982421875 488 456.06982421875 488 L 298 488 Q 288 488 288 478 L 288 458 Q 288 448 298 448 Z" stroke-miterlimit="10"/></g><g transform="translate(-30,-38) scale(1,1)"><g><path fill="none" stroke="none"/><text fill="#000000" stroke="none" font-family="Arial" font-size="13px" font-style="normal" font-weight="bold" text-decoration="none" x="298.273193359375" y="467.5">renseigner num exemplaire</text></g></g><g transform="translate(-30,-38) scale(1,1)"><path fill="#C0C0C0" stroke="none" d="M 105 495 L 217.53173828125 495 Q 227.53173828125 495 227.53173828125 505 L 227.53173828125 525 Q 227.53173828125 535 217.53173828125 535 L 105 535 Q 95 535 95 525 L 95 505 Q 95 495 105 495 Z" opacity="0.2"/></g><g transform="translate(-30,-38) scale(1,1)"><path fill="#ffffff" stroke="none" d="M 98 488 L 210.53173828125 488 Q 220.53173828125 488 220.53173828125 498 L 220.53173828125 518 Q 220.53173828125 528 210.53173828125 528 L 98 528 Q 88 528 88 518 L 88 498 Q 88 488 98 488 Z"/></g><g transform="translate(-30,-38) scale(1,1)"><path fill="none" stroke="#000000" d="M 98 488 L 210.53173828125 488 Q 220.53173828125 488 220.53173828125 498 L 220.53173828125 518 Q 220.53173828125 528 210.53173828125 528 L 98 528 Q 88 528 88 518 L 88 498 Q 88 488 98 488 Z" stroke-miterlimit="10"/></g><g transform="translate(-30,-38) scale(1,1)"><g><path fill="none" stroke="none"/><text fill="#000000" stroke="none" font-family="Arial" font-size="13px" font-style="normal" font-weight="bold" text-decoration="none" x="97.54638671875" y="507.5">enregistrer emprunt</text></g></g><g transform="translate(-30,-38) scale(1,1)"><path fill="#C0C0C0" stroke="none" d="M 399 576.5 L 410.5 567 L 421 576.5 L 410.5 585 L 399 576.5" opacity="0.2"/></g><g transform="translate(-30,-38) scale(1,1)"><path fill="#ffffff" stroke="none" d="M 392 569 L 403 560 L 414 569 L 403 578 L 392 569"/></g><g transform="translate(-30,-38) scale(1,1)"><path fill="none" stroke="#000000" d="M 392 569 L 403 560 L 414 569 L 403 578 L 392 569 L 392 569" stroke-miterlimit="10"/></g><g transform="translate(-30,-38) scale(1,1)"><path fill="none" stroke="#000000" d="M 164 146 L 247 147" stroke-miterlimit="10"/></g><g transform="translate(-30,-38) scale(1,1)"><path fill="none" stroke="#000000" d="M 236.78734926290502 151.08677928473185 L 247 147 L 236.88877606446374 142.66835475535694" stroke-miterlimit="10"/></g><g transform="translate(-30,-38) scale(1,1)"><path fill="none" stroke="#000000" d="M 426 155 L 487 160" stroke-miterlimit="10"/></g><g transform="translate(-30,-38) scale(1,1)"><path fill="none" stroke="#000000" d="M 476.527404525319 163.36522570174597 L 487 160 L 477.2151828093017 154.97433063715738" stroke-miterlimit="10"/></g><g transform="translate(-30,-38) scale(1,1)"><path fill="none" stroke="#000000" d="M 513 185 L 431 241" stroke-miterlimit="10"/></g><g transform="translate(-30,-38) scale(1,1)"><path fill="none" stroke="#000000" d="M 437.0183403126753 231.79241726179845 L 431 241 L 441.7663534390996 238.7448650540626" stroke-miterlimit="10"/></g><g transform="translate(-30,-38) scale(1,1)"><g><path fill="none" stroke="none"/><text fill="#000000" stroke="none" font-family="Arial" font-size="13px" font-style="normal" font-weight="normal" text-decoration="none" x="475.5" y="236.5">abonnement valide ?</text></g></g><g transform="translate(-30,-38) scale(1,1)"><path fill="none" stroke="#000000" d="M 420 259 L 427 303" stroke-miterlimit="10"/></g><g transform="translate(-30,-38) scale(1,1)"><path fill="none" stroke="#000000" d="M 421.2460540094557 293.62492103831124 L 427 303 L 429.56052767947443 292.3021638635355" stroke-miterlimit="10"/></g><g transform="translate(-30,-38) scale(1,1)"><g><path fill="none" stroke="none"/><text fill="#000000" stroke="none" font-family="Arial" font-size="13px" font-style="normal" font-weight="normal" text-decoration="none" x="422.668212890625" y="284.5"> [oui]</text></g></g><g transform="translate(-30,-38) scale(1,1)"><path fill="none" stroke="#000000" d="M 407 249 L 122 252" stroke-miterlimit="10"/></g><g transform="translate(-30,-38) scale(1,1)"><path fill="none" stroke="#000000" d="M 132.1178036167929 247.68374584019753 L 122 252 L 132.20642013386902 256.1023149624271" stroke-miterlimit="10"/></g><g transform="translate(-30,-38) scale(1,1)"><g><path fill="none" stroke="none"/><text fill="#000000" stroke="none" font-family="Arial" font-size="13px" font-style="normal" font-weight="normal" text-decoration="none" x="247.5" y="270.5"> [non]</text></g></g><g transform="translate(-30,-38) scale(1,1)"><path fill="none" stroke="#000000" d="M 409 345 L 370 383" stroke-miterlimit="10"/></g><g transform="translate(-30,-38) scale(1,1)"><path fill="none" stroke="#000000" d="M 374.3411344685001 372.8928465171246 L 370 383 L 380.21648238695354 378.9228088544847" stroke-miterlimit="10"/></g><g transform="translate(-30,-38) scale(1,1)"><g><path fill="none" stroke="none"/><text fill="#000000" stroke="none" font-family="Arial" font-size="13px" font-style="normal" font-weight="normal" text-decoration="none" x="406.5" y="390.5">droit à au moins 1 emprunt ?</text></g></g><g transform="translate(-30,-38) scale(1,1)"><path fill="none" stroke="#000000" d="M 360 414 L 370 447" stroke-miterlimit="10"/></g><g transform="translate(-30,-38) scale(1,1)"><path fill="none" stroke="#000000" d="M 363.02413791203037 438.4948634267504 L 370 447 L 371.08136035883706 436.053280867112" stroke-miterlimit="10"/></g><g transform="translate(-30,-38) scale(1,1)"><g><path fill="none" stroke="none"/><text fill="#000000" stroke="none" font-family="Arial" font-size="13px" font-style="normal" font-weight="normal" text-decoration="none" x="364.668212890625" y="431.5"> [oui]</text></g></g><g transform="translate(-30,-38) scale(1,1)"><path fill="none" stroke="#000000" d="M 335 398 L 112 400 L 108 266" stroke-miterlimit="10"/></g><g transform="translate(-30,-38) scale(1,1)"><path fill="none" stroke="#000000" d="M 112.51087188744759 276.03254876963155 L 108 266 L 104.09558483308675 276.2837513682692" stroke-miterlimit="10"/></g><g transform="translate(-30,-38) scale(1,1)"><g><path fill="none" stroke="none"/><text fill="#000000" stroke="none" font-family="Arial" font-size="13px" font-style="normal" font-weight="normal" text-decoration="none" x="277.5" y="395.5"> [non]</text></g></g><g transform="translate(-30,-38) scale(1,1)"><path fill="none" stroke="#000000" d="M 287 484 L 222 496" stroke-miterlimit="10"/></g><g transform="translate(-30,-38) scale(1,1)"><path fill="none" stroke="#000000" d="M 231.22956602172647 490.01542724577666 L 222 496 L 232.7580206983873 498.29455674435616" stroke-miterlimit="10"/></g><g transform="translate(-30,-38) scale(1,1)"><path fill="none" stroke="#000000" d="M 222 525 L 391 566" stroke-miterlimit="10"/></g><g transform="translate(-30,-38) scale(1,1)"><path fill="none" stroke="#000000" d="M 380.1313536984939 567.6948532599486 L 391 566 L 382.1162642646612 559.5131487311128" stroke-miterlimit="10"/></g><g transform="translate(-30,-38) scale(1,1)"><g><path fill="none" stroke="none"/><text fill="#000000" stroke="none" font-family="Arial" font-size="13px" font-style="normal" font-weight="normal" text-decoration="none" x="144.5" y="575.5">encore droit et envie à autre emprunt ?</text></g></g><g transform="translate(-30,-38) scale(1,1)"><path fill="none" stroke="#000000" d="M 415 568 L 584 552 L 592 488 L 467 476" stroke-miterlimit="10"/></g><g transform="translate(-30,-38) scale(1,1)"><path fill="none" stroke="#000000" d="M 477.5184307938747 472.78089862935815 L 467 476 L 476.713902150298 481.16140533328246" stroke-miterlimit="10"/></g><g transform="translate(-30,-38) scale(1,1)"><g><path fill="none" stroke="none"/><text fill="#000000" stroke="none" font-family="Arial" font-size="13px" font-style="normal" font-weight="normal" text-decoration="none" x="454.668212890625" y="556.5"> [oui]</text></g></g><g transform="translate(-30,-38) scale(1,1)"><path fill="#C0C0C0" stroke="none" d="M 513 607 L 598.82080078125 607 Q 608.82080078125 607 608.82080078125 617 L 608.82080078125 637 Q 608.82080078125 647 598.82080078125 647 L 513 647 Q 503 647 503 637 L 503 617 Q 503 607 513 607 Z" opacity="0.2"/></g><g transform="translate(-30,-38) scale(1,1)"><path fill="#ffffff" stroke="none" d="M 506 600 L 591.82080078125 600 Q 601.82080078125 600 601.82080078125 610 L 601.82080078125 630 Q 601.82080078125 640 591.82080078125 640 L 506 640 Q 496 640 496 630 L 496 610 Q 496 600 506 600 Z"/></g><g transform="translate(-30,-38) scale(1,1)"><path fill="none" stroke="#000000" d="M 506 600 L 591.82080078125 600 Q 601.82080078125 600 601.82080078125 610 L 601.82080078125 630 Q 601.82080078125 640 591.82080078125 640 L 506 640 Q 496 640 496 630 L 496 610 Q 496 600 506 600 Z" stroke-miterlimit="10"/></g><g transform="translate(-30,-38) scale(1,1)"><g><path fill="none" stroke="none"/><text fill="#000000" stroke="none" font-family="Arial" font-size="13px" font-style="normal" font-weight="bold" text-decoration="none" x="504.232421875" y="619.5">afficher résumé</text></g></g><g transform="translate(-30,-38) scale(1,1)"><path fill="#C0C0C0" stroke="none" d="M 369 671 L 626.75341796875 671 Q 636.75341796875 671 636.75341796875 681 L 636.75341796875 701 Q 636.75341796875 711 626.75341796875 711 L 369 711 Q 359 711 359 701 L 359 681 Q 359 671 369 671 Z" opacity="0.2"/></g><g transform="translate(-30,-38) scale(1,1)"><path fill="#ffffff" stroke="none" d="M 362 664 L 619.75341796875 664 Q 629.75341796875 664 629.75341796875 674 L 629.75341796875 694 Q 629.75341796875 704 619.75341796875 704 L 362 704 Q 352 704 352 694 L 352 674 Q 352 664 362 664 Z"/></g><g transform="translate(-30,-38) scale(1,1)"><path fill="none" stroke="#000000" d="M 362 664 L 619.75341796875 664 Q 629.75341796875 664 629.75341796875 674 L 629.75341796875 694 Q 629.75341796875 704 619.75341796875 704 L 362 704 Q 352 704 352 694 L 352 674 Q 352 664 362 664 Z" stroke-miterlimit="10"/></g><g transform="translate(-30,-38) scale(1,1)"><g><path fill="none" stroke="none"/><text fill="#000000" stroke="none" font-family="Arial" font-size="13px" font-style="normal" font-weight="bold" text-decoration="none" x="367.687744140625" y="683.5">imprimer éventuellement ticket récapitulatif</text></g></g><g transform="translate(-30,-38) scale(1,1)"><path fill="#C0C0C0" stroke="none" d="M 223 691.5 C 223 684.59644 228.59644 679 235.5 679 C 242.40356 679 248 684.59644 248 691.5 C 248 698.40356 242.40356 704 235.5 704 C 228.59644 704 223 698.40356 223 691.5 Z" opacity="0.2"/></g><g transform="translate(-30,-38) scale(1,1)"><path fill="none" stroke="#000000" d="M 216 684.5 C 216 677.59644 221.59644 672 228.5 672 C 235.40356 672 241 677.59644 241 684.5 C 241 691.40356 235.40356 697 228.5 697 C 221.59644 697 216 691.40356 216 684.5 Z" stroke-miterlimit="10"/></g><g transform="translate(-30,-38) scale(1,1)"><path fill="#000000" stroke="none" d="M 221 684.5 C 221 680.357864 224.357864 677 228.5 677 C 232.642136 677 236 680.357864 236 684.5 C 236 688.642136 232.642136 692 228.5 692 C 224.357864 692 221 688.642136 221 684.5 Z"/></g><g transform="translate(-30,-38) scale(1,1)"><g><path fill="none" stroke="none"/><text fill="#000000" stroke="none" font-family="Arial" font-size="13px" font-style="normal" font-weight="normal" text-decoration="none" x="77" y="714">emprunt(s) bien enregistré(s)</text></g></g><g transform="translate(-30,-38) scale(1,1)"><path fill="none" stroke="#000000" d="M 415 573 L 495 601" stroke-miterlimit="10"/></g><g transform="translate(-30,-38) scale(1,1)"><path fill="none" stroke="#000000" d="M 484.0172584340002 601.6159445546971 L 495 601 L 486.798490391201 593.6695675341234" stroke-miterlimit="10"/></g><g transform="translate(-30,-38) scale(1,1)"><g><path fill="none" stroke="none"/><text fill="#000000" stroke="none" font-family="Arial" font-size="13px" font-style="normal" font-weight="normal" text-decoration="none" x="414.5" y="604.5"> [non]</text></g></g><g transform="translate(-30,-38) scale(1,1)"><path fill="none" stroke="#000000" d="M 529 641 L 509 663" stroke-miterlimit="10"/></g><g transform="translate(-30,-38) scale(1,1)"><path fill="none" stroke="#000000" d="M 512.7213640136061 652.6486015496341 L 509 663 L 518.9509457683021 658.3118576902668" stroke-miterlimit="10"/></g><g transform="translate(-30,-38) scale(1,1)"><path fill="none" stroke="#000000" d="M 351 684 L 242 684" stroke-miterlimit="10"/></g><g transform="translate(-30,-38) scale(1,1)"><path fill="none" stroke="#000000" d="M 252.16267485762415 679.790482243984 L 242 684 L 252.16267485762415 688.209517756016" stroke-miterlimit="10"/></g><g transform="translate(-30,-38) scale(1,1)"><g><path fill="none" stroke="none"/><text fill="#000070" stroke="none" font-family="Arial" font-size="18px" font-style="normal" font-weight="normal" text-decoration="none" x="237" y="71">diagramme d'activité "enregistrer début emprunt"</text></g></g><g transform="translate(-30,-38) scale(1,1)"><rect fill="#ffffff" stroke="none" x="712" y="416" width="168" height="21"/></g><g transform="translate(-30,-38) scale(1,1)"><path fill="none" stroke="#000000" d="M 712 416 L 880 416 L 880 437 L 712 437 L 712 416 Z Z" stroke-miterlimit="10" stroke-width="2"/></g><g transform="translate(-30,-38) scale(1,1)"><path fill="none" stroke="#000000" d="M 712 715 L 712 416 L 880 416 L 880 715" stroke-miterlimit="10" stroke-width="2"/></g><g transform="translate(-30,-38) scale(1,1)"><g><path fill="none" stroke="none"/><text fill="#000000" stroke="none" font-family="Arial" font-size="13px" font-style="normal" font-weight="normal" text-decoration="none" x="774.31005859375" y="433">abonné</text></g></g><g transform="translate(-30,-38) scale(1,1)"><path fill="#C0C0C0" stroke="none" d="M 769 663 L 855.55078125 663 Q 865.55078125 663 865.55078125 673 L 865.55078125 693 Q 865.55078125 703 855.55078125 703 L 769 703 Q 759 703 759 693 L 759 673 Q 759 663 769 663 Z" opacity="0.2"/></g><g transform="translate(-30,-38) scale(1,1)"><path fill="#ffffff" stroke="none" d="M 762 656 L 848.55078125 656 Q 858.55078125 656 858.55078125 666 L 858.55078125 686 Q 858.55078125 696 848.55078125 696 L 762 696 Q 752 696 752 686 L 752 666 Q 752 656 762 656 Z"/></g><g transform="translate(-30,-38) scale(1,1)"><path fill="none" stroke="#000000" d="M 762 656 L 848.55078125 656 Q 858.55078125 656 858.55078125 666 L 858.55078125 686 Q 858.55078125 696 848.55078125 696 L 762 696 Q 752 696 752 686 L 752 666 Q 752 656 762 656 Z" stroke-miterlimit="10"/></g><g transform="translate(-30,-38) scale(1,1)"><g><path fill="none" stroke="none"/><text fill="#000000" stroke="none" font-family="Arial" font-size="13px" font-style="normal" font-weight="bold" text-decoration="none" x="760.47998046875" y="675.5">récupérer ticket</text></g></g><g transform="translate(-30,-38) scale(1,1)"><path fill="none" stroke="#000000" d="M 648 696 L 734 691" stroke-miterlimit="10"/></g><g transform="translate(-30,-38) scale(1,1)"><path fill="none" stroke="#000000" d="M 724.0987845011193 695.7922783354816 L 734 691 L 723.6101308703998 687.3874358871045" stroke-miterlimit="10"/></g><g transform="translate(-30,-38) scale(1,1)"><g><path fill="none" stroke="none"/><text fill="#000000" stroke="none" font-family="Arial" font-size="13px" font-style="normal" font-weight="normal" text-decoration="none" x="674.5" y="684.5">ticket</text></g></g><g transform="translate(-30,-38) scale(1,1)"><rect fill="#ffffff" stroke="none" x="629.75341796875" y="688" width="17" height="17"/></g><g transform="translate(-30,-38) scale(1,1)"><path fill="none" stroke="#000000" d="M 629.75341796875 688 L 646.75341796875 688 L 646.75341796875 705 L 629.75341796875 705 L 629.75341796875 688 Z Z" stroke-miterlimit="10"/></g><g transform="translate(-30,-38) scale(1,1)"><path fill="none" stroke="#000000" d="M 631.75341796875 696 L 644.75341796875 696" stroke-miterlimit="10"/></g><g transform="translate(-30,-38) scale(1,1)"><path fill="none" stroke="#000000" d="M 644.75341796875 696 L 641.75341796875 693" stroke-miterlimit="10"/></g><g transform="translate(-30,-38) scale(1,1)"><path fill="none" stroke="#000000" d="M 644.75341796875 696 L 641.75341796875 699" stroke-miterlimit="10"/></g><g transform="translate(-30,-38) scale(1,1)"><rect fill="#ffffff" stroke="none" x="735" y="683" width="17" height="17"/></g><g transform="translate(-30,-38) scale(1,1)"><path fill="none" stroke="#000000" d="M 735 683 L 752 683 L 752 700 L 735 700 L 735 683 Z Z" stroke-miterlimit="10"/></g><g transform="translate(-30,-38) scale(1,1)"><path fill="none" stroke="#000000" d="M 737 691 L 750 691" stroke-miterlimit="10"/></g><g transform="translate(-30,-38) scale(1,1)"><path fill="none" stroke="#000000" d="M 750 691 L 747 688" stroke-miterlimit="10"/></g><g transform="translate(-30,-38) scale(1,1)"><path fill="none" stroke="#000000" d="M 750 691 L 747 694" stroke-miterlimit="10"/></g></g></svg>