<svg version="1.1" xmlns="http://www.w3.org/2000/svg" xmlns:xlink="http://www.w3.org/1999/xlink" width="788" height="676"><defs/><g><text fill="#eeeeee" stroke="none" font-family="Arial" font-size="24px" font-style="normal" font-weight="normal" text-decoration="none" x="0" y="0">UNREGISTERED</text><text fill="#eeeeee" stroke="none" font-family="Arial" font-size="24px" font-style="normal" font-weight="normal" text-decoration="none" x="0" y="30">UNREGISTERED</text><text fill="#eeeeee" stroke="none" font-family="Arial" font-size="24px" font-style="normal" font-weight="normal" text-decoration="none" x="0" y="60">UNREGISTERED</text><text fill="#eeeeee" stroke="none" font-family="Arial" font-size="24px" font-style="normal" font-weight="normal" text-decoration="none" x="0" y="90">UNREGISTERED</text><text fill="#eeeeee" stroke="none" font-family="Arial" font-size="24px" font-style="normal" font-weight="normal" text-decoration="none" x="0" y="120">UNREGISTERED</text><text fill="#eeeeee" stroke="none" font-family="Arial" font-size="24px" font-style="normal" font-weight="normal" text-decoration="none" x="0" y="150">UNREGISTERED</text><text fill="#eeeeee" stroke="none" font-family="Arial" font-size="24px" font-style="normal" font-weight="normal" text-decoration="none" x="0" y="180">UNREGISTERED</text><text fill="#eeeeee" stroke="none" font-family="Arial" font-size="24px" font-style="normal" font-weight="normal" text-decoration="none" x="0" y="210">UNREGISTERED</text><text fill="#eeeeee" stroke="none" font-family="Arial" font-size="24px" font-style="normal" font-weight="normal" text-decoration="none" x="0" y="240">UNREGISTERED</text><text fill="#eeeeee" stroke="none" font-family="Arial" font-size="24px" font-style="normal" font-weight="normal" text-decoration="none" x="0" y="270">UNREGISTERED</text><text fill="#eeeeee" stroke="none" font-family="Arial" font-size="24px" font-style="normal" font-weight="normal" text-decoration="none" x="0" y="300">UNREGISTERED</text><text fill="#eeeeee" stroke="none" font-family="Arial" font-size="24px" font-style="normal" font-weight="normal" text-decoration="none" x="0" y="330">UNREGISTERED</text><text fill="#eeeeee" stroke="none" font-family="Arial" font-size="24px" font-style="normal" font-weight="normal" text-decoration="none" x="0" y="360">UNREGISTERED</text><text fill="#eeeeee" stroke="none" font-family="Arial" font-size="24px" font-style="normal" font-weight="normal" text-decoration="none" x="0" y="390">UNREGISTERED</text><text fill="#eeeeee" stroke="none" font-family="Arial" font-size="24px" font-style="normal" font-weight="normal" text-decoration="none" x="0" y="420">UNREGISTERED</text><text fill="#eeeeee" stroke="none" font-family="Arial" font-size="24px" font-style="normal" font-weight="normal" text-decoration="none" x="0" y="450">UNREGISTERED</text><text fill="#eeeeee" stroke="none" font-family="Arial" font-size="24px" font-style="normal" font-weight="normal" text-decoration="none" x="0" y="480">UNREGISTERED</text><text fill="#eeeeee" stroke="none" font-family="Arial" font-size="24px" font-style="normal" font-weight="normal" text-decoration="none" x="0" y="510">UNREGISTERED</text><text fill="#eeeeee" stroke="none" font-family="Arial" font-size="24px" font-style="normal" font-weight="normal" text-decoration="none" x="0" y="540">UNREGISTERED</text><text fill="#eeeeee" stroke="none" font-family="Arial" font-size="24px" font-style="normal" font-weight="normal" text-decoration="none" x="0" y="570">UNREGISTERED</text><text fill="#eeeeee" stroke="none" font-family="Arial" font-size="24px" font-style="normal" font-weight="normal" text-decoration="none" x="0" y="600">UNREGISTERED</text><text fill="#eeeeee" stroke="none" font-family="Arial" font-size="24px" font-style="normal" font-weight="normal" text-decoration="none" x="0" y="630">UNREGISTERED</text><text fill="#eeeeee" stroke="none" font-family="Arial" font-size="24px" font-style="normal" font-weight="normal" text-decoration="none" x="0" y="660">UNREGISTERED</text><text fill="#eeeeee" stroke="none" font-family="Arial" font-size="24px" font-style="normal" font-weight="normal" text-decoration="none" x="200" y="0">UNREGISTERED</text><text fill="#eeeeee" stroke="none" font-family="Arial" font-size="24px" font-style="normal" font-weight="normal" text-decoration="none" x="200" y="30">UNREGISTERED</text><text fill="#eeeeee" stroke="none" font-family="Arial" font-size="24px" font-style="normal" font-weight="normal" text-decoration="none" x="200" y="60">UNREGISTERED</text><text fill="#eeeeee" stroke="none" font-family="Arial" font-size="24px" font-style="normal" font-weight="normal" text-decoration="none" x="200" y="90">UNREGISTERED</text><text fill="#eeeeee" stroke="none" font-family="Arial" font-size="24px" font-style="normal" font-weight="normal" text-decoration="none" x="200" y="120">UNREGISTERED</text><text fill="#eeeeee" stroke="none" font-family="Arial" font-size="24px" font-style="normal" font-weight="normal" text-decoration="none" x="200" y="150">UNREGISTERED</text><text fill="#eeeeee" stroke="none" font-family="Arial" font-size="24px" font-style="normal" font-weight="normal" text-decoration="none" x="200" y="180">UNREGISTERED</text><text fill="#eeeeee" stroke="none" font-family="Arial" font-size="24px" font-style="normal" font-weight="normal" text-decoration="none" x="200" y="210">UNREGISTERED</text><text fill="#eeeeee" stroke="none" font-family="Arial" font-size="24px" font-style="normal" font-weight="normal" text-decoration="none" x="200" y="240">UNREGISTERED</text><text fill="#eeeeee" stroke="none" font-family="Arial" font-size="24px" font-style="normal" font-weight="normal" text-decoration="none" x="200" y="270">UNREGISTERED</text><text fill="#eeeeee" stroke="none" font-family="Arial" font-size="24px" font-style="normal" font-weight="normal" text-decoration="none" x="200" y="300">UNREGISTERED</text><text fill="#eeeeee" stroke="none" font-family="Arial" font-size="24px" font-style="normal" font-weight="normal" text-decoration="none" x="200" y="330">UNREGISTERED</text><text fill="#eeeeee" stroke="none" font-family="Arial" font-size="24px" font-style="normal" font-weight="normal" text-decoration="none" x="200" y="360">UNREGISTERED</text><text fill="#eeeeee" stroke="none" font-family="Arial" font-size="24px" font-style="normal" font-weight="normal" text-decoration="none" x="200" y="390">UNREGISTERED</text><text fill="#eeeeee" stroke="none" font-family="Arial" font-size="24px" font-style="normal" font-weight="normal" text-decoration="none" x="200" y="420">UNREGISTERED</text><text fill="#eeeeee" stroke="none" font-family="Arial" font-size="24px" font-style="normal" font-weight="normal" text-decoration="none" x="200" y="450">UNREGISTERED</text><text fill="#eeeeee" stroke="none" font-family="Arial" font-size="24px" font-style="normal" font-weight="normal" text-decoration="none" x="200" y="480">UNREGISTERED</text><text fill="#eeeeee" stroke="none" font-family="Arial" font-size="24px" font-style="normal" font-weight="normal" text-decoration="none" x="200" y="510">UNREGISTERED</text><text fill="#eeeeee" stroke="none" font-family="Arial" font-size="24px" font-style="normal" font-weight="normal" text-decoration="none" x="200" y="540">UNREGISTERED</text><text fill="#eeeeee" stroke="none" font-family="Arial" font-size="24px" font-style="normal" font-weight="normal" text-decoration="none" x="200" y="570">UNREGISTERED</text><text fill="#eeeeee" stroke="none" font-family="Arial" font-size="24px" font-style="normal" font-weight="normal" text-decoration="none" x="200" y="600">UNREGISTERED</text><text fill="#eeeeee" stroke="none" font-family="Arial" font-size="24px" font-style="normal" font-weight="normal" text-decoration="none" x="200" y="630">UNREGISTERED</text><text fill="#eeeeee" stroke="none" font-family="Arial" font-size="24px" font-style="normal" font-weight="normal" text-decoration="none" x="200" y="660">UNREGISTERED</text><text fill="#eeeeee" stroke="none" font-family="Arial" font-size="24px" font-style="normal" font-weight="normal" text-decoration="none" x="400" y="0">UNREGISTERED</text><text fill="#eeeeee" stroke="none" font-family="Arial" font-size="24px" font-style="normal" font-weight="normal" text-decoration="none" x="400" y="30">UNREGISTERED</text><text fill="#eeeeee" stroke="none" font-family="Arial" font-size="24px" font-style="normal" font-weight="normal" text-decoration="none" x="400" y="60">UNREGISTERED</text><text fill="#eeeeee" stroke="none" font-family="Arial" font-size="24px" font-style="normal" font-weight="normal" text-decoration="none" x="400" y="90">UNREGISTERED</text><text fill="#eeeeee" stroke="none" font-family="Arial" font-size="24px" font-style="normal" font-weight="normal" text-decoration="none" x="400" y="120">UNREGISTERED</text><text fill="#eeeeee" stroke="none" font-family="Arial" font-size="24px" font-style="normal" font-weight="normal" text-decoration="none" x="400" y="150">UNREGISTERED</text><text fill="#eeeeee" stroke="none" font-family="Arial" font-size="24px" font-style="normal" font-weight="normal" text-decoration="none" x="400" y="180">UNREGISTERED</text><text fill="#eeeeee" stroke="none" font-family="Arial" font-size="24px" font-style="normal" font-weight="normal" text-decoration="none" x="400" y="210">UNREGISTERED</text><text fill="#eeeeee" stroke="none" font-family="Arial" font-size="24px" font-style="normal" font-weight="normal" text-decoration="none" x="400" y="240">UNREGISTERED</text><text fill="#eeeeee" stroke="none" font-family="Arial" font-size="24px" font-style="normal" font-weight="normal" text-decoration="none" x="400" y="270">UNREGISTERED</text><text fill="#eeeeee" stroke="none" font-family="Arial" font-size="24px" font-style="normal" font-weight="normal" text-decoration="none" x="400" y="300">UNREGISTERED</text><text fill="#eeeeee" stroke="none" font-family="Arial" font-size="24px" font-style="normal" font-weight="normal" text-decoration="none" x="400" y="330">UNREGISTERED</text><text fill="#eeeeee" stroke="none" font-family="Arial" font-size="24px" font-style="normal" font-weight="normal" text-decoration="none" x="400" y="360">UNREGISTERED</text><text fill="#eeeeee" stroke="none" font-family="Arial" font-size="24px" font-style="normal" font-weight="normal" text-decoration="none" x="400" y="390">UNREGISTERED</text><text fill="#eeeeee" stroke="none" font-family="Arial" font-size="24px" font-style="normal" font-weight="normal" text-decoration="none" x="400" y="420">UNREGISTERED</text><text fill="#eeeeee" stroke="none" font-family="Arial" font-size="24px" font-style="normal" font-weight="normal" text-decoration="none" x="400" y="450">UNREGISTERED</text><text fill="#eeeeee" stroke="none" font-family="Arial" font-size="24px" font-style="normal" font-weight="normal" text-decoration="none" x="400" y="480">UNREGISTERED</text><text fill="#eeeeee" stroke="none" font-family="Arial" font-size="24px" font-style="normal" font-weight="normal" text-decoration="none" x="400" y="510">UNREGISTERED</text><text fill="#eeeeee" stroke="none" font-family="Arial" font-size="24px" font-style="normal" font-weight="normal" text-decoration="none" x="400" y="540">UNREGISTERED</text><text fill="#eeeeee" stroke="none" font-family="Arial" font-size="24px" font-style="normal" font-weight="normal" text-decoration="none" x="400" y="570">UNREGISTERED</text><text fill="#eeeeee" stroke="none" font-family="Arial" font-size="24px" font-style="normal" font-weight="normal" text-decoration="none" x="400" y="600">UNREGISTERED</text><text fill="#eeeeee" stroke="none" font-family="Arial" font-size="24px" font-style="normal" font-weight="normal" text-decoration="none" x="400" y="630">UNREGISTERED</text><text fill="#eeeeee" stroke="none" font-family="Arial" font-size="24px" font-style="normal" font-weight="normal" text-decoration="none" x="400" y="660">UNREGISTERED</text><text fill="#eeeeee" stroke="none" font-family="Arial" font-size="24px" font-style="normal" font-weight="normal" text-decoration="none" x="600" y="0">UNREGISTERED</text><text fill="#eeeeee" stroke="none" font-family="Arial" font-size="24px" font-style="normal" font-weight="normal" text-decoration="none" x="600" y="30">UNREGISTERED</text><text fill="#eeeeee" stroke="none" font-family="Arial" font-size="24px" font-style="normal" font-weight="normal" text-decoration="none" x="600" y="60">UNREGISTERED</text><text fill="#eeeeee" stroke="none" font-family="Arial" font-size="24px" font-style="normal" font-weight="normal" text-decoration="none" x="600" y="90">UNREGISTERED</text><text fill="#eeeeee" stroke="none" font-family="Arial" font-size="24px" font-style="normal" font-weight="normal" text-decoration="none" x="600" y="120">UNREGISTERED</text><text fill="#eeeeee" stroke="none" font-family="Arial" font-size="24px" font-style="normal" font-weight="normal" text-decoration="none" x="600" y="150">UNREGISTERED</text><text fill="#eeeeee" stroke="none" font-family="Arial" font-size="24px" font-style="normal" font-weight="normal" text-decoration="none" x="600" y="180">UNREGISTERED</text><text fill="#eeeeee" stroke="none" font-family="Arial" font-size="24px" font-style="normal" font-weight="normal" text-decoration="none" x="600" y="210">UNREGISTERED</text><text fill="#eeeeee" stroke="none" font-family="Arial" font-size="24px" font-style="normal" font-weight="normal" text-decoration="none" x="600" y="240">UNREGISTERED</text><text fill="#eeeeee" stroke="none" font-family="Arial" font-size="24px" font-style="normal" font-weight="normal" text-decoration="none" x="600" y="270">UNREGISTERED</text><text fill="#eeeeee" stroke="none" font-family="Arial" font-size="24px" font-style="normal" font-weight="normal" text-decoration="none" x="600" y="300">UNREGISTERED</text><text fill="#eeeeee" stroke="none" font-family="Arial" font-size="24px" font-style="normal" font-weight="normal" text-decoration="none" x="600" y="330">UNREGISTERED</text><text fill="#eeeeee" stroke="none" font-family="Arial" font-size="24px" font-style="normal" font-weight="normal" text-decoration="none" x="600" y="360">UNREGISTERED</text><text fill="#eeeeee" stroke="none" font-family="Arial" font-size="24px" font-style="normal" font-weight="normal" text-decoration="none" x="600" y="390">UNREGISTERED</text><text fill="#eeeeee" stroke="none" font-family="Arial" font-size="24px" font-style="normal" font-weight="normal" text-decoration="none" x="600" y="420">UNREGISTERED</text><text fill="#eeeeee" stroke="none" font-family="Arial" font-size="24px" font-style="normal" font-weight="normal" text-decoration="none" x="600" y="450">UNREGISTERED</text><text fill="#eeeeee" stroke="none" font-family="Arial" font-size="24px" font-style="normal" font-weight="normal" text-decoration="none" x="600" y="480">UNREGISTERED</text><text fill="#eeeeee" stroke="none" font-family="Arial" font-size="24px" font-style="normal" font-weight="normal" text-decoration="none" x="600" y="510">UNREGISTERED</text><text fill="#eeeeee" stroke="none" font-family="Arial" font-size="24px" font-style="normal" font-weight="normal" text-decoration="none" x="600" y="540">UNREGISTERED</text><text fill="#eeeeee" stroke="none" font-family="Arial" font-size="24px" font-style="normal" font-weight="normal" text-decoration="none" x="600" y="570">UNREGISTERED</text><text fill="#eeeeee" stroke="none" font-family="Arial" font-size="24px" font-style="normal" font-weight="normal" text-decoration="none" x="600" y="600">UNREGISTERED</text><text fill="#eeeeee" stroke="none" font-family="Arial" font-size="24px" font-style="normal" font-weight="normal" text-decoration="none" x="600" y="630">UNREGISTERED</text><text fill="#eeeeee" stroke="none" font-family="Arial" font-size="24px" font-style="normal" font-weight="normal" text-decoration="none" x="600" y="660">UNREGISTERED</text><g transform="translate(-54,-54) scale(1,1)"><rect fill="#C0C0C0" stroke="none" x="487" y="71" width="140.79999999999995" height="15" opacity="0.2"/></g><g transform="translate(-54,-54) scale(1,1)"><rect fill="#C0C0C0" stroke="none" x="487" y="85" width="352" height="290" opacity="0.2"/></g><g transform="translate(-54,-54) scale(1,1)"><rect fill="#ffffff" stroke="none" x="480" y="79" width="352" height="289"/></g><g transform="translate(-54,-54) scale(1,1)"><path fill="none" stroke="#000000" d="M 480 79 L 832 79 L 832 368 L 480 368 L 480 79 Z Z" stroke-miterlimit="10"/></g><g transform="translate(-54,-54) scale(1,1)"><rect fill="#ffffff" stroke="none" x="480" y="64" width="140.79999999999995" height="15"/></g><g transform="translate(-54,-54) scale(1,1)"><path fill="none" stroke="#000000" d="M 480 64 L 620.8 64 L 620.8 79 L 480 79 L 480 64 Z Z" stroke-miterlimit="10"/></g><g transform="translate(-54,-54) scale(1,1)"><rect fill="#ffffff" stroke="none" x="480" y="78" width="352" height="290"/></g><g transform="translate(-54,-54) scale(1,1)"><path fill="none" stroke="#000000" d="M 480 78 L 832 78 L 832 368 L 480 368 L 480 78 Z Z" stroke-miterlimit="10"/></g><g transform="translate(-54,-54) scale(1,1)"><g><path fill="none" stroke="none"/><text fill="#000000" stroke="none" font-family="Arial" font-size="13px" font-style="normal" font-weight="bold" text-decoration="none" x="631.06005859375" y="98.5">abonnés</text></g></g><g transform="translate(-54,-54) scale(1,1)"><rect fill="#C0C0C0" stroke="none" x="87" y="463" width="249.60000000000002" height="15" opacity="0.2"/></g><g transform="translate(-54,-54) scale(1,1)"><rect fill="#C0C0C0" stroke="none" x="87" y="477" width="624" height="250" opacity="0.2"/></g><g transform="translate(-54,-54) scale(1,1)"><rect fill="#ffffff" stroke="none" x="80" y="471" width="624" height="249"/></g><g transform="translate(-54,-54) scale(1,1)"><path fill="none" stroke="#000000" d="M 80 471 L 704 471 L 704 720 L 80 720 L 80 471 Z Z" stroke-miterlimit="10"/></g><g transform="translate(-54,-54) scale(1,1)"><rect fill="#ffffff" stroke="none" x="80" y="456" width="249.60000000000002" height="15"/></g><g transform="translate(-54,-54) scale(1,1)"><path fill="none" stroke="#000000" d="M 80 456 L 329.6 456 L 329.6 471 L 80 471 L 80 456 Z Z" stroke-miterlimit="10"/></g><g transform="translate(-54,-54) scale(1,1)"><rect fill="#ffffff" stroke="none" x="80" y="470" width="624" height="250"/></g><g transform="translate(-54,-54) scale(1,1)"><path fill="none" stroke="#000000" d="M 80 470 L 704 470 L 704 720 L 80 720 L 80 470 Z Z" stroke-miterlimit="10"/></g><g transform="translate(-54,-54) scale(1,1)"><g><path fill="none" stroke="none"/><text fill="#000000" stroke="none" font-family="Arial" font-size="13px" font-style="normal" font-weight="bold" text-decoration="none" x="365.260498046875" y="490.5">ouvrages</text></g></g><g transform="translate(-54,-54) scale(1,1)"><rect fill="#C0C0C0" stroke="none" x="71" y="95" width="134.4" height="15" opacity="0.2"/></g><g transform="translate(-54,-54) scale(1,1)"><rect fill="#C0C0C0" stroke="none" x="71" y="109" width="336" height="250" opacity="0.2"/></g><g transform="translate(-54,-54) scale(1,1)"><rect fill="#ffffff" stroke="none" x="64" y="103" width="336" height="249"/></g><g transform="translate(-54,-54) scale(1,1)"><path fill="none" stroke="#000000" d="M 64 103 L 400 103 L 400 352 L 64 352 L 64 103 Z Z" stroke-miterlimit="10"/></g><g transform="translate(-54,-54) scale(1,1)"><rect fill="#ffffff" stroke="none" x="64" y="88" width="134.4" height="15"/></g><g transform="translate(-54,-54) scale(1,1)"><path fill="none" stroke="#000000" d="M 64 88 L 198.4 88 L 198.4 103 L 64 103 L 64 88 Z Z" stroke-miterlimit="10"/></g><g transform="translate(-54,-54) scale(1,1)"><rect fill="#ffffff" stroke="none" x="64" y="102" width="336" height="250"/></g><g transform="translate(-54,-54) scale(1,1)"><path fill="none" stroke="#000000" d="M 64 102 L 400 102 L 400 352 L 64 352 L 64 102 Z Z" stroke-miterlimit="10"/></g><g transform="translate(-54,-54) scale(1,1)"><g><path fill="none" stroke="none"/><text fill="#000000" stroke="none" font-family="Arial" font-size="13px" font-style="normal" font-weight="bold" text-decoration="none" x="204.905029296875" y="122.5">emprunts</text></g></g><g transform="translate(-54,-54) scale(1,1)"><path fill="none" stroke="#000000" d="M 290 353 L 334 455" stroke-miterlimit="10" stroke-dasharray="3"/></g><g transform="translate(-54,-54) scale(1,1)"><path fill="none" stroke="#000000" d="M 326.10942841614025 447.3358705595492 L 334 455 L 333.83988122484914 444.0011654263807" stroke-miterlimit="10"/></g><g transform="translate(-54,-54) scale(1,1)"><path fill="none" stroke="#000000" d="M 401 218 L 479 218" stroke-miterlimit="10" stroke-dasharray="3"/></g><g transform="translate(-54,-54) scale(1,1)"><path fill="none" stroke="#000000" d="M 468.83732514237585 222.209517756016 L 479 218 L 468.83732514237585 213.790482243984" stroke-miterlimit="10"/></g><g transform="translate(-54,-54) scale(1,1)"><rect fill="#C0C0C0" stroke="none" x="607" y="287" width="79.82080078125" height="70" opacity="0.2"/></g><g transform="translate(-54,-54) scale(1,1)"><rect fill="#ffffff" stroke="none" x="600" y="280" width="79.82080078125" height="70"/></g><g transform="translate(-54,-54) scale(1,1)"><path fill="none" stroke="#000000" d="M 600 280 L 679.82080078125 280 L 679.82080078125 350 L 600 350 L 600 280 Z Z" stroke-miterlimit="10"/></g><g transform="translate(-54,-54) scale(1,1)"><path fill="none" stroke="#000000" d="M 600 318 L 679.82080078125 318" stroke-miterlimit="10"/></g><g transform="translate(-54,-54) scale(1,1)"><path fill="none" stroke="#000000" d="M 600 341 L 679.82080078125 341" stroke-miterlimit="10"/></g><g transform="translate(-54,-54) scale(1,1)"><g><path fill="none" stroke="none"/><text fill="#000000" stroke="none" font-family="Arial" font-size="13px" font-style="normal" font-weight="normal" text-decoration="none" x="617.14453125" y="297.5">«entity»</text></g></g><g transform="translate(-54,-54) scale(1,1)"><g><path fill="none" stroke="none"/><text fill="#000000" stroke="none" font-family="Arial" font-size="13px" font-style="normal" font-weight="bold" text-decoration="none" x="617.5" y="312.5">Abonné</text></g></g><g transform="translate(-54,-54) scale(1,1)"><g><path fill="none" stroke="none"/><text fill="#000000" stroke="none" font-family="Arial" font-size="13px" font-style="normal" font-weight="normal" text-decoration="none" x="605" y="335.5">-numero {id}</text></g></g><g transform="translate(-54,-54) scale(1,1)"><rect fill="#C0C0C0" stroke="none" x="487" y="519" width="200.85791015625" height="100" opacity="0.2"/></g><g transform="translate(-54,-54) scale(1,1)"><rect fill="#ffffff" stroke="none" x="480" y="512" width="200.85791015625" height="100"/></g><g transform="translate(-54,-54) scale(1,1)"><path fill="none" stroke="#000000" d="M 480 512 L 680.85791015625 512 L 680.85791015625 612 L 480 612 L 480 512 Z Z" stroke-miterlimit="10"/></g><g transform="translate(-54,-54) scale(1,1)"><path fill="none" stroke="#000000" d="M 480 550 L 680.85791015625 550" stroke-miterlimit="10"/></g><g transform="translate(-54,-54) scale(1,1)"><path fill="none" stroke="#000000" d="M 480 603 L 680.85791015625 603" stroke-miterlimit="10"/></g><g transform="translate(-54,-54) scale(1,1)"><g><path fill="none" stroke="none"/><text fill="#000000" stroke="none" font-family="Arial" font-size="13px" font-style="normal" font-weight="normal" text-decoration="none" x="557.6630859375" y="529.5">«entity»</text></g></g><g transform="translate(-54,-54) scale(1,1)"><g><path fill="none" stroke="none"/><text fill="#000000" stroke="none" font-family="Arial" font-size="13px" font-style="normal" font-weight="bold" text-decoration="none" x="547.916259765625" y="544.5">Exemplaire</text></g></g><g transform="translate(-54,-54) scale(1,1)"><g><path fill="none" stroke="none"/><text fill="#000000" stroke="none" font-family="Arial" font-size="13px" font-style="normal" font-weight="normal" text-decoration="none" x="485" y="567.5">-numero {id}</text></g></g><g transform="translate(-54,-54) scale(1,1)"><g><path fill="none" stroke="none"/><text fill="#000000" stroke="none" font-family="Arial" font-size="13px" font-style="normal" font-weight="normal" text-decoration="none" x="485" y="582.5">-etatPhysique: Etats_Exemplaire</text></g></g><g transform="translate(-54,-54) scale(1,1)"><g><path fill="none" stroke="none"/><text fill="#000000" stroke="none" font-family="Arial" font-size="13px" font-style="normal" font-weight="normal" text-decoration="none" x="485" y="597.5">-usage: Usages_Exemplaire</text></g></g><g transform="translate(-54,-54) scale(1,1)"><rect fill="#C0C0C0" stroke="none" x="279" y="199" width="79.82080078125" height="100" opacity="0.2"/></g><g transform="translate(-54,-54) scale(1,1)"><rect fill="#ffffff" stroke="none" x="272" y="192" width="79.82080078125" height="100"/></g><g transform="translate(-54,-54) scale(1,1)"><path fill="none" stroke="#000000" d="M 272 192 L 351.82080078125 192 L 351.82080078125 292 L 272 292 L 272 192 Z Z" stroke-miterlimit="10"/></g><g transform="translate(-54,-54) scale(1,1)"><path fill="none" stroke="#000000" d="M 272 230 L 351.82080078125 230" stroke-miterlimit="10"/></g><g transform="translate(-54,-54) scale(1,1)"><path fill="none" stroke="#000000" d="M 272 283 L 351.82080078125 283" stroke-miterlimit="10"/></g><g transform="translate(-54,-54) scale(1,1)"><g><path fill="none" stroke="none"/><text fill="#000000" stroke="none" font-family="Arial" font-size="13px" font-style="normal" font-weight="normal" text-decoration="none" x="289.14453125" y="209.5">«entity»</text></g></g><g transform="translate(-54,-54) scale(1,1)"><g><path fill="none" stroke="none"/><text fill="#000000" stroke="none" font-family="Arial" font-size="13px" font-style="normal" font-weight="bold" text-decoration="none" x="287.344970703125" y="224.5">Emprunt</text></g></g><g transform="translate(-54,-54) scale(1,1)"><g><path fill="none" stroke="none"/><text fill="#000000" stroke="none" font-family="Arial" font-size="13px" font-style="normal" font-weight="normal" text-decoration="none" x="277" y="247.5">-numero {id}</text></g></g><g transform="translate(-54,-54) scale(1,1)"><g><path fill="none" stroke="none"/><text fill="#000000" stroke="none" font-family="Arial" font-size="13px" font-style="normal" font-weight="normal" text-decoration="none" x="277" y="262.5">-dateDebut</text></g></g><g transform="translate(-54,-54) scale(1,1)"><g><path fill="none" stroke="none"/><text fill="#000000" stroke="none" font-family="Arial" font-size="13px" font-style="normal" font-weight="normal" text-decoration="none" x="277" y="277.5">-dateFin</text></g></g><g transform="translate(-54,-54) scale(1,1)"><rect fill="#C0C0C0" stroke="none" x="319" y="543" width="85.603515625" height="115" opacity="0.2"/></g><g transform="translate(-54,-54) scale(1,1)"><rect fill="#ffffff" stroke="none" x="312" y="536" width="85.603515625" height="115"/></g><g transform="translate(-54,-54) scale(1,1)"><path fill="none" stroke="#000000" d="M 312 536 L 397.603515625 536 L 397.603515625 651 L 312 651 L 312 536 Z Z" stroke-miterlimit="10"/></g><g transform="translate(-54,-54) scale(1,1)"><path fill="none" stroke="#000000" d="M 312 574 L 397.603515625 574" stroke-miterlimit="10"/></g><g transform="translate(-54,-54) scale(1,1)"><path fill="none" stroke="#000000" d="M 312 642 L 397.603515625 642" stroke-miterlimit="10"/></g><g transform="translate(-54,-54) scale(1,1)"><g><path fill="none" stroke="none"/><text fill="#000000" stroke="none" font-family="Arial" font-size="13px" font-style="normal" font-weight="normal" text-decoration="none" x="332.035888671875" y="553.5">«entity»</text></g></g><g transform="translate(-54,-54) scale(1,1)"><g><path fill="none" stroke="none"/><text fill="#000000" stroke="none" font-family="Arial" font-size="13px" font-style="normal" font-weight="bold" text-decoration="none" x="333.486328125" y="568.5">Oeuvre</text></g></g><g transform="translate(-54,-54) scale(1,1)"><g><path fill="none" stroke="none"/><text fill="#000000" stroke="none" font-family="Arial" font-size="13px" font-style="normal" font-weight="normal" text-decoration="none" x="317" y="591.5">-numIsbn {id}</text></g></g><g transform="translate(-54,-54) scale(1,1)"><g><path fill="none" stroke="none"/><text fill="#000000" stroke="none" font-family="Arial" font-size="13px" font-style="normal" font-weight="normal" text-decoration="none" x="317" y="606.5">-titre</text></g></g><g transform="translate(-54,-54) scale(1,1)"><g><path fill="none" stroke="none"/><text fill="#000000" stroke="none" font-family="Arial" font-size="13px" font-style="normal" font-weight="normal" text-decoration="none" x="317" y="621.5">-auteur</text></g></g><g transform="translate(-54,-54) scale(1,1)"><g><path fill="none" stroke="none"/><text fill="#000000" stroke="none" font-family="Arial" font-size="13px" font-style="normal" font-weight="normal" text-decoration="none" x="317" y="636.5">-editeur</text></g></g><g transform="translate(-54,-54) scale(1,1)"><rect fill="#C0C0C0" stroke="none" x="511" y="111" width="102.58984375" height="117" opacity="0.2"/></g><g transform="translate(-54,-54) scale(1,1)"><rect fill="#ffffff" stroke="none" x="504" y="104" width="102.58984375" height="117"/></g><g transform="translate(-54,-54) scale(1,1)"><path fill="none" stroke="#000000" d="M 504 104 L 606.58984375 104 L 606.58984375 221 L 504 221 L 504 104 Z Z" stroke-miterlimit="10"/></g><g transform="translate(-54,-54) scale(1,1)"><path fill="none" stroke="#000000" d="M 504 129 L 606.58984375 129" stroke-miterlimit="10"/></g><g transform="translate(-54,-54) scale(1,1)"><path fill="none" stroke="#000000" d="M 504 212 L 606.58984375 212" stroke-miterlimit="10"/></g><g transform="translate(-54,-54) scale(1,1)"><g><path fill="none" stroke="none"/><text fill="#000000" stroke="none" font-family="Arial" font-size="13px" font-style="normal" font-weight="bold" text-decoration="none" x="527.469970703125" y="123.5">Personne</text></g></g><g transform="translate(-54,-54) scale(1,1)"><g><path fill="none" stroke="none"/><text fill="#000000" stroke="none" font-family="Arial" font-size="13px" font-style="normal" font-weight="normal" text-decoration="none" x="509" y="146.5">-nom</text></g></g><g transform="translate(-54,-54) scale(1,1)"><g><path fill="none" stroke="none"/><text fill="#000000" stroke="none" font-family="Arial" font-size="13px" font-style="normal" font-weight="normal" text-decoration="none" x="509" y="161.5">-prenom</text></g></g><g transform="translate(-54,-54) scale(1,1)"><g><path fill="none" stroke="none"/><text fill="#000000" stroke="none" font-family="Arial" font-size="13px" font-style="normal" font-weight="normal" text-decoration="none" x="509" y="176.5">-email</text></g></g><g transform="translate(-54,-54) scale(1,1)"><g><path fill="none" stroke="none"/><text fill="#000000" stroke="none" font-family="Arial" font-size="13px" font-style="normal" font-weight="normal" text-decoration="none" x="509" y="191.5">-telephone</text></g></g><g transform="translate(-54,-54) scale(1,1)"><g><path fill="none" stroke="none"/><text fill="#000000" stroke="none" font-family="Arial" font-size="13px" font-style="normal" font-weight="normal" text-decoration="none" x="509" y="206.5">-dateNaissance</text></g></g><g transform="translate(-54,-54) scale(1,1)"><path fill="none" stroke="#000000" d="M 619 279 L 588 222" stroke-miterlimit="10"/></g><g transform="translate(-54,-54) scale(1,1)"><path fill="#FFFFFF" stroke="none" d="M 605.1068690759903 235.83311354746016 L 588 222 L 590.3148947341706 243.8778715228358"/></g><g transform="translate(-54,-54) scale(1,1)"><path fill="none" stroke="#000000" d="M 605.1068690759903 235.83311354746016 L 588 222 L 590.3148947341706 243.8778715228358 L 605.1068690759903 235.83311354746016" stroke-miterlimit="10"/></g><g transform="translate(-54,-54) scale(1,1)"><path fill="none" stroke="#000000" d="M 479 576 L 399 587" stroke-miterlimit="10"/></g><g transform="translate(-54,-54) scale(1,1)"><g><path fill="none" stroke="none"/><text fill="#000000" stroke="none" font-family="Arial" font-size="13px" font-style="normal" font-weight="normal" text-decoration="none" x="452.220458984375" y="572.5">*</text></g></g><g transform="translate(-54,-54) scale(1,1)"><g><path fill="none" stroke="none"/><text fill="#000000" stroke="none" font-family="Arial" font-size="13px" font-style="normal" font-weight="normal" text-decoration="none" x="414.5" y="577.5">1</text></g></g><g transform="translate(-54,-54) scale(1,1)"><path fill="none" stroke="#000000" d="M 180 213 L 271 233" stroke-miterlimit="10"/></g><g transform="translate(-54,-54) scale(1,1)"><g><path fill="none" stroke="none"/><text fill="#000000" stroke="none" font-family="Arial" font-size="13px" font-style="normal" font-weight="normal" text-decoration="none" x="195.220458984375" y="235.5">*</text></g></g><g transform="translate(-54,-54) scale(1,1)"><g><path fill="none" stroke="none"/><text fill="#000000" stroke="none" font-family="Arial" font-size="13px" font-style="normal" font-weight="normal" text-decoration="none" x="243.5" y="246.5">1</text></g></g><g transform="translate(-54,-54) scale(1,1)"><path fill="none" stroke="#000000" d="M 353 251 L 599 306" stroke-miterlimit="10"/></g><g transform="translate(-54,-54) scale(1,1)"><path fill="none" stroke="#000000" d="M 588.1637060086676 307.89069630914514 L 599 306 L 590.000658854437 299.67450721715875" stroke-miterlimit="10"/></g><g transform="translate(-54,-54) scale(1,1)"><g><path fill="none" stroke="none"/><text fill="#000000" stroke="none" font-family="Arial" font-size="13px" font-style="normal" font-weight="normal" text-decoration="none" x="368.220458984375" y="273.5">*</text></g></g><g transform="translate(-54,-54) scale(1,1)"><g><path fill="none" stroke="none"/><text fill="#000000" stroke="none" font-family="Arial" font-size="13px" font-style="normal" font-weight="normal" text-decoration="none" x="525.5" y="282.5">+emprunteur</text></g></g><g transform="translate(-54,-54) scale(1,1)"><g><path fill="none" stroke="none"/><text fill="#000000" stroke="none" font-family="Arial" font-size="13px" font-style="normal" font-weight="normal" text-decoration="none" x="571.5" y="319.5">1</text></g></g><g transform="translate(-54,-54) scale(1,1)"><path fill="none" stroke="#000000" d="M 353 292 L 537 511" stroke-miterlimit="10"/></g><g transform="translate(-54,-54) scale(1,1)"><path fill="none" stroke="#000000" d="M 527.2396564647688 505.92696401803903 L 537 511 L 533.6855730435757 500.5112167554798" stroke-miterlimit="10"/></g><g transform="translate(-54,-54) scale(1,1)"><g><path fill="none" stroke="none"/><text fill="#000000" stroke="none" font-family="Arial" font-size="13px" font-style="normal" font-weight="normal" text-decoration="none" x="354.220458984375" y="322.5">*</text></g></g><g transform="translate(-54,-54) scale(1,1)"><g><path fill="none" stroke="none"/><text fill="#000000" stroke="none" font-family="Arial" font-size="13px" font-style="normal" font-weight="normal" text-decoration="none" x="509.5" y="508.5">1</text></g></g><g transform="translate(-54,-54) scale(1,1)"><rect fill="#C0C0C0" stroke="none" x="87" y="159" width="98.99072265625" height="100" opacity="0.2"/></g><g transform="translate(-54,-54) scale(1,1)"><rect fill="#ffffff" stroke="none" x="80" y="152" width="98.99072265625" height="100"/></g><g transform="translate(-54,-54) scale(1,1)"><path fill="none" stroke="#000000" d="M 80 152 L 178.99072265625 152 L 178.99072265625 252 L 80 252 L 80 152 Z Z" stroke-miterlimit="10"/></g><g transform="translate(-54,-54) scale(1,1)"><path fill="none" stroke="#000000" d="M 80 190 L 178.99072265625 190" stroke-miterlimit="10"/></g><g transform="translate(-54,-54) scale(1,1)"><path fill="none" stroke="#000000" d="M 80 243 L 178.99072265625 243" stroke-miterlimit="10"/></g><g transform="translate(-54,-54) scale(1,1)"><g><path fill="none" stroke="none"/><text fill="#000000" stroke="none" font-family="Arial" font-size="13px" font-style="normal" font-weight="normal" text-decoration="none" x="106.7294921875" y="169.5">«entity»</text></g></g><g transform="translate(-54,-54) scale(1,1)"><g><path fill="none" stroke="none"/><text fill="#000000" stroke="none" font-family="Arial" font-size="13px" font-style="normal" font-weight="bold" text-decoration="none" x="94.805419921875" y="184.5">Contentieux</text></g></g><g transform="translate(-54,-54) scale(1,1)"><g><path fill="none" stroke="none"/><text fill="#000000" stroke="none" font-family="Arial" font-size="13px" font-style="normal" font-weight="normal" text-decoration="none" x="85" y="207.5">-numero {id}</text></g></g><g transform="translate(-54,-54) scale(1,1)"><g><path fill="none" stroke="none"/><text fill="#000000" stroke="none" font-family="Arial" font-size="13px" font-style="normal" font-weight="normal" text-decoration="none" x="85" y="222.5">-raison</text></g></g><g transform="translate(-54,-54) scale(1,1)"><g><path fill="none" stroke="none"/><text fill="#000000" stroke="none" font-family="Arial" font-size="13px" font-style="normal" font-weight="normal" text-decoration="none" x="85" y="237.5">-regle: boolean</text></g></g><g transform="translate(-54,-54) scale(1,1)"><rect fill="#C0C0C0" stroke="none" x="127" y="599" width="134.201171875" height="90" opacity="0.2"/></g><g transform="translate(-54,-54) scale(1,1)"><rect fill="#ffffff" stroke="none" x="120" y="592" width="134.201171875" height="90"/></g><g transform="translate(-54,-54) scale(1,1)"><path fill="none" stroke="#000000" d="M 120 592 L 254.201171875 592 L 254.201171875 682 L 120 682 L 120 592 Z Z" stroke-miterlimit="10"/></g><g transform="translate(-54,-54) scale(1,1)"><path fill="none" stroke="#000000" d="M 120 630 L 254.201171875 630" stroke-miterlimit="10"/></g><g transform="translate(-54,-54) scale(1,1)"><g><path fill="none" stroke="none"/><text fill="#000000" stroke="none" font-family="Arial" font-size="13px" font-style="normal" font-weight="normal" text-decoration="none" x="143.736572265625" y="609.5">«enumeration»</text></g></g><g transform="translate(-54,-54) scale(1,1)"><g><path fill="none" stroke="none"/><text fill="#000000" stroke="none" font-family="Arial" font-size="13px" font-style="normal" font-weight="bold" text-decoration="none" x="128.933837890625" y="624.5">Usages_Exemplaire</text></g></g><g transform="translate(-54,-54) scale(1,1)"><g><path fill="none" stroke="none"/><text fill="#000000" stroke="none" font-family="Arial" font-size="13px" font-style="normal" font-weight="normal" text-decoration="none" x="125" y="647.5">DISPONIBLE</text></g></g><g transform="translate(-54,-54) scale(1,1)"><g><path fill="none" stroke="none"/><text fill="#000000" stroke="none" font-family="Arial" font-size="13px" font-style="normal" font-weight="normal" text-decoration="none" x="125" y="662.5">EN_RESTAURATION</text></g></g><g transform="translate(-54,-54) scale(1,1)"><g><path fill="none" stroke="none"/><text fill="#000000" stroke="none" font-family="Arial" font-size="13px" font-style="normal" font-weight="normal" text-decoration="none" x="125" y="677.5">EMPRUNTE</text></g></g><g transform="translate(-54,-54) scale(1,1)"><rect fill="#C0C0C0" stroke="none" x="127" y="487" width="125.34619140625" height="90" opacity="0.2"/></g><g transform="translate(-54,-54) scale(1,1)"><rect fill="#ffffff" stroke="none" x="120" y="480" width="125.34619140625" height="90"/></g><g transform="translate(-54,-54) scale(1,1)"><path fill="none" stroke="#000000" d="M 120 480 L 245.34619140625 480 L 245.34619140625 570 L 120 570 L 120 480 Z Z" stroke-miterlimit="10"/></g><g transform="translate(-54,-54) scale(1,1)"><path fill="none" stroke="#000000" d="M 120 518 L 245.34619140625 518" stroke-miterlimit="10"/></g><g transform="translate(-54,-54) scale(1,1)"><g><path fill="none" stroke="none"/><text fill="#000000" stroke="none" font-family="Arial" font-size="13px" font-style="normal" font-weight="normal" text-decoration="none" x="139.30908203125" y="497.5">«enumeration»</text></g></g><g transform="translate(-54,-54) scale(1,1)"><g><path fill="none" stroke="none"/><text fill="#000000" stroke="none" font-family="Arial" font-size="13px" font-style="normal" font-weight="bold" text-decoration="none" x="131.733154296875" y="512.5">Etats_Exemplaire</text></g></g><g transform="translate(-54,-54) scale(1,1)"><g><path fill="none" stroke="none"/><text fill="#000000" stroke="none" font-family="Arial" font-size="13px" font-style="normal" font-weight="normal" text-decoration="none" x="125" y="535.5">BON_ETAT</text></g></g><g transform="translate(-54,-54) scale(1,1)"><g><path fill="none" stroke="none"/><text fill="#000000" stroke="none" font-family="Arial" font-size="13px" font-style="normal" font-weight="normal" text-decoration="none" x="125" y="550.5">ABIME</text></g></g><g transform="translate(-54,-54) scale(1,1)"><g><path fill="none" stroke="none"/><text fill="#000000" stroke="none" font-family="Arial" font-size="13px" font-style="normal" font-weight="normal" text-decoration="none" x="125" y="565.5">HS</text></g></g><g transform="translate(-54,-54) scale(1,1)"><path fill="none" stroke="#000000" d="M 703 163 L 608 162" stroke-miterlimit="10"/></g><g transform="translate(-54,-54) scale(1,1)"><path fill="#000000" stroke="none" d="M 618.2064201338691 157.89768503757293 L 608 162 L 618.1178036167929 166.31625415980247 L 629.9987812647139 162.23156611857593"/></g><g transform="translate(-54,-54) scale(1,1)"><path fill="none" stroke="#000000" d="M 618.2064201338691 157.89768503757293 L 608 162 L 618.1178036167929 166.31625415980247 L 629.9987812647139 162.23156611857593 L 618.2064201338691 157.89768503757293" stroke-miterlimit="10"/></g><g transform="translate(-54,-54) scale(1,1)"><path fill="none" stroke="#000000" d="M 692.7935798661309 167.10231496242707 L 703 163 L 692.8821963832071 158.68374584019753" stroke-miterlimit="10"/></g><g transform="translate(-54,-54) scale(1,1)"><g><path fill="none" stroke="none"/><text fill="#000000" stroke="none" font-family="Arial" font-size="13px" font-style="normal" font-weight="normal" text-decoration="none" x="649.5" y="183.5">+adresse</text></g></g><g transform="translate(-54,-54) scale(1,1)"><rect fill="#C0C0C0" stroke="none" x="711" y="119" width="80.91259765625" height="102" opacity="0.2"/></g><g transform="translate(-54,-54) scale(1,1)"><rect fill="#ffffff" stroke="none" x="704" y="112" width="80.91259765625" height="102"/></g><g transform="translate(-54,-54) scale(1,1)"><path fill="none" stroke="#000000" d="M 704 112 L 784.91259765625 112 L 784.91259765625 214 L 704 214 L 704 112 Z Z" stroke-miterlimit="10"/></g><g transform="translate(-54,-54) scale(1,1)"><path fill="none" stroke="#000000" d="M 704 137 L 784.91259765625 137" stroke-miterlimit="10"/></g><g transform="translate(-54,-54) scale(1,1)"><path fill="none" stroke="#000000" d="M 704 205 L 784.91259765625 205" stroke-miterlimit="10"/></g><g transform="translate(-54,-54) scale(1,1)"><g><path fill="none" stroke="none"/><text fill="#000000" stroke="none" font-family="Arial" font-size="13px" font-style="normal" font-weight="bold" text-decoration="none" x="720.611328125" y="131.5">Adresse</text></g></g><g transform="translate(-54,-54) scale(1,1)"><g><path fill="none" stroke="none"/><text fill="#000000" stroke="none" font-family="Arial" font-size="13px" font-style="normal" font-weight="normal" text-decoration="none" x="709" y="154.5">-rue</text></g></g><g transform="translate(-54,-54) scale(1,1)"><g><path fill="none" stroke="none"/><text fill="#000000" stroke="none" font-family="Arial" font-size="13px" font-style="normal" font-weight="normal" text-decoration="none" x="709" y="169.5">-codePostal</text></g></g><g transform="translate(-54,-54) scale(1,1)"><g><path fill="none" stroke="none"/><text fill="#000000" stroke="none" font-family="Arial" font-size="13px" font-style="normal" font-weight="normal" text-decoration="none" x="709" y="184.5">-ville</text></g></g><g transform="translate(-54,-54) scale(1,1)"><g><path fill="none" stroke="none"/><text fill="#000000" stroke="none" font-family="Arial" font-size="13px" font-style="normal" font-weight="normal" text-decoration="none" x="709" y="199.5">-pays</text></g></g></g></svg>