<svg version="1.1" xmlns="http://www.w3.org/2000/svg" xmlns:xlink="http://www.w3.org/1999/xlink" width="868" height="725"><defs/><g><text fill="#eeeeee" stroke="none" font-family="Arial" font-size="24px" font-style="normal" font-weight="normal" text-decoration="none" x="0" y="0">UNREGISTERED</text><text fill="#eeeeee" stroke="none" font-family="Arial" font-size="24px" font-style="normal" font-weight="normal" text-decoration="none" x="0" y="30">UNREGISTERED</text><text fill="#eeeeee" stroke="none" font-family="Arial" font-size="24px" font-style="normal" font-weight="normal" text-decoration="none" x="0" y="60">UNREGISTERED</text><text fill="#eeeeee" stroke="none" font-family="Arial" font-size="24px" font-style="normal" font-weight="normal" text-decoration="none" x="0" y="90">UNREGISTERED</text><text fill="#eeeeee" stroke="none" font-family="Arial" font-size="24px" font-style="normal" font-weight="normal" text-decoration="none" x="0" y="120">UNREGISTERED</text><text fill="#eeeeee" stroke="none" font-family="Arial" font-size="24px" font-style="normal" font-weight="normal" text-decoration="none" x="0" y="150">UNREGISTERED</text><text fill="#eeeeee" stroke="none" font-family="Arial" font-size="24px" font-style="normal" font-weight="normal" text-decoration="none" x="0" y="180">UNREGISTERED</text><text fill="#eeeeee" stroke="none" font-family="Arial" font-size="24px" font-style="normal" font-weight="normal" text-decoration="none" x="0" y="210">UNREGISTERED</text><text fill="#eeeeee" stroke="none" font-family="Arial" font-size="24px" font-style="normal" font-weight="normal" text-decoration="none" x="0" y="240">UNREGISTERED</text><text fill="#eeeeee" stroke="none" font-family="Arial" font-size="24px" font-style="normal" font-weight="normal" text-decoration="none" x="0" y="270">UNREGISTERED</text><text fill="#eeeeee" stroke="none" font-family="Arial" font-size="24px" font-style="normal" font-weight="normal" text-decoration="none" x="0" y="300">UNREGISTERED</text><text fill="#eeeeee" stroke="none" font-family="Arial" font-size="24px" font-style="normal" font-weight="normal" text-decoration="none" x="0" y="330">UNREGISTERED</text><text fill="#eeeeee" stroke="none" font-family="Arial" font-size="24px" font-style="normal" font-weight="normal" text-decoration="none" x="0" y="360">UNREGISTERED</text><text fill="#eeeeee" stroke="none" font-family="Arial" font-size="24px" font-style="normal" font-weight="normal" text-decoration="none" x="0" y="390">UNREGISTERED</text><text fill="#eeeeee" stroke="none" font-family="Arial" font-size="24px" font-style="normal" font-weight="normal" text-decoration="none" x="0" y="420">UNREGISTERED</text><text fill="#eeeeee" stroke="none" font-family="Arial" font-size="24px" font-style="normal" font-weight="normal" text-decoration="none" x="0" y="450">UNREGISTERED</text><text fill="#eeeeee" stroke="none" font-family="Arial" font-size="24px" font-style="normal" font-weight="normal" text-decoration="none" x="0" y="480">UNREGISTERED</text><text fill="#eeeeee" stroke="none" font-family="Arial" font-size="24px" font-style="normal" font-weight="normal" text-decoration="none" x="0" y="510">UNREGISTERED</text><text fill="#eeeeee" stroke="none" font-family="Arial" font-size="24px" font-style="normal" font-weight="normal" text-decoration="none" x="0" y="540">UNREGISTERED</text><text fill="#eeeeee" stroke="none" font-family="Arial" font-size="24px" font-style="normal" font-weight="normal" text-decoration="none" x="0" y="570">UNREGISTERED</text><text fill="#eeeeee" stroke="none" font-family="Arial" font-size="24px" font-style="normal" font-weight="normal" text-decoration="none" x="0" y="600">UNREGISTERED</text><text fill="#eeeeee" stroke="none" font-family="Arial" font-size="24px" font-style="normal" font-weight="normal" text-decoration="none" x="0" y="630">UNREGISTERED</text><text fill="#eeeeee" stroke="none" font-family="Arial" font-size="24px" font-style="normal" font-weight="normal" text-decoration="none" x="0" y="660">UNREGISTERED</text><text fill="#eeeeee" stroke="none" font-family="Arial" font-size="24px" font-style="normal" font-weight="normal" text-decoration="none" x="0" y="690">UNREGISTERED</text><text fill="#eeeeee" stroke="none" font-family="Arial" font-size="24px" font-style="normal" font-weight="normal" text-decoration="none" x="0" y="720">UNREGISTERED</text><text fill="#eeeeee" stroke="none" font-family="Arial" font-size="24px" font-style="normal" font-weight="normal" text-decoration="none" x="200" y="0">UNREGISTERED</text><text fill="#eeeeee" stroke="none" font-family="Arial" font-size="24px" font-style="normal" font-weight="normal" text-decoration="none" x="200" y="30">UNREGISTERED</text><text fill="#eeeeee" stroke="none" font-family="Arial" font-size="24px" font-style="normal" font-weight="normal" text-decoration="none" x="200" y="60">UNREGISTERED</text><text fill="#eeeeee" stroke="none" font-family="Arial" font-size="24px" font-style="normal" font-weight="normal" text-decoration="none" x="200" y="90">UNREGISTERED</text><text fill="#eeeeee" stroke="none" font-family="Arial" font-size="24px" font-style="normal" font-weight="normal" text-decoration="none" x="200" y="120">UNREGISTERED</text><text fill="#eeeeee" stroke="none" font-family="Arial" font-size="24px" font-style="normal" font-weight="normal" text-decoration="none" x="200" y="150">UNREGISTERED</text><text fill="#eeeeee" stroke="none" font-family="Arial" font-size="24px" font-style="normal" font-weight="normal" text-decoration="none" x="200" y="180">UNREGISTERED</text><text fill="#eeeeee" stroke="none" font-family="Arial" font-size="24px" font-style="normal" font-weight="normal" text-decoration="none" x="200" y="210">UNREGISTERED</text><text fill="#eeeeee" stroke="none" font-family="Arial" font-size="24px" font-style="normal" font-weight="normal" text-decoration="none" x="200" y="240">UNREGISTERED</text><text fill="#eeeeee" stroke="none" font-family="Arial" font-size="24px" font-style="normal" font-weight="normal" text-decoration="none" x="200" y="270">UNREGISTERED</text><text fill="#eeeeee" stroke="none" font-family="Arial" font-size="24px" font-style="normal" font-weight="normal" text-decoration="none" x="200" y="300">UNREGISTERED</text><text fill="#eeeeee" stroke="none" font-family="Arial" font-size="24px" font-style="normal" font-weight="normal" text-decoration="none" x="200" y="330">UNREGISTERED</text><text fill="#eeeeee" stroke="none" font-family="Arial" font-size="24px" font-style="normal" font-weight="normal" text-decoration="none" x="200" y="360">UNREGISTERED</text><text fill="#eeeeee" stroke="none" font-family="Arial" font-size="24px" font-style="normal" font-weight="normal" text-decoration="none" x="200" y="390">UNREGISTERED</text><text fill="#eeeeee" stroke="none" font-family="Arial" font-size="24px" font-style="normal" font-weight="normal" text-decoration="none" x="200" y="420">UNREGISTERED</text><text fill="#eeeeee" stroke="none" font-family="Arial" font-size="24px" font-style="normal" font-weight="normal" text-decoration="none" x="200" y="450">UNREGISTERED</text><text fill="#eeeeee" stroke="none" font-family="Arial" font-size="24px" font-style="normal" font-weight="normal" text-decoration="none" x="200" y="480">UNREGISTERED</text><text fill="#eeeeee" stroke="none" font-family="Arial" font-size="24px" font-style="normal" font-weight="normal" text-decoration="none" x="200" y="510">UNREGISTERED</text><text fill="#eeeeee" stroke="none" font-family="Arial" font-size="24px" font-style="normal" font-weight="normal" text-decoration="none" x="200" y="540">UNREGISTERED</text><text fill="#eeeeee" stroke="none" font-family="Arial" font-size="24px" font-style="normal" font-weight="normal" text-decoration="none" x="200" y="570">UNREGISTERED</text><text fill="#eeeeee" stroke="none" font-family="Arial" font-size="24px" font-style="normal" font-weight="normal" text-decoration="none" x="200" y="600">UNREGISTERED</text><text fill="#eeeeee" stroke="none" font-family="Arial" font-size="24px" font-style="normal" font-weight="normal" text-decoration="none" x="200" y="630">UNREGISTERED</text><text fill="#eeeeee" stroke="none" font-family="Arial" font-size="24px" font-style="normal" font-weight="normal" text-decoration="none" x="200" y="660">UNREGISTERED</text><text fill="#eeeeee" stroke="none" font-family="Arial" font-size="24px" font-style="normal" font-weight="normal" text-decoration="none" x="200" y="690">UNREGISTERED</text><text fill="#eeeeee" stroke="none" font-family="Arial" font-size="24px" font-style="normal" font-weight="normal" text-decoration="none" x="200" y="720">UNREGISTERED</text><text fill="#eeeeee" stroke="none" font-family="Arial" font-size="24px" font-style="normal" font-weight="normal" text-decoration="none" x="400" y="0">UNREGISTERED</text><text fill="#eeeeee" stroke="none" font-family="Arial" font-size="24px" font-style="normal" font-weight="normal" text-decoration="none" x="400" y="30">UNREGISTERED</text><text fill="#eeeeee" stroke="none" font-family="Arial" font-size="24px" font-style="normal" font-weight="normal" text-decoration="none" x="400" y="60">UNREGISTERED</text><text fill="#eeeeee" stroke="none" font-family="Arial" font-size="24px" font-style="normal" font-weight="normal" text-decoration="none" x="400" y="90">UNREGISTERED</text><text fill="#eeeeee" stroke="none" font-family="Arial" font-size="24px" font-style="normal" font-weight="normal" text-decoration="none" x="400" y="120">UNREGISTERED</text><text fill="#eeeeee" stroke="none" font-family="Arial" font-size="24px" font-style="normal" font-weight="normal" text-decoration="none" x="400" y="150">UNREGISTERED</text><text fill="#eeeeee" stroke="none" font-family="Arial" font-size="24px" font-style="normal" font-weight="normal" text-decoration="none" x="400" y="180">UNREGISTERED</text><text fill="#eeeeee" stroke="none" font-family="Arial" font-size="24px" font-style="normal" font-weight="normal" text-decoration="none" x="400" y="210">UNREGISTERED</text><text fill="#eeeeee" stroke="none" font-family="Arial" font-size="24px" font-style="normal" font-weight="normal" text-decoration="none" x="400" y="240">UNREGISTERED</text><text fill="#eeeeee" stroke="none" font-family="Arial" font-size="24px" font-style="normal" font-weight="normal" text-decoration="none" x="400" y="270">UNREGISTERED</text><text fill="#eeeeee" stroke="none" font-family="Arial" font-size="24px" font-style="normal" font-weight="normal" text-decoration="none" x="400" y="300">UNREGISTERED</text><text fill="#eeeeee" stroke="none" font-family="Arial" font-size="24px" font-style="normal" font-weight="normal" text-decoration="none" x="400" y="330">UNREGISTERED</text><text fill="#eeeeee" stroke="none" font-family="Arial" font-size="24px" font-style="normal" font-weight="normal" text-decoration="none" x="400" y="360">UNREGISTERED</text><text fill="#eeeeee" stroke="none" font-family="Arial" font-size="24px" font-style="normal" font-weight="normal" text-decoration="none" x="400" y="390">UNREGISTERED</text><text fill="#eeeeee" stroke="none" font-family="Arial" font-size="24px" font-style="normal" font-weight="normal" text-decoration="none" x="400" y="420">UNREGISTERED</text><text fill="#eeeeee" stroke="none" font-family="Arial" font-size="24px" font-style="normal" font-weight="normal" text-decoration="none" x="400" y="450">UNREGISTERED</text><text fill="#eeeeee" stroke="none" font-family="Arial" font-size="24px" font-style="normal" font-weight="normal" text-decoration="none" x="400" y="480">UNREGISTERED</text><text fill="#eeeeee" stroke="none" font-family="Arial" font-size="24px" font-style="normal" font-weight="normal" text-decoration="none" x="400" y="510">UNREGISTERED</text><text fill="#eeeeee" stroke="none" font-family="Arial" font-size="24px" font-style="normal" font-weight="normal" text-decoration="none" x="400" y="540">UNREGISTERED</text><text fill="#eeeeee" stroke="none" font-family="Arial" font-size="24px" font-style="normal" font-weight="normal" text-decoration="none" x="400" y="570">UNREGISTERED</text><text fill="#eeeeee" stroke="none" font-family="Arial" font-size="24px" font-style="normal" font-weight="normal" text-decoration="none" x="400" y="600">UNREGISTERED</text><text fill="#eeeeee" stroke="none" font-family="Arial" font-size="24px" font-style="normal" font-weight="normal" text-decoration="none" x="400" y="630">UNREGISTERED</text><text fill="#eeeeee" stroke="none" font-family="Arial" font-size="24px" font-style="normal" font-weight="normal" text-decoration="none" x="400" y="660">UNREGISTERED</text><text fill="#eeeeee" stroke="none" font-family="Arial" font-size="24px" font-style="normal" font-weight="normal" text-decoration="none" x="400" y="690">UNREGISTERED</text><text fill="#eeeeee" stroke="none" font-family="Arial" font-size="24px" font-style="normal" font-weight="normal" text-decoration="none" x="400" y="720">UNREGISTERED</text><text fill="#eeeeee" stroke="none" font-family="Arial" font-size="24px" font-style="normal" font-weight="normal" text-decoration="none" x="600" y="0">UNREGISTERED</text><text fill="#eeeeee" stroke="none" font-family="Arial" font-size="24px" font-style="normal" font-weight="normal" text-decoration="none" x="600" y="30">UNREGISTERED</text><text fill="#eeeeee" stroke="none" font-family="Arial" font-size="24px" font-style="normal" font-weight="normal" text-decoration="none" x="600" y="60">UNREGISTERED</text><text fill="#eeeeee" stroke="none" font-family="Arial" font-size="24px" font-style="normal" font-weight="normal" text-decoration="none" x="600" y="90">UNREGISTERED</text><text fill="#eeeeee" stroke="none" font-family="Arial" font-size="24px" font-style="normal" font-weight="normal" text-decoration="none" x="600" y="120">UNREGISTERED</text><text fill="#eeeeee" stroke="none" font-family="Arial" font-size="24px" font-style="normal" font-weight="normal" text-decoration="none" x="600" y="150">UNREGISTERED</text><text fill="#eeeeee" stroke="none" font-family="Arial" font-size="24px" font-style="normal" font-weight="normal" text-decoration="none" x="600" y="180">UNREGISTERED</text><text fill="#eeeeee" stroke="none" font-family="Arial" font-size="24px" font-style="normal" font-weight="normal" text-decoration="none" x="600" y="210">UNREGISTERED</text><text fill="#eeeeee" stroke="none" font-family="Arial" font-size="24px" font-style="normal" font-weight="normal" text-decoration="none" x="600" y="240">UNREGISTERED</text><text fill="#eeeeee" stroke="none" font-family="Arial" font-size="24px" font-style="normal" font-weight="normal" text-decoration="none" x="600" y="270">UNREGISTERED</text><text fill="#eeeeee" stroke="none" font-family="Arial" font-size="24px" font-style="normal" font-weight="normal" text-decoration="none" x="600" y="300">UNREGISTERED</text><text fill="#eeeeee" stroke="none" font-family="Arial" font-size="24px" font-style="normal" font-weight="normal" text-decoration="none" x="600" y="330">UNREGISTERED</text><text fill="#eeeeee" stroke="none" font-family="Arial" font-size="24px" font-style="normal" font-weight="normal" text-decoration="none" x="600" y="360">UNREGISTERED</text><text fill="#eeeeee" stroke="none" font-family="Arial" font-size="24px" font-style="normal" font-weight="normal" text-decoration="none" x="600" y="390">UNREGISTERED</text><text fill="#eeeeee" stroke="none" font-family="Arial" font-size="24px" font-style="normal" font-weight="normal" text-decoration="none" x="600" y="420">UNREGISTERED</text><text fill="#eeeeee" stroke="none" font-family="Arial" font-size="24px" font-style="normal" font-weight="normal" text-decoration="none" x="600" y="450">UNREGISTERED</text><text fill="#eeeeee" stroke="none" font-family="Arial" font-size="24px" font-style="normal" font-weight="normal" text-decoration="none" x="600" y="480">UNREGISTERED</text><text fill="#eeeeee" stroke="none" font-family="Arial" font-size="24px" font-style="normal" font-weight="normal" text-decoration="none" x="600" y="510">UNREGISTERED</text><text fill="#eeeeee" stroke="none" font-family="Arial" font-size="24px" font-style="normal" font-weight="normal" text-decoration="none" x="600" y="540">UNREGISTERED</text><text fill="#eeeeee" stroke="none" font-family="Arial" font-size="24px" font-style="normal" font-weight="normal" text-decoration="none" x="600" y="570">UNREGISTERED</text><text fill="#eeeeee" stroke="none" font-family="Arial" font-size="24px" font-style="normal" font-weight="normal" text-decoration="none" x="600" y="600">UNREGISTERED</text><text fill="#eeeeee" stroke="none" font-family="Arial" font-size="24px" font-style="normal" font-weight="normal" text-decoration="none" x="600" y="630">UNREGISTERED</text><text fill="#eeeeee" stroke="none" font-family="Arial" font-size="24px" font-style="normal" font-weight="normal" text-decoration="none" x="600" y="660">UNREGISTERED</text><text fill="#eeeeee" stroke="none" font-family="Arial" font-size="24px" font-style="normal" font-weight="normal" text-decoration="none" x="600" y="690">UNREGISTERED</text><text fill="#eeeeee" stroke="none" font-family="Arial" font-size="24px" font-style="normal" font-weight="normal" text-decoration="none" x="600" y="720">UNREGISTERED</text><text fill="#eeeeee" stroke="none" font-family="Arial" font-size="24px" font-style="normal" font-weight="normal" text-decoration="none" x="800" y="0">UNREGISTERED</text><text fill="#eeeeee" stroke="none" font-family="Arial" font-size="24px" font-style="normal" font-weight="normal" text-decoration="none" x="800" y="30">UNREGISTERED</text><text fill="#eeeeee" stroke="none" font-family="Arial" font-size="24px" font-style="normal" font-weight="normal" text-decoration="none" x="800" y="60">UNREGISTERED</text><text fill="#eeeeee" stroke="none" font-family="Arial" font-size="24px" font-style="normal" font-weight="normal" text-decoration="none" x="800" y="90">UNREGISTERED</text><text fill="#eeeeee" stroke="none" font-family="Arial" font-size="24px" font-style="normal" font-weight="normal" text-decoration="none" x="800" y="120">UNREGISTERED</text><text fill="#eeeeee" stroke="none" font-family="Arial" font-size="24px" font-style="normal" font-weight="normal" text-decoration="none" x="800" y="150">UNREGISTERED</text><text fill="#eeeeee" stroke="none" font-family="Arial" font-size="24px" font-style="normal" font-weight="normal" text-decoration="none" x="800" y="180">UNREGISTERED</text><text fill="#eeeeee" stroke="none" font-family="Arial" font-size="24px" font-style="normal" font-weight="normal" text-decoration="none" x="800" y="210">UNREGISTERED</text><text fill="#eeeeee" stroke="none" font-family="Arial" font-size="24px" font-style="normal" font-weight="normal" text-decoration="none" x="800" y="240">UNREGISTERED</text><text fill="#eeeeee" stroke="none" font-family="Arial" font-size="24px" font-style="normal" font-weight="normal" text-decoration="none" x="800" y="270">UNREGISTERED</text><text fill="#eeeeee" stroke="none" font-family="Arial" font-size="24px" font-style="normal" font-weight="normal" text-decoration="none" x="800" y="300">UNREGISTERED</text><text fill="#eeeeee" stroke="none" font-family="Arial" font-size="24px" font-style="normal" font-weight="normal" text-decoration="none" x="800" y="330">UNREGISTERED</text><text fill="#eeeeee" stroke="none" font-family="Arial" font-size="24px" font-style="normal" font-weight="normal" text-decoration="none" x="800" y="360">UNREGISTERED</text><text fill="#eeeeee" stroke="none" font-family="Arial" font-size="24px" font-style="normal" font-weight="normal" text-decoration="none" x="800" y="390">UNREGISTERED</text><text fill="#eeeeee" stroke="none" font-family="Arial" font-size="24px" font-style="normal" font-weight="normal" text-decoration="none" x="800" y="420">UNREGISTERED</text><text fill="#eeeeee" stroke="none" font-family="Arial" font-size="24px" font-style="normal" font-weight="normal" text-decoration="none" x="800" y="450">UNREGISTERED</text><text fill="#eeeeee" stroke="none" font-family="Arial" font-size="24px" font-style="normal" font-weight="normal" text-decoration="none" x="800" y="480">UNREGISTERED</text><text fill="#eeeeee" stroke="none" font-family="Arial" font-size="24px" font-style="normal" font-weight="normal" text-decoration="none" x="800" y="510">UNREGISTERED</text><text fill="#eeeeee" stroke="none" font-family="Arial" font-size="24px" font-style="normal" font-weight="normal" text-decoration="none" x="800" y="540">UNREGISTERED</text><text fill="#eeeeee" stroke="none" font-family="Arial" font-size="24px" font-style="normal" font-weight="normal" text-decoration="none" x="800" y="570">UNREGISTERED</text><text fill="#eeeeee" stroke="none" font-family="Arial" font-size="24px" font-style="normal" font-weight="normal" text-decoration="none" x="800" y="600">UNREGISTERED</text><text fill="#eeeeee" stroke="none" font-family="Arial" font-size="24px" font-style="normal" font-weight="normal" text-decoration="none" x="800" y="630">UNREGISTERED</text><text fill="#eeeeee" stroke="none" font-family="Arial" font-size="24px" font-style="normal" font-weight="normal" text-decoration="none" x="800" y="660">UNREGISTERED</text><text fill="#eeeeee" stroke="none" font-family="Arial" font-size="24px" font-style="normal" font-weight="normal" text-decoration="none" x="800" y="690">UNREGISTERED</text><text fill="#eeeeee" stroke="none" font-family="Arial" font-size="24px" font-style="normal" font-weight="normal" text-decoration="none" x="800" y="720">UNREGISTERED</text><g transform="translate(-6,-38) scale(1,1)"><path fill="#C0C0C0" stroke="none" d="M 95 257 L 319.70263671875 257 L 319.70263671875 358 L 95 358" opacity="0.2"/></g><g transform="translate(-6,-38) scale(1,1)"><path fill="#C0C0C0" stroke="none" d="M 95 257 L 105 247 L 329.70263671875 247 L 319.70263671875 257" opacity="0.2"/></g><g transform="translate(-6,-38) scale(1,1)"><path fill="#C0C0C0" stroke="none" d="M 329.70263671875 247 L 319.70263671875 257 L 319.70263671875 358 L 329.70263671875 348" opacity="0.2"/></g><g transform="translate(-6,-38) scale(1,1)"><path fill="#ffffff" stroke="none" d="M 88 250 L 312.70263671875 250 L 312.70263671875 351 L 88 351"/></g><g transform="translate(-6,-38) scale(1,1)"><path fill="#ffffff" stroke="none" d="M 88 250 L 98 240 L 322.70263671875 240 L 312.70263671875 250"/></g><g transform="translate(-6,-38) scale(1,1)"><path fill="#ffffff" stroke="none" d="M 322.70263671875 240 L 312.70263671875 250 L 312.70263671875 351 L 322.70263671875 341"/></g><g transform="translate(-6,-38) scale(1,1)"><path fill="none" stroke="#000000" d="M 88 250 L 312.70263671875 250 L 312.70263671875 351 L 88 351 L 88 250" stroke-miterlimit="10"/></g><g transform="translate(-6,-38) scale(1,1)"><path fill="none" stroke="#000000" d="M 88 250 L 98 240 L 322.70263671875 240 L 312.70263671875 250 L 88 250" stroke-miterlimit="10"/></g><g transform="translate(-6,-38) scale(1,1)"><path fill="none" stroke="#000000" d="M 322.70263671875 240 L 312.70263671875 250 L 312.70263671875 351 L 322.70263671875 341 L 322.70263671875 240" stroke-miterlimit="10"/></g><g transform="translate(-6,-38) scale(1,1)"><g><path fill="none" stroke="none"/><text fill="#000000" stroke="none" font-family="Arial" font-size="13px" font-style="normal" font-weight="bold" text-decoration="none" x="101.504150390625" y="269.5">nginx-http-server-docker-container</text></g></g><g transform="translate(-6,-38) scale(1,1)"><path fill="#C0C0C0" stroke="none" d="M 391 313 L 564 313 L 564 446 L 391 446" opacity="0.2"/></g><g transform="translate(-6,-38) scale(1,1)"><path fill="#C0C0C0" stroke="none" d="M 391 313 L 401 303 L 574 303 L 564 313" opacity="0.2"/></g><g transform="translate(-6,-38) scale(1,1)"><path fill="#C0C0C0" stroke="none" d="M 574 303 L 564 313 L 564 446 L 574 436" opacity="0.2"/></g><g transform="translate(-6,-38) scale(1,1)"><path fill="#ffffff" stroke="none" d="M 384 306 L 557 306 L 557 439 L 384 439"/></g><g transform="translate(-6,-38) scale(1,1)"><path fill="#ffffff" stroke="none" d="M 384 306 L 394 296 L 567 296 L 557 306"/></g><g transform="translate(-6,-38) scale(1,1)"><path fill="#ffffff" stroke="none" d="M 567 296 L 557 306 L 557 439 L 567 429"/></g><g transform="translate(-6,-38) scale(1,1)"><path fill="none" stroke="#000000" d="M 384 306 L 557 306 L 557 439 L 384 439 L 384 306" stroke-miterlimit="10"/></g><g transform="translate(-6,-38) scale(1,1)"><path fill="none" stroke="#000000" d="M 384 306 L 394 296 L 567 296 L 557 306 L 384 306" stroke-miterlimit="10"/></g><g transform="translate(-6,-38) scale(1,1)"><path fill="none" stroke="#000000" d="M 567 296 L 557 306 L 557 439 L 567 429 L 567 296" stroke-miterlimit="10"/></g><g transform="translate(-6,-38) scale(1,1)"><g><path fill="none" stroke="none"/><text fill="#000000" stroke="none" font-family="Arial" font-size="13px" font-style="normal" font-weight="bold" text-decoration="none" x="404.8828125" y="325.5">java8-docker-container</text></g></g><g transform="translate(-6,-38) scale(1,1)"><path fill="#C0C0C0" stroke="none" d="M 687 329 L 860 329 L 860 422 L 687 422" opacity="0.2"/></g><g transform="translate(-6,-38) scale(1,1)"><path fill="#C0C0C0" stroke="none" d="M 687 329 L 697 319 L 870 319 L 860 329" opacity="0.2"/></g><g transform="translate(-6,-38) scale(1,1)"><path fill="#C0C0C0" stroke="none" d="M 870 319 L 860 329 L 860 422 L 870 412" opacity="0.2"/></g><g transform="translate(-6,-38) scale(1,1)"><path fill="#ffffff" stroke="none" d="M 680 322 L 853 322 L 853 415 L 680 415"/></g><g transform="translate(-6,-38) scale(1,1)"><path fill="#ffffff" stroke="none" d="M 680 322 L 690 312 L 863 312 L 853 322"/></g><g transform="translate(-6,-38) scale(1,1)"><path fill="#ffffff" stroke="none" d="M 863 312 L 853 322 L 853 415 L 863 405"/></g><g transform="translate(-6,-38) scale(1,1)"><path fill="none" stroke="#000000" d="M 680 322 L 853 322 L 853 415 L 680 415 L 680 322" stroke-miterlimit="10"/></g><g transform="translate(-6,-38) scale(1,1)"><path fill="none" stroke="#000000" d="M 680 322 L 690 312 L 863 312 L 853 322 L 680 322" stroke-miterlimit="10"/></g><g transform="translate(-6,-38) scale(1,1)"><path fill="none" stroke="#000000" d="M 863 312 L 853 322 L 853 415 L 863 405 L 863 312" stroke-miterlimit="10"/></g><g transform="translate(-6,-38) scale(1,1)"><g><path fill="none" stroke="none"/><text fill="#000000" stroke="none" font-family="Arial" font-size="13px" font-style="normal" font-weight="bold" text-decoration="none" x="692.224609375" y="341.5">mysql-in-docker-container</text></g></g><g transform="translate(-6,-38) scale(1,1)"><path fill="#C0C0C0" stroke="none" d="M 55 81 L 165.57177734375 81 L 165.57177734375 114 L 55 114" opacity="0.2"/></g><g transform="translate(-6,-38) scale(1,1)"><path fill="#C0C0C0" stroke="none" d="M 55 81 L 65 71 L 175.57177734375 71 L 165.57177734375 81" opacity="0.2"/></g><g transform="translate(-6,-38) scale(1,1)"><path fill="#C0C0C0" stroke="none" d="M 175.57177734375 71 L 165.57177734375 81 L 165.57177734375 114 L 175.57177734375 104" opacity="0.2"/></g><g transform="translate(-6,-38) scale(1,1)"><path fill="#ffffff" stroke="none" d="M 48 74 L 158.57177734375 74 L 158.57177734375 107 L 48 107"/></g><g transform="translate(-6,-38) scale(1,1)"><path fill="#ffffff" stroke="none" d="M 48 74 L 58 64 L 168.57177734375 64 L 158.57177734375 74"/></g><g transform="translate(-6,-38) scale(1,1)"><path fill="#ffffff" stroke="none" d="M 168.57177734375 64 L 158.57177734375 74 L 158.57177734375 107 L 168.57177734375 97"/></g><g transform="translate(-6,-38) scale(1,1)"><path fill="none" stroke="#000000" d="M 48 74 L 158.57177734375 74 L 158.57177734375 107 L 48 107 L 48 74" stroke-miterlimit="10"/></g><g transform="translate(-6,-38) scale(1,1)"><path fill="none" stroke="#000000" d="M 48 74 L 58 64 L 168.57177734375 64 L 158.57177734375 74 L 48 74" stroke-miterlimit="10"/></g><g transform="translate(-6,-38) scale(1,1)"><path fill="none" stroke="#000000" d="M 168.57177734375 64 L 158.57177734375 74 L 158.57177734375 107 L 168.57177734375 97 L 168.57177734375 64" stroke-miterlimit="10"/></g><g transform="translate(-6,-38) scale(1,1)"><g><path fill="none" stroke="none"/><text fill="#000000" stroke="none" font-family="Arial" font-size="13px" font-style="normal" font-weight="bold" text-decoration="none" x="56.82275390625" y="93.5">internet-browser</text></g></g><g transform="translate(-6,-38) scale(1,1)"><path fill="none" stroke="#000000" d="M 119 109 L 201 279" stroke-miterlimit="10"/></g><g transform="translate(-6,-38) scale(1,1)"><g><path fill="none" stroke="none"/><text fill="#000000" stroke="none" font-family="Arial" font-size="13px" font-style="normal" font-weight="normal" text-decoration="none" x="155.5" y="193.5">+https</text></g></g><g transform="translate(-6,-38) scale(1,1)"><path fill="none" stroke="#000000" d="M 257 313 L 383 345" stroke-miterlimit="10"/></g><g transform="translate(-6,-38) scale(1,1)"><g><path fill="none" stroke="none"/><text fill="#000000" stroke="none" font-family="Arial" font-size="13px" font-style="normal" font-weight="normal" text-decoration="none" x="336.5" y="323.5">+http</text></g></g><g transform="translate(-6,-38) scale(1,1)"><path fill="none" stroke="#000000" d="M 569 370 L 751 373" stroke-miterlimit="10"/></g><g transform="translate(-6,-38) scale(1,1)"><g><path fill="none" stroke="none"/><text fill="#000000" stroke="none" font-family="Arial" font-size="13px" font-style="normal" font-weight="normal" text-decoration="none" x="604.5" y="360.5">+tcp_ip  sql</text></g></g><g transform="translate(-6,-38) scale(1,1)"><path fill="#C0C0C0" stroke="none" d="M 459.673193359375 511 L 487.113193359375 511 L 498.87319335937497 522.76 L 498.87319335937497 560 L 459.673193359375 560" opacity="0.2"/></g><g transform="translate(-6,-38) scale(1,1)"><path fill="#ffffff" stroke="none" d="M 452.673193359375 504 L 480.11319335937503 504 L 491.873193359375 515.76 L 491.873193359375 553 L 452.673193359375 553"/></g><g transform="translate(-6,-38) scale(1,1)"><path fill="none" stroke="#000000" d="M 452.673193359375 504 L 480.11319335937503 504 L 491.873193359375 515.76 L 491.873193359375 553 L 452.673193359375 553 L 452.673193359375 504" stroke-miterlimit="10"/></g><g transform="translate(-6,-38) scale(1,1)"><path fill="none" stroke="#000000" d="M 480.11319335937503 504 L 480.11319335937503 515.76 L 491.873193359375 515.76 L 480.11319335937503 504" stroke-miterlimit="10"/></g><g transform="translate(-6,-38) scale(1,1)"><g><path fill="none" stroke="none"/><text fill="#000000" stroke="none" font-family="Arial" font-size="13px" font-style="normal" font-weight="bold" text-decoration="none" x="396.025146484375" y="572.5">bibliothequeSpringBoot.jar</text></g></g><g transform="translate(-6,-38) scale(1,1)"><path fill="#C0C0C0" stroke="none" d="M 212.943212890625 528 L 240.38321289062503 528 L 252.14321289062502 539.76 L 252.14321289062502 577 L 212.943212890625 577" opacity="0.2"/></g><g transform="translate(-6,-38) scale(1,1)"><path fill="#ffffff" stroke="none" d="M 205.94321289062498 521 L 233.383212890625 521 L 245.14321289062502 532.76 L 245.14321289062502 570 L 205.94321289062498 570"/></g><g transform="translate(-6,-38) scale(1,1)"><path fill="none" stroke="#000000" d="M 205.94321289062498 521 L 233.383212890625 521 L 245.14321289062502 532.76 L 245.14321289062502 570 L 205.94321289062498 570 L 205.94321289062498 521" stroke-miterlimit="10"/></g><g transform="translate(-6,-38) scale(1,1)"><path fill="none" stroke="#000000" d="M 233.383212890625 521 L 233.383212890625 532.76 L 245.14321289062502 532.76 L 233.383212890625 521" stroke-miterlimit="10"/></g><g transform="translate(-6,-38) scale(1,1)"><g><path fill="none" stroke="none"/><text fill="#000000" stroke="none" font-family="Arial" font-size="13px" font-style="normal" font-weight="bold" text-decoration="none" x="173.5146484375" y="589.5">biblioFrontEnd.zip</text></g></g><g transform="translate(-6,-38) scale(1,1)"><path fill="#C0C0C0" stroke="none" d="M 756.443212890625 529 L 783.883212890625 529 L 795.643212890625 540.76 L 795.643212890625 578 L 756.443212890625 578" opacity="0.2"/></g><g transform="translate(-6,-38) scale(1,1)"><path fill="#ffffff" stroke="none" d="M 749.443212890625 522 L 776.883212890625 522 L 788.643212890625 533.76 L 788.643212890625 571 L 749.443212890625 571"/></g><g transform="translate(-6,-38) scale(1,1)"><path fill="none" stroke="#000000" d="M 749.443212890625 522 L 776.883212890625 522 L 788.643212890625 533.76 L 788.643212890625 571 L 749.443212890625 571 L 749.443212890625 522" stroke-miterlimit="10"/></g><g transform="translate(-6,-38) scale(1,1)"><path fill="none" stroke="#000000" d="M 776.883212890625 522 L 776.883212890625 533.76 L 788.643212890625 533.76 L 776.883212890625 522" stroke-miterlimit="10"/></g><g transform="translate(-6,-38) scale(1,1)"><g><path fill="none" stroke="none"/><text fill="#000000" stroke="none" font-family="Arial" font-size="13px" font-style="normal" font-weight="bold" text-decoration="none" x="723.8828125" y="590.5">init-biblio-db.sql</text></g></g><g transform="translate(-6,-38) scale(1,1)"><path fill="none" stroke="#000000" d="M 223 520 L 213 325" stroke-miterlimit="10" stroke-dasharray="3"/></g><g transform="translate(-6,-38) scale(1,1)"><path fill="none" stroke="#000000" d="M 217.7244723243359 334.93374860043195 L 213 325 L 209.31648542009825 335.3649274160339" stroke-miterlimit="10"/></g><g transform="translate(-6,-38) scale(1,1)"><g><path fill="none" stroke="none"/><text fill="#000000" stroke="none" font-family="Arial" font-size="13px" font-style="normal" font-weight="normal" text-decoration="none" x="161.5" y="429.5">«deploy»</text></g></g><g transform="translate(-6,-38) scale(1,1)"><path fill="none" stroke="#000000" d="M 473 503 L 474 441" stroke-miterlimit="10" stroke-dasharray="3"/></g><g transform="translate(-6,-38) scale(1,1)"><path fill="none" stroke="#000000" d="M 478.04507752489906 451.2292398455387 L 474 441 L 469.62713688711733 451.09346660944544" stroke-miterlimit="10"/></g><g transform="translate(-6,-38) scale(1,1)"><g><path fill="none" stroke="none"/><text fill="#000000" stroke="none" font-family="Arial" font-size="13px" font-style="normal" font-weight="normal" text-decoration="none" x="416.5" y="477.5">«deploy»</text></g></g><g transform="translate(-6,-38) scale(1,1)"><path fill="none" stroke="#000000" d="M 771 521 L 780 397" stroke-miterlimit="10" stroke-dasharray="3"/></g><g transform="translate(-6,-38) scale(1,1)"><path fill="none" stroke="#000000" d="M 783.4627953224827 407.440739847089 L 780 397 L 775.0658481079074 406.8312840008698" stroke-miterlimit="10"/></g><g transform="translate(-6,-38) scale(1,1)"><g><path fill="none" stroke="none"/><text fill="#000000" stroke="none" font-family="Arial" font-size="13px" font-style="normal" font-weight="normal" text-decoration="none" x="718.5" y="462.5">«deploy»</text></g></g><g transform="translate(-6,-38) scale(1,1)"><path fill="#ffffff" stroke="none" d="M 16 384 L 103.46630859375 384 L 113.46630859375 394 L 113.46630859375 446 L 16 446 L 16 384"/></g><g transform="translate(-6,-38) scale(1,1)"><path fill="none" stroke="#000000" d="M 16 384 L 103.46630859375 384 L 113.46630859375 394 L 113.46630859375 446 L 16 446 L 16 384 L 16 384" stroke-miterlimit="10"/></g><g transform="translate(-6,-38) scale(1,1)"><path fill="none" stroke="#000000" d="M 103.46630859375 384 L 103.46630859375 394 L 113.46630859375 394 L 103.46630859375 384" stroke-miterlimit="10"/></g><g transform="translate(-6,-38) scale(1,1)"><g><path fill="none" stroke="none"/><text fill="#000000" stroke="none" font-family="Arial" font-size="13px" font-style="normal" font-weight="normal" text-decoration="none" x="21" y="402">avec</text><text fill="#000000" stroke="none" font-family="Arial" font-size="13px" font-style="normal" font-weight="normal" text-decoration="none" x="21" y="415">reverse-proxy</text><text fill="#000000" stroke="none" font-family="Arial" font-size="13px" font-style="normal" font-weight="normal" text-decoration="none" x="21" y="428">pour api REST</text></g></g><g transform="translate(-6,-38) scale(1,1)"><path fill="none" stroke="#000000" d="M 107 383 L 182 325" stroke-miterlimit="10" stroke-dasharray="3"/></g><g transform="translate(-6,-38) scale(1,1)"><path fill="#C0C0C0" stroke="none" d="M 463 65 L 710.1416015625 65 L 710.1416015625 133 L 463 133" opacity="0.2"/></g><g transform="translate(-6,-38) scale(1,1)"><path fill="#C0C0C0" stroke="none" d="M 463 65 L 473 55 L 720.1416015625 55 L 710.1416015625 65" opacity="0.2"/></g><g transform="translate(-6,-38) scale(1,1)"><path fill="#C0C0C0" stroke="none" d="M 720.1416015625 55 L 710.1416015625 65 L 710.1416015625 133 L 720.1416015625 123" opacity="0.2"/></g><g transform="translate(-6,-38) scale(1,1)"><path fill="#ffffff" stroke="none" d="M 456 58 L 703.1416015625 58 L 703.1416015625 126 L 456 126"/></g><g transform="translate(-6,-38) scale(1,1)"><path fill="#ffffff" stroke="none" d="M 456 58 L 466 48 L 713.1416015625 48 L 703.1416015625 58"/></g><g transform="translate(-6,-38) scale(1,1)"><path fill="#ffffff" stroke="none" d="M 713.1416015625 48 L 703.1416015625 58 L 703.1416015625 126 L 713.1416015625 116"/></g><g transform="translate(-6,-38) scale(1,1)"><path fill="none" stroke="#000000" d="M 456 58 L 703.1416015625 58 L 703.1416015625 126 L 456 126 L 456 58" stroke-miterlimit="10"/></g><g transform="translate(-6,-38) scale(1,1)"><path fill="none" stroke="#000000" d="M 456 58 L 466 48 L 713.1416015625 48 L 703.1416015625 58 L 456 58" stroke-miterlimit="10"/></g><g transform="translate(-6,-38) scale(1,1)"><path fill="none" stroke="#000000" d="M 713.1416015625 48 L 703.1416015625 58 L 703.1416015625 126 L 713.1416015625 116 L 713.1416015625 48" stroke-miterlimit="10"/></g><g transform="translate(-6,-38) scale(1,1)"><g><path fill="none" stroke="none"/><text fill="#000000" stroke="none" font-family="Arial" font-size="13px" font-style="normal" font-weight="bold" text-decoration="none" x="470.224609375" y="77.5">kubernates_cluster_in_cloud_provider</text></g></g><g transform="translate(-6,-38) scale(1,1)"><path fill="none" stroke="#000000" d="M 309 239 L 510 128" stroke-miterlimit="10" stroke-dasharray="3"/></g><g transform="translate(-6,-38) scale(1,1)"><path fill="none" stroke="#000000" d="M 503.13870245001357 136.59782506978073 L 510 128 L 499.06874956436826 129.22791038496362" stroke-miterlimit="10"/></g><g transform="translate(-6,-38) scale(1,1)"><g><path fill="none" stroke="none"/><text fill="#000000" stroke="none" font-family="Arial" font-size="13px" font-style="normal" font-weight="normal" text-decoration="none" x="367.5" y="162.5">«deploy»</text></g></g><g transform="translate(-6,-38) scale(1,1)"><path fill="none" stroke="#000000" d="M 504 295 L 569 128" stroke-miterlimit="10" stroke-dasharray="3"/></g><g transform="translate(-6,-38) scale(1,1)"><path fill="none" stroke="#000000" d="M 569.2366891817394 138.99745326115314 L 569 128 L 561.390990748698 135.9437383021849" stroke-miterlimit="10"/></g><g transform="translate(-6,-38) scale(1,1)"><g><path fill="none" stroke="none"/><text fill="#000000" stroke="none" font-family="Arial" font-size="13px" font-style="normal" font-weight="normal" text-decoration="none" x="481.5" y="205.5">«deploy»</text></g></g><g transform="translate(-6,-38) scale(1,1)"><path fill="none" stroke="#000000" d="M 736 311 L 613 128" stroke-miterlimit="10" stroke-dasharray="3"/></g><g transform="translate(-6,-38) scale(1,1)"><path fill="none" stroke="#000000" d="M 622.1628004823656 134.08630325570135 L 613 128 L 615.1754120512759 138.78274466020426" stroke-miterlimit="10"/></g><g transform="translate(-6,-38) scale(1,1)"><g><path fill="none" stroke="none"/><text fill="#000000" stroke="none" font-family="Arial" font-size="13px" font-style="normal" font-weight="normal" text-decoration="none" x="622.5" y="241.5">«deploy»</text></g></g><g transform="translate(-6,-38) scale(1,1)"><path fill="#C0C0C0" stroke="none" d="M 175 297 L 252 297 L 252 330 L 175 330" opacity="0.2"/></g><g transform="translate(-6,-38) scale(1,1)"><path fill="#C0C0C0" stroke="none" d="M 175 297 L 185 287 L 262 287 L 252 297" opacity="0.2"/></g><g transform="translate(-6,-38) scale(1,1)"><path fill="#C0C0C0" stroke="none" d="M 262 287 L 252 297 L 252 330 L 262 320" opacity="0.2"/></g><g transform="translate(-6,-38) scale(1,1)"><path fill="#ffffff" stroke="none" d="M 168 290 L 245 290 L 245 323 L 168 323"/></g><g transform="translate(-6,-38) scale(1,1)"><path fill="#ffffff" stroke="none" d="M 168 290 L 178 280 L 255 280 L 245 290"/></g><g transform="translate(-6,-38) scale(1,1)"><path fill="#ffffff" stroke="none" d="M 255 280 L 245 290 L 245 323 L 255 313"/></g><g transform="translate(-6,-38) scale(1,1)"><path fill="none" stroke="#000000" d="M 168 290 L 245 290 L 245 323 L 168 323 L 168 290" stroke-miterlimit="10"/></g><g transform="translate(-6,-38) scale(1,1)"><path fill="none" stroke="#000000" d="M 168 290 L 178 280 L 255 280 L 245 290 L 168 290" stroke-miterlimit="10"/></g><g transform="translate(-6,-38) scale(1,1)"><path fill="none" stroke="#000000" d="M 255 280 L 245 290 L 245 323 L 255 313 L 255 280" stroke-miterlimit="10"/></g><g transform="translate(-6,-38) scale(1,1)"><g><path fill="none" stroke="none"/><text fill="#000000" stroke="none" font-family="Arial" font-size="13px" font-style="normal" font-weight="bold" text-decoration="none" x="191.4609375" y="309.5">nginx</text></g></g><g transform="translate(-6,-38) scale(1,1)"><path fill="#C0C0C0" stroke="none" d="M 759 369 L 806.72998046875 369 L 806.72998046875 402 L 759 402" opacity="0.2"/></g><g transform="translate(-6,-38) scale(1,1)"><path fill="#C0C0C0" stroke="none" d="M 759 369 L 769 359 L 816.72998046875 359 L 806.72998046875 369" opacity="0.2"/></g><g transform="translate(-6,-38) scale(1,1)"><path fill="#C0C0C0" stroke="none" d="M 816.72998046875 359 L 806.72998046875 369 L 806.72998046875 402 L 816.72998046875 392" opacity="0.2"/></g><g transform="translate(-6,-38) scale(1,1)"><path fill="#ffffff" stroke="none" d="M 752 362 L 799.72998046875 362 L 799.72998046875 395 L 752 395"/></g><g transform="translate(-6,-38) scale(1,1)"><path fill="#ffffff" stroke="none" d="M 752 362 L 762 352 L 809.72998046875 352 L 799.72998046875 362"/></g><g transform="translate(-6,-38) scale(1,1)"><path fill="#ffffff" stroke="none" d="M 809.72998046875 352 L 799.72998046875 362 L 799.72998046875 395 L 809.72998046875 385"/></g><g transform="translate(-6,-38) scale(1,1)"><path fill="none" stroke="#000000" d="M 752 362 L 799.72998046875 362 L 799.72998046875 395 L 752 395 L 752 362" stroke-miterlimit="10"/></g><g transform="translate(-6,-38) scale(1,1)"><path fill="none" stroke="#000000" d="M 752 362 L 762 352 L 809.72998046875 352 L 799.72998046875 362 L 752 362" stroke-miterlimit="10"/></g><g transform="translate(-6,-38) scale(1,1)"><path fill="none" stroke="#000000" d="M 809.72998046875 352 L 799.72998046875 362 L 799.72998046875 395 L 809.72998046875 385 L 809.72998046875 352" stroke-miterlimit="10"/></g><g transform="translate(-6,-38) scale(1,1)"><g><path fill="none" stroke="none"/><text fill="#000000" stroke="none" font-family="Arial" font-size="13px" font-style="normal" font-weight="bold" text-decoration="none" x="759.391357421875" y="381.5">mysql</text></g></g><g transform="translate(-6,-38) scale(1,1)"><path fill="#ffffff" stroke="none" d="M 336 640 L 845 640 L 855 650 L 855 743 L 336 743 L 336 640"/></g><g transform="translate(-6,-38) scale(1,1)"><path fill="none" stroke="#000000" d="M 336 640 L 845 640 L 855 650 L 855 743 L 336 743 L 336 640 L 336 640" stroke-miterlimit="10"/></g><g transform="translate(-6,-38) scale(1,1)"><path fill="none" stroke="#000000" d="M 845 640 L 845 650 L 855 650 L 845 640" stroke-miterlimit="10"/></g><g transform="translate(-6,-38) scale(1,1)"><g><path fill="none" stroke="none"/><text fill="#000000" stroke="none" font-family="Arial" font-size="13px" font-style="normal" font-weight="normal" text-decoration="none" x="341" y="658">chaque partie (front-end , backend , database) développée est intégrée dans un des</text><text fill="#000000" stroke="none" font-family="Arial" font-size="13px" font-style="normal" font-weight="normal" text-decoration="none" x="341" y="671">conteneurs dockers prêts à être déployés en production (dans un cluster kubernates ou</text><text fill="#000000" stroke="none" font-family="Arial" font-size="13px" font-style="normal" font-weight="normal" text-decoration="none" x="341" y="684">bien sur un simple pc linux) .</text></g></g><g transform="translate(-6,-38) scale(1,1)"><g><path fill="none" stroke="none"/><text fill="#000000" stroke="none" font-family="Arial" font-size="13px" font-style="normal" font-weight="normal" text-decoration="none" x="341" y="699">Dans le détails , via un script "Dockerfile" , on part d'une image docker prédéfinie (ex:</text><text fill="#000000" stroke="none" font-family="Arial" font-size="13px" font-style="normal" font-weight="normal" text-decoration="none" x="341" y="712">avec java8) et on ajoute le code de l'application (ex: bibliothequeSpringBoot.jar) et en</text><text fill="#000000" stroke="none" font-family="Arial" font-size="13px" font-style="normal" font-weight="normal" text-decoration="none" x="341" y="725">lançant une commande docker cela construit une image encrichie prête à être déployé</text><text fill="#000000" stroke="none" font-family="Arial" font-size="13px" font-style="normal" font-weight="normal" text-decoration="none" x="341" y="738">en production .</text></g></g><g transform="translate(-6,-38) scale(1,1)"><path fill="#C0C0C0" stroke="none" d="M 465.916845703125 351 L 493.356845703125 351 L 505.11684570312497 362.76 L 505.11684570312497 400 L 465.916845703125 400" opacity="0.2"/></g><g transform="translate(-6,-38) scale(1,1)"><path fill="#ffffff" stroke="none" d="M 458.916845703125 344 L 486.35684570312503 344 L 498.116845703125 355.76 L 498.116845703125 393 L 458.916845703125 393"/></g><g transform="translate(-6,-38) scale(1,1)"><path fill="none" stroke="#000000" d="M 458.916845703125 344 L 486.35684570312503 344 L 498.116845703125 355.76 L 498.116845703125 393 L 458.916845703125 393 L 458.916845703125 344" stroke-miterlimit="10"/></g><g transform="translate(-6,-38) scale(1,1)"><path fill="none" stroke="#000000" d="M 486.35684570312503 344 L 486.35684570312503 355.76 L 498.116845703125 355.76 L 486.35684570312503 344" stroke-miterlimit="10"/></g><g transform="translate(-6,-38) scale(1,1)"><g><path fill="none" stroke="none"/><text fill="#000000" stroke="none" font-family="Arial" font-size="13px" font-style="normal" font-weight="bold" text-decoration="none" x="411.29833984375" y="412.5">bibliothequeSpringBoot</text><path fill="none" stroke="#000000" d="M 552.53369140625 412.5 L 404.5 412.5" stroke-miterlimit="10"/></g></g><g transform="translate(-6,-38) scale(1,1)"><path fill="#ffffff" stroke="none" d="M 24 608 L 309 608 L 319 618 L 319 752 L 24 752 L 24 608"/></g><g transform="translate(-6,-38) scale(1,1)"><path fill="none" stroke="#000000" d="M 24 608 L 309 608 L 319 618 L 319 752 L 24 752 L 24 608 L 24 608" stroke-miterlimit="10"/></g><g transform="translate(-6,-38) scale(1,1)"><path fill="none" stroke="#000000" d="M 309 608 L 309 618 L 319 618 L 309 608" stroke-miterlimit="10"/></g><g transform="translate(-6,-38) scale(1,1)"><g><path fill="none" stroke="none"/><text fill="#000000" stroke="none" font-family="Arial" font-size="13px" font-style="normal" font-weight="normal" text-decoration="none" x="29" y="626">Le code (html/css/javascript) de la partie</text><text fill="#000000" stroke="none" font-family="Arial" font-size="13px" font-style="normal" font-weight="normal" text-decoration="none" x="29" y="639">front-end est déposé sur le serveur HTTP "nginx"</text></g></g><g transform="translate(-6,-38) scale(1,1)"><g><path fill="none" stroke="none"/><text fill="#000000" stroke="none" font-family="Arial" font-size="13px" font-style="normal" font-weight="normal" text-decoration="none" x="29" y="654">pour pouvoir être téléchargé tel quel sur les</text><text fill="#000000" stroke="none" font-family="Arial" font-size="13px" font-style="normal" font-weight="normal" text-decoration="none" x="29" y="667">navigateurs de tous les clients.</text></g></g><g transform="translate(-6,-38) scale(1,1)"><g><path fill="none" stroke="none"/><text fill="#000000" stroke="none" font-family="Arial" font-size="13px" font-style="normal" font-weight="normal" text-decoration="none" x="29" y="682">Via un paramétrage de redirection de certaines</text><text fill="#000000" stroke="none" font-family="Arial" font-size="13px" font-style="normal" font-weight="normal" text-decoration="none" x="29" y="695">requêtes (reverse-proxy) , les appels </text><text fill="#000000" stroke="none" font-family="Arial" font-size="13px" font-style="normal" font-weight="normal" text-decoration="none" x="29" y="708">navigateurs/ajax vers les WebServices REST</text><text fill="#000000" stroke="none" font-family="Arial" font-size="13px" font-style="normal" font-weight="normal" text-decoration="none" x="29" y="721">seront reroutés de nginx vers l'application</text><text fill="#000000" stroke="none" font-family="Arial" font-size="13px" font-style="normal" font-weight="normal" text-decoration="none" x="29" y="734">bibliothèqueSpringBoot.jar (backend)</text></g></g></g></svg>