<svg version="1.1" xmlns="http://www.w3.org/2000/svg" xmlns:xlink="http://www.w3.org/1999/xlink" width="709.32275390625" height="419"><defs/><g><text fill="#eeeeee" stroke="none" font-family="Arial" font-size="24px" font-style="normal" font-weight="normal" text-decoration="none" x="0" y="0">UNREGISTERED</text><text fill="#eeeeee" stroke="none" font-family="Arial" font-size="24px" font-style="normal" font-weight="normal" text-decoration="none" x="0" y="30">UNREGISTERED</text><text fill="#eeeeee" stroke="none" font-family="Arial" font-size="24px" font-style="normal" font-weight="normal" text-decoration="none" x="0" y="60">UNREGISTERED</text><text fill="#eeeeee" stroke="none" font-family="Arial" font-size="24px" font-style="normal" font-weight="normal" text-decoration="none" x="0" y="90">UNREGISTERED</text><text fill="#eeeeee" stroke="none" font-family="Arial" font-size="24px" font-style="normal" font-weight="normal" text-decoration="none" x="0" y="120">UNREGISTERED</text><text fill="#eeeeee" stroke="none" font-family="Arial" font-size="24px" font-style="normal" font-weight="normal" text-decoration="none" x="0" y="150">UNREGISTERED</text><text fill="#eeeeee" stroke="none" font-family="Arial" font-size="24px" font-style="normal" font-weight="normal" text-decoration="none" x="0" y="180">UNREGISTERED</text><text fill="#eeeeee" stroke="none" font-family="Arial" font-size="24px" font-style="normal" font-weight="normal" text-decoration="none" x="0" y="210">UNREGISTERED</text><text fill="#eeeeee" stroke="none" font-family="Arial" font-size="24px" font-style="normal" font-weight="normal" text-decoration="none" x="0" y="240">UNREGISTERED</text><text fill="#eeeeee" stroke="none" font-family="Arial" font-size="24px" font-style="normal" font-weight="normal" text-decoration="none" x="0" y="270">UNREGISTERED</text><text fill="#eeeeee" stroke="none" font-family="Arial" font-size="24px" font-style="normal" font-weight="normal" text-decoration="none" x="0" y="300">UNREGISTERED</text><text fill="#eeeeee" stroke="none" font-family="Arial" font-size="24px" font-style="normal" font-weight="normal" text-decoration="none" x="0" y="330">UNREGISTERED</text><text fill="#eeeeee" stroke="none" font-family="Arial" font-size="24px" font-style="normal" font-weight="normal" text-decoration="none" x="0" y="360">UNREGISTERED</text><text fill="#eeeeee" stroke="none" font-family="Arial" font-size="24px" font-style="normal" font-weight="normal" text-decoration="none" x="0" y="390">UNREGISTERED</text><text fill="#eeeeee" stroke="none" font-family="Arial" font-size="24px" font-style="normal" font-weight="normal" text-decoration="none" x="200" y="0">UNREGISTERED</text><text fill="#eeeeee" stroke="none" font-family="Arial" font-size="24px" font-style="normal" font-weight="normal" text-decoration="none" x="200" y="30">UNREGISTERED</text><text fill="#eeeeee" stroke="none" font-family="Arial" font-size="24px" font-style="normal" font-weight="normal" text-decoration="none" x="200" y="60">UNREGISTERED</text><text fill="#eeeeee" stroke="none" font-family="Arial" font-size="24px" font-style="normal" font-weight="normal" text-decoration="none" x="200" y="90">UNREGISTERED</text><text fill="#eeeeee" stroke="none" font-family="Arial" font-size="24px" font-style="normal" font-weight="normal" text-decoration="none" x="200" y="120">UNREGISTERED</text><text fill="#eeeeee" stroke="none" font-family="Arial" font-size="24px" font-style="normal" font-weight="normal" text-decoration="none" x="200" y="150">UNREGISTERED</text><text fill="#eeeeee" stroke="none" font-family="Arial" font-size="24px" font-style="normal" font-weight="normal" text-decoration="none" x="200" y="180">UNREGISTERED</text><text fill="#eeeeee" stroke="none" font-family="Arial" font-size="24px" font-style="normal" font-weight="normal" text-decoration="none" x="200" y="210">UNREGISTERED</text><text fill="#eeeeee" stroke="none" font-family="Arial" font-size="24px" font-style="normal" font-weight="normal" text-decoration="none" x="200" y="240">UNREGISTERED</text><text fill="#eeeeee" stroke="none" font-family="Arial" font-size="24px" font-style="normal" font-weight="normal" text-decoration="none" x="200" y="270">UNREGISTERED</text><text fill="#eeeeee" stroke="none" font-family="Arial" font-size="24px" font-style="normal" font-weight="normal" text-decoration="none" x="200" y="300">UNREGISTERED</text><text fill="#eeeeee" stroke="none" font-family="Arial" font-size="24px" font-style="normal" font-weight="normal" text-decoration="none" x="200" y="330">UNREGISTERED</text><text fill="#eeeeee" stroke="none" font-family="Arial" font-size="24px" font-style="normal" font-weight="normal" text-decoration="none" x="200" y="360">UNREGISTERED</text><text fill="#eeeeee" stroke="none" font-family="Arial" font-size="24px" font-style="normal" font-weight="normal" text-decoration="none" x="200" y="390">UNREGISTERED</text><text fill="#eeeeee" stroke="none" font-family="Arial" font-size="24px" font-style="normal" font-weight="normal" text-decoration="none" x="400" y="0">UNREGISTERED</text><text fill="#eeeeee" stroke="none" font-family="Arial" font-size="24px" font-style="normal" font-weight="normal" text-decoration="none" x="400" y="30">UNREGISTERED</text><text fill="#eeeeee" stroke="none" font-family="Arial" font-size="24px" font-style="normal" font-weight="normal" text-decoration="none" x="400" y="60">UNREGISTERED</text><text fill="#eeeeee" stroke="none" font-family="Arial" font-size="24px" font-style="normal" font-weight="normal" text-decoration="none" x="400" y="90">UNREGISTERED</text><text fill="#eeeeee" stroke="none" font-family="Arial" font-size="24px" font-style="normal" font-weight="normal" text-decoration="none" x="400" y="120">UNREGISTERED</text><text fill="#eeeeee" stroke="none" font-family="Arial" font-size="24px" font-style="normal" font-weight="normal" text-decoration="none" x="400" y="150">UNREGISTERED</text><text fill="#eeeeee" stroke="none" font-family="Arial" font-size="24px" font-style="normal" font-weight="normal" text-decoration="none" x="400" y="180">UNREGISTERED</text><text fill="#eeeeee" stroke="none" font-family="Arial" font-size="24px" font-style="normal" font-weight="normal" text-decoration="none" x="400" y="210">UNREGISTERED</text><text fill="#eeeeee" stroke="none" font-family="Arial" font-size="24px" font-style="normal" font-weight="normal" text-decoration="none" x="400" y="240">UNREGISTERED</text><text fill="#eeeeee" stroke="none" font-family="Arial" font-size="24px" font-style="normal" font-weight="normal" text-decoration="none" x="400" y="270">UNREGISTERED</text><text fill="#eeeeee" stroke="none" font-family="Arial" font-size="24px" font-style="normal" font-weight="normal" text-decoration="none" x="400" y="300">UNREGISTERED</text><text fill="#eeeeee" stroke="none" font-family="Arial" font-size="24px" font-style="normal" font-weight="normal" text-decoration="none" x="400" y="330">UNREGISTERED</text><text fill="#eeeeee" stroke="none" font-family="Arial" font-size="24px" font-style="normal" font-weight="normal" text-decoration="none" x="400" y="360">UNREGISTERED</text><text fill="#eeeeee" stroke="none" font-family="Arial" font-size="24px" font-style="normal" font-weight="normal" text-decoration="none" x="400" y="390">UNREGISTERED</text><text fill="#eeeeee" stroke="none" font-family="Arial" font-size="24px" font-style="normal" font-weight="normal" text-decoration="none" x="600" y="0">UNREGISTERED</text><text fill="#eeeeee" stroke="none" font-family="Arial" font-size="24px" font-style="normal" font-weight="normal" text-decoration="none" x="600" y="30">UNREGISTERED</text><text fill="#eeeeee" stroke="none" font-family="Arial" font-size="24px" font-style="normal" font-weight="normal" text-decoration="none" x="600" y="60">UNREGISTERED</text><text fill="#eeeeee" stroke="none" font-family="Arial" font-size="24px" font-style="normal" font-weight="normal" text-decoration="none" x="600" y="90">UNREGISTERED</text><text fill="#eeeeee" stroke="none" font-family="Arial" font-size="24px" font-style="normal" font-weight="normal" text-decoration="none" x="600" y="120">UNREGISTERED</text><text fill="#eeeeee" stroke="none" font-family="Arial" font-size="24px" font-style="normal" font-weight="normal" text-decoration="none" x="600" y="150">UNREGISTERED</text><text fill="#eeeeee" stroke="none" font-family="Arial" font-size="24px" font-style="normal" font-weight="normal" text-decoration="none" x="600" y="180">UNREGISTERED</text><text fill="#eeeeee" stroke="none" font-family="Arial" font-size="24px" font-style="normal" font-weight="normal" text-decoration="none" x="600" y="210">UNREGISTERED</text><text fill="#eeeeee" stroke="none" font-family="Arial" font-size="24px" font-style="normal" font-weight="normal" text-decoration="none" x="600" y="240">UNREGISTERED</text><text fill="#eeeeee" stroke="none" font-family="Arial" font-size="24px" font-style="normal" font-weight="normal" text-decoration="none" x="600" y="270">UNREGISTERED</text><text fill="#eeeeee" stroke="none" font-family="Arial" font-size="24px" font-style="normal" font-weight="normal" text-decoration="none" x="600" y="300">UNREGISTERED</text><text fill="#eeeeee" stroke="none" font-family="Arial" font-size="24px" font-style="normal" font-weight="normal" text-decoration="none" x="600" y="330">UNREGISTERED</text><text fill="#eeeeee" stroke="none" font-family="Arial" font-size="24px" font-style="normal" font-weight="normal" text-decoration="none" x="600" y="360">UNREGISTERED</text><text fill="#eeeeee" stroke="none" font-family="Arial" font-size="24px" font-style="normal" font-weight="normal" text-decoration="none" x="600" y="390">UNREGISTERED</text><g transform="translate(-54,-119) scale(1,1)"><rect fill="#C0C0C0" stroke="none" x="271" y="136" width="328" height="399" opacity="0.2"/></g><g transform="translate(-54,-119) scale(1,1)"><rect fill="#ffffff" stroke="none" x="264" y="129" width="328" height="399"/></g><g transform="translate(-54,-119) scale(1,1)"><path fill="none" stroke="#000000" d="M 264 129 L 592 129 L 592 528 L 264 528 L 264 129 Z Z" stroke-miterlimit="10"/></g><g transform="translate(-54,-119) scale(1,1)"><g><path fill="none" stroke="none"/><text fill="#000000" stroke="none" font-family="Arial" font-size="13px" font-style="normal" font-weight="bold" text-decoration="none" x="375.59375" y="148.5">appli_bibliotheque</text></g></g><g transform="translate(-54,-119) scale(1,1)"><path fill="#ffffff" stroke="none" d="M 142.53386203835228 281.68 C 142.53386203835228 276.886167936 146.41970436329774 273 151.213134765625 273 C 156.00656516795226 273 159.89240749289772 276.886167936 159.89240749289772 281.68 C 159.89240749289772 286.473832064 156.00656516795226 290.36 151.213134765625 290.36 C 146.41970436329774 290.36 142.53386203835228 286.473832064 142.53386203835228 281.68 Z"/></g><g transform="translate(-54,-119) scale(1,1)"><path fill="none" stroke="#000000" d="M 142.53386203835228 281.68 C 142.53386203835228 276.886167936 146.41970436329774 273 151.213134765625 273 C 156.00656516795226 273 159.89240749289772 276.886167936 159.89240749289772 281.68 C 159.89240749289772 286.473832064 156.00656516795226 290.36 151.213134765625 290.36 C 146.41970436329774 290.36 142.53386203835228 286.473832064 142.53386203835228 281.68 Z" stroke-miterlimit="10"/></g><g transform="translate(-54,-119) scale(1,1)"><path fill="none" stroke="#000000" d="M 151.213134765625 290.36 L 151.213134765625 307.64" stroke-miterlimit="10"/></g><g transform="translate(-54,-119) scale(1,1)"><path fill="none" stroke="#000000" d="M 142.02331658380683 296.84 L 160.40295294744317 296.84" stroke-miterlimit="10"/></g><g transform="translate(-54,-119) scale(1,1)"><path fill="none" stroke="#000000" d="M 151.213134765625 307.64 L 138.44949840198865 325" stroke-miterlimit="10"/></g><g transform="translate(-54,-119) scale(1,1)"><path fill="none" stroke="#000000" d="M 151.213134765625 307.64 L 163.97677112926135 325" stroke-miterlimit="10"/></g><g transform="translate(-54,-119) scale(1,1)"><g><path fill="none" stroke="none"/><text fill="#000000" stroke="none" font-family="Arial" font-size="13px" font-style="normal" font-weight="bold" text-decoration="none" x="73.5146484375" y="345.5">Responsable_abonnement</text></g></g><g transform="translate(-54,-119) scale(1,1)"><path fill="#C0C0C0" stroke="none" d="M 351 240 C 351 230.6111584 384.57864 223 426 223 C 467.42136 223 501 230.6111584 501 240 C 501 249.3888416 467.42136 257 426 257 C 384.57864 257 351 249.3888416 351 240 Z" opacity="0.2"/></g><g transform="translate(-54,-119) scale(1,1)"><path fill="#ffffff" stroke="none" d="M 344 233 C 344 223.6111584 377.57864 216 419 216 C 460.42136 216 494 223.6111584 494 233 C 494 242.3888416 460.42136 250 419 250 C 377.57864 250 344 242.3888416 344 233 Z"/></g><g transform="translate(-54,-119) scale(1,1)"><path fill="none" stroke="#000000" d="M 344 233 C 344 223.6111584 377.57864 216 419 216 C 460.42136 216 494 223.6111584 494 233 C 494 242.3888416 460.42136 250 419 250 C 377.57864 250 344 242.3888416 344 233 Z" stroke-miterlimit="10"/></g><g transform="translate(-54,-119) scale(1,1)"><g><path fill="none" stroke="none"/><text fill="#000000" stroke="none" font-family="Arial" font-size="13px" font-style="normal" font-weight="bold" text-decoration="none" x="374.556884765625" y="240">inscrire abonné</text></g></g><g transform="translate(-54,-119) scale(1,1)"><path fill="none" stroke="#000000" d="M 239 285 L 357 251" stroke-miterlimit="10"/></g><g transform="translate(-54,-119) scale(1,1)"><path fill="none" stroke="#000000" d="M 348.4001105295105 257.85870987105915 L 357 251 L 346.06911957794506 249.7688000979791" stroke-miterlimit="10"/></g><g transform="translate(-54,-119) scale(1,1)"><path fill="#C0C0C0" stroke="none" d="M 359 336 C 359 326.6111584 396.3842192 319 442.5 319 C 488.6157808 319 526 326.6111584 526 336 C 526 345.3888416 488.6157808 353 442.5 353 C 396.3842192 353 359 345.3888416 359 336 Z" opacity="0.2"/></g><g transform="translate(-54,-119) scale(1,1)"><path fill="#ffffff" stroke="none" d="M 352 329 C 352 319.6111584 389.3842192 312 435.5 312 C 481.6157808 312 519 319.6111584 519 329 C 519 338.3888416 481.6157808 346 435.5 346 C 389.3842192 346 352 338.3888416 352 329 Z"/></g><g transform="translate(-54,-119) scale(1,1)"><path fill="none" stroke="#000000" d="M 352 329 C 352 319.6111584 389.3842192 312 435.5 312 C 481.6157808 312 519 319.6111584 519 329 C 519 338.3888416 481.6157808 346 435.5 346 C 389.3842192 346 352 338.3888416 352 329 Z" stroke-miterlimit="10"/></g><g transform="translate(-54,-119) scale(1,1)"><g><path fill="none" stroke="none"/><text fill="#000000" stroke="none" font-family="Arial" font-size="13px" font-style="normal" font-weight="bold" text-decoration="none" x="385.274169921875" y="336">gérer contentieux</text></g></g><g transform="translate(-54,-119) scale(1,1)"><path fill="none" stroke="#000000" d="M 239 317 L 351 324" stroke-miterlimit="10"/></g><g transform="translate(-54,-119) scale(1,1)"><path fill="none" stroke="#000000" d="M 340.5945336509049 327.5673898101903 L 351 324 L 341.11969865722506 319.1647497090678" stroke-miterlimit="10"/></g><g transform="translate(-54,-119) scale(1,1)"><path fill="#ffffff" stroke="none" d="M 711.9821042258523 441.68 C 711.9821042258523 436.886167936 715.8679465507977 433 720.661376953125 433 C 725.4548073554523 433 729.3406496803977 436.886167936 729.3406496803977 441.68 C 729.3406496803977 446.473832064 725.4548073554523 450.36 720.661376953125 450.36 C 715.8679465507977 450.36 711.9821042258523 446.473832064 711.9821042258523 441.68 Z"/></g><g transform="translate(-54,-119) scale(1,1)"><path fill="none" stroke="#000000" d="M 711.9821042258523 441.68 C 711.9821042258523 436.886167936 715.8679465507977 433 720.661376953125 433 C 725.4548073554523 433 729.3406496803977 436.886167936 729.3406496803977 441.68 C 729.3406496803977 446.473832064 725.4548073554523 450.36 720.661376953125 450.36 C 715.8679465507977 450.36 711.9821042258523 446.473832064 711.9821042258523 441.68 Z" stroke-miterlimit="10"/></g><g transform="translate(-54,-119) scale(1,1)"><path fill="none" stroke="#000000" d="M 720.661376953125 450.36 L 720.661376953125 467.64" stroke-miterlimit="10"/></g><g transform="translate(-54,-119) scale(1,1)"><path fill="none" stroke="#000000" d="M 711.4715587713068 456.84 L 729.8511951349432 456.84" stroke-miterlimit="10"/></g><g transform="translate(-54,-119) scale(1,1)"><path fill="none" stroke="#000000" d="M 720.661376953125 467.64 L 707.8977405894886 485" stroke-miterlimit="10"/></g><g transform="translate(-54,-119) scale(1,1)"><path fill="none" stroke="#000000" d="M 720.661376953125 467.64 L 733.4250133167614 485" stroke-miterlimit="10"/></g><g transform="translate(-54,-119) scale(1,1)"><g><path fill="none" stroke="none"/><text fill="#000000" stroke="none" font-family="Arial" font-size="13px" font-style="normal" font-weight="bold" text-decoration="none" x="694.635986328125" y="505.5">Abonné?</text></g></g><g transform="translate(-54,-119) scale(1,1)"><path fill="#C0C0C0" stroke="none" d="M 375 478.5 C 375 465.5213072 421.3385232 455 478.5 455 C 535.6614768 455 582 465.5213072 582 478.5 C 582 491.4786928 535.6614768 502 478.5 502 C 421.3385232 502 375 491.4786928 375 478.5 Z" opacity="0.2"/></g><g transform="translate(-54,-119) scale(1,1)"><path fill="#ffffff" stroke="none" d="M 368 471.5 C 368 458.5213072 414.3385232 448 471.5 448 C 528.6614768 448 575 458.5213072 575 471.5 C 575 484.4786928 528.6614768 495 471.5 495 C 414.3385232 495 368 484.4786928 368 471.5 Z"/></g><g transform="translate(-54,-119) scale(1,1)"><path fill="none" stroke="#000000" d="M 368 471.5 C 368 458.5213072 414.3385232 448 471.5 448 C 528.6614768 448 575 458.5213072 575 471.5 C 575 484.4786928 528.6614768 495 471.5 495 C 414.3385232 495 368 484.4786928 368 471.5 Z" stroke-miterlimit="10"/></g><g transform="translate(-54,-119) scale(1,1)"><g><path fill="none" stroke="none"/><text fill="#000000" stroke="none" font-family="Arial" font-size="13px" font-style="normal" font-weight="bold" text-decoration="none" x="412.365234375" y="478.5">effectuer réservation</text></g></g><g transform="translate(-54,-119) scale(1,1)"><path fill="none" stroke="#000000" d="M 687 471 L 576 471" stroke-miterlimit="10"/></g><g transform="translate(-54,-119) scale(1,1)"><path fill="none" stroke="#000000" d="M 586.1626748576241 466.790482243984 L 576 471 L 586.1626748576241 475.209517756016" stroke-miterlimit="10"/></g></g></svg>