<svg version="1.1" xmlns="http://www.w3.org/2000/svg" xmlns:xlink="http://www.w3.org/1999/xlink" width="380" height="244"><defs/><g><text fill="#eeeeee" stroke="none" font-family="Arial" font-size="24px" font-style="normal" font-weight="normal" text-decoration="none" x="0" y="0">UNREGISTERED</text><text fill="#eeeeee" stroke="none" font-family="Arial" font-size="24px" font-style="normal" font-weight="normal" text-decoration="none" x="0" y="30">UNREGISTERED</text><text fill="#eeeeee" stroke="none" font-family="Arial" font-size="24px" font-style="normal" font-weight="normal" text-decoration="none" x="0" y="60">UNREGISTERED</text><text fill="#eeeeee" stroke="none" font-family="Arial" font-size="24px" font-style="normal" font-weight="normal" text-decoration="none" x="0" y="90">UNREGISTERED</text><text fill="#eeeeee" stroke="none" font-family="Arial" font-size="24px" font-style="normal" font-weight="normal" text-decoration="none" x="0" y="120">UNREGISTERED</text><text fill="#eeeeee" stroke="none" font-family="Arial" font-size="24px" font-style="normal" font-weight="normal" text-decoration="none" x="0" y="150">UNREGISTERED</text><text fill="#eeeeee" stroke="none" font-family="Arial" font-size="24px" font-style="normal" font-weight="normal" text-decoration="none" x="0" y="180">UNREGISTERED</text><text fill="#eeeeee" stroke="none" font-family="Arial" font-size="24px" font-style="normal" font-weight="normal" text-decoration="none" x="0" y="210">UNREGISTERED</text><text fill="#eeeeee" stroke="none" font-family="Arial" font-size="24px" font-style="normal" font-weight="normal" text-decoration="none" x="0" y="240">UNREGISTERED</text><text fill="#eeeeee" stroke="none" font-family="Arial" font-size="24px" font-style="normal" font-weight="normal" text-decoration="none" x="200" y="0">UNREGISTERED</text><text fill="#eeeeee" stroke="none" font-family="Arial" font-size="24px" font-style="normal" font-weight="normal" text-decoration="none" x="200" y="30">UNREGISTERED</text><text fill="#eeeeee" stroke="none" font-family="Arial" font-size="24px" font-style="normal" font-weight="normal" text-decoration="none" x="200" y="60">UNREGISTERED</text><text fill="#eeeeee" stroke="none" font-family="Arial" font-size="24px" font-style="normal" font-weight="normal" text-decoration="none" x="200" y="90">UNREGISTERED</text><text fill="#eeeeee" stroke="none" font-family="Arial" font-size="24px" font-style="normal" font-weight="normal" text-decoration="none" x="200" y="120">UNREGISTERED</text><text fill="#eeeeee" stroke="none" font-family="Arial" font-size="24px" font-style="normal" font-weight="normal" text-decoration="none" x="200" y="150">UNREGISTERED</text><text fill="#eeeeee" stroke="none" font-family="Arial" font-size="24px" font-style="normal" font-weight="normal" text-decoration="none" x="200" y="180">UNREGISTERED</text><text fill="#eeeeee" stroke="none" font-family="Arial" font-size="24px" font-style="normal" font-weight="normal" text-decoration="none" x="200" y="210">UNREGISTERED</text><text fill="#eeeeee" stroke="none" font-family="Arial" font-size="24px" font-style="normal" font-weight="normal" text-decoration="none" x="200" y="240">UNREGISTERED</text><g transform="translate(-78,-158) scale(1,1)"><rect fill="#C0C0C0" stroke="none" x="279" y="191" width="70.39999999999998" height="15" opacity="0.2"/></g><g transform="translate(-78,-158) scale(1,1)"><rect fill="#C0C0C0" stroke="none" x="279" y="205" width="176" height="98" opacity="0.2"/></g><g transform="translate(-78,-158) scale(1,1)"><rect fill="#ffffff" stroke="none" x="272" y="199" width="176" height="97"/></g><g transform="translate(-78,-158) scale(1,1)"><path fill="none" stroke="#000000" d="M 272 199 L 448 199 L 448 296 L 272 296 L 272 199 Z Z" stroke-miterlimit="10"/></g><g transform="translate(-78,-158) scale(1,1)"><rect fill="#ffffff" stroke="none" x="272" y="184" width="70.39999999999998" height="15"/></g><g transform="translate(-78,-158) scale(1,1)"><path fill="none" stroke="#000000" d="M 272 184 L 342.4 184 L 342.4 199 L 272 199 L 272 184 Z Z" stroke-miterlimit="10"/></g><g transform="translate(-78,-158) scale(1,1)"><rect fill="#ffffff" stroke="none" x="272" y="198" width="176" height="98"/></g><g transform="translate(-78,-158) scale(1,1)"><path fill="none" stroke="#000000" d="M 272 198 L 448 198 L 448 296 L 272 296 L 272 198 Z Z" stroke-miterlimit="10"/></g><g transform="translate(-78,-158) scale(1,1)"><g><path fill="none" stroke="none"/><text fill="#000000" stroke="none" font-family="Arial" font-size="13px" font-style="normal" font-weight="bold" text-decoration="none" x="333.260498046875" y="218.5">ouvrages</text></g></g><g transform="translate(-78,-158) scale(1,1)"><rect fill="#C0C0C0" stroke="none" x="135" y="319" width="48" height="15" opacity="0.2"/></g><g transform="translate(-78,-158) scale(1,1)"><rect fill="#C0C0C0" stroke="none" x="135" y="333" width="120" height="66" opacity="0.2"/></g><g transform="translate(-78,-158) scale(1,1)"><rect fill="#ffffff" stroke="none" x="128" y="327" width="120" height="65"/></g><g transform="translate(-78,-158) scale(1,1)"><path fill="none" stroke="#000000" d="M 128 327 L 248 327 L 248 392 L 128 392 L 128 327 Z Z" stroke-miterlimit="10"/></g><g transform="translate(-78,-158) scale(1,1)"><rect fill="#ffffff" stroke="none" x="128" y="312" width="48" height="15"/></g><g transform="translate(-78,-158) scale(1,1)"><path fill="none" stroke="#000000" d="M 128 312 L 176 312 L 176 327 L 128 327 L 128 312 Z Z" stroke-miterlimit="10"/></g><g transform="translate(-78,-158) scale(1,1)"><rect fill="#ffffff" stroke="none" x="128" y="326" width="120" height="66"/></g><g transform="translate(-78,-158) scale(1,1)"><path fill="none" stroke="#000000" d="M 128 326 L 248 326 L 248 392 L 128 392 L 128 326 Z Z" stroke-miterlimit="10"/></g><g transform="translate(-78,-158) scale(1,1)"><g><path fill="none" stroke="none"/><text fill="#000000" stroke="none" font-family="Arial" font-size="13px" font-style="normal" font-weight="bold" text-decoration="none" x="163.06005859375" y="346.5">abonnés</text></g></g><g transform="translate(-78,-158) scale(1,1)"><rect fill="#C0C0C0" stroke="none" x="95" y="175" width="41.599999999999994" height="15" opacity="0.2"/></g><g transform="translate(-78,-158) scale(1,1)"><rect fill="#C0C0C0" stroke="none" x="95" y="189" width="104" height="66" opacity="0.2"/></g><g transform="translate(-78,-158) scale(1,1)"><rect fill="#ffffff" stroke="none" x="88" y="183" width="104" height="65"/></g><g transform="translate(-78,-158) scale(1,1)"><path fill="none" stroke="#000000" d="M 88 183 L 192 183 L 192 248 L 88 248 L 88 183 Z Z" stroke-miterlimit="10"/></g><g transform="translate(-78,-158) scale(1,1)"><rect fill="#ffffff" stroke="none" x="88" y="168" width="41.599999999999994" height="15"/></g><g transform="translate(-78,-158) scale(1,1)"><path fill="none" stroke="#000000" d="M 88 168 L 129.6 168 L 129.6 183 L 88 183 L 88 168 Z Z" stroke-miterlimit="10"/></g><g transform="translate(-78,-158) scale(1,1)"><rect fill="#ffffff" stroke="none" x="88" y="182" width="104" height="66"/></g><g transform="translate(-78,-158) scale(1,1)"><path fill="none" stroke="#000000" d="M 88 182 L 192 182 L 192 248 L 88 248 L 88 182 Z Z" stroke-miterlimit="10"/></g><g transform="translate(-78,-158) scale(1,1)"><g><path fill="none" stroke="none"/><text fill="#000000" stroke="none" font-family="Arial" font-size="13px" font-style="normal" font-weight="bold" text-decoration="none" x="112.905029296875" y="202.5">emprunts</text></g></g><g transform="translate(-78,-158) scale(1,1)"><path fill="none" stroke="#000000" d="M 193 216 L 271 227" stroke-miterlimit="10" stroke-dasharray="3"/></g><g transform="translate(-78,-158) scale(1,1)"><path fill="none" stroke="#000000" d="M 260.349067865466 229.74911707017927 L 271 227 L 261.5247343391138 221.41257298431276" stroke-miterlimit="10"/></g><g transform="translate(-78,-158) scale(1,1)"><path fill="none" stroke="#000000" d="M 154 249 L 174 311" stroke-miterlimit="10" stroke-dasharray="3"/></g><g transform="translate(-78,-158) scale(1,1)"><path fill="none" stroke="#000000" d="M 166.87379624224178 302.6204284117317 L 174 311 L 174.88626489227474 300.0357611052695" stroke-miterlimit="10"/></g></g></svg>