<svg version="1.1" xmlns="http://www.w3.org/2000/svg" xmlns:xlink="http://www.w3.org/1999/xlink" width="788" height="346"><defs/><g><text fill="#eeeeee" stroke="none" font-family="Arial" font-size="24px" font-style="normal" font-weight="normal" text-decoration="none" x="0" y="0">UNREGISTERED</text><text fill="#eeeeee" stroke="none" font-family="Arial" font-size="24px" font-style="normal" font-weight="normal" text-decoration="none" x="0" y="30">UNREGISTERED</text><text fill="#eeeeee" stroke="none" font-family="Arial" font-size="24px" font-style="normal" font-weight="normal" text-decoration="none" x="0" y="60">UNREGISTERED</text><text fill="#eeeeee" stroke="none" font-family="Arial" font-size="24px" font-style="normal" font-weight="normal" text-decoration="none" x="0" y="90">UNREGISTERED</text><text fill="#eeeeee" stroke="none" font-family="Arial" font-size="24px" font-style="normal" font-weight="normal" text-decoration="none" x="0" y="120">UNREGISTERED</text><text fill="#eeeeee" stroke="none" font-family="Arial" font-size="24px" font-style="normal" font-weight="normal" text-decoration="none" x="0" y="150">UNREGISTERED</text><text fill="#eeeeee" stroke="none" font-family="Arial" font-size="24px" font-style="normal" font-weight="normal" text-decoration="none" x="0" y="180">UNREGISTERED</text><text fill="#eeeeee" stroke="none" font-family="Arial" font-size="24px" font-style="normal" font-weight="normal" text-decoration="none" x="0" y="210">UNREGISTERED</text><text fill="#eeeeee" stroke="none" font-family="Arial" font-size="24px" font-style="normal" font-weight="normal" text-decoration="none" x="0" y="240">UNREGISTERED</text><text fill="#eeeeee" stroke="none" font-family="Arial" font-size="24px" font-style="normal" font-weight="normal" text-decoration="none" x="0" y="270">UNREGISTERED</text><text fill="#eeeeee" stroke="none" font-family="Arial" font-size="24px" font-style="normal" font-weight="normal" text-decoration="none" x="0" y="300">UNREGISTERED</text><text fill="#eeeeee" stroke="none" font-family="Arial" font-size="24px" font-style="normal" font-weight="normal" text-decoration="none" x="0" y="330">UNREGISTERED</text><text fill="#eeeeee" stroke="none" font-family="Arial" font-size="24px" font-style="normal" font-weight="normal" text-decoration="none" x="200" y="0">UNREGISTERED</text><text fill="#eeeeee" stroke="none" font-family="Arial" font-size="24px" font-style="normal" font-weight="normal" text-decoration="none" x="200" y="30">UNREGISTERED</text><text fill="#eeeeee" stroke="none" font-family="Arial" font-size="24px" font-style="normal" font-weight="normal" text-decoration="none" x="200" y="60">UNREGISTERED</text><text fill="#eeeeee" stroke="none" font-family="Arial" font-size="24px" font-style="normal" font-weight="normal" text-decoration="none" x="200" y="90">UNREGISTERED</text><text fill="#eeeeee" stroke="none" font-family="Arial" font-size="24px" font-style="normal" font-weight="normal" text-decoration="none" x="200" y="120">UNREGISTERED</text><text fill="#eeeeee" stroke="none" font-family="Arial" font-size="24px" font-style="normal" font-weight="normal" text-decoration="none" x="200" y="150">UNREGISTERED</text><text fill="#eeeeee" stroke="none" font-family="Arial" font-size="24px" font-style="normal" font-weight="normal" text-decoration="none" x="200" y="180">UNREGISTERED</text><text fill="#eeeeee" stroke="none" font-family="Arial" font-size="24px" font-style="normal" font-weight="normal" text-decoration="none" x="200" y="210">UNREGISTERED</text><text fill="#eeeeee" stroke="none" font-family="Arial" font-size="24px" font-style="normal" font-weight="normal" text-decoration="none" x="200" y="240">UNREGISTERED</text><text fill="#eeeeee" stroke="none" font-family="Arial" font-size="24px" font-style="normal" font-weight="normal" text-decoration="none" x="200" y="270">UNREGISTERED</text><text fill="#eeeeee" stroke="none" font-family="Arial" font-size="24px" font-style="normal" font-weight="normal" text-decoration="none" x="200" y="300">UNREGISTERED</text><text fill="#eeeeee" stroke="none" font-family="Arial" font-size="24px" font-style="normal" font-weight="normal" text-decoration="none" x="200" y="330">UNREGISTERED</text><text fill="#eeeeee" stroke="none" font-family="Arial" font-size="24px" font-style="normal" font-weight="normal" text-decoration="none" x="400" y="0">UNREGISTERED</text><text fill="#eeeeee" stroke="none" font-family="Arial" font-size="24px" font-style="normal" font-weight="normal" text-decoration="none" x="400" y="30">UNREGISTERED</text><text fill="#eeeeee" stroke="none" font-family="Arial" font-size="24px" font-style="normal" font-weight="normal" text-decoration="none" x="400" y="60">UNREGISTERED</text><text fill="#eeeeee" stroke="none" font-family="Arial" font-size="24px" font-style="normal" font-weight="normal" text-decoration="none" x="400" y="90">UNREGISTERED</text><text fill="#eeeeee" stroke="none" font-family="Arial" font-size="24px" font-style="normal" font-weight="normal" text-decoration="none" x="400" y="120">UNREGISTERED</text><text fill="#eeeeee" stroke="none" font-family="Arial" font-size="24px" font-style="normal" font-weight="normal" text-decoration="none" x="400" y="150">UNREGISTERED</text><text fill="#eeeeee" stroke="none" font-family="Arial" font-size="24px" font-style="normal" font-weight="normal" text-decoration="none" x="400" y="180">UNREGISTERED</text><text fill="#eeeeee" stroke="none" font-family="Arial" font-size="24px" font-style="normal" font-weight="normal" text-decoration="none" x="400" y="210">UNREGISTERED</text><text fill="#eeeeee" stroke="none" font-family="Arial" font-size="24px" font-style="normal" font-weight="normal" text-decoration="none" x="400" y="240">UNREGISTERED</text><text fill="#eeeeee" stroke="none" font-family="Arial" font-size="24px" font-style="normal" font-weight="normal" text-decoration="none" x="400" y="270">UNREGISTERED</text><text fill="#eeeeee" stroke="none" font-family="Arial" font-size="24px" font-style="normal" font-weight="normal" text-decoration="none" x="400" y="300">UNREGISTERED</text><text fill="#eeeeee" stroke="none" font-family="Arial" font-size="24px" font-style="normal" font-weight="normal" text-decoration="none" x="400" y="330">UNREGISTERED</text><text fill="#eeeeee" stroke="none" font-family="Arial" font-size="24px" font-style="normal" font-weight="normal" text-decoration="none" x="600" y="0">UNREGISTERED</text><text fill="#eeeeee" stroke="none" font-family="Arial" font-size="24px" font-style="normal" font-weight="normal" text-decoration="none" x="600" y="30">UNREGISTERED</text><text fill="#eeeeee" stroke="none" font-family="Arial" font-size="24px" font-style="normal" font-weight="normal" text-decoration="none" x="600" y="60">UNREGISTERED</text><text fill="#eeeeee" stroke="none" font-family="Arial" font-size="24px" font-style="normal" font-weight="normal" text-decoration="none" x="600" y="90">UNREGISTERED</text><text fill="#eeeeee" stroke="none" font-family="Arial" font-size="24px" font-style="normal" font-weight="normal" text-decoration="none" x="600" y="120">UNREGISTERED</text><text fill="#eeeeee" stroke="none" font-family="Arial" font-size="24px" font-style="normal" font-weight="normal" text-decoration="none" x="600" y="150">UNREGISTERED</text><text fill="#eeeeee" stroke="none" font-family="Arial" font-size="24px" font-style="normal" font-weight="normal" text-decoration="none" x="600" y="180">UNREGISTERED</text><text fill="#eeeeee" stroke="none" font-family="Arial" font-size="24px" font-style="normal" font-weight="normal" text-decoration="none" x="600" y="210">UNREGISTERED</text><text fill="#eeeeee" stroke="none" font-family="Arial" font-size="24px" font-style="normal" font-weight="normal" text-decoration="none" x="600" y="240">UNREGISTERED</text><text fill="#eeeeee" stroke="none" font-family="Arial" font-size="24px" font-style="normal" font-weight="normal" text-decoration="none" x="600" y="270">UNREGISTERED</text><text fill="#eeeeee" stroke="none" font-family="Arial" font-size="24px" font-style="normal" font-weight="normal" text-decoration="none" x="600" y="300">UNREGISTERED</text><text fill="#eeeeee" stroke="none" font-family="Arial" font-size="24px" font-style="normal" font-weight="normal" text-decoration="none" x="600" y="330">UNREGISTERED</text><g transform="translate(-174,-157) scale(1,1)"><rect fill="#C0C0C0" stroke="none" x="527" y="213" width="79.82080078125" height="100" opacity="0.2"/></g><g transform="translate(-174,-157) scale(1,1)"><rect fill="#ffffff" stroke="none" x="520" y="206" width="79.82080078125" height="100"/></g><g transform="translate(-174,-157) scale(1,1)"><path fill="none" stroke="#000000" d="M 520 206 L 599.82080078125 206 L 599.82080078125 306 L 520 306 L 520 206 Z Z" stroke-miterlimit="10"/></g><g transform="translate(-174,-157) scale(1,1)"><path fill="none" stroke="#000000" d="M 520 244 L 599.82080078125 244" stroke-miterlimit="10"/></g><g transform="translate(-174,-157) scale(1,1)"><path fill="none" stroke="#000000" d="M 520 297 L 599.82080078125 297" stroke-miterlimit="10"/></g><g transform="translate(-174,-157) scale(1,1)"><g><path fill="none" stroke="none"/><text fill="#000000" stroke="none" font-family="Arial" font-size="13px" font-style="normal" font-weight="normal" text-decoration="none" x="537.14453125" y="223.5">«entity»</text></g></g><g transform="translate(-174,-157) scale(1,1)"><g><path fill="none" stroke="none"/><text fill="#000000" stroke="none" font-family="Arial" font-size="13px" font-style="normal" font-weight="bold" text-decoration="none" x="535.344970703125" y="238.5">Emprunt</text></g></g><g transform="translate(-174,-157) scale(1,1)"><g><path fill="none" stroke="none"/><text fill="#000000" stroke="none" font-family="Arial" font-size="13px" font-style="normal" font-weight="normal" text-decoration="none" x="525" y="261.5">-numero {id}</text></g></g><g transform="translate(-174,-157) scale(1,1)"><g><path fill="none" stroke="none"/><text fill="#000000" stroke="none" font-family="Arial" font-size="13px" font-style="normal" font-weight="normal" text-decoration="none" x="525" y="276.5">-dateDebut</text></g></g><g transform="translate(-174,-157) scale(1,1)"><g><path fill="none" stroke="none"/><text fill="#000000" stroke="none" font-family="Arial" font-size="13px" font-style="normal" font-weight="normal" text-decoration="none" x="525" y="291.5">-dateFin</text></g></g><g transform="translate(-174,-157) scale(1,1)"><rect fill="#C0C0C0" stroke="none" x="223" y="199" width="95.72802734375" height="100" opacity="0.2"/></g><g transform="translate(-174,-157) scale(1,1)"><rect fill="#ffffff" stroke="none" x="216" y="192" width="95.72802734375" height="100"/></g><g transform="translate(-174,-157) scale(1,1)"><path fill="none" stroke="#000000" d="M 216 192 L 311.72802734375 192 L 311.72802734375 292 L 216 292 L 216 192 Z Z" stroke-miterlimit="10"/></g><g transform="translate(-174,-157) scale(1,1)"><path fill="none" stroke="#000000" d="M 216 230 L 311.72802734375 230" stroke-miterlimit="10"/></g><g transform="translate(-174,-157) scale(1,1)"><path fill="none" stroke="#000000" d="M 216 283 L 311.72802734375 283" stroke-miterlimit="10"/></g><g transform="translate(-174,-157) scale(1,1)"><g><path fill="none" stroke="none"/><text fill="#000000" stroke="none" font-family="Arial" font-size="13px" font-style="normal" font-weight="normal" text-decoration="none" x="241.09814453125" y="209.5">«entity»</text></g></g><g transform="translate(-174,-157) scale(1,1)"><g><path fill="none" stroke="none"/><text fill="#000000" stroke="none" font-family="Arial" font-size="13px" font-style="normal" font-weight="bold" text-decoration="none" x="229.174072265625" y="224.5">Contentieux</text></g></g><g transform="translate(-174,-157) scale(1,1)"><g><path fill="none" stroke="none"/><text fill="#000000" stroke="none" font-family="Arial" font-size="13px" font-style="normal" font-weight="normal" text-decoration="none" x="221" y="247.5">-numero {id}</text></g></g><g transform="translate(-174,-157) scale(1,1)"><g><path fill="none" stroke="none"/><text fill="#000000" stroke="none" font-family="Arial" font-size="13px" font-style="normal" font-weight="normal" text-decoration="none" x="221" y="262.5">-raison</text></g></g><g transform="translate(-174,-157) scale(1,1)"><g><path fill="none" stroke="none"/><text fill="#000000" stroke="none" font-family="Arial" font-size="13px" font-style="normal" font-weight="normal" text-decoration="none" x="221" y="277.5">-regle: boolean</text></g></g><g transform="translate(-174,-157) scale(1,1)"><path fill="none" stroke="#000000" d="M 313 244 L 519 254" stroke-miterlimit="10"/></g><g transform="translate(-174,-157) scale(1,1)"><g><path fill="none" stroke="none"/><text fill="#000000" stroke="none" font-family="Arial" font-size="13px" font-style="normal" font-weight="normal" text-decoration="none" x="331.220458984375" y="263.5">*</text></g></g><g transform="translate(-174,-157) scale(1,1)"><g><path fill="none" stroke="none"/><text fill="#000000" stroke="none" font-family="Arial" font-size="13px" font-style="normal" font-weight="normal" text-decoration="none" x="492.5" y="271.5">1</text></g></g><g transform="translate(-174,-157) scale(1,1)"><rect fill="#C0C0C0" stroke="none" x="823" y="174" width="136" height="105" opacity="0.2"/></g><g transform="translate(-174,-157) scale(1,1)"><rect fill="#ffffff" stroke="none" x="816" y="167" width="136" height="105"/></g><g transform="translate(-174,-157) scale(1,1)"><path fill="none" stroke="#000000" d="M 816 167 L 952 167 L 952 272 L 816 272 L 816 167 Z Z" stroke-miterlimit="10"/></g><g transform="translate(-174,-157) scale(1,1)"><path fill="none" stroke="#000000" d="M 816 220 L 952 220" stroke-miterlimit="10"/></g><g transform="translate(-174,-157) scale(1,1)"><path fill="none" stroke="#000000" d="M 816 243 L 952 243" stroke-miterlimit="10"/></g><g transform="translate(-174,-157) scale(1,1)"><g><path fill="none" stroke="none"/><text fill="#000000" stroke="none" font-family="Arial" font-size="13px" font-style="normal" font-weight="normal" text-decoration="none" x="861.234130859375" y="184.5">«entity»</text></g></g><g transform="translate(-174,-157) scale(1,1)"><g><path fill="none" stroke="none"/><text fill="#000000" stroke="none" font-family="Arial" font-size="13px" font-style="normal" font-weight="bold" text-decoration="none" x="861.589599609375" y="199.5">Abonné</text></g></g><g transform="translate(-174,-157) scale(1,1)"><g><path fill="none" stroke="none"/><text fill="#000000" stroke="none" font-family="Arial" font-size="13px" font-style="normal" font-weight="normal" text-decoration="none" x="839.925048828125" y="214.5">(from abonnés)</text></g></g><g transform="translate(-174,-157) scale(1,1)"><g><path fill="none" stroke="none"/><text fill="#000000" stroke="none" font-family="Arial" font-size="13px" font-style="normal" font-weight="normal" text-decoration="none" x="821" y="237.5">-numero {id}</text></g></g><g transform="translate(-174,-157) scale(1,1)"><path fill="none" stroke="#000000" d="M 601 251 L 815 227" stroke-miterlimit="10"/></g><g transform="translate(-174,-157) scale(1,1)"><path fill="none" stroke="#000000" d="M 805.3697933967727 232.31593084785325 L 815 227 L 804.4314848557948 223.9493463574663" stroke-miterlimit="10"/></g><g transform="translate(-174,-157) scale(1,1)"><g><path fill="none" stroke="none"/><text fill="#000000" stroke="none" font-family="Arial" font-size="13px" font-style="normal" font-weight="normal" text-decoration="none" x="620.220458984375" y="267.5">*</text></g></g><g transform="translate(-174,-157) scale(1,1)"><g><path fill="none" stroke="none"/><text fill="#000000" stroke="none" font-family="Arial" font-size="13px" font-style="normal" font-weight="normal" text-decoration="none" x="726.5" y="211.5">+emprunteur</text></g></g><g transform="translate(-174,-157) scale(1,1)"><g><path fill="none" stroke="none"/><text fill="#000000" stroke="none" font-family="Arial" font-size="13px" font-style="normal" font-weight="normal" text-decoration="none" x="790.5" y="247.5">1</text></g></g><g transform="translate(-174,-157) scale(1,1)"><rect fill="#C0C0C0" stroke="none" x="415" y="415" width="312.09423828125" height="85" opacity="0.2"/></g><g transform="translate(-174,-157) scale(1,1)"><rect fill="#ffffff" stroke="none" x="408" y="408" width="312.09423828125" height="85"/></g><g transform="translate(-174,-157) scale(1,1)"><path fill="none" stroke="#000000" d="M 408 408 L 720.09423828125 408 L 720.09423828125 493 L 408 493 L 408 408 Z Z" stroke-miterlimit="10"/></g><g transform="translate(-174,-157) scale(1,1)"><path fill="none" stroke="#000000" d="M 408 446 L 720.09423828125 446" stroke-miterlimit="10"/></g><g transform="translate(-174,-157) scale(1,1)"><path fill="none" stroke="#000000" d="M 408 456 L 720.09423828125 456" stroke-miterlimit="10"/></g><g transform="translate(-174,-157) scale(1,1)"><g><path fill="none" stroke="none"/><text fill="#000000" stroke="none" font-family="Arial" font-size="13px" font-style="normal" font-weight="normal" text-decoration="none" x="536.228515625" y="425.5">«service»</text></g></g><g transform="translate(-174,-157) scale(1,1)"><g><path fill="none" stroke="none"/><text fill="#000000" stroke="none" font-family="Arial" font-size="13px" font-style="normal" font-weight="bold" text-decoration="none" x="514.5576171875" y="440.5">ServiceEmprunts</text></g></g><g transform="translate(-174,-157) scale(1,1)"><g><path fill="none" stroke="none"/><text fill="#000000" stroke="none" font-family="Arial" font-size="13px" font-style="normal" font-weight="normal" text-decoration="none" x="413" y="473.5">+calculerNbEmpruntsEncoreAutorisés()</text></g></g><g transform="translate(-174,-157) scale(1,1)"><g><path fill="none" stroke="none"/><text fill="#000000" stroke="none" font-family="Arial" font-size="13px" font-style="normal" font-weight="normal" text-decoration="none" x="413" y="488.5">+verifierAbonnéOkEtCalculerNbEmpruntsAutorises()</text></g></g><g transform="translate(-174,-157) scale(1,1)"><path fill="none" stroke="#000000" d="M 563 407 L 560 307" stroke-miterlimit="10" stroke-dasharray="3"/></g><g transform="translate(-174,-157) scale(1,1)"><path fill="none" stroke="#000000" d="M 564.5123678928647 317.0318759960161 L 560 307 L 556.0971183914476 317.2843334810586" stroke-miterlimit="10"/></g><g transform="translate(-174,-157) scale(1,1)"><rect fill="#C0C0C0" stroke="none" x="191" y="407" width="169.77978515625" height="70" opacity="0.2"/></g><g transform="translate(-174,-157) scale(1,1)"><rect fill="#ffffff" stroke="none" x="184" y="400" width="169.77978515625" height="70"/></g><g transform="translate(-174,-157) scale(1,1)"><path fill="none" stroke="#000000" d="M 184 400 L 353.77978515625 400 L 353.77978515625 470 L 184 470 L 184 400 Z Z" stroke-miterlimit="10"/></g><g transform="translate(-174,-157) scale(1,1)"><path fill="none" stroke="#000000" d="M 184 438 L 353.77978515625 438" stroke-miterlimit="10"/></g><g transform="translate(-174,-157) scale(1,1)"><path fill="none" stroke="#000000" d="M 184 448 L 353.77978515625 448" stroke-miterlimit="10"/></g><g transform="translate(-174,-157) scale(1,1)"><g><path fill="none" stroke="none"/><text fill="#000000" stroke="none" font-family="Arial" font-size="13px" font-style="normal" font-weight="normal" text-decoration="none" x="241.0712890625" y="417.5">«service»</text></g></g><g transform="translate(-174,-157) scale(1,1)"><g><path fill="none" stroke="none"/><text fill="#000000" stroke="none" font-family="Arial" font-size="13px" font-style="normal" font-weight="bold" text-decoration="none" x="212.52587890625" y="432.5">ServiceContentieux</text></g></g><g transform="translate(-174,-157) scale(1,1)"><g><path fill="none" stroke="none"/><text fill="#000000" stroke="none" font-family="Arial" font-size="13px" font-style="normal" font-weight="normal" text-decoration="none" x="189" y="465.5">+verifAbsenceContentieux()</text></g></g><g transform="translate(-174,-157) scale(1,1)"><path fill="none" stroke="#000000" d="M 267 399 L 264 293" stroke-miterlimit="10" stroke-dasharray="3"/></g><g transform="translate(-174,-157) scale(1,1)"><path fill="none" stroke="#000000" d="M 268.4953406130106 303.0395175567861 L 264 293 L 260.07967488695823 303.277696775448" stroke-miterlimit="10"/></g></g></svg>