<svg version="1.1" xmlns="http://www.w3.org/2000/svg" xmlns:xlink="http://www.w3.org/1999/xlink" width="441.603515625" height="480"><defs/><g><text fill="#eeeeee" stroke="none" font-family="Arial" font-size="24px" font-style="normal" font-weight="normal" text-decoration="none" x="0" y="0">UNREGISTERED</text><text fill="#eeeeee" stroke="none" font-family="Arial" font-size="24px" font-style="normal" font-weight="normal" text-decoration="none" x="0" y="30">UNREGISTERED</text><text fill="#eeeeee" stroke="none" font-family="Arial" font-size="24px" font-style="normal" font-weight="normal" text-decoration="none" x="0" y="60">UNREGISTERED</text><text fill="#eeeeee" stroke="none" font-family="Arial" font-size="24px" font-style="normal" font-weight="normal" text-decoration="none" x="0" y="90">UNREGISTERED</text><text fill="#eeeeee" stroke="none" font-family="Arial" font-size="24px" font-style="normal" font-weight="normal" text-decoration="none" x="0" y="120">UNREGISTERED</text><text fill="#eeeeee" stroke="none" font-family="Arial" font-size="24px" font-style="normal" font-weight="normal" text-decoration="none" x="0" y="150">UNREGISTERED</text><text fill="#eeeeee" stroke="none" font-family="Arial" font-size="24px" font-style="normal" font-weight="normal" text-decoration="none" x="0" y="180">UNREGISTERED</text><text fill="#eeeeee" stroke="none" font-family="Arial" font-size="24px" font-style="normal" font-weight="normal" text-decoration="none" x="0" y="210">UNREGISTERED</text><text fill="#eeeeee" stroke="none" font-family="Arial" font-size="24px" font-style="normal" font-weight="normal" text-decoration="none" x="0" y="240">UNREGISTERED</text><text fill="#eeeeee" stroke="none" font-family="Arial" font-size="24px" font-style="normal" font-weight="normal" text-decoration="none" x="0" y="270">UNREGISTERED</text><text fill="#eeeeee" stroke="none" font-family="Arial" font-size="24px" font-style="normal" font-weight="normal" text-decoration="none" x="0" y="300">UNREGISTERED</text><text fill="#eeeeee" stroke="none" font-family="Arial" font-size="24px" font-style="normal" font-weight="normal" text-decoration="none" x="0" y="330">UNREGISTERED</text><text fill="#eeeeee" stroke="none" font-family="Arial" font-size="24px" font-style="normal" font-weight="normal" text-decoration="none" x="0" y="360">UNREGISTERED</text><text fill="#eeeeee" stroke="none" font-family="Arial" font-size="24px" font-style="normal" font-weight="normal" text-decoration="none" x="0" y="390">UNREGISTERED</text><text fill="#eeeeee" stroke="none" font-family="Arial" font-size="24px" font-style="normal" font-weight="normal" text-decoration="none" x="0" y="420">UNREGISTERED</text><text fill="#eeeeee" stroke="none" font-family="Arial" font-size="24px" font-style="normal" font-weight="normal" text-decoration="none" x="0" y="450">UNREGISTERED</text><text fill="#eeeeee" stroke="none" font-family="Arial" font-size="24px" font-style="normal" font-weight="normal" text-decoration="none" x="200" y="0">UNREGISTERED</text><text fill="#eeeeee" stroke="none" font-family="Arial" font-size="24px" font-style="normal" font-weight="normal" text-decoration="none" x="200" y="30">UNREGISTERED</text><text fill="#eeeeee" stroke="none" font-family="Arial" font-size="24px" font-style="normal" font-weight="normal" text-decoration="none" x="200" y="60">UNREGISTERED</text><text fill="#eeeeee" stroke="none" font-family="Arial" font-size="24px" font-style="normal" font-weight="normal" text-decoration="none" x="200" y="90">UNREGISTERED</text><text fill="#eeeeee" stroke="none" font-family="Arial" font-size="24px" font-style="normal" font-weight="normal" text-decoration="none" x="200" y="120">UNREGISTERED</text><text fill="#eeeeee" stroke="none" font-family="Arial" font-size="24px" font-style="normal" font-weight="normal" text-decoration="none" x="200" y="150">UNREGISTERED</text><text fill="#eeeeee" stroke="none" font-family="Arial" font-size="24px" font-style="normal" font-weight="normal" text-decoration="none" x="200" y="180">UNREGISTERED</text><text fill="#eeeeee" stroke="none" font-family="Arial" font-size="24px" font-style="normal" font-weight="normal" text-decoration="none" x="200" y="210">UNREGISTERED</text><text fill="#eeeeee" stroke="none" font-family="Arial" font-size="24px" font-style="normal" font-weight="normal" text-decoration="none" x="200" y="240">UNREGISTERED</text><text fill="#eeeeee" stroke="none" font-family="Arial" font-size="24px" font-style="normal" font-weight="normal" text-decoration="none" x="200" y="270">UNREGISTERED</text><text fill="#eeeeee" stroke="none" font-family="Arial" font-size="24px" font-style="normal" font-weight="normal" text-decoration="none" x="200" y="300">UNREGISTERED</text><text fill="#eeeeee" stroke="none" font-family="Arial" font-size="24px" font-style="normal" font-weight="normal" text-decoration="none" x="200" y="330">UNREGISTERED</text><text fill="#eeeeee" stroke="none" font-family="Arial" font-size="24px" font-style="normal" font-weight="normal" text-decoration="none" x="200" y="360">UNREGISTERED</text><text fill="#eeeeee" stroke="none" font-family="Arial" font-size="24px" font-style="normal" font-weight="normal" text-decoration="none" x="200" y="390">UNREGISTERED</text><text fill="#eeeeee" stroke="none" font-family="Arial" font-size="24px" font-style="normal" font-weight="normal" text-decoration="none" x="200" y="420">UNREGISTERED</text><text fill="#eeeeee" stroke="none" font-family="Arial" font-size="24px" font-style="normal" font-weight="normal" text-decoration="none" x="200" y="450">UNREGISTERED</text><text fill="#eeeeee" stroke="none" font-family="Arial" font-size="24px" font-style="normal" font-weight="normal" text-decoration="none" x="400" y="0">UNREGISTERED</text><text fill="#eeeeee" stroke="none" font-family="Arial" font-size="24px" font-style="normal" font-weight="normal" text-decoration="none" x="400" y="30">UNREGISTERED</text><text fill="#eeeeee" stroke="none" font-family="Arial" font-size="24px" font-style="normal" font-weight="normal" text-decoration="none" x="400" y="60">UNREGISTERED</text><text fill="#eeeeee" stroke="none" font-family="Arial" font-size="24px" font-style="normal" font-weight="normal" text-decoration="none" x="400" y="90">UNREGISTERED</text><text fill="#eeeeee" stroke="none" font-family="Arial" font-size="24px" font-style="normal" font-weight="normal" text-decoration="none" x="400" y="120">UNREGISTERED</text><text fill="#eeeeee" stroke="none" font-family="Arial" font-size="24px" font-style="normal" font-weight="normal" text-decoration="none" x="400" y="150">UNREGISTERED</text><text fill="#eeeeee" stroke="none" font-family="Arial" font-size="24px" font-style="normal" font-weight="normal" text-decoration="none" x="400" y="180">UNREGISTERED</text><text fill="#eeeeee" stroke="none" font-family="Arial" font-size="24px" font-style="normal" font-weight="normal" text-decoration="none" x="400" y="210">UNREGISTERED</text><text fill="#eeeeee" stroke="none" font-family="Arial" font-size="24px" font-style="normal" font-weight="normal" text-decoration="none" x="400" y="240">UNREGISTERED</text><text fill="#eeeeee" stroke="none" font-family="Arial" font-size="24px" font-style="normal" font-weight="normal" text-decoration="none" x="400" y="270">UNREGISTERED</text><text fill="#eeeeee" stroke="none" font-family="Arial" font-size="24px" font-style="normal" font-weight="normal" text-decoration="none" x="400" y="300">UNREGISTERED</text><text fill="#eeeeee" stroke="none" font-family="Arial" font-size="24px" font-style="normal" font-weight="normal" text-decoration="none" x="400" y="330">UNREGISTERED</text><text fill="#eeeeee" stroke="none" font-family="Arial" font-size="24px" font-style="normal" font-weight="normal" text-decoration="none" x="400" y="360">UNREGISTERED</text><text fill="#eeeeee" stroke="none" font-family="Arial" font-size="24px" font-style="normal" font-weight="normal" text-decoration="none" x="400" y="390">UNREGISTERED</text><text fill="#eeeeee" stroke="none" font-family="Arial" font-size="24px" font-style="normal" font-weight="normal" text-decoration="none" x="400" y="420">UNREGISTERED</text><text fill="#eeeeee" stroke="none" font-family="Arial" font-size="24px" font-style="normal" font-weight="normal" text-decoration="none" x="400" y="450">UNREGISTERED</text><g transform="translate(-192,-70) scale(1,1)"><rect fill="#C0C0C0" stroke="none" x="432" y="231" width="197.59521484375" height="100" opacity="0.2"/></g><g transform="translate(-192,-70) scale(1,1)"><rect fill="#ffffff" stroke="none" x="425" y="224" width="197.59521484375" height="100"/></g><g transform="translate(-192,-70) scale(1,1)"><path fill="none" stroke="#000000" d="M 425 224 L 622.59521484375 224 L 622.59521484375 324 L 425 324 L 425 224 Z Z" stroke-miterlimit="10"/></g><g transform="translate(-192,-70) scale(1,1)"><path fill="none" stroke="#000000" d="M 425 262 L 622.59521484375 262" stroke-miterlimit="10"/></g><g transform="translate(-192,-70) scale(1,1)"><path fill="none" stroke="#000000" d="M 425 315 L 622.59521484375 315" stroke-miterlimit="10"/></g><g transform="translate(-192,-70) scale(1,1)"><g><path fill="none" stroke="none"/><text fill="#000000" stroke="none" font-family="Arial" font-size="13px" font-style="normal" font-weight="normal" text-decoration="none" x="501.03173828125" y="241.5">«entity»</text></g></g><g transform="translate(-192,-70) scale(1,1)"><g><path fill="none" stroke="none"/><text fill="#000000" stroke="none" font-family="Arial" font-size="13px" font-style="normal" font-weight="bold" text-decoration="none" x="491.284912109375" y="256.5">Exemplaire</text></g></g><g transform="translate(-192,-70) scale(1,1)"><g><path fill="none" stroke="none"/><text fill="#000000" stroke="none" font-family="Arial" font-size="13px" font-style="normal" font-weight="normal" text-decoration="none" x="430" y="279.5">-numero {id}</text></g></g><g transform="translate(-192,-70) scale(1,1)"><g><path fill="none" stroke="none"/><text fill="#000000" stroke="none" font-family="Arial" font-size="13px" font-style="normal" font-weight="normal" text-decoration="none" x="430" y="294.5">-etatPhysique: Etats_Exemplaire</text></g></g><g transform="translate(-192,-70) scale(1,1)"><g><path fill="none" stroke="none"/><text fill="#000000" stroke="none" font-family="Arial" font-size="13px" font-style="normal" font-weight="normal" text-decoration="none" x="430" y="309.5">-usage: Usages_Exemplaire</text></g></g><g transform="translate(-192,-70) scale(1,1)"><rect fill="#C0C0C0" stroke="none" x="545" y="432" width="85.603515625" height="115" opacity="0.2"/></g><g transform="translate(-192,-70) scale(1,1)"><rect fill="#ffffff" stroke="none" x="538" y="425" width="85.603515625" height="115"/></g><g transform="translate(-192,-70) scale(1,1)"><path fill="none" stroke="#000000" d="M 538 425 L 623.603515625 425 L 623.603515625 540 L 538 540 L 538 425 Z Z" stroke-miterlimit="10"/></g><g transform="translate(-192,-70) scale(1,1)"><path fill="none" stroke="#000000" d="M 538 463 L 623.603515625 463" stroke-miterlimit="10"/></g><g transform="translate(-192,-70) scale(1,1)"><path fill="none" stroke="#000000" d="M 538 531 L 623.603515625 531" stroke-miterlimit="10"/></g><g transform="translate(-192,-70) scale(1,1)"><g><path fill="none" stroke="none"/><text fill="#000000" stroke="none" font-family="Arial" font-size="13px" font-style="normal" font-weight="normal" text-decoration="none" x="558.035888671875" y="442.5">«entity»</text></g></g><g transform="translate(-192,-70) scale(1,1)"><g><path fill="none" stroke="none"/><text fill="#000000" stroke="none" font-family="Arial" font-size="13px" font-style="normal" font-weight="bold" text-decoration="none" x="559.486328125" y="457.5">Oeuvre</text></g></g><g transform="translate(-192,-70) scale(1,1)"><g><path fill="none" stroke="none"/><text fill="#000000" stroke="none" font-family="Arial" font-size="13px" font-style="normal" font-weight="normal" text-decoration="none" x="543" y="480.5">-numIsbn {id}</text></g></g><g transform="translate(-192,-70) scale(1,1)"><g><path fill="none" stroke="none"/><text fill="#000000" stroke="none" font-family="Arial" font-size="13px" font-style="normal" font-weight="normal" text-decoration="none" x="543" y="495.5">-titre</text></g></g><g transform="translate(-192,-70) scale(1,1)"><g><path fill="none" stroke="none"/><text fill="#000000" stroke="none" font-family="Arial" font-size="13px" font-style="normal" font-weight="normal" text-decoration="none" x="543" y="510.5">-auteur</text></g></g><g transform="translate(-192,-70) scale(1,1)"><g><path fill="none" stroke="none"/><text fill="#000000" stroke="none" font-family="Arial" font-size="13px" font-style="normal" font-weight="normal" text-decoration="none" x="543" y="525.5">-editeur</text></g></g><g transform="translate(-192,-70) scale(1,1)"><path fill="none" stroke="#000000" d="M 537 325 L 564 424" stroke-miterlimit="10"/></g><g transform="translate(-192,-70) scale(1,1)"><g><path fill="none" stroke="none"/><text fill="#000000" stroke="none" font-family="Arial" font-size="13px" font-style="normal" font-weight="normal" text-decoration="none" x="527.220458984375" y="355.5">*</text></g></g><g transform="translate(-192,-70) scale(1,1)"><g><path fill="none" stroke="none"/><text fill="#000000" stroke="none" font-family="Arial" font-size="13px" font-style="normal" font-weight="normal" text-decoration="none" x="542.5" y="412.5">1</text></g></g><g transform="translate(-192,-70) scale(1,1)"><rect fill="#C0C0C0" stroke="none" x="226" y="432" width="134.201171875" height="90" opacity="0.2"/></g><g transform="translate(-192,-70) scale(1,1)"><rect fill="#ffffff" stroke="none" x="219" y="425" width="134.201171875" height="90"/></g><g transform="translate(-192,-70) scale(1,1)"><path fill="none" stroke="#000000" d="M 219 425 L 353.201171875 425 L 353.201171875 515 L 219 515 L 219 425 Z Z" stroke-miterlimit="10"/></g><g transform="translate(-192,-70) scale(1,1)"><path fill="none" stroke="#000000" d="M 219 463 L 353.201171875 463" stroke-miterlimit="10"/></g><g transform="translate(-192,-70) scale(1,1)"><g><path fill="none" stroke="none"/><text fill="#000000" stroke="none" font-family="Arial" font-size="13px" font-style="normal" font-weight="normal" text-decoration="none" x="242.736572265625" y="442.5">«enumeration»</text></g></g><g transform="translate(-192,-70) scale(1,1)"><g><path fill="none" stroke="none"/><text fill="#000000" stroke="none" font-family="Arial" font-size="13px" font-style="normal" font-weight="bold" text-decoration="none" x="227.933837890625" y="457.5">Usages_Exemplaire</text></g></g><g transform="translate(-192,-70) scale(1,1)"><g><path fill="none" stroke="none"/><text fill="#000000" stroke="none" font-family="Arial" font-size="13px" font-style="normal" font-weight="normal" text-decoration="none" x="224" y="480.5">DISPONIBLE</text></g></g><g transform="translate(-192,-70) scale(1,1)"><g><path fill="none" stroke="none"/><text fill="#000000" stroke="none" font-family="Arial" font-size="13px" font-style="normal" font-weight="normal" text-decoration="none" x="224" y="495.5">EN_RESTAURATION</text></g></g><g transform="translate(-192,-70) scale(1,1)"><g><path fill="none" stroke="none"/><text fill="#000000" stroke="none" font-family="Arial" font-size="13px" font-style="normal" font-weight="normal" text-decoration="none" x="224" y="510.5">EMPRUNTE</text></g></g><g transform="translate(-192,-70) scale(1,1)"><rect fill="#C0C0C0" stroke="none" x="209" y="293" width="117.392578125" height="90" opacity="0.2"/></g><g transform="translate(-192,-70) scale(1,1)"><rect fill="#ffffff" stroke="none" x="202" y="286" width="117.392578125" height="90"/></g><g transform="translate(-192,-70) scale(1,1)"><path fill="none" stroke="#000000" d="M 202 286 L 319.392578125 286 L 319.392578125 376 L 202 376 L 202 286 Z Z" stroke-miterlimit="10"/></g><g transform="translate(-192,-70) scale(1,1)"><path fill="none" stroke="#000000" d="M 202 324 L 319.392578125 324" stroke-miterlimit="10"/></g><g transform="translate(-192,-70) scale(1,1)"><g><path fill="none" stroke="none"/><text fill="#000000" stroke="none" font-family="Arial" font-size="13px" font-style="normal" font-weight="normal" text-decoration="none" x="217.332275390625" y="303.5">«enumeration»</text></g></g><g transform="translate(-192,-70) scale(1,1)"><g><path fill="none" stroke="none"/><text fill="#000000" stroke="none" font-family="Arial" font-size="13px" font-style="normal" font-weight="bold" text-decoration="none" x="209.75634765625" y="318.5">Etats_Exemplaire</text></g></g><g transform="translate(-192,-70) scale(1,1)"><g><path fill="none" stroke="none"/><text fill="#000000" stroke="none" font-family="Arial" font-size="13px" font-style="normal" font-weight="normal" text-decoration="none" x="207" y="341.5">BON_ETAT</text></g></g><g transform="translate(-192,-70) scale(1,1)"><g><path fill="none" stroke="none"/><text fill="#000000" stroke="none" font-family="Arial" font-size="13px" font-style="normal" font-weight="normal" text-decoration="none" x="207" y="356.5">ABIME</text></g></g><g transform="translate(-192,-70) scale(1,1)"><g><path fill="none" stroke="none"/><text fill="#000000" stroke="none" font-family="Arial" font-size="13px" font-style="normal" font-weight="normal" text-decoration="none" x="207" y="371.5">HS</text></g></g><g transform="translate(-192,-70) scale(1,1)"><rect fill="#C0C0C0" stroke="none" x="319" y="87" width="131.865234375" height="57" opacity="0.2"/></g><g transform="translate(-192,-70) scale(1,1)"><rect fill="#ffffff" stroke="none" x="312" y="80" width="131.865234375" height="57"/></g><g transform="translate(-192,-70) scale(1,1)"><path fill="none" stroke="#000000" d="M 312 80 L 443.865234375 80 L 443.865234375 137 L 312 137 L 312 80 Z Z" stroke-miterlimit="10"/></g><g transform="translate(-192,-70) scale(1,1)"><path fill="none" stroke="#000000" d="M 312 118 L 443.865234375 118" stroke-miterlimit="10"/></g><g transform="translate(-192,-70) scale(1,1)"><path fill="none" stroke="#000000" d="M 312 128 L 443.865234375 128" stroke-miterlimit="10"/></g><g transform="translate(-192,-70) scale(1,1)"><g><path fill="none" stroke="none"/><text fill="#000000" stroke="none" font-family="Arial" font-size="13px" font-style="normal" font-weight="normal" text-decoration="none" x="350.114013671875" y="97.5">«service»</text></g></g><g transform="translate(-192,-70) scale(1,1)"><g><path fill="none" stroke="none"/><text fill="#000000" stroke="none" font-family="Arial" font-size="13px" font-style="normal" font-weight="bold" text-decoration="none" x="320.495849609375" y="112.5">ServiceExemplaires</text></g></g><g transform="translate(-192,-70) scale(1,1)"><path fill="none" stroke="#000000" d="M 403 138 L 478 223" stroke-miterlimit="10" stroke-dasharray="3"/></g><g transform="translate(-192,-70) scale(1,1)"><path fill="none" stroke="#000000" d="M 468.11969865722506 218.1647497090678 L 478 223 L 474.4326101898097 212.5945336509049" stroke-miterlimit="10"/></g></g></svg>