<svg version="1.1" xmlns="http://www.w3.org/2000/svg" xmlns:xlink="http://www.w3.org/1999/xlink" width="747" height="637"><defs/><g><text fill="#eeeeee" stroke="none" font-family="Arial" font-size="24px" font-style="normal" font-weight="normal" text-decoration="none" x="0" y="0">UNREGISTERED</text><text fill="#eeeeee" stroke="none" font-family="Arial" font-size="24px" font-style="normal" font-weight="normal" text-decoration="none" x="0" y="30">UNREGISTERED</text><text fill="#eeeeee" stroke="none" font-family="Arial" font-size="24px" font-style="normal" font-weight="normal" text-decoration="none" x="0" y="60">UNREGISTERED</text><text fill="#eeeeee" stroke="none" font-family="Arial" font-size="24px" font-style="normal" font-weight="normal" text-decoration="none" x="0" y="90">UNREGISTERED</text><text fill="#eeeeee" stroke="none" font-family="Arial" font-size="24px" font-style="normal" font-weight="normal" text-decoration="none" x="0" y="120">UNREGISTERED</text><text fill="#eeeeee" stroke="none" font-family="Arial" font-size="24px" font-style="normal" font-weight="normal" text-decoration="none" x="0" y="150">UNREGISTERED</text><text fill="#eeeeee" stroke="none" font-family="Arial" font-size="24px" font-style="normal" font-weight="normal" text-decoration="none" x="0" y="180">UNREGISTERED</text><text fill="#eeeeee" stroke="none" font-family="Arial" font-size="24px" font-style="normal" font-weight="normal" text-decoration="none" x="0" y="210">UNREGISTERED</text><text fill="#eeeeee" stroke="none" font-family="Arial" font-size="24px" font-style="normal" font-weight="normal" text-decoration="none" x="0" y="240">UNREGISTERED</text><text fill="#eeeeee" stroke="none" font-family="Arial" font-size="24px" font-style="normal" font-weight="normal" text-decoration="none" x="0" y="270">UNREGISTERED</text><text fill="#eeeeee" stroke="none" font-family="Arial" font-size="24px" font-style="normal" font-weight="normal" text-decoration="none" x="0" y="300">UNREGISTERED</text><text fill="#eeeeee" stroke="none" font-family="Arial" font-size="24px" font-style="normal" font-weight="normal" text-decoration="none" x="0" y="330">UNREGISTERED</text><text fill="#eeeeee" stroke="none" font-family="Arial" font-size="24px" font-style="normal" font-weight="normal" text-decoration="none" x="0" y="360">UNREGISTERED</text><text fill="#eeeeee" stroke="none" font-family="Arial" font-size="24px" font-style="normal" font-weight="normal" text-decoration="none" x="0" y="390">UNREGISTERED</text><text fill="#eeeeee" stroke="none" font-family="Arial" font-size="24px" font-style="normal" font-weight="normal" text-decoration="none" x="0" y="420">UNREGISTERED</text><text fill="#eeeeee" stroke="none" font-family="Arial" font-size="24px" font-style="normal" font-weight="normal" text-decoration="none" x="0" y="450">UNREGISTERED</text><text fill="#eeeeee" stroke="none" font-family="Arial" font-size="24px" font-style="normal" font-weight="normal" text-decoration="none" x="0" y="480">UNREGISTERED</text><text fill="#eeeeee" stroke="none" font-family="Arial" font-size="24px" font-style="normal" font-weight="normal" text-decoration="none" x="0" y="510">UNREGISTERED</text><text fill="#eeeeee" stroke="none" font-family="Arial" font-size="24px" font-style="normal" font-weight="normal" text-decoration="none" x="0" y="540">UNREGISTERED</text><text fill="#eeeeee" stroke="none" font-family="Arial" font-size="24px" font-style="normal" font-weight="normal" text-decoration="none" x="0" y="570">UNREGISTERED</text><text fill="#eeeeee" stroke="none" font-family="Arial" font-size="24px" font-style="normal" font-weight="normal" text-decoration="none" x="0" y="600">UNREGISTERED</text><text fill="#eeeeee" stroke="none" font-family="Arial" font-size="24px" font-style="normal" font-weight="normal" text-decoration="none" x="0" y="630">UNREGISTERED</text><text fill="#eeeeee" stroke="none" font-family="Arial" font-size="24px" font-style="normal" font-weight="normal" text-decoration="none" x="200" y="0">UNREGISTERED</text><text fill="#eeeeee" stroke="none" font-family="Arial" font-size="24px" font-style="normal" font-weight="normal" text-decoration="none" x="200" y="30">UNREGISTERED</text><text fill="#eeeeee" stroke="none" font-family="Arial" font-size="24px" font-style="normal" font-weight="normal" text-decoration="none" x="200" y="60">UNREGISTERED</text><text fill="#eeeeee" stroke="none" font-family="Arial" font-size="24px" font-style="normal" font-weight="normal" text-decoration="none" x="200" y="90">UNREGISTERED</text><text fill="#eeeeee" stroke="none" font-family="Arial" font-size="24px" font-style="normal" font-weight="normal" text-decoration="none" x="200" y="120">UNREGISTERED</text><text fill="#eeeeee" stroke="none" font-family="Arial" font-size="24px" font-style="normal" font-weight="normal" text-decoration="none" x="200" y="150">UNREGISTERED</text><text fill="#eeeeee" stroke="none" font-family="Arial" font-size="24px" font-style="normal" font-weight="normal" text-decoration="none" x="200" y="180">UNREGISTERED</text><text fill="#eeeeee" stroke="none" font-family="Arial" font-size="24px" font-style="normal" font-weight="normal" text-decoration="none" x="200" y="210">UNREGISTERED</text><text fill="#eeeeee" stroke="none" font-family="Arial" font-size="24px" font-style="normal" font-weight="normal" text-decoration="none" x="200" y="240">UNREGISTERED</text><text fill="#eeeeee" stroke="none" font-family="Arial" font-size="24px" font-style="normal" font-weight="normal" text-decoration="none" x="200" y="270">UNREGISTERED</text><text fill="#eeeeee" stroke="none" font-family="Arial" font-size="24px" font-style="normal" font-weight="normal" text-decoration="none" x="200" y="300">UNREGISTERED</text><text fill="#eeeeee" stroke="none" font-family="Arial" font-size="24px" font-style="normal" font-weight="normal" text-decoration="none" x="200" y="330">UNREGISTERED</text><text fill="#eeeeee" stroke="none" font-family="Arial" font-size="24px" font-style="normal" font-weight="normal" text-decoration="none" x="200" y="360">UNREGISTERED</text><text fill="#eeeeee" stroke="none" font-family="Arial" font-size="24px" font-style="normal" font-weight="normal" text-decoration="none" x="200" y="390">UNREGISTERED</text><text fill="#eeeeee" stroke="none" font-family="Arial" font-size="24px" font-style="normal" font-weight="normal" text-decoration="none" x="200" y="420">UNREGISTERED</text><text fill="#eeeeee" stroke="none" font-family="Arial" font-size="24px" font-style="normal" font-weight="normal" text-decoration="none" x="200" y="450">UNREGISTERED</text><text fill="#eeeeee" stroke="none" font-family="Arial" font-size="24px" font-style="normal" font-weight="normal" text-decoration="none" x="200" y="480">UNREGISTERED</text><text fill="#eeeeee" stroke="none" font-family="Arial" font-size="24px" font-style="normal" font-weight="normal" text-decoration="none" x="200" y="510">UNREGISTERED</text><text fill="#eeeeee" stroke="none" font-family="Arial" font-size="24px" font-style="normal" font-weight="normal" text-decoration="none" x="200" y="540">UNREGISTERED</text><text fill="#eeeeee" stroke="none" font-family="Arial" font-size="24px" font-style="normal" font-weight="normal" text-decoration="none" x="200" y="570">UNREGISTERED</text><text fill="#eeeeee" stroke="none" font-family="Arial" font-size="24px" font-style="normal" font-weight="normal" text-decoration="none" x="200" y="600">UNREGISTERED</text><text fill="#eeeeee" stroke="none" font-family="Arial" font-size="24px" font-style="normal" font-weight="normal" text-decoration="none" x="200" y="630">UNREGISTERED</text><text fill="#eeeeee" stroke="none" font-family="Arial" font-size="24px" font-style="normal" font-weight="normal" text-decoration="none" x="400" y="0">UNREGISTERED</text><text fill="#eeeeee" stroke="none" font-family="Arial" font-size="24px" font-style="normal" font-weight="normal" text-decoration="none" x="400" y="30">UNREGISTERED</text><text fill="#eeeeee" stroke="none" font-family="Arial" font-size="24px" font-style="normal" font-weight="normal" text-decoration="none" x="400" y="60">UNREGISTERED</text><text fill="#eeeeee" stroke="none" font-family="Arial" font-size="24px" font-style="normal" font-weight="normal" text-decoration="none" x="400" y="90">UNREGISTERED</text><text fill="#eeeeee" stroke="none" font-family="Arial" font-size="24px" font-style="normal" font-weight="normal" text-decoration="none" x="400" y="120">UNREGISTERED</text><text fill="#eeeeee" stroke="none" font-family="Arial" font-size="24px" font-style="normal" font-weight="normal" text-decoration="none" x="400" y="150">UNREGISTERED</text><text fill="#eeeeee" stroke="none" font-family="Arial" font-size="24px" font-style="normal" font-weight="normal" text-decoration="none" x="400" y="180">UNREGISTERED</text><text fill="#eeeeee" stroke="none" font-family="Arial" font-size="24px" font-style="normal" font-weight="normal" text-decoration="none" x="400" y="210">UNREGISTERED</text><text fill="#eeeeee" stroke="none" font-family="Arial" font-size="24px" font-style="normal" font-weight="normal" text-decoration="none" x="400" y="240">UNREGISTERED</text><text fill="#eeeeee" stroke="none" font-family="Arial" font-size="24px" font-style="normal" font-weight="normal" text-decoration="none" x="400" y="270">UNREGISTERED</text><text fill="#eeeeee" stroke="none" font-family="Arial" font-size="24px" font-style="normal" font-weight="normal" text-decoration="none" x="400" y="300">UNREGISTERED</text><text fill="#eeeeee" stroke="none" font-family="Arial" font-size="24px" font-style="normal" font-weight="normal" text-decoration="none" x="400" y="330">UNREGISTERED</text><text fill="#eeeeee" stroke="none" font-family="Arial" font-size="24px" font-style="normal" font-weight="normal" text-decoration="none" x="400" y="360">UNREGISTERED</text><text fill="#eeeeee" stroke="none" font-family="Arial" font-size="24px" font-style="normal" font-weight="normal" text-decoration="none" x="400" y="390">UNREGISTERED</text><text fill="#eeeeee" stroke="none" font-family="Arial" font-size="24px" font-style="normal" font-weight="normal" text-decoration="none" x="400" y="420">UNREGISTERED</text><text fill="#eeeeee" stroke="none" font-family="Arial" font-size="24px" font-style="normal" font-weight="normal" text-decoration="none" x="400" y="450">UNREGISTERED</text><text fill="#eeeeee" stroke="none" font-family="Arial" font-size="24px" font-style="normal" font-weight="normal" text-decoration="none" x="400" y="480">UNREGISTERED</text><text fill="#eeeeee" stroke="none" font-family="Arial" font-size="24px" font-style="normal" font-weight="normal" text-decoration="none" x="400" y="510">UNREGISTERED</text><text fill="#eeeeee" stroke="none" font-family="Arial" font-size="24px" font-style="normal" font-weight="normal" text-decoration="none" x="400" y="540">UNREGISTERED</text><text fill="#eeeeee" stroke="none" font-family="Arial" font-size="24px" font-style="normal" font-weight="normal" text-decoration="none" x="400" y="570">UNREGISTERED</text><text fill="#eeeeee" stroke="none" font-family="Arial" font-size="24px" font-style="normal" font-weight="normal" text-decoration="none" x="400" y="600">UNREGISTERED</text><text fill="#eeeeee" stroke="none" font-family="Arial" font-size="24px" font-style="normal" font-weight="normal" text-decoration="none" x="400" y="630">UNREGISTERED</text><text fill="#eeeeee" stroke="none" font-family="Arial" font-size="24px" font-style="normal" font-weight="normal" text-decoration="none" x="600" y="0">UNREGISTERED</text><text fill="#eeeeee" stroke="none" font-family="Arial" font-size="24px" font-style="normal" font-weight="normal" text-decoration="none" x="600" y="30">UNREGISTERED</text><text fill="#eeeeee" stroke="none" font-family="Arial" font-size="24px" font-style="normal" font-weight="normal" text-decoration="none" x="600" y="60">UNREGISTERED</text><text fill="#eeeeee" stroke="none" font-family="Arial" font-size="24px" font-style="normal" font-weight="normal" text-decoration="none" x="600" y="90">UNREGISTERED</text><text fill="#eeeeee" stroke="none" font-family="Arial" font-size="24px" font-style="normal" font-weight="normal" text-decoration="none" x="600" y="120">UNREGISTERED</text><text fill="#eeeeee" stroke="none" font-family="Arial" font-size="24px" font-style="normal" font-weight="normal" text-decoration="none" x="600" y="150">UNREGISTERED</text><text fill="#eeeeee" stroke="none" font-family="Arial" font-size="24px" font-style="normal" font-weight="normal" text-decoration="none" x="600" y="180">UNREGISTERED</text><text fill="#eeeeee" stroke="none" font-family="Arial" font-size="24px" font-style="normal" font-weight="normal" text-decoration="none" x="600" y="210">UNREGISTERED</text><text fill="#eeeeee" stroke="none" font-family="Arial" font-size="24px" font-style="normal" font-weight="normal" text-decoration="none" x="600" y="240">UNREGISTERED</text><text fill="#eeeeee" stroke="none" font-family="Arial" font-size="24px" font-style="normal" font-weight="normal" text-decoration="none" x="600" y="270">UNREGISTERED</text><text fill="#eeeeee" stroke="none" font-family="Arial" font-size="24px" font-style="normal" font-weight="normal" text-decoration="none" x="600" y="300">UNREGISTERED</text><text fill="#eeeeee" stroke="none" font-family="Arial" font-size="24px" font-style="normal" font-weight="normal" text-decoration="none" x="600" y="330">UNREGISTERED</text><text fill="#eeeeee" stroke="none" font-family="Arial" font-size="24px" font-style="normal" font-weight="normal" text-decoration="none" x="600" y="360">UNREGISTERED</text><text fill="#eeeeee" stroke="none" font-family="Arial" font-size="24px" font-style="normal" font-weight="normal" text-decoration="none" x="600" y="390">UNREGISTERED</text><text fill="#eeeeee" stroke="none" font-family="Arial" font-size="24px" font-style="normal" font-weight="normal" text-decoration="none" x="600" y="420">UNREGISTERED</text><text fill="#eeeeee" stroke="none" font-family="Arial" font-size="24px" font-style="normal" font-weight="normal" text-decoration="none" x="600" y="450">UNREGISTERED</text><text fill="#eeeeee" stroke="none" font-family="Arial" font-size="24px" font-style="normal" font-weight="normal" text-decoration="none" x="600" y="480">UNREGISTERED</text><text fill="#eeeeee" stroke="none" font-family="Arial" font-size="24px" font-style="normal" font-weight="normal" text-decoration="none" x="600" y="510">UNREGISTERED</text><text fill="#eeeeee" stroke="none" font-family="Arial" font-size="24px" font-style="normal" font-weight="normal" text-decoration="none" x="600" y="540">UNREGISTERED</text><text fill="#eeeeee" stroke="none" font-family="Arial" font-size="24px" font-style="normal" font-weight="normal" text-decoration="none" x="600" y="570">UNREGISTERED</text><text fill="#eeeeee" stroke="none" font-family="Arial" font-size="24px" font-style="normal" font-weight="normal" text-decoration="none" x="600" y="600">UNREGISTERED</text><text fill="#eeeeee" stroke="none" font-family="Arial" font-size="24px" font-style="normal" font-weight="normal" text-decoration="none" x="600" y="630">UNREGISTERED</text><g transform="translate(-70,-46) scale(1,1)"><path fill="#C0C0C0" stroke="none" d="M 223 160.5 C 223 155.2532944 227.2532944 151 232.5 151 C 237.7467056 151 242 155.2532944 242 160.5 C 242 165.7467056 237.7467056 170 232.5 170 C 227.2532944 170 223 165.7467056 223 160.5 Z" opacity="0.2"/></g><g transform="translate(-70,-46) scale(1,1)"><path fill="#000000" stroke="none" d="M 216 153.5 C 216 148.2532944 220.2532944 144 225.5 144 C 230.7467056 144 235 148.2532944 235 153.5 C 235 158.7467056 230.7467056 163 225.5 163 C 220.2532944 163 216 158.7467056 216 153.5 Z"/></g><g transform="translate(-70,-46) scale(1,1)"><path fill="#C0C0C0" stroke="none" d="M 663 547.5 C 663 540.59644 668.59644 535 675.5 535 C 682.40356 535 688 540.59644 688 547.5 C 688 554.40356 682.40356 560 675.5 560 C 668.59644 560 663 554.40356 663 547.5 Z" opacity="0.2"/></g><g transform="translate(-70,-46) scale(1,1)"><path fill="none" stroke="#000000" d="M 656 540.5 C 656 533.59644 661.59644 528 668.5 528 C 675.40356 528 681 533.59644 681 540.5 C 681 547.40356 675.40356 553 668.5 553 C 661.59644 553 656 547.40356 656 540.5 Z" stroke-miterlimit="10"/></g><g transform="translate(-70,-46) scale(1,1)"><path fill="#000000" stroke="none" d="M 661 540.5 C 661 536.357864 664.357864 533 668.5 533 C 672.642136 533 676 536.357864 676 540.5 C 676 544.642136 672.642136 548 668.5 548 C 664.357864 548 661 544.642136 661 540.5 Z"/></g><g transform="translate(-70,-46) scale(1,1)"><g><path fill="none" stroke="none"/><text fill="#000070" stroke="none" font-family="Arial" font-size="18px" font-style="normal" font-weight="normal" text-decoration="none" x="181" y="79">Diagramme d'états pour (usage) exemplaire (cycle de vie)</text></g></g><g transform="translate(-70,-46) scale(1,1)"><path fill="#C0C0C0" stroke="none" d="M 281 215 L 396 215 Q 406 215 406 225 L 406 244 Q 406 254 396 254 L 281 254 Q 271 254 271 244 L 271 225 Q 271 215 281 215 Z" opacity="0.2"/></g><g transform="translate(-70,-46) scale(1,1)"><path fill="#ffffff" stroke="none" d="M 274 208 L 389 208 Q 399 208 399 218 L 399 237 Q 399 247 389 247 L 274 247 Q 264 247 264 237 L 264 218 Q 264 208 274 208 Z"/></g><g transform="translate(-70,-46) scale(1,1)"><path fill="none" stroke="#000000" d="M 274 208 L 389 208 Q 399 208 399 218 L 399 237 Q 399 247 389 247 L 274 247 Q 264 247 264 237 L 264 218 Q 264 208 274 208 Z" stroke-miterlimit="10"/></g><g transform="translate(-70,-46) scale(1,1)"><g><path fill="none" stroke="none"/><text fill="#000000" stroke="none" font-family="Arial" font-size="13px" font-style="normal" font-weight="bold" text-decoration="none" x="302.227783203125" y="227.5">disponible</text></g></g><g transform="translate(-70,-46) scale(1,1)"><path fill="#C0C0C0" stroke="none" d="M 553 287 L 601.22998046875 287 Q 611.22998046875 287 611.22998046875 297 L 611.22998046875 316 Q 611.22998046875 326 601.22998046875 326 L 553 326 Q 543 326 543 316 L 543 297 Q 543 287 553 287 Z" opacity="0.2"/></g><g transform="translate(-70,-46) scale(1,1)"><path fill="#ffffff" stroke="none" d="M 546 280 L 594.22998046875 280 Q 604.22998046875 280 604.22998046875 290 L 604.22998046875 309 Q 604.22998046875 319 594.22998046875 319 L 546 319 Q 536 319 536 309 L 536 290 Q 536 280 546 280 Z"/></g><g transform="translate(-70,-46) scale(1,1)"><path fill="none" stroke="#000000" d="M 546 280 L 594.22998046875 280 Q 604.22998046875 280 604.22998046875 290 L 604.22998046875 309 Q 604.22998046875 319 594.22998046875 319 L 546 319 Q 536 319 536 309 L 536 290 Q 536 280 546 280 Z" stroke-miterlimit="10"/></g><g transform="translate(-70,-46) scale(1,1)"><g><path fill="none" stroke="none"/><text fill="#000000" stroke="none" font-family="Arial" font-size="13px" font-style="normal" font-weight="bold" text-decoration="none" x="542.655029296875" y="299.5">emprunté</text></g></g><g transform="translate(-70,-46) scale(1,1)"><path fill="none" stroke="#000000" d="M 236 161 L 302 207" stroke-miterlimit="10"/></g><g transform="translate(-70,-46) scale(1,1)"><path fill="none" stroke="#000000" d="M 291.2555888151897 204.64253774330885 L 302 207 L 296.0695315394617 197.73557644326638" stroke-miterlimit="10"/></g><g transform="translate(-70,-46) scale(1,1)"><g><path fill="none" stroke="none"/><text fill="#000000" stroke="none" font-family="Arial" font-size="13px" font-style="normal" font-weight="normal" text-decoration="none" x="254.5" y="164.5">acheté et enregistré</text></g></g><g transform="translate(-70,-46) scale(1,1)"><path fill="#C0C0C0" stroke="none" d="M 353 343 L 392 343 Q 402 343 402 353 L 402 372 Q 402 382 392 382 L 353 382 Q 343 382 343 372 L 343 353 Q 343 343 353 343 Z" opacity="0.2"/></g><g transform="translate(-70,-46) scale(1,1)"><path fill="#ffffff" stroke="none" d="M 346 336 L 385 336 Q 395 336 395 346 L 395 365 Q 395 375 385 375 L 346 375 Q 336 375 336 365 L 336 346 Q 336 336 346 336 Z"/></g><g transform="translate(-70,-46) scale(1,1)"><path fill="none" stroke="#000000" d="M 346 336 L 385 336 Q 395 336 395 346 L 395 365 Q 395 375 385 375 L 346 375 Q 336 375 336 365 L 336 346 Q 336 336 346 336 Z" stroke-miterlimit="10"/></g><g transform="translate(-70,-46) scale(1,1)"><g><path fill="none" stroke="none"/><text fill="#000000" stroke="none" font-family="Arial" font-size="13px" font-style="normal" font-weight="bold" text-decoration="none" x="348.87548828125" y="355.5">rendu</text></g></g><g transform="translate(-70,-46) scale(1,1)"><path fill="#C0C0C0" stroke="none" d="M 505 391 L 549.630859375 391 Q 559.630859375 391 559.630859375 401 L 559.630859375 420 Q 559.630859375 430 549.630859375 430 L 505 430 Q 495 430 495 420 L 495 401 Q 495 391 505 391 Z" opacity="0.2"/></g><g transform="translate(-70,-46) scale(1,1)"><path fill="#ffffff" stroke="none" d="M 498 384 L 542.630859375 384 Q 552.630859375 384 552.630859375 394 L 552.630859375 413 Q 552.630859375 423 542.630859375 423 L 498 423 Q 488 423 488 413 L 488 394 Q 488 384 498 384 Z"/></g><g transform="translate(-70,-46) scale(1,1)"><path fill="none" stroke="#000000" d="M 498 384 L 542.630859375 384 Q 552.630859375 384 552.630859375 394 L 552.630859375 413 Q 552.630859375 423 542.630859375 423 L 498 423 Q 488 423 488 413 L 488 394 Q 488 384 498 384 Z" stroke-miterlimit="10"/></g><g transform="translate(-70,-46) scale(1,1)"><g><path fill="none" stroke="none"/><text fill="#000000" stroke="none" font-family="Arial" font-size="13px" font-style="normal" font-weight="bold" text-decoration="none" x="494.299560546875" y="403.5">en retard</text></g></g><g transform="translate(-70,-46) scale(1,1)"><path fill="#C0C0C0" stroke="none" d="M 425 527 L 464 527 Q 474 527 474 537 L 474 556 Q 474 566 464 566 L 425 566 Q 415 566 415 556 L 415 537 Q 415 527 425 527 Z" opacity="0.2"/></g><g transform="translate(-70,-46) scale(1,1)"><path fill="#ffffff" stroke="none" d="M 418 520 L 457 520 Q 467 520 467 530 L 467 549 Q 467 559 457 559 L 418 559 Q 408 559 408 549 L 408 530 Q 408 520 418 520 Z"/></g><g transform="translate(-70,-46) scale(1,1)"><path fill="none" stroke="#000000" d="M 418 520 L 457 520 Q 467 520 467 530 L 467 549 Q 467 559 457 559 L 418 559 Q 408 559 408 549 L 408 530 Q 408 520 418 520 Z" stroke-miterlimit="10"/></g><g transform="translate(-70,-46) scale(1,1)"><g><path fill="none" stroke="none"/><text fill="#000000" stroke="none" font-family="Arial" font-size="13px" font-style="normal" font-weight="bold" text-decoration="none" x="420.87548828125" y="539.5">perdu</text></g></g><g transform="translate(-70,-46) scale(1,1)"><path fill="none" stroke="#000000" d="M 468 539 L 655 540" stroke-miterlimit="10"/></g><g transform="translate(-70,-46) scale(1,1)"><path fill="none" stroke="#000000" d="M 644.8149599807535 544.1551124902157 L 655 540 L 644.8599809173099 535.7361973541589" stroke-miterlimit="10"/></g><g transform="translate(-70,-46) scale(1,1)"><g><path fill="none" stroke="none"/><text fill="#000000" stroke="none" font-family="Arial" font-size="13px" font-style="normal" font-weight="normal" text-decoration="none" x="527.5" y="532.5">after 180 jours</text></g></g><g transform="translate(-70,-46) scale(1,1)"><path fill="none" stroke="#000000" d="M 400 248 L 535 288" stroke-miterlimit="10"/></g><g transform="translate(-70,-46) scale(1,1)"><path fill="none" stroke="#000000" d="M 524.0601716583283 289.1489803543816 L 535 288 L 526.4519213945538 281.07682499462044" stroke-miterlimit="10"/></g><g transform="translate(-70,-46) scale(1,1)"><g><path fill="none" stroke="none"/><text fill="#000000" stroke="none" font-family="Arial" font-size="13px" font-style="normal" font-weight="normal" text-decoration="none" x="443.5" y="259.5">emprunté</text></g></g><g transform="translate(-70,-46) scale(1,1)"><path fill="none" stroke="#000000" d="M 535 309 L 396 347" stroke-miterlimit="10"/></g><g transform="translate(-70,-46) scale(1,1)"><path fill="none" stroke="#000000" d="M 404.69288271746115 340.25954081234335 L 396 347 L 406.9130207174793 348.3805719176729" stroke-miterlimit="10"/></g><g transform="translate(-70,-46) scale(1,1)"><g><path fill="none" stroke="none"/><text fill="#000000" stroke="none" font-family="Arial" font-size="13px" font-style="normal" font-weight="normal" text-decoration="none" x="446.5" y="348.5">restitué</text></g></g><g transform="translate(-70,-46) scale(1,1)"><path fill="none" stroke="#000000" d="M 560 320 L 530 383" stroke-miterlimit="10"/></g><g transform="translate(-70,-46) scale(1,1)"><path fill="none" stroke="#000000" d="M 530.5686678027065 372.0147090648374 L 530 383 L 538.1698825730967 375.6343351459757" stroke-miterlimit="10"/></g><g transform="translate(-70,-46) scale(1,1)"><g><path fill="none" stroke="none"/><text fill="#000000" stroke="none" font-family="Arial" font-size="13px" font-style="normal" font-weight="normal" text-decoration="none" x="550.5" y="364.5">after 21 jours [pas restitué]</text></g></g><g transform="translate(-70,-46) scale(1,1)"><path fill="none" stroke="#000000" d="M 487 393 L 396 365" stroke-miterlimit="10"/></g><g transform="translate(-70,-46) scale(1,1)"><path fill="none" stroke="#000000" d="M 406.95123090385806 363.96533015392174 L 396 365 L 404.4753116989089 372.01206757000654" stroke-miterlimit="10"/></g><g transform="translate(-70,-46) scale(1,1)"><g><path fill="none" stroke="none"/><text fill="#000000" stroke="none" font-family="Arial" font-size="13px" font-style="normal" font-weight="normal" text-decoration="none" x="414.5" y="399.5">restitué</text></g></g><g transform="translate(-70,-46) scale(1,1)"><path fill="none" stroke="#000000" d="M 507 424 L 449 519" stroke-miterlimit="10"/></g><g transform="translate(-70,-46) scale(1,1)"><path fill="none" stroke="#000000" d="M 450.7027936590527 508.1325948932282 L 449 519 L 457.88847278817724 512.519641098378" stroke-miterlimit="10"/></g><g transform="translate(-70,-46) scale(1,1)"><g><path fill="none" stroke="none"/><text fill="#000000" stroke="none" font-family="Arial" font-size="13px" font-style="normal" font-weight="normal" text-decoration="none" x="487.5" y="480.5">after 90 jours [pas restitué]</text></g></g><g transform="translate(-70,-46) scale(1,1)"><path fill="#C0C0C0" stroke="none" d="M 209 415 L 295.53173828125 415 Q 305.53173828125 415 305.53173828125 425 L 305.53173828125 444 Q 305.53173828125 454 295.53173828125 454 L 209 454 Q 199 454 199 444 L 199 425 Q 199 415 209 415 Z" opacity="0.2"/></g><g transform="translate(-70,-46) scale(1,1)"><path fill="#ffffff" stroke="none" d="M 202 408 L 288.53173828125 408 Q 298.53173828125 408 298.53173828125 418 L 298.53173828125 437 Q 298.53173828125 447 288.53173828125 447 L 202 447 Q 192 447 192 437 L 192 418 Q 192 408 202 408 Z"/></g><g transform="translate(-70,-46) scale(1,1)"><path fill="none" stroke="#000000" d="M 202 408 L 288.53173828125 408 Q 298.53173828125 408 298.53173828125 418 L 298.53173828125 437 Q 298.53173828125 447 288.53173828125 447 L 202 447 Q 192 447 192 437 L 192 418 Q 192 408 202 408 Z" stroke-miterlimit="10"/></g><g transform="translate(-70,-46) scale(1,1)"><g><path fill="none" stroke="none"/><text fill="#000000" stroke="none" font-family="Arial" font-size="13px" font-style="normal" font-weight="bold" text-decoration="none" x="200.095947265625" y="427.5">en_restauration</text></g></g><g transform="translate(-70,-46) scale(1,1)"><path fill="none" stroke="#000000" d="M 335 373 L 278 407" stroke-miterlimit="10"/></g><g transform="translate(-70,-46) scale(1,1)"><path fill="none" stroke="#000000" d="M 284.5714587854046 398.1786662328348 L 278 407 L 288.8843479953199 405.40909814357514" stroke-miterlimit="10"/></g><g transform="translate(-70,-46) scale(1,1)"><g><path fill="none" stroke="none"/><text fill="#000000" stroke="none" font-family="Arial" font-size="13px" font-style="normal" font-weight="normal" text-decoration="none" x="309.5" y="404.5"> [abimé]</text></g></g><g transform="translate(-70,-46) scale(1,1)"><path fill="none" stroke="#000000" d="M 360 335 L 337 248" stroke-miterlimit="10"/></g><g transform="translate(-70,-46) scale(1,1)"><path fill="none" stroke="#000000" d="M 343.66715167261276 256.74923359925754 L 337 248 L 335.5277457506835 258.9010305671239" stroke-miterlimit="10"/></g><g transform="translate(-70,-46) scale(1,1)"><g><path fill="none" stroke="none"/><text fill="#000000" stroke="none" font-family="Arial" font-size="13px" font-style="normal" font-weight="normal" text-decoration="none" x="359.5" y="299.5"> [bon_etat]</text></g></g><g transform="translate(-70,-46) scale(1,1)"><path fill="none" stroke="#000000" d="M 254 407 L 322 248" stroke-miterlimit="10"/></g><g transform="translate(-70,-46) scale(1,1)"><path fill="none" stroke="#000000" d="M 321.8742353039064 258.99928103292285 L 322 248 L 314.13340472400205 255.68873713711469" stroke-miterlimit="10"/></g><g transform="translate(-70,-46) scale(1,1)"><g><path fill="none" stroke="none"/><text fill="#000000" stroke="none" font-family="Arial" font-size="13px" font-style="normal" font-weight="normal" text-decoration="none" x="158.5" y="327.5">restauré et réintégré</text></g></g><g transform="translate(-70,-46) scale(1,1)"><path fill="none" stroke="#000000" d="M 281 448 L 407 522" stroke-miterlimit="10"/></g><g transform="translate(-70,-46) scale(1,1)"><path fill="none" stroke="#000000" d="M 396.1050773766008 520.4832069916616 L 407 522 L 400.3686609543441 513.2235917106393" stroke-miterlimit="10"/></g><g transform="translate(-70,-46) scale(1,1)"><g><path fill="none" stroke="none"/><text fill="#000000" stroke="none" font-family="Arial" font-size="13px" font-style="normal" font-weight="normal" text-decoration="none" x="325.5" y="478.5">irrépable</text></g></g><g transform="translate(-70,-46) scale(1,1)"><g><path fill="none" stroke="none"/><text fill="#000000" stroke="none" font-family="Arial" font-size="13px" font-style="normal" font-weight="normal" text-decoration="none" x="717" y="538">définitivement</text><text fill="#000000" stroke="none" font-family="Arial" font-size="13px" font-style="normal" font-weight="normal" text-decoration="none" x="717" y="551">supprimé</text><text fill="#000000" stroke="none" font-family="Arial" font-size="13px" font-style="normal" font-weight="normal" text-decoration="none" x="717" y="564">(delete SQL)</text></g></g><g transform="translate(-70,-46) scale(1,1)"><g><path fill="none" stroke="none"/><text fill="#000000" stroke="none" font-family="Arial" font-size="13px" font-style="normal" font-weight="normal" text-decoration="none" x="397" y="146">(insert</text><text fill="#000000" stroke="none" font-family="Arial" font-size="13px" font-style="normal" font-weight="normal" text-decoration="none" x="397" y="159">into</text><text fill="#000000" stroke="none" font-family="Arial" font-size="13px" font-style="normal" font-weight="normal" text-decoration="none" x="397" y="172">SQL)</text></g></g><g transform="translate(-70,-46) scale(1,1)"><path fill="none" stroke="#000000" d="M 373 376 L 429 519" stroke-miterlimit="10"/></g><g transform="translate(-70,-46) scale(1,1)"><path fill="none" stroke="#000000" d="M 421.37455446471245 511.0720380684338 L 429 519 L 429.21391139522876 508.00208010963024" stroke-miterlimit="10"/></g><g transform="translate(-70,-46) scale(1,1)"><g><path fill="none" stroke="none"/><text fill="#000000" stroke="none" font-family="Arial" font-size="13px" font-style="normal" font-weight="normal" text-decoration="none" x="399.5" y="447.5"> [HS]</text></g></g><g transform="translate(-70,-46) scale(1,1)"><path fill="#ffffff" stroke="none" d="M 80 584 L 573 584 L 583 594 L 583 672 L 80 672 L 80 584"/></g><g transform="translate(-70,-46) scale(1,1)"><path fill="none" stroke="#000000" d="M 80 584 L 573 584 L 583 594 L 583 672 L 80 672 L 80 584 L 80 584" stroke-miterlimit="10"/></g><g transform="translate(-70,-46) scale(1,1)"><path fill="none" stroke="#000000" d="M 573 584 L 573 594 L 583 594 L 573 584" stroke-miterlimit="10"/></g><g transform="translate(-70,-46) scale(1,1)"><g><path fill="none" stroke="none"/><text fill="#000000" stroke="none" font-family="Arial" font-size="13px" font-style="normal" font-weight="normal" text-decoration="none" x="85" y="602">Cohérence vis à vis du diagramme de classes:</text></g></g><g transform="translate(-70,-46) scale(1,1)"><g><path fill="none" stroke="none"/><text fill="#000000" stroke="none" font-family="Arial" font-size="13px" font-style="normal" font-weight="normal" text-decoration="none" x="85" y="617">- l'énumération Usages_Exemplaire pourra comporter "RENDU" , "EN_RETARD" et</text><text fill="#000000" stroke="none" font-family="Arial" font-size="13px" font-style="normal" font-weight="normal" text-decoration="none" x="85" y="630">"PERDU" en plus de "DISPONIBLE" , "EMPRUNTE" et "EN_RESTAURATION"</text></g></g><g transform="translate(-70,-46) scale(1,1)"><g><path fill="none" stroke="none"/><text fill="#000000" stroke="none" font-family="Arial" font-size="13px" font-style="normal" font-weight="normal" text-decoration="none" x="85" y="645">- la classe Exemplaire a besoin de l'attibut "dateDebut" pour déterminer l'ampleur du</text><text fill="#000000" stroke="none" font-family="Arial" font-size="13px" font-style="normal" font-weight="normal" text-decoration="none" x="85" y="658">retard (ex: after 21 jours , after 90 jours , ...)</text></g></g><g transform="translate(-70,-46) scale(1,1)"><path fill="#ffffff" stroke="none" d="M 632 408 L 731.76806640625 408 L 741.76806640625 418 L 741.76806640625 446 L 632 446 L 632 408"/></g><g transform="translate(-70,-46) scale(1,1)"><path fill="none" stroke="#000000" d="M 632 408 L 731.76806640625 408 L 741.76806640625 418 L 741.76806640625 446 L 632 446 L 632 408 L 632 408" stroke-miterlimit="10"/></g><g transform="translate(-70,-46) scale(1,1)"><path fill="none" stroke="#000000" d="M 731.76806640625 408 L 731.76806640625 418 L 741.76806640625 418 L 731.76806640625 408" stroke-miterlimit="10"/></g><g transform="translate(-70,-46) scale(1,1)"><g><path fill="none" stroke="none"/><text fill="#000000" stroke="none" font-family="Arial" font-size="13px" font-style="normal" font-weight="normal" text-decoration="none" x="637" y="426">déclencher</text><text fill="#000000" stroke="none" font-family="Arial" font-size="13px" font-style="normal" font-weight="normal" text-decoration="none" x="637" y="439">alertes/relances</text></g></g><g transform="translate(-70,-46) scale(1,1)"><path fill="none" stroke="#000000" d="M 631 419 L 554 408" stroke-miterlimit="10" stroke-dasharray="3"/></g><g transform="translate(-70,-46) scale(1,1)"><path fill="#ffffff" stroke="none" d="M 120 504 L 194.49169921875 504 L 204.49169921875 514 L 204.49169921875 542 L 120 542 L 120 504"/></g><g transform="translate(-70,-46) scale(1,1)"><path fill="none" stroke="#000000" d="M 120 504 L 194.49169921875 504 L 204.49169921875 514 L 204.49169921875 542 L 120 542 L 120 504 L 120 504" stroke-miterlimit="10"/></g><g transform="translate(-70,-46) scale(1,1)"><path fill="none" stroke="#000000" d="M 194.49169921875 504 L 194.49169921875 514 L 204.49169921875 514 L 194.49169921875 504" stroke-miterlimit="10"/></g><g transform="translate(-70,-46) scale(1,1)"><g><path fill="none" stroke="none"/><text fill="#000000" stroke="none" font-family="Arial" font-size="13px" font-style="normal" font-weight="normal" text-decoration="none" x="125" y="522">contentieux</text><text fill="#000000" stroke="none" font-family="Arial" font-size="13px" font-style="normal" font-weight="normal" text-decoration="none" x="125" y="535">à gérer</text></g></g><g transform="translate(-70,-46) scale(1,1)"><path fill="none" stroke="#000000" d="M 206 526 L 407 537" stroke-miterlimit="10" stroke-dasharray="3"/></g></g></svg>